<mxfile host="app.diagrams.net" modified="2024-07-18T13:33:20.738Z" agent="Mozilla/5.0 (Windows NT 10.0; Win64; x64) AppleWebKit/537.36 (KHTML, like Gecko) Chrome/126.0.0.0 Safari/537.36" etag="CgQqhjR47jXttH5WYKUo" version="24.7.1" type="device">
  <diagram name="Trang-1" id="2o5LmiI8CptTOXZ_L6zU">
    <mxGraphModel dx="794" dy="420" grid="1" gridSize="10" guides="1" tooltips="1" connect="1" arrows="1" fold="1" page="1" pageScale="1" pageWidth="827" pageHeight="1169" math="0" shadow="0">
      <root>
        <mxCell id="0" />
        <mxCell id="1" parent="0" />
        <mxCell id="ML5AinWXIUOGosy08yNC-6" value="" style="edgeStyle=orthogonalEdgeStyle;rounded=0;orthogonalLoop=1;jettySize=auto;html=1;" edge="1" parent="1" source="V7jzu54YT6VPU3nDm642-2" target="V7jzu54YT6VPU3nDm642-7">
          <mxGeometry relative="1" as="geometry" />
        </mxCell>
        <mxCell id="V7jzu54YT6VPU3nDm642-2" value="Mysql" style="strokeWidth=2;html=1;shape=mxgraph.flowchart.database;whiteSpace=wrap;" parent="1" vertex="1">
          <mxGeometry x="480" y="480" width="80" height="70" as="geometry" />
        </mxCell>
        <mxCell id="V7jzu54YT6VPU3nDm642-17" style="edgeStyle=orthogonalEdgeStyle;rounded=0;orthogonalLoop=1;jettySize=auto;html=1;entryX=0.5;entryY=0;entryDx=0;entryDy=0;startArrow=classic;startFill=1;" parent="1" source="V7jzu54YT6VPU3nDm642-4" target="V7jzu54YT6VPU3nDm642-9" edge="1">
          <mxGeometry relative="1" as="geometry" />
        </mxCell>
        <mxCell id="V7jzu54YT6VPU3nDm642-4" value="Crawler" style="rounded=1;whiteSpace=wrap;html=1;absoluteArcSize=1;arcSize=14;strokeWidth=2;" parent="1" vertex="1">
          <mxGeometry x="206" y="170" width="74" height="70" as="geometry" />
        </mxCell>
        <mxCell id="ML5AinWXIUOGosy08yNC-1" value="" style="edgeStyle=orthogonalEdgeStyle;rounded=0;orthogonalLoop=1;jettySize=auto;html=1;" edge="1" parent="1" source="V7jzu54YT6VPU3nDm642-5" target="V7jzu54YT6VPU3nDm642-2">
          <mxGeometry relative="1" as="geometry" />
        </mxCell>
        <mxCell id="V7jzu54YT6VPU3nDm642-5" value="Data Transformation" style="rounded=1;whiteSpace=wrap;html=1;absoluteArcSize=1;arcSize=14;strokeWidth=2;" parent="1" vertex="1">
          <mxGeometry x="203" y="480" width="81" height="70" as="geometry" />
        </mxCell>
        <mxCell id="ML5AinWXIUOGosy08yNC-10" value="" style="edgeStyle=orthogonalEdgeStyle;rounded=0;orthogonalLoop=1;jettySize=auto;html=1;endArrow=classic;endFill=1;startArrow=classic;startFill=1;" edge="1" parent="1" source="V7jzu54YT6VPU3nDm642-7" target="V7jzu54YT6VPU3nDm642-13">
          <mxGeometry relative="1" as="geometry" />
        </mxCell>
        <mxCell id="V7jzu54YT6VPU3nDm642-7" value="" style="rounded=1;whiteSpace=wrap;html=1;absoluteArcSize=1;arcSize=14;strokeWidth=2;" parent="1" vertex="1">
          <mxGeometry x="382" y="230" width="276" height="190" as="geometry" />
        </mxCell>
        <mxCell id="V7jzu54YT6VPU3nDm642-24" style="edgeStyle=orthogonalEdgeStyle;rounded=0;orthogonalLoop=1;jettySize=auto;html=1;entryX=0.5;entryY=0;entryDx=0;entryDy=0;" parent="1" source="V7jzu54YT6VPU3nDm642-9" target="V7jzu54YT6VPU3nDm642-22" edge="1">
          <mxGeometry relative="1" as="geometry" />
        </mxCell>
        <mxCell id="V7jzu54YT6VPU3nDm642-9" value="Raw data" style="shape=parallelogram;html=1;strokeWidth=2;perimeter=parallelogramPerimeter;whiteSpace=wrap;rounded=1;arcSize=12;size=0.23;" parent="1" vertex="1">
          <mxGeometry x="200" y="290" width="86" height="50" as="geometry" />
        </mxCell>
        <mxCell id="V7jzu54YT6VPU3nDm642-13" value="" style="shape=image;imageAspect=0;aspect=fixed;verticalLabelPosition=bottom;verticalAlign=top;image=data:image/png,iVBORw0KGgoAAAANSUhEUgAAA9QAAAJiCAYAAAAmMIpYAAAABGdBTUEAALGPC/xhBQAAAAFzUkdCAK7OHOkAAAAgY0hSTQAAeiYAAICEAAD6AAAAgOgAAHUwAADqYAAAOpgAABdwnLpRPAAAAAZiS0dEAP8A/wD/oL2nkwAAAAlwSFlzAAAASAAAAEgARslrPgAAgABJREFUeNrs3Xd4FeW2P/A1O71AQg8daaH33nsT6cVCtQAWECwHRDyIXhRUEFCOAoI0RTpI7x1C773XEAIkpGcn2ev+oSBIS9l71jsz38/zfJ/f7957Dlnz7tmzZ837zozGzARgFikpKXz16lU6f/48Xb9+ne7cuUO3b99+kDt37lBMTMyD/3xkZCTd/w54eHiQv78/+fr6kpeXFwUGBpKvry8FBQVR7ty5KVeuXJQ3b17KmTMnFSxYkHx8fDTp7QUA42BmDg0NpYiICIqMjHzi/xsbG/vMf8Pd3Z0yZcpEgYGB5OfnR/7+/uTv709ZsmShrFmzUt68eSlXrlw4NgFAmiUkJPDVq1fp6tWrdPPmzQfnUHfu3KHIyEiy2+0UFRVFycnJFBkZSUREmqZRYGAgERF5eXmRr68vBQQEkL+/P2XPnp1y5sxJOXLkoKCgICpYsCAFBQWRpmk4RoGpaGiowYiSkpL4+PHjtG/fPjp8+DCdP3+ezp8/T5cuXSK73e7yv2+z2ahAgQIUHBxMJUqUoBIlSlBwcDBVqlSJAgIC8EMBYFG3bt3iM2fO0MWLF+ny5ct06dIlunz5Ml2+fJmuXLlCiYmJLq/By8uL8ubNS3nz5qUCBQpQnjx5qGDBglSyZEkqXbo0Gm4AC2NmPnfuHB07doxOnz5Np06dopMnT9Lly5cpLCzM5X/fy8uLChQoQEWKFKFSpUpRiRIlqFSpUlSuXDnKlCkTjk1gSGioQXkpKSl8/Phx2r9/P+3bt4/2799Phw8fpoSEBOnSHmOz2Sg4OJiqVav2IOXLlycPDw/8SACYiMPh4HPnztGhQ4ce5PDhw3Tjxg3p0p4rW7ZsVKZMGSpVqtSD/7dy5co4mQUwoevXr/O2bdsenD8dOHCAoqKipMt6zP3zp8qVK1OVKlWoTp06VKFCBXJzc8NxCZSHhhqUdOfOHd64cSOtX7+eli1bRqGhodIlpZuvry/VqlWLmjRpQk2aNKFKlSphuROAwURFRfH27dtp69attG3bNjp8+PBzl2cbiZubG5UtW5Zq165NNWvWpNq1a1OhQoVwnAIwmJs3b/Lq1atpy5YttHXrVrpw4YJ0SemWOXNmql27NtWvX59atGhB5cqVw/kTKAkNNSiBmXnfvn20atUqWrlyJe3du5ccDod0WS5RoEABat68ObVv356aNGmC2WsABd29e5e3b99OW7ZsoS1bttChQ4coJSVFuixd5cmTh2rVqkWNGzemli1bUsGCBXGsAlCMw+Hgffv20YoVK2jlypW0f/9+Muu5fZ48eahly5b00ksvUfPmzcnb2xvHJFACGmoQde3aNf7tt99oypQpdP78eelydJclSxZq3bo1de7cmVq0aIHmGkDQ2bNnedGiRbRo0SLat2+faS/qpVeZMmWoVatW1LJlS6pTpw65u7vjeAUgwOFw8ObNm+m3336j5cuX061bt6RL0l2mTJmodevW1KlTJ3rxxRfJy8sLxyMQg4YadBcbG8sLFiyg6dOn05YtW0x7JTWtsmXLRq+++ir17duXSpcujR8GAB0cOnSIFy1aRIsXL6Zjx45Jl2MYAQEB1LRpU+rYsSO1bdsWbz0A0MGpU6f4jz/+oFmzZhl6KbezBQYGUpcuXah79+5Up04dHItAd2ioQTdHjx7l77//nubPn//Iq6vgcXXr1qW+fftSx44dsaQJwMnOnj3LU6dOpfnz5+Ok1AkyZcpE7du3p9dee40aN26MhwgBOFFCQgLPnDmTpkyZQvv27ZMuR3lly5ald999l7p160Z+fn44FoEu0FCDy+3YsYNHjRpFK1aswGx0GmXLlo369OlDAwcOpJw5c+KHASCdEhMTedGiRTRlyhTavHkzjkUuEhQURC+//DJ169aNKleujGMWQDrdunWL//e//9H//vc/Cg8Ply7HcAICAqh37970/vvv4wGL4HJoqMFltm/fzqNHj6bly5dLl2J4Xl5e1KVLF/rvf/9LRYsWxQ8DQCqdPn2af/31V5o2bRpOSnVWqVIl6tu3L3Xv3h1LwgFS6fTp0zxmzBiaNWuWkq8HNRp3d3d65ZVXaPDgwbidDlwGDTU43eLFi3nEiBF0+PBh6VJMx8PDg1577TX69NNP0VgDPMPatWv566+/ps2bN0uXYnk5c+akPn36UL9+/Shv3rw4bgE8QWhoKH/++ec0bdo0Sk5Oli7HdDRNo/bt29MXX3yBxhqcDg01OM3Jkyf5gw8+oNWrV0uXYnoeHh7Uu3dv+vLLL7EUHOBvDoeDly5dSl999RXuNVSQh4cHdejQgQYNGkTVq1fHcQuA/npQ648//kgjR46k6Oho6XJMz2azUceOHemrr77CxAQ4DRpqyLA7d+7wF198QRMnTrTce1ql+fv704cffkhDhgzBw8vAshwOB69YsYI+//xzOnDggHQ5kApNmjShkSNHUrVq1XDcAktiZp4yZQp99tlnlnztlTRPT08aNGgQffrpp5QpUyYchyBD0FBDutntdv7hhx/oyy+/pHv37kmXY2mFChWiH374gVq3bo0fBbAMZubffvuNPv/8c0u+x94MXnzxRfr888+pSpUqOHaBZZw9e5bfeust2rJli3Qplpc7d24aNWoUde/enTRNw3EI0gUNNaTLgQMHuEePHnT8+HHpUuAhXbt2pfHjx1OuXLnwowCmtmPHDh40aBDt3btXuhTIIE3TqHXr1jRixAiqWLEijl1gWsnJyTxx4kT69NNPKTY2VroceEidOnVoypQpVKJECRyDIM1s0gWAsTgcDh4/fjzXrFkTzbSC5s6dSyVKlKDJkycz42oZmNC1a9e4R48eXLduXTTTJsHMtGzZMqpcuTL16NGDw8LCcOwC0zl+/DhXr16dBg4ciGZaQdu3b6eKFSvS119/zUlJSTgGQZpghhpS7fz589yjRw/auXOndCmQCs2bN6cZM2ZgthpMITY2lr/99lsaPXo0XiVjcoGBgTRkyBAaNGgQeXp64vgFhjd79mzu168fGmmDqFq1Ks2aNYuCg4Nx/IFUQUMNqTJz5kx+9913KSYmRroUSIMcOXLQzJkzqUWLFvhRAMNasWIF9+nTh27cuCFdCuiodOnSNGHCBGrUqBGOX2BICQkJPHjwYJowYYJ0KZBGPj4+9PXXX9OAAQNwbzU8FxpqeKbo6Gju3bs3LVy4ULoUSCebzUZDhw6l4cOHk7u7O34UwDAiIiJ44MCBNHPmTOlSQFCXLl3ohx9+wCsCwVDOnj3LXbp0oUOHDkmXAhnQtm1bmj59OgUGBuL4A0+Fhhqe6tSpU9yhQwc6efKkdCngBHXr1qUFCxbgpBQMYdWqVdynTx+6du2adCmggBw5ctCkSZOoffv2OH6B8jZu3MgdOnTAG1BMonjx4rRw4UIqU6YMjj/wRHgoGTzRqlWruFq1amimTWTbtm1Uo0YNOnHiBK6igbLu3bvHffv25VatWqGZhgfCw8OpQ4cO1KVLF7579y6OYaCsWbNmccuWLdFMm8iZM2eoevXqNH/+fBx74InQUMNjfvnlF27bti1FR0dLlwJOdvHiRapRowatXLkSPwqgnF27dnGZMmVo8uTJ0qWAoubPn08VK1akDRs24BgGyhk/fjz37NmT7Ha7dCngZHFxcdS1a1f6/PPP8RYVeAwaaniAmXnw4MH81ltvUVJSknQ54CLR0dHUrl07mjJlCn4QQBkTJkzg+vXrY1YanuvKlSvUtGlT+uijjzg5ORnHMRCXnJzMb731Fg8cOJDQa5kXM9OIESOoV69eZLfb8UHDA7iHGoiIKCUlhd9++22aMmWKdCmgoy+//JKGDRuGe4JATExMDL/11lv0xx9/SJcCBlS3bl2aP38+Xg8IYpKSkrhr1660ePFi6VJAR40bN6YlS5aQv78/jj2Ahhr++jHo0aMHTmgtauTIkTR06FD8IIDuTp8+zZ06daJjx45JlwIGli9fPlqwYAFVr14dxzHQFZppa6tWrRqtXLmSsmXLhmOPxWHJt8WlpKSgmba4Tz/9lIYMGYIra6CrhQsXcpUqVdBMQ4Zdu3aNGjRoQNOnT8dxDHRjt9u5S5cuaKYtbM+ePdS0aVPCgxIBDbWFORwO7tWrF5ppoNGjR9OIESPwgwC6+OGHH7hLly4UExMjXQqYREJCAvXu3ZsGDBjAKSkpOJaBS9ntdu7atSstWbJEuhQQdvDgQWrcuDGaaovDkm+LYmbu27cv7pmGR0ycOJHeeecdLF0Cl2BmHjFiBI0YMUK6FDCxdu3a0Zw5c8jb2xvHMnC6lJQU7tSpE5ppeES1atVo7dq1FBAQgOOOBaGhtqhhw4bxyJEjpcsAxdhsNpo7dy516tQJPwjgVMnJydyvXz+aOnWqdClgAQ0bNqSlS5dSpkyZcCwDp+rfvz//+OOP0mWAgurXr09r1qwhLy8vHHcsBg21Bf3888/89ttvS5cBivL29qa1a9dS3bp18YMAThEbG8udO3emVatWSZcCFlK1alVauXIlZc+eHccycIqRI0fysGHDpMsAhXXt2pV+//13stlsOO5YCBpqi5k/fz6//PLL5HA4pEsBhWXJkoV27NhBJUuWxA8CZEhERAQ3a9aM9u3bJ10KWFDp0qVpzZo1lDdvXhzLIENmzpzJvXr1wnum4bk+/PBD+u6773DMsRA01Bayf/9+rlevHsXFxUmXAgZQrFgx2rNnDwUGBuJHAdLl3r173LRpU9q7d690KWBhRYoUoW3btlHu3LlxLIN02blzJzds2JDsdrt0KWAQ06dPp549e+KYYxFoqC0iNDSUq1atStevX5cuBQykefPmtGLFCnJzc8OPAqRJXFwct2zZkrZu3SpdCgCVKVOGtm7dSlmyZMGxDNIkLCyMK1eujPMnSBNvb2/avHkzVa9eHcccC8BrsywgISGB27Vrhx8DSLM1a9bQl19+KV0GGExcXBy3bt0azTQo49ixY9SqVSuKjY3FLAKkWlJSEnfu3BnnT5BmCQkJ1LFjRwoPD8cxxwLQUFvAm2++SXv27JEuAwzqyy+/pGXLluEHAVLFbrdzp06daNOmTdKlADwiJCSEXn75ZUpKSsLxDFLlo48+om3btkmXAQZ1/fp1+vu+exxzTA5Lvk1uypQp3KdPH+kywOACAwPpyJEjlD9/fixdgqdKTk7mtm3b0sqVK6VLAXiq7t2704wZM0jTNBzP4KlWr17NrVq1wkPIIMPGjh1LgwYNwvHGxNBQm9jx48e5WrVqeAgZOEXTpk1pzZo1OAmFp3r77bf5559/li4D4LmGDh1KI0eOxLEMnujWrVtctmxZunXrlnQpYAKenp60e/duqlChAo45JoUl3yZ1/72vaKbBWdatW0cTJ06ULgMUNX78eDTTYBhff/01LViwADMK8ERvvvkmmmlwGrvdTr169cLtJiaGhtqkBg8eTCdPnpQuA0zm448/pmPHjuEHAR6xZs0a/uijj6TLAEg1ZqbevXvTiRMncDyDR/zyyy+8bNky6TLAZA4fPkyjR4+WLgNcBEu+TWjr1q3csGFDcjgc0qWACdWoUYN27NhBNpsNS5eATp48ybVq1aLIyEjpUgDSLDg4mHbv3k0BAQE4ngHdvHmTS5YsieMZuISnpycdOnSISpYsieONyWCG2mTi4uL4zTffRDMNLhMSEkLTpk2TLgMUcOfOHX7ppZdw8gmGdfr0aerZsyeewgtE9NdTvXE8A1ex2+3Uv39/6TLABdBQm8x///tfOnv2rHQZYHJDhgyh27dv4wTUwlJSUrhTp050/vx56VIAMmTp0qX0zTffSJcBwrZu3cq///67dBlgchs2bKBFixbh/MlksOTbRE6dOsXlypWjpKQk6VLAAt58802aMmUKli1Z1Jdffsn//e9/pcsAcAp3d3fasWMHVatWDcc0C7Lb7VyhQgU8ewZ0UbBgQTp16hR5e3vjeGMSmKE2kUGDBqGZBt1MmzaNQkJCcEXOgvbs2cNffvmldBkATpOcnEw9e/ak+Ph4HNMsaNKkSWimQTeXL1+m//3vf9JlgBNhhtokli1bxm3atJEuAyymbt26tHXrVlxhtZDIyEiuWLEiXbp0SboUAKcbNGgQjR07Fsc0C4mJieFixYrRzZs3pUsBC8mePTudP3+eMmfOjOONCWCG2gRSUlJ48ODB0mWABW3bto3WrVuHq3IW8s4776CZBtMaP348bd68Gcc0C/n+++/RTIPubt++TePGjZMuA5wEM9Qm8Pvvv/Nrr70mXQZYVJUqVWjPnj2kaRqusprc5MmTuW/fvtJlALhUoUKF6MiRI5QpUyYc00zu9u3bXKRIEYqKipIuBSwoS5YsdOXKFfL398exxuAwQ21wDoeDv/76a+kywML27dtHf/75p3QZ4GKXL1/mDz74QLoMAJe7dOkSffjhh9JlgA6+//57NNMgJiIigqZPny5dBjgBZqgNbs6cOfzqq69KlwEWV6FCBTp48CCusJpY27ZtGRdOwEo2bdpEDRo0wHHNpGJjY7lgwYJ0584d6VLAwl544QU6e/Ysubm54VhjYJihNrgxY8ZIlwBAhw4dok2bNuHqnEktXLgQzTRYznvvvUfJyck4rpnUL7/8gmYaxF28eBGr/EwADbWBbdu2jffv3y9dBgARER6uYVLR0dE8cOBA6TIAdHf8+HH66aefpMsAF0hJSeEJEyZIlwFARERjx46VLgEyCA21gf3444/SJQA8sGzZMjp9+jRmc0xm2LBhdO3aNekyAEQMGzaMbt68ieOaySxcuJAuXLggXQYAERFt376d9uzZg+OMgaGhNqgbN27w4sWLpcsAeICZaeLEidJlgBPt37+f8ZmClUVFRdGwYcOkywAnmzJlinQJAI/ALLWx4aFkBvX111/z0KFDpcsAeESmTJkoNDSU/Pz88HANg2NmrlGjBu3Zs0e6FABRNpuNdu3aRdWqVcNxzQQuXbrERYoUIYfDIV0KwAPu7u506dIlyps3L44zBoQZaoP6/fffpUsAeEx0dDQtWbJEugxwgkWLFqGZBiAih8NBAwYMIMYMhClMmzYNzTQoJzk5mWbOnCldBqQTZqgN6PDhw1yhQgXpMgCeqHnz5rR69WpcYTWwlJQULlu2LJ08eVK6FABlLFmyhNq2bYtjm4E5HA5+4YUX6MqVK9KlADymcOHCdO7cOdI0DccZg8EMtQFhdhpUtm7dOrp27Rqu1BnYtGnT0EwD/MuwYcPI4XDg2GZgmzZtQjMNyrpw4QJt3bpVugxIBzTUBjR//nzpEgCeyuFw0Jw5c6TLgHRKSEjgL7/8UroMAOUcO3aMFixYIF0GZMDChQulSwB4ptmzZ0uXAOmAhtpgjh8/zhcvXpQuA+CZsIrCuH744Qe6evWqdBkASvrss88oOTkZs9QG5HA4GM/4ANUtXLiQ7HY7jjEGg4baYJYvXy5dAsBzHTp0iC5duoQfBIO5d+8ejx49WroMAGWdOXMGFwwNaufOnRQaGipdBsAzRURE0Nq1a6XLgDRCQ20wK1askC4BIFVWrlwpXQKk0c8//0x37tyRLgNAacOHD8cMkgEtXrxYugSAVJk7d650CZBGaKgNJCIignft2iVdBkCqYDWFsSQlJfHEiROlywBQ3qVLlzBLbUDLli2TLgEgVVauXIlbSwwGDbWBbN++nZKTk6XLAEiVjRs3UnR0NH4QDGL+/Pm4dxoglcaMGYP3UhvI5cuX+ezZs9JlAKTK3bt3aceOHdJlQBqgoTaQ7du3S5cAkGqJiYm0YcMG6TIglcaPHy9dAoBhHDt2jDZt2iRdBqQS7kkFo8EtnsaChtpA8G46MJqNGzdKlwCpsG3bNt6zZ490GQCG8v3330uXAKmEi7tgNGiojUXDiiVjiI+P58DAQLLb7dKlAKRahQoV6ODBg5p0HfBsHTp0YDywByBtNE2j48ePU8mSJXGMU5jD4eCgoCAKDw+XLgUg1TRNoxs3blBQUBCOLwaAGWqD2Lt3L5ppMJwjR47QvXv3cNVOYRcuXOA///xTugwAw2Fm+uGHH6TLgOc4evQommkwHGbGbSUGgobaIPbv3y9dAkCaORwO2rlzp3QZ8AzTp0+nlJQU6TIADGnGjBl0584dXDRUWEhIiHQJAOmyefNm6RIgldBQG8ShQ4ekSwBIl23btkmXAE/BzPzbb79JlwFgWHFxcTR9+nTpMuAZ8HwIMKotW7ZIlwCphIbaINBQg1Hh6fTq2r59O124cEG6DABD+/XXX6VLgGfADDUY1ZkzZygiIgIrYAwADbUBJCYm8smTJ6XLAEiXgwcPksPhwA+CgmbNmiVdAoDhHT9+nA4ePIhjnIKioqL41KlT0mUApAsz0969e6XLgFRAQ20Ax48fp6SkJOkyANIlJiYGs6AKSkhI4Pnz50uXAWAKM2bMkC4BnmDv3r3kcDikywBIt927d0uXAKmAhtoAcHUVjO7w4cPSJcC/LFu2jCIjI6XLADCF2bNnk91uxyy1Yo4cOSJdAkCG4KHExoCG2gDOnDkjXQJAhqChVs/s2bOlSwAwjTt37tDKlSuly4B/OXbsmHQJABly9OhR6RIgFdBQG8DZs2elSwDIEDTUaomNjeW1a9dKlwFgKjNnzpQuAf4FDTUY3aVLlygmJgarXxSHhtoAMEMNRoeGWi0bN26khIQE6TIATGXFihUUGRmJE19FMDMe6AqG53A46MSJE9JlwHOgoTYAzFCD0V25coXi4+NxoqkILE0FcD673U6rVq2SLgP+dvnyZYqOjpYuAyDDjh8/Ll0CPAcaasXdvn2b7927J10GQIYwM126dEm6DPjb6tWrpUsAMKVly5ZJlwB/w6wemMXly5elS4DnQEOtuKtXr0qXAOAU58+fly4BiOj48eOMixsArrFy5Uo87VsR+M0Bs7hy5Yp0CfAcaKgVhy8RmAVObtSA5d4ArnPv3j3atm2bdBlARBcvXpQuAcAp0AuoDw214jBDDWZx4cIF6RKACPd4ArgYln2rAQ01mAWWfKsPDbXi0FCDWWCGWl5cXBzv2LFDugwAU0NDrQY01GAWV69eJWbGrSQKQ0OtODTUYBa4b1fenj17yG63S5cBYGoXLlygkydP4uRXGH5zwCwSExMpLCxMugx4BjTUirt586Z0CQBOERoaKl2C5W3fvl26BABLwEoQWREREXhDCpgKln2rDQ214m7duiVdAoBTREREUGJiImZtBOEkH0Afu3btki7B0m7cuCFdAoBT4cFkakNDrTg01GAWzIwlS4IcDgfv3r1bugwASwgJCZEuwdLwWwNmc/36dekS4BnQUCssJSWF7969K10GgNPgFgY5x48fp4iICOkyACzh5MmTFBERgRU5QjBDDWaDWxjUhoZaYXfu3KGUlBTpMgCcBg21nJ07d0qXAGAZzEx79+6VLsOy8FsDZoOGWm1oqBWG5d5gNngwmRw8kAxAX4cPH5YuwbKw5BvMJjIyUroEeAY01ArDlwfM5vbt29IlWBYekgSgr2PHjkmXYFmYoQazwQy12tBQKywqKkq6BACnwj4tIyoqii9cuCBdBoCloKGWg4u3YDZoqNWGhlph0dHR0iUAOBUaahlHjhwhZjwfCUBPJ06coJSUFHzxBGCFH5gNGmq1oaFWGBpqMBv8IMg4cuSIdAkAlpOQkEDnz5+XLsOS8FsDZoOLRGpDQ60wNNRgNpihlnH06FHpEgAs6fjx49IlWBKaDzAbXCRSGxpqhaH5ALPBD4IMPG0YQMa5c+ekS7AkNNRgNjh/UhsaaoVhhhrMBj8I+mNmxiwZgAw8DFB/drud4+PjpcsAcCq73U5JSUl4JoOi0FArLCYmRroEAKfCRSL9nT9/HqtdAITgHmr94cItmFVycrJ0CfAUaKgVhpNgMJvExETpEiwHDyQDkIOGWn+xsbHSJQC4hMPhkC4BngINtcIwmwdmg4ZafydOnJAuAcCyrly5gmWaOsNybzArzFCrCw21wtBQg9nY7XbpEiwHM2QAcpKTk+nKlSvSZVgKGmowq5SUFOkS4CnQUCsMDTWYDWao9YenDAPIQkOtLzTUYFaYoVYXGmqF4R5qMJukpCRyOBxY/qgjzFADyLp+/bp0CZaChhrMCjPU6kJDrTA85RvMCMu+9RMXF8c3b96ULgPA0tBQ6wsNNZgVZqjVhYZaYXFxcdIlADgdGmr9nDt3jpixIABAEhpqfaGhBrPCDLW60FArDI0HmFFSUpJ0CZaB5d4A8tBQ6wvnTmBWmKFWFxpqheEBTmBGNhsOO3pBQw0gDw21vvCuXjArzFCrC2e2irLb7YylmmBGmqZJl2AZaKgB5N24cUO6BEtBQw1mhYZaXWioFYUlSwCQUZcuXZIuAcDybt26JV2CpaDpALPy9PSULgGeAg21orDcG8wKM9T6wcwYgLzExESKjo7GkjOdoKEGs/Lw8JAuAZ4CDbWi0FCDWaGh1k9oaKh0CQBAROHh4dIlWAYaajArNNTqQkOtKCz5BrNCQ62PpKQkvnPnjnQZAEBEt2/fli7BMnAPNZiVu7u7dAnwFGioFYUZagDIiLCwMJxYAigCDbV+cNwDs0JDrS401IrCDDWYFWao9YHl3gDqwJJv/eA3BswKDyVTFxpqRWGGGszKy8tLugRLQEMNoA7MUOvHzc1NugQAl8A91OpCQ62opKQk6RIAnE7TNPLw8MD0gQ7QUAOoIyIiQroEy0BDDWaFhlpdaKgBQDeYndYPGmoAddy7d0+6BMtAQw1mZLPZyGazYUJCUWioFYV7gMCMcP+PfsLCwqRLAIC/oaHWj82GU1swH8xOqw1HHUWhoQYzwgy1frDEFEAdaKj1gxlqMCM01GpDQ60oNNRgRpih1k9kZKR0CQDwNzTU+sGrhcCM0FCrDQ21otBQgxlhhlo/aKgB1IGGWj8+Pj7SJQA4Hc6f1IaGWlFoqMGM8IOgHzTUAOpAQ60fNNRgRn5+ftIlwDOgoVYUGmowI29vb+kSLAMn8ADqiIqKki7BMtBQgxmhoVYbGmpFoaEGM8qUKZN0CZaBh5IBqCMuLk66BMtAQw1mhIZabWioFYWGGswIDbU+4uPjOTExUboMAPhbQkICORwOlq7DCnx9faVLAHA67NdqQ0OtKDTUYEb+/v7SJVgC7p8GUAszU0JCgnQZloAZajAjzFCrDQ21ovDwJjCjzJkzS5dgCbh/GkA9sbGx0iVYAi7cghlhhlptaKgVhStRYEY40dEHTtwB1BMfHy9dgiUEBgZKlwDgdOgL1IaGWlG4EgVmhHuo9YH7pwHUg4ZaH15eXhreKAFmg4ZabWioFYUvDpgRZqj1gYYaQD140rd+AgICpEsAcCr0BWpDQ60ob29vstnw8YC5YIZaH2ioAdSDGWr9YNk3mA1WrqoNHZuiNE3T8KRKMBs01PpAQw2gnqSkJOkSLAMNNZgNZqjVhoZaYfjygNlgybc+0FADqAcNtX7QUIPZ4C0pakNDrTAs7wCzwQy1PtBQA6gnOTlZugTLyJEjh3QJAE6VPXt26RLgGdBQKwwz1GA2aKj1gYYaQD2YodZPrly5pEsAcKps2bJJlwDPgIZaYVjeAWaDJd/6SEhIkC4BAP4FDbV+cubMKV0CgFOhoVYbGmqF4QcBzAYz1PrAiTuAeux2u3QJloEZajAbNNRqQ0OtMPwggNngB0EfzCxdAgD8C+6h1g/On8BMNE2jLFmySJcBz4CGWmGYoQYz8fPzIx8fH026DivAO+wB1IOGWj84fwIzyZw5M3l4eOD8SWE461IYrrCCmeAJlfrRNPzuAqjGzc1NugTLyJs3r3QJAE6D1X3qQ0OtMFxhBTNBQ60fNNQA6sHKEf3kzJmTvL29pcsAcAo01OrD0V1hmKEGM0FDrR801ADqwQy1fjRN0/LlyyddBoBToKFWHxpqhWGGGswEPwj6wUwYgHrwvdRXgQIFpEsAcAqcP6kPR3eFYYYazCRPnjzSJVgGZqgB1IMZan2hoQazwGoL9aGhVliWLFnIz89PugwAp8idO7d0CZaBhhpAPZih1hcaajAL7Mvqw9FdYZqmaUWKFJEuA8ApcIVVPzhxB1APZqj1VahQIekSAJwCDbX6cNaluGLFikmXAOAUeI2Jftzd3aVLAIB/wcoRfeH8CcyiYMGC0iXAc6ChVlzRokWlSwBwCtxDrR8fHx/pEgDgXzBDrS801GAWmKFWHxpqxeEHAczAZrOhodaRr6+vdAkA8C9oqPWVK1cuLTAwULoMgAwJDAykgIAALG9RHBpqxWGGGswgf/785OXlhR8EnWCGGkA9eLaB/nAOBUaH2WljwNFdcfgxADPAw/X0hRlqAPVghlp/xYsXly4BIENw/7QxoKFWXJ48efDqLDA8XBjSFxpqAPVghlp/JUuWlC4BIEMwQ20MOLorTtM0DVdYwegwQ60vLPkGUA9mqPVXtmxZ6RIAMgQTEsaAhtoAKleuLF0CQIbgopC+MEMNoB7MUOuvXLly0iUAZAguChkDju4GUKVKFekSADKkfPny0iVYChpqAPV4enpKl2A5hQoVosyZM0uXAZBuZcqUkS4BUgENtQGgoQYj8/f3p0KFCkmXYSloqAHUg++l/jRN09CQgFFlz56dcuXKhTekGAAaagMoW7YseXl5SZcBkC5ly5YlTdPwg6AjPz8/cnd3ly4DAB6ChloGlsyCUeGWBeNAQ20Anp6eGr5UYFSYHdCfpmlaYGCgdBkA8BA01DLwHBowKlwMMg401AaBZd9gVNWrV5cuwZKyZMkiXQIAPAQNtQz8BoFRYULCONBQGwSusIJR1axZU7oES8qaNat0CQDwELzOTkbp0qXJ399fugyANMMMtXGgoTYIXGEFIwoICKASJUpIl2FJaKgB1OHl5UXu7u54loQANzc3rVKlStJlAKSJzWaj0qVLS5cBqYSG2iBKly5NQUFB0mUApEn16tXJZrPhJFIAlnwDqAOz07IwKQFGU65cOfL398f5k0GgoTYITdO0hg0bSpcBkCb16tWTLsGyMEMNoI6AgADpEiytRo0a0iUApAnOn4wFDbWBNG7cWLoEgDRp0qSJdAmWhYYaQB1oqGXVrVuX8PZGMBI01MaChtpA0JyAkQQGBuLp9IKw5BtAHXiNnawcOXJopUqVki4DIFU0TaO6detKlwFpgIbaQAoWLKgVLVpUugyAVGnYsCG5ublhSkBItmzZpEsAgL9lzpxZugTLq1+/vnQJAKlSsmRJypkzJ86fDAQNtcFg2TcYRYsWLaRLsDQ8xBBAHZihloeGGowCy72NBw21waChBiOw2Wz00ksvSZdhaXny5JEuAQD+hoZaXv369XEfNRgClnsbDxpqg2ncuDG5u7tLlwHwTNWrV6fcuXPjzEUQGmoAdeChZPJy5cqllS9fXroMgGfSNA2rKQwIDbXBZM2aVcMXDVTXvn176RIsL0uWLJqvr690GQBAmKFWRcuWLaVLAHimSpUqUd68eTEhYTBoqA0IzQqorm3bttIlABHlzp1bugQAIKKcOXNKlwCEhhrUh3N8Y0JDbUAdO3Ykmw0fHaipdOnSVLx4cVxdVUDevHmlSwAAQkOtilq1alHWrFmlywB4qnbt2kmXAOmArsyAgoKCtBo1akiXAfBE+DFQB+6jBlADGmo1uLm5aXi4K6iqaNGiVLp0aUxIGBAaaoPq0KGDdAkAT9SmTRvpEuBvaKgB1JAjRw7pEuBvuCUJVIVze+NCQ21QHTt2xOsfQDlFixalqlWrSpcBf8M91ABqQEOtjjZt2pC3t7d0GQCPwf3TxoWG2qAKFSqkVahQQboMgEd0796dNFzpUUaBAgWkSwCwvMyZM5O3tzeOi4rIlCmT1rRpU+kyAB4RFBRE1apVky4D0gkNtYF17NhRugSABzRNo+7du0uXAQ8pUqSIdAkAlpcrVy7pEuBfcP4EqunUqRPZbDZceDMoNNQG9tprr2HZNyijbt269MILL2CHVAgaagB5+fPnly4B/qVt27bk6ekpXQbAA6+//rp0CZABaKgNrFChQnjaNyijR48e0iXAvwQGBmpZsmSRLgPA0tBQqycwMFBr0aKFdBkARERUuXJlqlixIiYkDAwNtcG99tpr0iUAkI+PD5bQKQqz1ACy8uXLJ10CPAEuAoMq3njjDekSIIPQUBtcly5dsGwJxLVr144CAwNxdVVBaKgBZGGGWk0vvfQSZc+eXboMsDgfHx965ZVXpMuADEJDbXA5cuTQ8N5fkIarq+pCQw0gCw21mjw9PbWXX35ZugywuM6dO2NCwgTQUJvAW2+9JV0CWFjp0qWpUaNG0mXAU6ChBpCFhlpdPXv2lC4BLA4TEuaAhtoEmjZtipNmEDNw4EC8e1phRYsWlS4BwNIKFiwoXQI8RZUqVbTKlStLlwEWVbx4capbt650GeAEaKhNQNM0DVe4QEK2bNnwYDzFoaEGkJMrVy7KnDkzLjgq7N1335UuASyqf//+mJAwCTTUJtG3b1/y8/OTLgMspk+fPuTj44MfA4XlyZNHy5o1q3QZAJZUvHhx6RLgOV599VXKkSOHdBlgMVmzZqVevXpJlwFOgobaJLJmzaphphD05O7uTm+//bZ0GZAKpUuXli4BwJKKFSsmXQI8h5eXl9a7d2/pMsBi3n77bfL398eEhEmgoTaRDz74gLByBPTSsWNHyp8/P3Y4AyhTpox0CQCWhIbaGN5++21yd3eXLgMswsvLC7camAwaahMJDg7WWrRoIV0GWICmafTRRx9JlwGphIYaQAaWfBtDoUKFtC5dukiXARbRrVs3yp07NyYkTAQNtcn897//lS4BLOCll16iKlWq4MfAIMqWLStdAoAllShRQroESKVPP/2UbDacFoNraZpGgwYNki4DnAxHDpOpUaOGhncCgytpmkbDhg2TLgPSADPUAPrz9fWl4OBg6TIglUqVKqW9+OKL0mWAybVq1YpKly6NCQmTQUNtQp999pl0CWBi7dq1o6pVq+LHwECyZMmi5c2bV7oMAEspV64cubm54VhpIJ988ol0CWByH374oXQJ4AJoqE2oQYMGmKUGl9A0jYYPHy5dBqQDln0D6KtChQrSJUAa1axZE8+iAZdp0KABNWzYEBfZTAgNtUmNHj0aT/wGp+vYsSOVL18eO5YBoaEG0BcaamMaPXo07qUGp9M0jb777jvpMsBFcMQwqSpVqmidOnWSLgNMxM3NDbPTBla1alXpEgAspWLFitIlQDqUK1cOT/wGp+vatStVrlwZExImpTGzdA3gImfOnOEyZcpQUlKSdClgAu+88w5NnDgRPwYGdfnyZS5UqJB0GQCW4OPjQxEREeTl5YVjpgFdvHiRS5QoQXa7XboUMAEPDw86ceIEFS1aFMcDk8IMtYkVL15cGzBggHQZYAJZs2alESNGSJcBGVCwYEEtV65c0mUAWEKNGjXQTBvYCy+8oPXt21e6DDCJt956C820yaGhNrnhw4dTnjx5pMsAg/v6668pe/bs+DEwuGrVqkmXAGAJ9erVky4BMuiLL76gnDlzSpcBBufv74+371gAGmqTy5Qpk/b1119LlwEGVrFiRXrjjTekywAnQEMNoI+6detKlwAZFBgYqH311VfSZYDBjRw5koKCgjAhYXK4h9oCmJkbN25MmzZtki4FDEbTNNq+fTvVqlULPwYmsHbtWm7evLl0GQCm5uHhQREREeTn54fjpsE5HA6uXbs2hYSESJcCBlStWjXauXMn3kdvAZihtgBN07TJkyeTr6+vdClgMD179kQzbSLVqlXD6/QAXKxy5cpopk3CZrNp//vf/8jd3V26FDAYT09Pmjp1Kpppi0BDbRFFixbV8FApSIu8efPS2LFjpcsAJwoMDNSKFSsmXQaAqWG5t7lUrFhRGzx4sHQZYDBDhgyhMmXKoJm2CDTUFjJo0CCqWbOmdBlgAJqm0a+//kpZsmTBj4HJ4BgA4FpNmzaVLgGc7L///S+VLVtWugwwiODgYPrkk0+kywAdoaG2EDc3N2327NmUOXNm6VJAce+99x41bdoUzbQJNWjQQLoEANPy8fGhOnXqSJcBTubp6alNnToVS7/hudzd3enXX38lb29vnENZCBpqiylcuLA2fvx46TJAYUWKFCE82dS8GjVqJF0CgGk1aNCAfHx8cCJtQlWrVtWGDRsmXQYo7quvvqKaNWviGGAxaKgtqFevXtorr7wiXQYoyN3dnWbPnk3+/v74MTCpAgUKaEWKFJEuA8CU8BR9c/vss8+ocePG0mWAolq3bk0fffSRdBkgAA21RU2ePJlKlSolXQYo5osvvqAaNWqgmTY5zFIDuAYaanOz2Wzab7/9RkFBQdKlgGIKFixIM2bMIA2v0rAkNNQW5e/vry1evJgCAgKkSwFFtG/fnoYMGSJdBuigYcOG0iUAmE6+fPmoRIkSOJk2uVy5cmnTpk0jmw2n0PAXLy8vWrhwIWXNmhXff4vC0cDCihcvjh8FICKiMmXK0MyZM3Fl1SIaNmyI91EDOFmLFi2kSwCdtGzZUvu///s/6TJAEePHj6fKlSvjR9XC0ElZXIcOHfCjYHFZsmShxYsX475pCwkKCtJKliwpXQaAqbRp00a6BNDRkCFD6LXXXpMuA4QNHjyY+vbti/Mni0NDDfTJJ59offv2lS4DBNhsNpo9ezYVLVoUPwYWg/uoAZzHz8+PmjRpIl0G6EjTNO2XX36h6tWrS5cCQl555RX6+uuvpcsABaChBiIimjBhAjVr1ky6DNDZ999/T61atUIzbUGtWrWSLgHANFq0aIHXZVmQt7e3tnjxYipcuLB0KaCzZs2a4SFk8AAaaiAiIk9PT23x4sVUt25d6VJAJ59//jkNGDAAPwQW1ahRI8qUKZN0GQCm0LZtW+kSQEju3Lm1devWUe7cuaVLAZ1UrlyZFi5cSB4eHjiHAiJCQw0P8fX11ZYtW0YVK1aULgVc7L333qPhw4fjh8DCvLy8NLziByDj3N3dseLD4goXLqytWrWKAgMDpUsBFwsODqYVK1bguTPwCDTU8IiAgABt9erVVK5cOelSwEW6d+9O48ePly4DFICHKAFkXP369Slbtmw4uba48uXLa8uXL6fMmTNLlwIuUqFCBdq6dSvlypUL33d4BBpqeEzOnDm1DRs2UIUKFaRLASdr3749/f2qNPwYALVq1Yrc3d2lywAwNFyYgvtq166tbdy4kbJlyyZdCjhZ1apVaf369ZQzZ06cP8Fj0FDDE2XPnl3bsGEDVatWTboUcJJu3brR3Llzyd3dHT8GQERE2bJl02rXri1dBoBh2Ww26tixo3QZoJDKlStr69ato+zZs0uXAk7SoEED2rBhA1aiwFOhoYanypo1q7Zx40Zq3bq1dCmQQQMGDKAZM2bgARrwGMyuAaRf/fr1KW/evDiuwiMqVqyobdy4kfLmzStdCmRQ27ZtafXq1ZQpUyZ8z+Gp0FDDM/n5+WlLliyhfv36SZcC6aBpGg0fPpzGjx+vYZk3PAkaaoD069q1q3QJoKiyZctqe/bsoUqVKkmXAunUp08fmj9/Pnl5eeH8CZ5JY2bpGsAgJk+ezO+++y4lJydLlwKp4ObmRj///DO9+eab+CGAZ6patSrv27dPugwAQ/Hw8KDQ0FAsA4VniomJ4VdeeYWWL18uXQqkkre3N/3888/Us2dPfLchVTBDDanWp08fbdmyZXgthAHkypWL1q5di2YaUqV79+7SJQAYTrNmzdBMw3P5+/trixcvpkGDBpGmYXdR3QsvvEAhISFopiFN0FBDmrRo0ULbs2cPngCusDp16tCBAweoUaNG+DGAVHnllVfIw8NDugwAQ3n55ZelSwCDcHd318aOHastXrwYkxIKq1+/PoWEhFD58uVx/gRpgoYa0qxYsWJaSEgIDRgwAFdbFaJpGg0YMIA2btxIefLkwQcDqZYjRw6tRYsW0mUAGIaPjw+1bdtWugwwmLZt22q7d++msmXLSpcCD/H29qbvvvuONmzYgNdiQbqgoYZ08fLy0saPH68tWbKEcuXKJV2O5QUGBtLChQtp/PjxGp7kDenRrVs36RIADKNDhw546i+kS/HixbU9e/bQ4MGDyc3NTbocy6tevTodPHiQPvzwQ83NzQ3faUgXNNSQIW3atNFOnTpFffr0kS7Fslq3bk1Hjhyh9u3b44cA0q1NmzZYigiQSq+//rp0CWBg3t7e2qhRo7Tt27dTcHCwdDmW5O3tTaNGjaIdO3ZQiRIlcP4EGYKGGjIsMDBQmzRpkrZ06VIqUKCAdDmWkTt3blq4cCEtW7ZMy58/P34MIEO8vb21zp07S5cBoLwXXniBGjRoIF0GmECNGjW0/fv308cff4znWOiobt26tH//fho8eDBmpcEp0FCD09yfrR4+fDh5e3tLl2NamqZR9+7d6ejRo9ShQwf8EIDT9O7dW7oEAOW9/vrrZLPZcOwFp/Dz89O++eYb7fjx44RnWbhWsWLFaN68ebRlyxYqVaoUvsPgNHgPNbjEuXPneOjQobRgwQLCPuY89evXp6+//ppq1qyJHwJwiWrVqvHevXulywBQks1mo4sXL1KBAgVwDAaXWLBgAQ8dOpTOnj0rXYppZMuWjT777DN65513CM+ZAVfADDW4RNGiRbV58+Zphw8fJiwjzbgyZcrQvHnzaPPmzRqaaXCl9957T7oEAGU1b94czTS4VKdOnbQTJ07QL7/8gtvoMsjPz48++ugjOnv2LL3//vt4aCu4DGaoQRfbt2/n0aNH04oVKzBjnQbBwcE0dOhQ6tatG5YYgi4SExO5QIECdOvWLelSAJSzYMEC6tixI47FoIvExESeMmUKjR07li5evChdjmEEBQVR//79qV+/fpQ1a1Z8X8Hl0FCDrg4fPszffvstzZ8/n+x2u3Q5StI0jRo3bkzvvvsuvfTSS4QHZoDe/vvf//KXX34pXQaAUvLmzUsXL17EklHQncPh4BUrVtDo0aNpx44d0uUoq1ixYvTuu+9Snz59yMfHB99T0A0aahBx69Yt/vXXX+nnn3+mS5cuSZejhEyZMtErr7xC/fv3pzJlyuCHAMSEhoZyoUKFcNEL4CFfffUVffLJJzg2g6iQkBD+5ZdfaN68eRQdHS1djjhvb2966aWXqHfv3tSiRQvSNA3fUdAdGmoQlZKSwhs2bKDZs2fT4sWLKSYmRrokXbm5uVG9evWoa9eu9Oqrr1KmTJnwQwBKePXVV3nOnDnSZQAowcvLi65cuUI5c+bEMRqUEBsbywsWLKBff/2Vtm3bRg6HQ7ok3dhsNqpbty51796dOnXqRAEBAfhegig01KCM2NhYXr58OS1evJhWrVpFUVFR0iW5hIeHBzVs2JA6duxI7du3pxw5cuCHAJSza9curlWrlnQZAEp4/fXXaerUqThWg5LCwsJ46dKltHjxYtq4caMpVxe5ublRtWrVqE2bNvTqq6/i4YCgFDTUoCS73c6bNm2iNWvW0MaNG+nIkSOGfphZ0aJFqU6dOtSwYUNq3bo1HpIBhlC9enXes2ePdBkA4vbt20eVK1fGcRuUd+/ePd64cSNt2LCBNm7cSCdPnpQuKd1eeOEFatasGTVr1owaNWpEgYGB+A6CktBQgyGEh4fz5s2bKSQkhHbv3k0HDhyg+Ph46bKeyMPDg0qVKkV169Z9kNy5c+NHAAxnwYIFjNfegdXVqVOHtm3bhmM4GFJoaChv2bKF9u3bR/v27aMDBw4oee+1j48PlStXjipWrEiVK1em+vXrU7FixfC9A0NAQw2GlJSUxMePH6cTJ07QsWPH6Pjx43T27Fm6ePEiJSQk6FKDv78/FS9enEqWLEmlSpWiEiVKUMmSJalo0aJ4CiyYAjNzxYoV6fDhw9KlAIhZvnw5vfjiizimgyk4HA4+ffo0HT9+nM6cOUOnT5+m06dP0/nz5+n27dsu//uZM2emAgUKUMGCBalYsWJUsWJFqlSpEpUoUYLc3d3xPQNDQkMNphMaGsqXLl2imzdvUlhYGN26dYtu375N9+7do/j4eIqIiKC4uDhKTEx87L8bEBBANpuNMmXKRD4+PpQ1a1bKkiULZc2albJmzUp58+alPHnyUL58+fAAMbAEzFKDlZUvX54OHjyIJweDJdjtdr516xaFhYXRzZs3KTw8/MG51P3zpri4OCKix86jvLy8yNfXlwIDA8nHx+fB/z9z5syUP39+KlSoEOXPnx8PEANTQkMNAABPhVlqsLL58+dTp06d0AAAAMBT2aQLAAAAdWmapn322WfSZQDorkSJEtShQwfpMgAAQHFoqAEA4Jk6dOhA5cuXly4DQFdDhw4lm82G2WkAAHgmLPkGAIDnWrx4MWO2DqyiePHidPz4cTwkCQAAngsz1AAA8Fzt2rXDLDVYxujRo9FMAwBAqqChBgCA59I0TRs1apR0GQAuV7duXWrXrh2aaQAASBU01AAAkCotWrTQXnrpJekyAFxG0zQaM2aMdBkAAGAgaKgBACDVvv/+e/L29pYuA8AlXn31VapatSpmpwEAINXQUAMAQKoVKVJEGzhwoHQZAE6XKVMm+vrrr6XLAAAAg8FTvgEAIE1iYmK4RIkSdP36delSAJxmwoQJ1L9/f8xOAwBAmmCGGgAA0sTf3x8PKANTqVatGr3zzjvSZQAAgAFhhhoAANKMmbl+/fq0bds26VIAMsTd3Z327t1LFSpUwOw0AACkGWaoAQAgzTRN077//ntyc3OTLgUgQwYPHoxmGgAA0g0NNQAApEvlypW1Dz74QLoMgHQrVqwYDRs2TLoMAAAwMCz5BgCAdIuPj+cKFSrQmTNnpEsBSBM3NzfavHkz1alTB7PTAACQbpihBgCAdPPx8dGmT59ONht+TsBYPv30UzTTAACQYTgDAgCADKlZs6b2/vvvS5cBkGq1atWizz77TLoMAAAwASz5BgCADEtMTOTq1avT4cOHpUsBeKaAgAA6ePAgvfDCC5idBgCADMMMNQAAZJiXl5f2+++/k4+Pj3QpAM/0v//9D800AAA4DRpqAABwilKlSmnffPONdBkAT9WjRw969dVX0UwDAIDTYMk3AAA4Vffu3Xn27NnSZQA8onz58rRjxw7y8/NDQw0AAE6DhhoAAJwqJiaGq1evTidOnJAuBYCIiLJly0Z79uyhwoULo5kGAACnwpJvAABwKn9/f23evHnk5+cnXQoAeXh40MKFC9FMAwCAS6ChBgAApytdurQ2a9YsvJ8axE2YMIHq16+PZhoAAFwCZzoAAOAS7du310aMGCFdBljYO++8Q/369UMzDQAALoN7qAEAwGWYmV977TWaM2eOdClgMc2aNaPly5eTh4cHGmoAAHAZNNQAAOBSdrudX3zxRVq/fr10KWAR1atXp/Xr15O/vz+aaQAnS0xM5Lt371J8fDx5eHiQv78/ZcqUidzd3fF9A0tCQw2WEBcXx4cPH6YjR47Q5cuX6erVqxQTE0MxMTFks9koICCAfHx8yNvbm7JkyUL58+enYsWKUfHixalAgQJks9nwIwGQAVFRUVy/fn06dOiQdClgcmXLlqXNmzdT1qxZcdwGyIC4uDjetWsX7dq1i44dO0anTp2ic+fOUWxs7GP/WZvNRkFBQZQ/f34qVaoUVahQgSpUqEBVq1YlHx8ffBfB1NBQW8T9g2KDBg3Izc3NEge2c+fO8bx582jVqlUUEhJCycnJ6fp3vLy8qHLlytSgQQNq0KAB1a5dm3x9fU09hszMW7ZsoWLFilHevHlNva2gnxs3bnDt2rXp0qVL0qWASRUpUoS2bdtGuXPnxnELnCIyMpKPHTtGderUscQ+derUKV6yZAktW7aM9u7dS0lJSRn697y8vKhGjRrUsGFDatmyJVWtWpU0TTP9WB4+fJizZs1K+fPnN/22AhExM2LinDt3jgcMGMABAQFMRDx27FiWrsmVsdvtPGvWLK5VqxYTkUvi5eXFHTt25GXLlnFycrIpx3Pnzp1MRKxpGtesWZPHjh3LYWFhptxWRN9cunSJCxUq5LLvJ2Ld5MmThy9cuIDjFOKUbNmyhTt06MDu7u6saRrv3bvXtPvW7du3+ZtvvuESJUq4/HtaoEABHjhwIB89etS043n48GH28PBgIuJGjRrxn3/+ySkpKabdXoTRUJs1x48f527durG7u/sjB7IcOXJwdHS06b7UiYmJPGHCBM6XL5+uJ3C5c+fmr776imNjY001pv3793/ihYRevXrxwYMHTbWtiP45c+YM58mTR7wBQ8yTvHnz8okTJ3BsQjKUlJQU/uOPP7hSpUqP7WMvv/yy6fav+Ph4HjFiBGfKlEn376ymadyyZUvesmWL6ca1Xr16j21vcHAwz5gxw7QTMVaPeAGIc3Pw4EHu1KkT22y2px7ERo8ebZovs8Ph4Hnz5nHRokVFT+by5cvH06ZNM8UVyKSkJM6ZM+czt7d+/fq8dOlSdjgcht9eRCYnT57k3LlzizdiiPFTpEgRzEwjGcr9Rrp06dJP3c88PDz4+vXrptnP9u3bxyVLlhT//hIRv/LKKxwaGmqKsd2+ffszt7VYsWI8c+ZMNNYmi3gBiHOye/dubt26NWua9twDV+HChU3R+B06dIhr1Kgh/kPwcJo1a8bh4eGGHttVq1alenvLlSvHc+fONcX+hOifCxcucJEiRcS/t4hxU7JkSb527RqOP0i6kppG+uEMHz7cFPvaH3/8wT4+PuLf34cTGBjIq1atMvz4tmnTJlXbW7x4cTTWJop4AUjGcuzYMW7fvn2qGumHY/SD1pgxY9jT01P8B+BJyZ8/P+/Zs8ew49ujR480b3OJEiV4xowZnJSUZNjtRmRy48YNLlu2rPj3FjFeqlSpYvgLmIhM7jfSpUqVSvPvu9EvIM+dO5fd3NzEv79PipubG//444+GHd/jx4+n+Xw8ODiYZ82ahcba4BEvAElfLly4wD169Ej3QbFdu3aG/OImJyfz66+/Ln7Qf14CAgL40KFDhhvjxMREDgwMTPd2Fy5cmH/99Vf8MCBpSnh4uHKrTRC107hxY1M+DwRxbVJSUnjOnDlpbqQfzrp16wy73y1duvTBw7JUjaZpPH36dEOOce/evdO93cHBwfz7778b/oKNVSNeAJK2hIaG8rvvvpvh2Vl3d3e+evWqob60DoeDe/XqJX6wT21y585tuPv6Vq5c6ZRtL1myJM+fPx/3WCOpTkJCAr/66qvi31tE/fTp04cTExNxbEFSHYfDwQsWLMhQI30/3bt3N+S+d+TIEfb29hb//qYmnp6evHXrVkONc3h4OHt5eWV42ytUqMArV6401LYjTOIFIKnL3bt3eciQIezn5+e0A5bR7gX68ccfxQ/yaU316tUNdbXxzTffdOr2V65c2fC3FyD6JSUlhf/zn/+If28RNePh4cE//fQTjidImrJt2zauU6eO0/ZDPz8/joqKMtR+mJSUxJUrVxb/DqclxYoV4/j4eMOM85gxY5y6/TVr1jTlE9DNGvECkGcnNjaWR40axVmyZHH6wSp37txst9sN8WW9deuWyGsdnJFJkyYZYoyTk5M5R44cLhmDmjVr8qZNmwwxDoh8fv/9d6dePESMn2zZsvGGDRtwDEFSnT179nCTJk1csj8abUnysGHDxL/D6clXX31lmHFO7YPt0pq2bdvysWPHDDMOVo14AciTc/+9ykFBQS49WC1evNgQX9LPPvtM/MCe3mTNmtUQV7M3bNjg8rFo1aoVHzhwQPmxQORz+PBhPAEcYSLi8uXL88WLF3HcQFKVU6dOcefOndP8cKi0pHHjxobZH69cuaLsQ1yfl6CgIENM/Ozatcul42Cz2bhz58587tw55cfCqhEvAHk0ycnJPH36dC5UqJAuB6u2bdsa4supyrsS05upU6cqP87vvvuuLmOhaRp36dKFT506pfyYILKJiIjgTp06iX9/EZlomsYDBgww1LJPRC5Xr17lN998k93d3V2+b9psNr58+bIh9sv+/fuLf5czkoULFyo/zs6+Xe5p8fLy4vfff59v3bql/JhYLeIFIP9k3bp1XL58eV0PVJ6ennz79m2lv5ixsbFss9nED+oZSZ06dZQe45SUFM6dO7euY3L/iuv58+eVHhtEPjNmzGB/f3/x7zGiX3LmzMnLly/HsQF5bm7fvs0ffvih7g/cGjlypPL7Z1hYGPv6+op/nzOSnj17Kj3O0dHRut+SmClTJh4+fLghVj9aJeIFIExr167lqlWrih2sVH/Iy759+8QP6BmNpmkcGhqq7Dhv375dbGzuX3ENCwtTdnwQ+Zw8eZKrVasm/l1GXJ927drh/dLIcxMTE8NffvklBwQEiOynwcHByu+j3377rfj3OaMpUqSI0uM8depUsbHJmTMnT5w40RDL4s0e8QKsnJCQEG7YsKH4wUr12dMZM2aIj5EzovJrEAYNGiQ+Pv7+/jxs2DBccUWemuTkZP7mm2/Yx8dHfH9FnJ+AgACeMmUKvv/IM2O32/nHH3/kXLlyie+zISEhSu+vjRs3Fh8jZ0TllZT16tUTH5/ixYvzokWLlB0jK0S8ACvm8uXL3L17d5c+MCMt0TRN6fcljx49WnyMnBFVn1bpcDi4YMGC4uNzP9myZeNx48ZxUlKSkuOFyOf06dPcoEED8X0Vcd5vULdu3ZRexYOokXXr1nGZMmXE99n7eeedd5TdZ2NiYpzyXmQVcvToUSXH+fr160rdkli9enW8aksoNgLd3LlzhwcOHMjFihWjWbNmETNLl0RERMxMv//+u3QZT5WQkCBdglOcOXNGuoQn2r9/P12+fFm6jAfu3LlDAwcOpHLlytHy5cvV+JKAUooXL65t2rRJ+/PPP6lgwYLS5UAGFC9enNasWUOzZs3SgoKCNOl6QE27du3iOnXqcNOmTenYsWPS5Tzwxx9/kN1uV/J3asuWLZSYmChdhlPcunVLuoQnmjt3LjkcDukyHti9ezc1aNCAOnXqxGfPnlVyvzQrNNQ6SEhI4G+++YaLFi1K48ePJ7vdLl3SY3777TfpEp4qPj5eugRTb8fChQulS3iikydP0ksvvUSNGjXi/fv344cBHvPSSy9px48fp6FDh5Kvr690OZAG/v7+9O2339KxY8eoadOmaKThic6dO8edO3fm2rVr044dO6TLeczdu3dpzZo10mU80YkTJ6RLcBpVz5/++OMP6RIew8y0cOFCKl26NL333nscHh6O8ycdoKF2IYfDwbNnz+bg4GAaPHgwRUZGSpf0VCdPniRVmxYVL0Ckh6oz7UuWLJEu4Zk2bdpE1apVo+7du/OVK1eU3EdBjp+fnzZy5Ejt0qVLNHjwYPL09JQuCZ7B09OT+vTpQ2fOnKGPPvpI8/DwQDMNj7l9+zYPGDCAS5UqRQsWLFBmRd+TzJ07V7qEJ7py5Yp0CU7j7e0tXcJjzp8/z3v37pUu46mSkpJo4sSJVLRoURo5ciTHxcWp+yUyATTULrJhwwauWrUqde/e3TAHNVVnqbNkySJdglOoeGHg5MmTfOrUKekynsvhcNDs2bMpODiYPvnkE7537x5+GOAROXLk0EaNGqUdPXqUunXrRu7u7tIlwUO8vLzovffeo4sXL9KkSZO03Llzo5GGx8THx/OoUaO4aNGi9MMPP1BSUpJ0Sc/1559/Unx8vHK/SVFRUdIlOI2Pj490CY+ZO3eu0hd67ouKiqJhw4ZR8eLFadq0aZySkqJ+0QaEhtrJTp06xV26dOEmTZrQgQMHpMtJk99//52Sk5OV+6LlyJFDugTTbsfixYulS0iThIQEGjVqFBUuXJhGjx7NiYmJyu2vIKt48eLarFmztFOnTtFbb72FGWthD89I//DDD1qePHnQSMNjHA4Hz5gxg/++aEr37t2TLinVoqOjacWKFdJlPEbTzPNVy5kzp3QJj1FxufezXL9+nd544w2qUKECrV69GudOToaG2klu3LjBb731FpcpU4bmz58vXU66hIWF0caNG6XLeIyKjWh65MmTR7qEx6i+3Ptp7t69S0OGDKFy5crR4sWL8cMAjylSpIg2efJk7eLFizRs2DAlT8jMLCgoiIYPH06XLl2iSZMmaQUKFDDP2T041bp167hSpUrUq1cvunr1qnQ56aLisu9MmTJJl+AUHh4eVKhQIekyHnH8+HE+evSodBnpcuzYMWrZsiW1aNGCjx07hvMnZ5F+zLjREx0dzZ999hn7+fmJPy7fGendu7dyj9vftWuX+Lg4IxMmTFBqbK9evarMq9symrp16/Lu3buVGl9ErSQkJPCMGTO4Vq1a4vurmVO9enX+7bffODExEd9H5Jk5fPgwN2vWTHyfdUZ8fHw4KipKqX1+7Nix4uPijBQtWlSpcWVm+uyzz8THxRlxc3PjPn368M2bN5UbY6NFvACjJikpiX/66SfOlSuX+BfCmcmaNSvb7XalvljR0dFKvecvvVm5cqVS4/rjjz+Kj4kzo2kav/zyy0q/Ux1RIydPnuT//Oc/HBQUJL7fmiFZs2blPn368J49e/DdQ56bGzdu8BtvvGGK3/WHM3v2bKX2/40bN4qPiTPSvn17pcaVmal06dLi4+LMZMqUie8/uEx6bI0a8QKMmHXr1nHZsmXFvwCuyqpVq5T7QgUHB4uPS0aiaRrfuXNHqXFt1KiR+Li4Ih4eHtynTx++deuWUuONqJeUlBTetm0bDxgwAM11GuPj48OtW7fmefPmYTYaSVXi4uJ41KhRnDlzZvH91xV56aWXlPoe2O12DgwMFB+XjGbMmDFKjevf73c2ZfLly8eTJk3ilJQUpcbcCBEvwEjZs2cP16tXT3yHd3XeeOMN5b5IL7/8svi4ZCTBwcFKjemdO3fYw8NDfFxcmaxZs/L333+Pk30kVUlKSuL169fzoEGDuHjx4uL7r4rJkiULd+7cmefOnYuZDCTVcTgcPG/ePC5UqJD4PuzKeHh4KHfhvHPnzuLjktGEhIQoNaajR48WHxNXp0qVKrxlyxalxl31iBdghFy4cIFffvll09xv+rxky5ZNuWXfY8aMER+XjKRnz55KjeeMGTPEx0SvFCtWjJcuXarU+CPq5+zZszxhwgTu0KEDZ8+eXXw/loi7uzvXqVOHv/jiC961axcnJyfje4SkKdu2beOqVauK78t6ZerUqUp9R2bPni0+JhmJv7+/chfFa9euLT4ueqVjx4587tw5pcZf1YgXoHLu3r3LH3zwAXt5eYnv1HpnzZo1Sn2B/n4SoWGj2r1V7du3Fx8TvdOkSRM+cuSIUp8DYow4HA4+evQoT5w4kXv27MmlSpUy3f2fRMSZM2fmhg0b8scff8xLlizhe/fu4fuCpCtXrlzh7t27W2Yi4n6aNm2q1HcmLi6Os2TJIj4u6U3nzp2VGs+bN2+a8tj/rOA2utRFvAAVk5KSwjNmzOCcOXOK78hSeeutt5T74hQsWFB8XNITLy8vjoyMVGY8Y2NjTfNU+rTGZrNx9+7d8URLJMO5d+8eb9q0iX/44Qfu27cv165d21D3K+bKlYvr1avHAwcO5NmzZ/OpU6fY4XDge4FkKJGRkfzxxx9bciKC6K9VHWFhYUp9j/r37y8+LunNb7/9ptRYTp48WXxMpJItWzaeMGECJyUlKfWZqBKNmQn+sWHDBv7ggw/oyJEj0qWIyp49O4WGhpK7u7sy7w7t27cvT548WbqMNGvdujUtW7ZMmXFcvHgxd+jQQboMUf7+/vThhx/SJ598Ql5eXsp8NmB84eHhfOHCBTp//jydP3+ebty4QTdv3qTw8HAKDw+nmzdvUlRUlEtr0DSNsmfPTtmzZ6ccOXJQkSJFqGjRolS0aFEqVqwYFS1alDJlyoT9HpwmOTmZJ0+eTJ9//jmFh4dLlyNq4sSJ9M477yjz/Tp69CiXK1dOuow08/T0pFu3blFAQIAyY/niiy/yypUrpcsQVbJkSfr++++pefPmynwuKkBD/bczZ87wRx99RMuWLZMuRRnr1q2jJk2aKPOFWbZsGbdp00a6jDSbNm0a9e7dW5lx7NWrF8+YMUO6DCUULVqUvvvuO2rbtq0ynw+YX2JiIoeHh1NYWBiFhYVRbGwsERFFRUVRSkoKpaSkPGi64+LiKDExkYiIfH19ycvLi2w2GwUEBDz43/n4+DzSQGfPnp1sNhv2adDF+vXr+YMPPqCjR49Kl6KEevXq0ZYtW5T6/tWsWZNDQkKky0iTDh060MKFC5UZx5iYGM6RIwclJCRIl6KEJk2a0Lhx46h06dLKfEaipKfIpRMREcEffPABe3p6ii+nUC19+vRRallHYmIi58iRQ3xc0hI/Pz+OiIhQZhyTkpI4W7Zs4uOiWho1asSHDx9W5nNCEARRPUePHuVmzZqJH79Vi81m42vXrrH05/NwfvvtN/FxSWuWL1+u1BjOnTtXfExUi4eHBw8aNEip81yp2MiiHA4Hz5w5k4ODg2ns2LFkt9ulS1LOokWLKDk5maXruM/T01N79dVXpctIk1dffZUCAwOVuXq3ZcsWunPnjnQZytm4cSNVrFiRevTowWFhYcrs8wAAqomIiOD333+fK1asSGvXrpUuRzkOh4PmzZsnXcYjunbtSoULF5YuI9Xy5s1LLVq0kC7jEYsXL5YuQTlJSUn0/fffU5EiRWj8+PGsUs+gN0s21Bs3buSKFStSz5496datW9LlKOv27du0detW6TIe8cYbb0iXkCb9+vWTLuERS5YskS5BWQ6Hg2bNmkVFihShzz//nBMSEiz7wwAA8G/Jyck8ceJELlq0KE2YMIGSk5OlS1LW3LlzpUt4hJubmzZgwADpMlKtV69e5ObmpsxkhN1u51WrVkmXoay7d+/SwIEDqVKlSrRhwwZrnjtJT5HrmbNnz3Lbtm3Fl0gYKf369VNuGUfFihXFxyU1qVmzplJj53A4OH/+/OLjYpQUKVKEFy1apNRniCAIIpGNGzdyuXLlxI/LRsr58+dZ+nN7ODExMYa45cvDw4OvXr2q1NitWrVKfFyMlCZNmvCJEyeU+gxdHUvMUN+7d48//vhjLl26NC1dulS6HENZvHgxpaSksHQdDzPKVdb33ntPuoRH7N+/n65evSpdhmGcP3+eOnToQPfvr5auBwBAb1evXuUePXpwo0aNLP/2k7RSbYmwn5+f1rdvX+kynuu1116jfPnyKTM7TUToHdJo/fr1VL58eXr//ff53r171jh/ku7oXZn775POlSuX+NUaI2fr1q1KXWWy2+1coEAB8XF5VooVK6bcu/qGDh0qPi5Gzf33V4eGhir1mSIIgrgi0dHRPHToUPb29hY//ho1NWrUYOnP8d+5efMm+/n5iY/N06JpmnIPCE1JSeE8efKIj41RkytXLp46dSqnpKQo9bk6O6adod68eTNXrlyZevbsSWFhYdLlGJpqV1k9PDy0999/X7qMZ/rvf/+r1Du8idT7HI3k/v3VRYsWxf3VAGBazMyzZs3i4OBg+uqrr/CKoAzYvXs3Xb16Vanfily5cmnvvvuudBlP1axZMypXrpxS50579uyhGzduSJdhWGFhYfTGG29QrVq1aN++fUp9H5xKuqN3ds6dO8cdOnQQvyJjphQqVEi5q0pRUVGcJUsW8bF5UooXL87JyclKjdnp06fFx8VMKVKkCC9cuFCpzxhBECQj2bdvH9euXVv8+GqmfP/99yz9uf47t2/f5syZM4uPzZOi2opIZqbBgweLj4tZomkad+/encPCwpT7nDMa08xQR0VF8ZAhQ7h06dK0aNEi6XJM5dKlS3Tw4EGWruNhmTJl0gYOHChdxhMNGzZMqadTEmF22tnOnz9PHTt2pKZNm/LJkyeV+m4AAKRFaGgo9+3bl6tVq0Y7duyQLsdUFi5cKF3CY7Jly6bkE79btWpFdevWVerciQhvR3EmZqZZs2ZRcHCw+V6zJd3RZzQOh4OnTZuG+6RdnM8++0y5q0kxMTGcO3du8bF5OOXKlVNudpqZqUaNGuJjY9Z4eHjwRx99xFFRUcp97giCIE+L3W7n7777jjNlyiR+HDVrbDYbX79+naU/638nIiKCAwMDxcfnfjRN47179yo3Tn9fMEdclPLlyyu5KiE9MfQM9blz57hZs2b0+uuv4z5pF1NxhtPPz0/7/PPPpct4xHfffafc7PSNGzd49+7d0mWYVlJSEn333XcUHBxMM2fOZGZm6ZoAAJ5ly5YtXLFiRfroo48oOjpauhzTcjgcSq6aDAwM1D788EPpMh5o06YNValSRalzJyLMTrva4cOHqX79+vTaa6/xjRs3jH3uJN3Rp/eq6qhRo9jLy0v86oqVcurUKeWuIiUnJ3Pp0qXFx4aIuEOHDsqNDzPTxIkTxcfGSqlXr55yTylFEARhZgoNDeXu3buzpmnix0qrpEGDBiz9uT8pMTExHBQUJD4+bm5ufOzYMSXHqFq1auLjY5X4+vry8OHDOSEhQcl94XkRLyCt2bJlC5coUUL8g7diRo8ereROvmzZMvGx8fLy4vPnzys5Ps2aNRMfH6vF3d2dBwwYwJGRkUruEwiCWCtJSUk8fvx4DggIED8+Wi1ubm588+ZNlt4HnhQVLrj37NlTybG5du0aLjwJJDg4mNevX6/kPvGsiBeQ2ty9e5fffPNN7NyCUfGdivfTsmVL0bEZMmSIkmMTERHBHh4e4vuOVZM7d26eO3eukvsGgiDWyN69e7lq1arix0Mr56effmLp/eBJsdvtXLRoUbFx8fb25suXLys5NipcbLByOnfubKingYsXkJr8/vvveOiYAtE0ja9du6bkzn3mzBmxWwAKFCjA0dHRSo7L7NmzxfcbhLhly5Z84cIFJfcRBEHMmTt37vCAAQPYZrOJHwOtnsaNG7P0/vC0zJkzR2xcPvzwQ2XHpWnTpuL7jdWTJUsWnjRpEjscDmX3k/sRL+BZiYyM5FdffVX8A0X+ycSJE5XdqYcOHSoyJkuWLFF2TDp27Ci+zyB/xcfHh4cPH86JiYnK7i8Ighg/ycnJ/L///Y+zZMkiftxD/oq7uzuHh4ez9L7xpDgcDq5QoYLuYxIQEMC3b99WckwiIiLY09NTfL9B/kqDBg349OnTSu4r9yNewNOyfv16zpcvn/iHiDyaJk2aKLtDx8bGcoECBXQdj3bt2ik7HvHx8ezv7y++zyCPply5chwSEqLsfoMgiHFz4MABrlKlivhxDnk8U6ZMYen942lZuHCh7uPxf//3f8qOx2+//Sa+vyCPxsvLi0eMGKHsQ8vEC/h37HY7Dx8+HEuUFI3KV1mZmebPn6/bWPj6+vLFixeVHYulS5eK7y/Ik2Oz2XjAgAHK/jAgCGKsxMXF8X/+8x92d3cXP74hT07z5s1Zej95WhwOB5ctW1a3scidOzfHxMQoOx6dO3cW31+QJ6dEiRK8ZcsW5fYd8QIezokTJ7hixYriHxby7MyYMUO5HfnhtGjRQpdxGDNmjNLj0Lt3b/F9BXl2Spcuzfv371d6P0IQRO1s2bKFg4ODxY9nyLPj4eHBd+7cYen95Wn5448/dBuLn3/+WdlxSEhI4EyZMonvL8jTo2ka9+nTh2NjY5XZj8QLYP7rytgPP/zAPj4+4h8S8vyovMyZmenkyZMuv/elQoUKnJSUpOw4JCcnc/bs2cX3FeT58fT05JEjR3JycrKy+xOCIOolJiaG+/Xrh7efGCjTpk1j6f3maUlJSeGSJUu6fAyKFy/Odrtd2XFQ4VWsSOpSunRpPnDggBL7kngBERER3Lp1a/EPBUl9fHx8lF6qw8w0ePBgl22/zWZT/h7YzZs3i+8nSNrSsmVLjoiIUHq/QhBEjezZswez0gbMiy++yNL7zrMyefJkl4/B/PnzlR4DrO4zVtzd3Xn48OHikxKiO+2pU6d0uRqGOD8LFy5U+oAYGxvLBQsWdMm2v/POO0pvOzPTgAEDxPcRJO0pWrQoHzt2TPn9C0EQucyePRv3Shs0np6eSl84jYuLc+nqtipVqij9CqTk5GTOkSOH+H6CpD21atXis2fPiu1bNhKyaNEirlq1Kp08eVKqBMiAxYsXS5fwTL6+vtro0aOd/u8GBQXRyJEjpTfvmZiZ//zzT+kyIB3OnTtHderUof3797N0LQCgnqioKO7VqxclJydLlwLpYLfbadmyZdJlPJWPj4/Wp08fl/37o0aNIk3TNOntfJrt27dTeHi4dBmQDjt37qRKlSrRvHnzRM6fdG+oHQ4HDxs2jDt16kTR0dES2wxOsHz5ckpKSlL6pL9r165aw4YNnfpvfvXVVxQYGKjsjwER0aFDh+jSpUvSZUA6RUZGUocOHSg+Pl7p7xcA6M/Pz48KFCggXQZkwIIFC6RLeKZevXq55N9t1qwZNW7cWOnzJ9Uni+DZoqOjqWvXrjRgwAC22+26nkPp2lBHRkbySy+9RCNHjiRmnCsaWWRkJG3atEm6jOcKCAhw6r8XFhYmvUnPhR8E47t37x7du3dPugwAUIybm5s2b948CgwMlC4F0mnt2rUUHR2t7ElwsWLFtKJFizr93+3SpYv0pj0TM/OSJUukywAn+OGHH6hu3bp0+fJl3b5nujXUJ06c4GrVqtHKlSv1+pPgYqo3bhEREbxq1Sqn/pu///679GY9F34QjK1FixZ07NgxCgoKUvpKPgDIqFy5srZ7924qUaKEdCmQDgkJCeTscxNnstvtHBoa6vR/d/ny5dKb9kwHDx6ky5cvS5cBTrJnzx6qVKkSrVy5UpemWpeGeufOnVynTh06e/asHn8OdLJ06VJyOBzKXmVduHAhJSYmOvXfPHr0KB09elTZbT537hwfPXpUugxIh+zZs9O0adNo5cqVlC9fPjTTAPBUxYsX10JCQqhNmzbSpUA6LFq0SLqEp9q5cyfFxsY6/d9dtWoV3bt3T9nzJ9UniSDt7t69Sy+99BJ9//33Lt/vXN5Qr1+/nps3b04RERGu/lOgs9DQUAoJCZEu46lcNZus8iw1fhCMx2azUffu3enEiRPUu3dvTeUHtgCAOgICArSlS5dq06dPpyxZskiXA2mwcuVKSkhIULK5XLdunUv+3cTERKXPUVSuDdLP4XDQBx98QP379+eUlBSXfedc2lD//vvv3KpVK4qJiXHlnwFBqh6Abty4wVu3bnXJv/37778rOzOv6ucBT1alShXauXMnzZw5U8uRIwcaaQBIs549e2onTpyg9u3bS5cCqRQdHU3r16+XLuOJXHnb2B9//CG9eU909uxZPn78uHQZ4EI//vgjvfjiixQVFeWS83eXNdQTJkzg7t27U1JSkutGB8Sp2sD98ccflJKS4pJ/+8qVK7R9+3bpTXxMaGgo7969W7oMSIWcOXPStGnTaM+ePVS9enU00gCQIUFBQdqiRYu02bNnU65cuaTLgVRQ8fzpzJkzfOLECZf9+xs2bKDw8HDlJiRU/CzA+dasWUONGjWiW7duOX0fdElDPXr0aH7//ffJ4XC4fnRA1Pnz5+nIkSPKHRxdvSxbxWXff9/TLl0GPIOHhwcNGDCAzpw5g+XdAOB0r732mnb69GkaMGAAubm5SZcDz7B06VJKTk5W6vxp4cKFLv33k5OTlXxtmMr3tINz7d+/n+rXr083b9507nePmZ0Wh8PB7777LhMRYqF8/vnn7Mz9KKM5ffq0y7c5W7ZsnJiYqNR2N2/eXHxfQJ6eTp068fnz55XaZxAEMW8OHTrEtWrVEj/2IU/Pxo0bWXo/eThVq1Z1+TbXq1dPqW2+fv06a5omvi8g+qZcuXIcHh7utH3RqTPUgwcPpokTJzrznwQDUO3Knh6zx3fu3KE1a9ZIb+oD9+7dYyO8F9yKKleuTFu2bKH58+drhQsXxow0AOiifPny2vbt22nGjBmUM2dO6XLgCVRaanzt2jXet2+fy//Otm3b6MqVKyy9vfctWbKEmJUpB3Ry5MgRatKkCd25c8cpH77TGupPPvmEv/32W7mRATFHjhyh8+fPK3M0mjNnji5/57fffpPe1AeWL19Odrtdugx4SN68eWnSpEm0Z88eqlevHhppANCdpmlajx49tJMnT1L//v3J3d1duiR4yOLFi4kV6eYWLVqkS2PJzEot+3blQ9hAbYcPH6ZmzZpRdHR0hnd8zRlfnhEjRvDnn38uPS4g6LvvvqMPP/xQvGnYt28fV61aVZe/5evrSzdv3qRMmTKJb3fnzp1ZpR8oK/Pz86PBgwfThx9+SL6+vuL7BhhDYmIiX7x4kc6dO0fR0dEUHR1NUVFRFBsbS8nJyeTv708BAQHk6+tLmTNnpkKFClGxYsXIz88P+1g6bd++nevUqWOp8Ttx4gR/8MEHSq2wsrqQkBAlHk7ZoEED3rJliy5/q2rVqrRnzx7xbY6IiOBcuXLhAcoW17ZtW1q0aBHZbLb075MZXTM+efJk8XXwiHxq166txD0xH3zwga7bPWPGDPHtjo+PZ39/f/F9wOqx2Wzcu3dvvn79uvg+gaidyMhIXr58OQ8ePJgbN27MhQoVYpvNlq79Lm/evNygQQMeOHAg//nnnxwZGYn9LxU5dOgQExHXqlWL161bZ7kxW7duHZcuXVr8uIkQDx48WHz/u3HjBru5uem63WfOnBHf7hkzZoh//ogaGTp0aIb2xwztiEuXLtX9C4ioGZvNxqGhoaIHx5SUFM6TJ4+u2928eXPxH4Q///xT/PO3eho0aMAHDhwQ3xf0TmhoKI8ZM4br1avHrVq1stz2pyVHjx7lTz75hCtVquTS3003NzeuVq0af/bZZ3zu3Dl8Jk/Jhx9++Mi41alThzds2GCp8bLb7Txp0iTOnj27+DHUyilWrJj4fjdu3Djdt/v//u//xLe7Xbt24p8/okY0TePZs2ene59M90546NAh9vPzEx8ARJ1MmjRJ9OC4fv163bfZzc1N/EJCr169xD97q6Zo0aI8b9488ZMCvbNt2zZ++eWX2dPT85HxOH36tOXG4lm5fv06jxo1isuVKyeyf2qaxvXr1+cZM2ZwTEwMPpu/k5yc/NSLr/Xq1ePNmzdbaqzCw8O5X79+mCARzNGjR0X3OYmnwZcpU0Z0m2NjY9nX11f8s0fUibe3N+/fvz9d+2W6dsLbt29z4cKFxTccUSstW7YUPTi+8cYbIts9fvx4se1OTk7G7IJAsmTJwqNGjeKEhATLnHjHx8fzjBkzuHz58k8dl+HDh1tmPJ6Vy5cv84ABA9jb21t8X72fbNmyWW6ffVrWrFnz3PGqXbu25WasT548yS1bthTfV62YESNGiO1rV65cEXttlOSFhEWLFol/7oh6KVGiBMfFxaV5v0zzDpiYmMh16tQR32BEvXh5efG9e/dEDo4JCQmcJUsWke2uVq2a2A/Cpk2bxD93K8XDw4P79+/Pt2/ftsyJ9o0bN/jjjz/mgICA546PCksXpceqT58+j83cq5TChQvznDlz2OFwWPaz6tatW6rHq0mTJrxr1y5LjdWff/7JRYoUEd9XrZQKFSqI7WPffPON2HZ/+umnYtvdvXt38c8dUTODBg1K836Z5h3w3/cdIcjDmTNnjsjBcfHixaLbffbsWZHtHjBggPhnbpW89NJLfPLkScucWJ89e5b79OnDXl5eaRqn3bt3W2aMHs7MmTPFLuqlJ40bN+YrV65Y7rOKi4tL10Mc27ZtK74sV8/Y7XYeN25cqi6kIc7J+fPnRfavypUri21z4cKFRS7u2e12zpo1q/hnjqgZm83GGzduTNN+maYdcOXKlWLLQhBjpGvXriI/CJ07dxbdbonlWg6HgwsUKCD+mZs9pUqV4hUrVljmRPrAgQPctWvXdN9P+f7771tmrJj/uk+6devW4vtpepIlSxZevXq1pT6vjCzztNls3L17d75w4YJlxuzmzZv8xhtvpPsp9Ejq89133+m+X507d058u/fs2aP7dks8cwcxVgoVKsRRUVGp3jfTdNKAezWR5yVz5sy636MXFRXFPj4+ottdvHhx3X8Q9u3bJ/55mzm5c+fmqVOnckpKiiVOnjdt2sTNmzd3yrhZZcxCQkI4KChIfF/NSNzc3HjChAmW+LyYmV599dUMj5mnpye/99574g+k1DMHDhzgevXqie+vZo7E60dHjhwpvt0ffPCB7tv9zjvviG83on4+/vjjVO+bqd758Gh5JLVZuXKlrgfH6dOni28zEfHevXt13e6hQ4eKb7MZ4+vry4MHDxZ7HoDeWbFiBdeoUcOpY7hlyxbTj92qVauUeuhYRjNq1CjTf2YJCQmcOXNmp42Zn58fDx06lCMiIkw/dvfz559/4qG0LorNZuPr16/rui9JvYHg4eTJk0fXi7AOh4Pz5csnvt2I+vH09Ez120tStfPhxedIWtKnTx9dfxCcMavmjKTnIQYZScmSJcW32UzRNI07d+7MFy9etMTJ8cqVK7l69eouGcv+/fubegzXrFmT5nvLjZApU6aY+nP7888/XTJuWbNm5dGjR3NsbKypx+9+EhMTedy4cU69OIH8lZ9++km3fejkyZPi23s/el6EDQkJEd9exDhp27ZtqvbN5/4Hbt26hRv3kTQlV65cul1tDAsLY3d3d/FtJvprqWtycrIu23369Gnx7TVT6tevz/v27bPEyfCqVatc1kjfT968eU277PvIkSOmbSTc3d1NvbqgR48eLh2/PHny8E8//cR2u920Y/hwwsPDecCAAXh/tRPTrFkz3fad4cOHi2/v/bz99tu6bffgwYPFtxcxVlLzrJHn7nhvvfWW+IYgxsv27dt1OThOmDBBfFsfzvr163XZ7q+//lp8W82QYsWK8bx58yzxCqFt27Zx/fr1dRvbHTt2mG5MY2NjOTg4WHy/dWXS+iAWo8Rut+v2FPaCBQvypEmTdLvAKp1Dhw5x48aNxfddM8TDw4Pv3r2ry36j0iq3HDlycFJSki7bbfZjOOL8lC1b9rmTBM/c6Q4ePIgrj0i68tFHH+lyYKxZs6b4tj6cN954Q5ftrlatmvi2GjlZsmThUaNG6f4APYmsXr2aJb4net8CoUf69+8vvu/qkYEDB5rus1u5cqXu41i+fHlevny56cbyaVm3bh2XLl1afP81embMmOHyfebw4cPi2/nv6PHGgePHj4tvJ2LMzJ0795n75zN3vKZNm4pvAGLMFC1a1OUHxgsXLij3GrcsWbJwYmKiS7f92rVrym23UeLh4cEDBw7kO3fumP4kd8OGDSKN9P0UKFDAVDP/R48eVeb2ElfH29ubb9y4YZrPjpnp9ddfFxvPOnXq8LZt20w1nk+L3W7nSZMmcY4cOcT3Y6OmXbt2Lt9XVHyoaa9evVy+3f/3f/8nvp2IMVO6dOlnzlI/dafbsWOHePGIsXP06FGXHhxVPTAuXbrUpdv9448/im+jEdOkSRM+duyY6U9q9+/fz82aNRMfbyLikJAQ04x3x44dxcdTz6TldSGqJykpibNlyyY+pq1ateKDBw+aZlyflTt37vCAAQPYw8NDfNyNFl9fX46JiXHpflK0aFHx7fx3AgICXL5qrHLlyuLbiRg3CxYseOr++dSdrkmTJuKFI8bOF1984dIDY5kyZcS38Ul5+eWXXbrdWDmStlSsWJE3b95s+pPYs2fP8ssvv6zU6gW9bv1wdS5dumS525/y5ctnmgfLrV27Vnw878dms/Err7zCZ8+eNcXYPi+nT5/mzp07i4+70fKsE/eMZu/eveLb97QsXrzYZdut4qpGxFgpX778U1fePXGnO3TokHjRiPFTqVIllx0YVd5HfX19OTo62iXbHhERgSv+qUzWrFl53Lhxpn8wUGhoKL/zzjtK7hcvvPCCKZZ9jxw5UnwsJWKWZcp9+/YVH8t/x8PDg/v27Wu6pfVPy7p167hs2bLi426UvPbaay7bLz7++GPx7Xtaunbt6rLt/uabb8S3DzF+lixZ8sR99Ik73ZtvvileMGKOXLhwwSUHR9Vfe/Dbb7+5ZLvxTvjnx93dnfv06cPh4eGmPlGNjo7mUaNGKf8Kp7179xr+cyhXrpz4OEpkxIgRhv/skpOTOWfOnOJj+bT4+vry4MGDOSIiwvBj/bykpKTwjBkzOCgoSHzcVU9AQIBLnsficDi4UKFC4tv3rO+DqyYkqlSpIr59iPFTt27dJ+6fj/0vIiMj2dfXV7xgxBwZP3680w+MKSkpXKBAAfFte1Zat27tkh+EDh06iG+bymnatCkfP37c1Cem8fHxPGbMGCXuCU1NhgwZYujP4+LFi+JjKJVWrVoZ+rNjZtq4caP4OKYm2bNn57Fjx1rizQMxMTE8fPhw9vLyEh93lbNq1Sqn7ws7d+4U367nZdasWU7f7osXL2K5N+K0PGmi4LGdbvr06eKFIuZJgwYNnH5g3LBhg/h2PS8eHh58+/Ztp257bGws+/n5iW+bismfP78urxqRTHJyMv/666/KX0z6d/R44r8rM2XKFPExlEpQUJChPztmpnfffVd8HNOSQoUK8cyZM01z//qzcubMGW7durX4mKuaPn36OH0feP/998W363lxxYW8b7/9Vny7EPOkd+/ej+2jj+10L774onihiHni5ubm9KW3vXr1Et+u1GTSpElO3e5FixaJb5Nq8fX15eHDh3N8fLypTz6XLl1q6Pe7GvnJxr179xYfP6nYbDaXvwbQlUlJSeHcuXOLj2N6Ur58eV65cqVhxz4tWbZsGav41Gnp5MqVy6nPAElOTuY8efKIb9fz4u7uzrdu3XLqvl+jRg3x7ULME19fX46Li3tkH31kh4uMjMQSHMTp+fXXX512YIyNjeVMmTKJb1Nq4uzZ+Z49e4pvkyrRNI1fffVVvnbtmqlPOLdv3861atUSH++M5tNPPzXs51S7dm3x8ZPMpUuXDPvZmeH1nw0bNuTdu3cb9jNIbex2O48bN075Z0LonS1btjjts1+1apX49qQ2P/74o9O2++rVq1jujTg9/35F7iM73bJly8QLRMyXtm3bOu3AOGvWLPHtSW1sNpvTGr6kpCTOnj27+DapkIoVK5rm6cNPy5kzZ9hM98sHBwcb9vOy+syZkVcXfPTRR+Lj54xomsadO3fm06dPG/azSG1u3LjBffr0YZvNJj7uKmTgwIFO+8xffvll8e1JbWrXru207R47dqz49iDmy+uvv/7IPvrITjd06FDxAhHzxcfHh2NiYpxycGzWrJn49qQlY8eOdcp2r1+/XnxbpGOF12CFh4fze++9p+QrsDKao0ePGvJzK1y4sPjYSWb//v2G/NyYmYoUKSI+fs6Mh4cH9+vXj0NDQw37maQ2O3fuZDyVmbhgwYJOefVgZGQk+/j4iG9PaqNpGl+8eNEp+7nVVxkhrsm/nzHyyE7XqFEj8QIRc2bhwoUZPjBev36d3dzcxLclLalatapTfhDee+898W2RioeHBw8cONDUr5WJi4vjr7/+mgMCAsTH21X54osvDPn5lS9fXnzsJLNnzx5Dfm6HDx8WHztXxc/Pj4cNG8b37t0z5GeT2jgcDp4xYwbnypVLfMwls2/fvgx/zkZ8uOJXX32V4e2+du0aVjsgLsuNGzce7KMPdrqUlBT29/cXLw4xZ7p3757hA+M333wjvh3pydmzZzO07Q6Hg/Plyye+HRKpU6eOYWc2U/vZzps3j1944QXxsXZ1KlasaMjPsU2bNuJjJ5ljx44Z8nMbPny4+Ni5OtmyZeNRo0aZ/qGMkZGR/MEHH5hy5U5q4oxnUNStW1d8O9KaMmXKZHi7x48fL74diHmzZs2aB/vog53u8uXL4oUh5k3WrFnZbrdn6OBYtmxZ8e1ITzI6M7d7927xbdA72bNn52nTpjllqZuqWbduHVesWFF8rPXMhQsXDPd5fvzxx+LjJpmHr8AbKVZaWfDCCy/w7NmzTf+qrdOnT3OTJk3Ex1vvlCxZMkOfq5HfwXzkyJEMbXudOnXEtwExb7799tsH+6eN/nb+/HkCcJW7d+/Sxo0b0/3fP3DgAB89elR6M9Ll999/z9B/f/HixdKboBtN06h79+504sQJ6t27t6ZpmiZdk7OdPHmSu3Tpwk2bNqWDBw9Kl6OrRYsWSZeQZjVq1JAuQVS2bNmkS0izixcv8uHDh6XL0HN7qVu3blSuXDmaP38+S9fjKsWLF9fWrl1L06dPp5w5c0qXo5uTJ0/SqVOn0v25Tp8+/a8ZNAPKyPlTaGgo79y5U3oTwMSOHTv2z/9wv7M24v0ViLHyxhtvpPtK48CBA8Xrz0gy8qTcEiVKiNevR8qVK8fbt2837QzL9evX+Y033jDccwCcGWc+uVWv3LhxQ3zcpJIzZ07DfV7MTN9995342EmmUaNGhr33PbW5e/cu9+3b1zL3x44cOTJdn6fD4WAjP1gxIw9l+/HHH8XrR8ydevXqPdg3H+x4n3zyiXhhiLmTJUsWTkxMTPOBMSkpiYOCgsTrz0j+85//pOsH4cSJE+K1uzq+vr48fPjwdO0bRkh0dDR/9tln7OfnJz7W0rHZbIZ8QrFRbzfJaOrWrWu4z4oZT/Ul+uspyV26dOEzZ84Y8jNMbfbv38/VqlUTH29XJ73PoNiyZYt47RlNei+016xZU7x2xNx5+JWgD3a8rl27iheGmD8P38Cf2ixfvly87oymQIEC6bq/beTIkeK1uzLt27fnK1eumPKELyUlhadOncq5c+cWH2eV8tNPPxnu87bqBeeMrCqSSmhoqGVmLVMTDw8Pfu+99/j27duG+yzTcqydMWMGZ82aVXy8XZn0POD0jTfeEK87o3nnnXfSvN3nzp0z7H3jiHESEBDwYN98sPPVr19fvDDE/HnzzTfTfGDs0qWLeN3OyPr169O87RUqVBCv2xXJmzcvL1iwwLQneJs2bbLcA8dSm2bNmhnuc9+5c6f4uElk3Lhxhvusfv75Z/FxUzFZsmThMWPGmHYlEPNfF1O6d+9u2kbq66+/TtNnFx8fz4GBgeJ1ZzTZs2dP80NtrfCUf0SNxMbG8iMNdenSpcWLQsyfbNmypenAGBkZyT4+PuJ1OyNpfXXYhQsXxGt2djw8PHjAgAEcHR1typO6s2fPcufOncXHWeV4eHjw3bt3DfX5p6SkWPJduEa8D7dZs2bi46ZyihYtyvPmzTPc55qWrF+/nosXLy4+1s5O5cqV0/S5zZgxQ7xmZ2XFihWp3naHw8FFihQRrxmxRu6/veTBDmj0e1QR4yQty74nT54sXq+z4uvry/fu3Uv1thv1vdtPS/Xq1Q37TtvnJSIiggcPHsxeXl7i42yEzJw503D7Qa9evcTHTc/4+PgYbjYzMjKSPT09xcfOCKlRowbv2rXLUJ9vWhIfH8/Dhw833f5w7ty5VH9mZrqHuFu3bqne7h07dojXi1gn94+jD67meHh4iBeFWCNpWfZttncI/vLLL6ne9qpVq4rX64x4e3vzqFGjODk52XQnb0lJSfzjjz9y9uzZxcfZSGnfvr3h9oWFCxeKj5ueadCggeE+o99++0183IwUm83GvXv35uvXrxvus05t9u/fz2a6dWr06NGp+qwOHTokXqsz4+/v/2Bp7fPSr18/8XoR62T58uX/NNSRkZHiBSHWSbZs2VI183H+/HnT3QuV2qfmXr582RTbXrNmTT558qQpT9ZWrlzJJUuWFB9jI8bX1zfVJ0eqJCoqylIrEEaNGmWoz4eZqVOnTuLjZsT4+fnxF198YbjvZGqTlJTEo0aNMsX3t2rVqpZtKufMmfPcbU9MTORs2bKJ14pYJ3Pnzv2noT579qx4QYi1snTp0uceGM34UAlN01K1ZGvMmDHitWYkPj4+pp2VPnnyJLdu3Vp8jI2ehQsXGm7f6NChg/i46ZUjR44Y6vOJi4vDq+kymLx58/KkSZPS9UYKI+T48eNs9GXQmqbxxYsXn/n5REVFcaZMmcRrdXZat2793P1y0aJF4nUi1srUqVP/aah3794tXhBirXTu3PmZB0YzP1Tis88+e+6PgpHfo1qnTh1Tvvv01q1b/Pbbb7O7u7v4GJshabknTpUsW7ZMfNz0SP78+Q332SxdulR83MySqlWr8rZt2wy3D6QmDoeDJ02axP7+/uLjnN58++23z/xsfvrpJ/EaXRF3d3e+cePGM7e9Xbt24nUi1sr48eP/aag3bNggXhBirXh7e3NkZORTD4zbt28Xr9FVKViw4DNnAK5fv27I96j6+vryuHHjTDe7kZSUxOPGjTPF60dUSkBAgOEeepWUlGSJ94p/+OGHhvpcmJl69uwpPm5mS+vWrdP0ECwj5eLFi9y0aVPxMU5Pqlev/szPxMyvbPzmm2+euu137twxxbJ+xFgZOXLkPw01ruwiErm/TOJJ6d27t3h9rszGjRufuu0TJkwQry+tqV27Np8+fdp0J14bNmzgMmXKiI+vWbN69WrD7TP/+c9/xMfN1dm3b5+hPpekpCQ8GNBFuf+qw2ddADdqHA4HT5gwgb29vcXHOS3RNI0vX778xM9j586d4vW5MiVLlnzqfvjDDz+I14dYL5988sk/DfXvv/8uXhBivTRq1OiJB8Z79+6Z/l64Hj16PPVHoUGDBuL1pTa+vr78ww8/mG5W+ty5c3iftA7p27ev4fab06dPm+KBgU9L0aJFDfeZrF+/XnzczJ5s2bLxuHHjOCkpyXD7x/Ny7NgxLleunPgYpyVjxox54ufQvXt38dpcnZ07dz627Q6Hg0uVKiVeG2K99O/f/5+G2kzv+kWME5vNxlevXn3swPjzzz+L1+bq+Pn5cVRU1GPbHhYWxm5ubuL1pSaVKlUy3RO8o6OjeciQIVg2plNy5cplyIsxtWrVEh87V+X+8jUj5b333hMfN6ukdOnShlxZ8rwkJCTwoEGDDHOx7EnLvq9cuWK6924/KW+99dZj275x40bxuhBrpnfv3v801GPHjhUvCLFm/u///u+xA2OVKlXE69Ij//vf/wx5McFms/HgwYMNd//rs+JwOHjWrFmcJ08e8fG1Woz48KM5c+aIj5sr4unpyaGhoYb6PBwOB+fLl0987KyWVq1amfI2n7Vr1xrmOQn/fvjnoEGDxGvSI5kzZ37sFW94ZR4ilS5duvzTUH/xxRfiBSHWTIECBR55tdLhw4fFa9IrxYsXZ4fD8ciPQr169cTrelby58/PmzZtMtVJ1P79+9nIT1U3egYNGmS4/SkpKYkLFCggPnbOTteuXQ33WYSEhIiPm1Vz//7qJ622MnLCw8PZCE+L/vzzz/nhmo385PK0ZubMmQ+2/cyZM4ZZ2YeYL23atPmnoR48eLB4QYh1s2zZsgcHxnfffVe8Hj2zZs2aB9t+5coVpZ/u3aZNG757965pTpxu3rzJb7zxhtJjboUUKlTIkPvUqFGjxMfO2THixbIhQ4aIj5vVkzdvXp4zZ85jF4iNnkmTJin9wLJixYo9GO+BAweK16NnGjRo8GDbzf4QW0TttGjR4p+G2mpNDKJWXnzxRWZmiouLs9yriRo3bvzgR+Gbb74Rr+dJ8fDw4DFjxpjmZMlut/O4ceM4ICBAfGyRv7J//37D7Vt379411cMTq1atarjPgJkpODhYfOyQv1KvXj0+fPiwIfejp2X//v1csGBB8bF9Wnbv3s2nTp2yxL3TD0fTND5//jwfPXqUPTw8xOtBrJuGDRv+01D36tVLvCDEurHZbHzu3DmeOXOmeC0Suf+AFxXfHVmgQIEnPlHTqNm8eTOXLl1afFyRRzNs2DBD7mNvv/22+Ng5KwsXLjTcZ3D8+HHxcUMejbu7O/fp04fDw8MNtz9Zdx0bAAAjZUlEQVQ9LeHh4dykSRPxsX1SOnToYNlXO/bo0cOy246ok9q1a//TUL/yyiviBSHWTseOHblu3bridUikePHivGjRIvE6/p2WLVvy7du3TXFSdO3aNe7atav4mCJPTqlSpQy5n506dcoUtwyUKFHCkE9bHzlypPjYIU9Ozpw5+ZdffjHkfvWkJCcn8/Dhww3zFHAEQfRJtWrV/mmoO3ToIF4QgiBqRNM0Hjx48CMPizNq7HY7f/PNN5Z6WItRc+rUKUPub2Z4uuzDD/gxUqzyRggjp1atWqZaBr506VLcLoQgyIOUL1/+n4b6xRdfFC8IQRD5+Pv78/z5801x8rN582YsBzNQvvrqK0Pud4cOHTL0rFWZMmUMOYt46dIlQ4+7leLu7m6qp4EfP36cixcvLj6uCILIp2TJkszMZCMistvtBADWVqRIEdq1axd16tRJk64lI0JDQ7lHjx7csGFDOnbsmHQ5kEqLFy+WLiFdypcvr7Vp00a6jHQbOXIk2Ww2w33nlyxZQswsXQakQnJyMk2YMIFKlChBfz8rxdBKlSqlhYSEUJ06daRLAQBhD3poZvXffYsgiGtTo0YNDgsLM/Tsgd1u5++++44zZcokPp5I2qNpGl+5csWQ++C+ffsMOVtao0YNQ443M1ODBg3Exw9JX9q0acOXL1827L53PwkJCWyGWz4QBEl/8uXLx8xMxMxUvXp18YIQBJFJx44dOS4uztAnN1u2bMHybhNk/Pjxht0PW7VqJT5+aYmmabxr1y5Djnd4eDi7u7uLjyGS/vj6+vLw4cM5MTHRkPvg/SQnJ3O/fv3ExxNBEJnkzJnzn4Zaxdf1IAji+gwePNjQ75cODQ3lV199VXwcEeekQYMGht0XQ0JCxMcvLenZs6dhx3rq1Kni44c4J+XKleO9e/cadl+8n1GjRomPJYIg+icwMPCfhrpkyZLiBSEIol80TePvvvvOsCcxDoeDZ8yYwdmyZRMfS8R5cXNz41u3bhl2vzTK8s9MmTLxjRs3DDvOeJCquWKz2bhPnz4cHR1t2H2Smennn39mNzc38fFEEES/+Pj4/NNQFy5cWLwgBEH0iZubG0+dOtWwJy7Hjh3j2rVri48j4pr88ssvht03z58/z15eXuJj+LyMGTPGsGMcFRXF3t7e4mOIOD9FihThjRs3GnbfZGaaO3cummoEsVA8PT3/aajz5csnXhCCIK6Pj48P//nnn4Y8YYmLi+Phw4cbomFB0p8XX3zRkPvn/Xz88cfiY/isVKhQgZOSkgw7xn/88Yf4GCKui6Zp3L17d75z545h99Hp06ezzWYTH0sEQVwfm832T0OdI0cO8YIQBHFtvLy8ePny5YY8Sdm8eTOXKFFCfAwRffbTe/fuGXI/Zf5rBjVXrlzi4/ikuLu784EDBww7tsxMXbt2FR9HxPUJCgriBQsWGHZfnTp1KppqBLFIHA7HX1/8wMBA8WIQBHFdvL29efXq1YY7OQkLC+PXXntNfPwQfTNnzhzD7asPZ+LEieJj+KR8+umnhh7XhIQEzpw5s/g4IvrllVdeMexs9eTJkw35Oj0EQdKW5OTkv770/v7+4sUgCOKaeHp6Gm6Zt8Ph4F9++YWzZs0qPn6I/unSpYuh9td/Jzk5mStVqiQ+jg+nXLlyHB8fb+hxXbFihfg4IvonT548vGrVKkPuu+PGjRMfPwRBXJvExMS/vvA+Pj7ixSAI4vy4ubnxokWLDHUicu7cOa5fv7742CFy8ff3N3zzt2fPHmWWfHp7e/PRo0cNPZ7MTG+++ab4WCIy0TSN+/bta8gngY8YMUJ8/BAEcV1iY2P/+rJ7eHiIF4MgiPPzww8/GObkw+Fw8KRJkxgrZhAiMtyqiifl7bffFh9HIuIJEyYYfixTUlI4KChIfCwR2RQqVIg3b95suP25f//+4mOHIIhrEh0d/dcXHfd4IIj58n//93+GOek4e/Ys161bV3zMEHXSq1cvw+y/T0tERIR4E9iyZUt2OByGH8stW7aI75OIGrHZbPzxxx9zQkKCYfbr5ORk7tixo/jYIQji/ERGRv511Ve6EARBnJu33nrLECcamJVGnpZs2bIZ+vVO9zN79myxMcyRIweHhoYafgyZmQYOHCi+TyJqpXTp0oa6lSEuLo7r1KkjPm4Igjg3d+7cYUpMTBQvBEEQ56Vu3bqcmJio/EnG+fPnuUGDBuLjhaib9evXK78fpyaNGzfWfew0TTPFsvn7eeGFF8T3R0S9+Pj48Lhx4wyzn9++fZuLFCkiPm4IgjgvYWFhf10xky4EQRDn5IUXXuBbt24pfXKRkpLCY8aMYTwMEXle3n33XaX35dTm1KlT7OXlhbFLZw4cOCC+LyJqp1u3bhwVFWWIff7kyZMcEBAgPmYIgjgnoaGhTFFRUeKFIAiS8fj5+fGxY8eUPqEICwvj5s2bi48VYozkzZvXFPf/MjMNGzZMt3ErVaoUx8XFmWLc9B47xLgpVKgQ79y50xD7/erVq9nNzU18zBAEyXiuXbv210NTpAtBECTjmTFjhtInEqtXr+acOXOKjxNirOzatUvp/Tq1iYuL02Wpp5eXFx86dMgUY3Y/ZcqUEd8PEWPE09PTME+1Hz16tPh4IQiS8Vy+fJkpPDxcvBAEQTKWvn37KnsCkZSUxMOHD1fmnbyIsfKf//xH2X07rVmzZo3Lxytz5symmp0+c+aM+D6IGC+vvPIKx8bGKv896NKli/hYIQiSsZw/f55tKSkpBADGVbFiRRo3bpx0GU909epVbtCgAY0YMYIcDod0OWBAixYtki7BaQoUKODyvxEVFUWrV6+W3lSnMdPnD/qZM2cO1apViy5cuMDStTzL1KlTKTg4WLoMAMiAlJQUsiUnJ0vXAQDp5OvrS3PmzCFvb29NupZ/W7NmDZcvX5527NghXQoY2Llz5+jo0aNKnxSn1h9//KHL35kzZ470pjrNkiVLpEsAgzp8+DBVrVqVVq9erezxw9/fX5s3bx75+PhIlwIA6YSGGsDgvvvuOwoODlaumZ4yZQq3bt2aIiIipEsBEzDLLKVeDfWKFSsoJiZG2SYitW7cuMG7d++WLgMM7O7du/Tiiy/SV199xcys5HeiXLly2nfffSddBgCkU0pKCmHJN4BBNWvWjPr16yddxiOYmT///HPu06cP4WIdOMvixYulS8iw/fv38+nTp3X5W3FxcbR06VLpTc6wxYsXk6I9EBiIw+GgTz/9lF555RVKSEhQcod65513tHbt2kmXAQDpkJycjIYawIiyZctGM2bMIE3TlJmdTkhI4JdffplGjBghXQqYzOHDh+n8+fNKngin1ty5c3X9e3rNhrsSlnuDM82dO5datWp1/+02ypkyZQrlypVLugwASCOHw4El3wBG9P3331NQUJAyzXRERAQ3adKE5s2bJ10KmJSRmytmZr0b6rVr19Ldu3eVbBxS4+7du7xlyxbpMsBkNm3apOzDyrJnz65NmjRJugwASCPcQw1gQI0aNaJu3bpJl/HA3bt3uUmTJnj4GLiUkRvqHTt20JUrV3T9m3a73dD3ni9fvpySkpKkywATOnXqFNWsWZNCQkKUa6rbtm2rqfT7DgDPh4YawGB8fX1pypQpyiz1joiI4ObNm9OBAwekSwGT27lzJ928eVO5E+DUkHrqtpGXfRv5YgCo79atW9S4cWNat26dcseUCRMmUFBQkHQZAJBKuIcawGC++OILKly4sDLNdNOmTWnfvn3SpYAFOBwOWrZsmXQZaZacnMwLFy4U+dubNm2iGzduKNcwPE9cXByvW7dOugwwubi4OHrppZdoyZIlSn1HsmTJon377bfSZQBAKuEeagADKVGiBA0YMEC6DCIiCg8P5wYNGtD+/fulSwELMeKy7w0bNlBYWJjI33Y4HLRgwQLpIUizVatWUVxcnHQZYAGJiYnUpUsXmj9/vlJNdbdu3bRGjRpJlwEAqYDXZgEYyNixY8nDw0N8djo6OpqbN29OR44ckS4FLGbDhg0UHR2t1Inv8+j9MLJ/M+KybyNeOAHjSkpKoldeeYVmzpyp1LHlp59+Ii8vL+kyAOA5cA81gEG0bt2aWrZsKd5Mp6Sk8GuvvUYHDx6ULgUsKDExkVauXCldRlrqZel3aIeEhNClS5eUahSeJSkpiVesWCFdBlhMSkoK9e7dm/744w9lvivFixfXPvjgA+kyAOA5cA81gAG4u7vTd999J10GERH179/fkPexgnkYafZy1apVFBkZKVoDM4vPkqfFhg0bKCIiQroMsCCHw0E9evSgFStWKNNUDx06FO+mBlAcZqgBDOD111+n4OBg8dnpL7/8kn/66SfpMsDiVqxYQQkJCcqc8D6L1NO9/81Iy76lZ/TB2pKSkqhz5860detWJY4x/v7+2qeffipdBgA8AxpqAMV5e3vTsGHDpMugWbNm8fDhw6XLAKDo6GjatGmTdBnPFRsbq8zS5UOHDtGpU6eUaBCexeFw8J9//ildBlhcfHw8tWnThg4ePKjEd6Zfv35UrFgx6TIA4CnwUDIAxb3zzjuUP39+0dnpo0ePct++fYlZiXMLAEMs+166dCnFxsZKl/GAEWap/37XuHQZAHTv3j168cUX6fr16+I/fB4eHtrIkSOlywCAp0BDDaAwPz8/GjJkiGgNMTEx3KVLF4qPj5ceDoAHli5dSg6HQ/xE91lUa2B/++036RKeC8u9QSWhoaHUtm1bio+PFz/WdOrUicqVKyddBgA8AZZ8AyisT58+lCNHDtHZ6bfffptOnTolPRQAjwgLC6OQkBDpMp4qIiKC165dK13GI86dO0cHDhwQbwyexQgrD8Ba9u/fT3379pUugzRN0z755BPpMgDgCdBQAyjKw8ODBg4cKFrD5MmTefbs2dJDAfBEKs9mLlq0iBITE6XLeIxqs+YPO3z4MF+4cEG6DIDHzJo1i77//nvxi1GdO3em4OBg6TIA4F+w5BtAUd26daMCBQqIzU4fOXKEpRt6gGdReTZT1cZ17ty5xIo+DEHlCyQAgwcPpv3794t+d9zc3LTBgwdLDwUA/AsaagAFaZpGH3/8sdjfT0lJ4ddffx33TYPSzp07R8eOHVOuObx58yar+hTyK1eu0M6dO6XLeKJFixZJlwDwVElJSfTyyy9TTEyM6DGnW7dulD9/funhAICHJCcnky0pKUm6DgB4SNOmTalkyZJis9Njx46l/fv3Sw8DwHOpOKs5b948UvlCtYqz5+fOneOjR49KlwHwTOfOnaP//Oc/ojV4eHhoKtzTDQD/cDgcmKEGUM27774r9rcvXLjAn3/+ufQQAKSKisu+586dK13CM82fP59SUlKUmtlX8XMEeJKff/6ZVqxYIfr9eeutt8jLy0t6KADgb8nJyWioAVRSsGBBevHFF8X+fr9+/SguLk56GABS5cCBA3Tx4kVlmsMrV67wrl27pMt4prCwMNq4caN0GY/Acm8wCmamd955h2JjY8WOOzlz5tS6du0qPRQA8DeHw0E2h8MhXQcA/K1fv37k5uYmstx7+vTpvG7dOukhAEiTZcuWSZfwwJw5c0jRZ349QqVl36Ghobx7927pMgBS7cqVKzR69GjRGt5//33pYQCAv2HJN4BC3NzcqGfPniJ/OyYmhocMGSI9BABpptJ91HPmzJEuIVX+fq2XEp3/kiVLCBf2wWi++eYbOnPmjNh3qFKlSlq5cuWkhwEACA01gFKaNWtGuXPnFpmdHjt2LIWFhUkPAUCabd++nW7fvi3eHJ46dYoPHz4sXUaqREZG0po1a6TLICLcPw3GlJiYSB9++KFoDd27d5ceBgCgv1+bhSvDAGro0aOHyN8NDw/nMWPGSG8+QLokJyfT8uXLpcswzOz0fSos+46MjOTNmzdLlwGQLsuXL6fNmzeLXcx77bXXyM3NTXoYACwP91ADKCJz5szUpk0bkb/95ZdfUlRUlPQQAKSbCrOcKjSoabF06VLRBysREf35559kt9ulhwIg3YYMGUIs9OCE3Llza02aNJEeAgDLQ0MNoIgOHTqQr6+v7su9L168yJMmTZLefIAMWbt2rWhzeODAAT5z5oz0MKRJXFyc+My+ChdCADJi9+7dtGLFCrG/j2XfAPJSUlJwDzWACjp37izyd0eMGIEZIjC8+Ph40XuCjTY7fZ/kMvW4uDhW5T5ugIwYPny42Cx127ZtydvbW3oIACwNM9QACsicOTM1atRI9797/fp1Ntp9nwBPIzXbycw8b9486c1Pl1WrVtHdu3dFGoEVK1bgnfdgCgcOHKDVq1eL/G1/f3+tYcOG0kMAYGl4yjeAAtq0aUPe3t66L/f+4YcfMDsNprFs2TKy2+26N4fbtm2jy5cvS29+utjtdlq6dKnI3164cKH05gM4zRdffCH2t9u1aye9+QCWlpKSQjahVSoA8LcOHTro/jdjYmJ48uTJ0psO4DSRkZG0detW3f+uUZd7S9afkJDAK1eulN50AKcJCQmhrVu3ii37xtO+AeQwM2aoASR5enqSxFM6p02bRhEREdKbD+BUei/7Tk5OZqPPtG7YsIHCwsJ0bQRWr15N0dHR0psO4FQ//vijyN/NlSuXVr16denNB7AsvIcaQFjt2rUpU6ZMui73TklJ4QkTJkhvOoDTLVmyRNeHA61du5Zu3bolvdkZkpKSovvya6NfhAB4ksWLF9O1a9dEZqmbNWsmvfkAloWHkgEIa968ue5/c/Xq1XT+/HnpTQdwuuvXr9PevXt1+3tGX+59n54PJ7Tb7Sz9ui4AV0hOTiapW6nwPmoAOXgoGYCwFi1a6P43Z86cKb3ZAC6j17LvhIQElnqgl7Pt2LGDLl26pMvM2rp16ygyMlJ6kwFcYubMmSKv0KpevToFBARIbz6AJWGGGkBQzpw5qVy5crr+zaioKF62bJn0pgO4jF4N9dKlSykqKkp6c52CmXWbpcZybzCzy5cv086dO3X/u+7u7lr9+vWlNx/AknAPNYCgevXqkaZput4/PW/ePIqPj5fedACXOXnyJJ06dcrlM0Rme4f7rFmzXP43kpOTcUEPTO+3334T+buNGzeW3nQAS0pJScGSbwApdevW1f1v6nHSDCDN1bPUkZGRvHr1aunNdKqTJ0/SoUOHXHohYtOmTXT79m3pTQVwqUWLFpHD4dB92bfEOQUA/P3aLMxQA8ioV6+ern/v8uXLvG3bNunNBnA5VzfUCxcupMTEROnNdDpXz6wtWLBAehMBXC4sLIwOHjyo+98tV64c+fv7S28+gOVgyTeAkICAACpbtqyuf3POnDkk8KwUAN3t2bOHrl+/7rKd3SxP9/63OXPmuGxmLSUlxTQPcQN4npUrV+r+N93c3LQqVapIbzqA5eChZABCatSoQW5ubrreP41X1YBVMDO5qnm7efMmb9q0SXoTXeL69eu0efNml/zb27Zto7CwMOlNBNCF1C0hNWvWlN50AMvBa7MAhFStWlXXv3f79m0OCQmR3mwA3bhq2ffcuXPJzL+brlr2jeXeYCV79+6luLg43ZeE1ahRQ3rTASwHS74BhFSuXFnXv7dy5UpTNwEA/7Z582aKiIhw+gmt2Z7u/W8LFiyg+Ph4p46bw+HgxYsXS28agG6SkpLowIEDuv9dvS/WAwCe8g0gRu/7nCTu5wKQlJSU5PT9/sKFC7xnzx7pTXOpqKgoWrFihVP/zV27dtGNGzekNw1AV7t27dL9b+bOnVvLmTOn9KYDWAqe8g0gIFeuXJQvXz5d75/eunWr9GYD6M7Zs6J//PGHJR7s5+xl3wsXLpTeJADdSd1mpfcDTwGsDg8lAxBQoUIFXf/exYsXOTQ0VHqzAXS3atUqp97HaPbl3vetXLmS7ty545RxY2ZetGiR9CYB6E7i1VlEROXLl5fedABLwZJvAAF6Xz2WWHYGoIK4uDjasGGDU/6tI0eO8LFjx6Q3SRd2u91ps8p79uyhy5cvS28SgO4uX75MsbGxui9pwQw1gL4wQw0goHTp0rr+PTTUYGXOetq3VWan73PWsm8s9warcjgcdOrUKd3/brly5aQ3HcBS8JRvAAF6N9T79++X3mQAMcuWLaOUlJQMzRIxM8+dO1d6U3S1bds2unTpUoZn17DcG6zs+PHjuv/N4OBg0jRdH9MCYGl4DzWAzmw2G5UqVUrXv3n27FnpzQYQEx4eTtu3b8/QvxESEkIXL16U3hRdMTPNnj07Q//GwYMH+fz589KbAiDm5MmTuv9NPz8/LSgoSHrTASwDS74BdJY/f37y8/PT7dLxvXv3+Pbt29KbDSAqo8u+rbbc+76ZM2cSZ+Cx5vPnz5feBABRUhfiihcvLr3pAJaBhhpAZ0WKFNH17507d056kwHEZaShTk5O5nnz5klvgoizZ89m6BkMVh03gPukHshXrFgx6U0HsAw85RtAZ2ioAfR36dIlOnjwYLpmWteuXUthYWHSmyBm1qxZ6frv7d27F8u9wfLQUAOYH2aoAXSGhhpARnpnqdPbUJrFnDlzKD4+Ps0XI6z2EDeAJ7l58yYlJCTo/uqsokWLSm86gGXgKd8AOtO7ob5+/br0JgMoIT0NdVRUFC9dulS6dFH37t2j5cuXp+m/w8yM+6cB/nq439WrV3X/u/nz55fedADLwAw1gM5eeOEFXf9eeHi49CYDKOHIkSN09uzZNM0UzZs3j+Lj46VLFzdz5sw0/ed37txJV65ckS4bQAmhoaG6/0001AD6wWuzAHSWN29eXf8envAN8I8///wzTf95qy/3vm/16tV08+bNVF+MwHJvgH/cunVL97+ZM2dO8vT0lN50AEvADDWAjmw2G2XPnl3Xv3nnzh3pzQZQRlqWfV++fJkz+v5qs0hOTqY//vgjVf9Zh8PBCxculC4ZQBkSDbXNZtPy5MkjvekAloAZagAd5cyZk9zd3XV7BzURZqgBHrZz585Uz7TOnDmTcMH5H6ld9r1lyxa6ceOGdLkAypBoqImw7BtAL3goGYCOgoKCdP+bmKEG+IfD4aBly5al6j/722+/SZerlIMHD9KRI0eeezECy70BHiX1LBO9bzEDsCq8hxpAR3o31FFRUWy326U3G0ApqVn2HRISwqdPn5YuVTnTp09/5v89OTmZFy1aJF0mgFKkZqhz5swpvekAlsDMmKEG0Evu3Ll1/XuYnQZ43IYNGyg6OvqZM614GNmTzZw5kxITE586dhs3bsSbBQD+JTIyUuTv5siRQ3rTASwBS74BdCQwQy29yQDKSUxMpJUrVz71/26323nevHnSZSrpzp07tHjx4qf+31P74DIAK0FDDWBueCgZgI5y5cql69+LjY2V3mQAJT1r2ffy5cvxML9nmDJlyhP/90lJSbx06VLp8gCUc+/ePZG/iyXfAPrAa7MAdKT3km801ABPtmLFiqcuXcZy72fbtGkTnT179rGxW716Nd29e1e6PADlSDXUmKEG0AeWfAPoSO8l32ioAZ4sOjqaNm3a9Nj//s6dO/ys5eDw18NXpk6d+tj/Hk/3BngyNNQA5oYZagAd6b38Cg01wNM96V7gX375hfBk/OebPn06JSUlPZiljo2NxXJvgKdITEykhISE575yztmyZMkivekAloB7qAF0lD17dl3/HhpqgKf7888/yeFwPDjJTU5O5v/973/SZRlCWFjYI+/zXrBgAcXExEiXBaAsiVnqwMBA6c0GsAQs+QbQUUBAgK5/Dw01wNPdvHmTQkJCHvzPS5cupStXrkiXZRgPX3yYOXOmdDkASouPj9f9b3p6emo+Pj7Smw5gepihBtCJv78/eXh4aHr+TTTUAM/28LLv8ePHS5djKBs2bKADBw7w5cuXefPmzdLlACgtISFB5O/qfSEfwIpwDzWATiTuZUJDDfBs91+fdfDgQd62bZt0OYYzfPhwmjBhAuE8AuDZpBpqLPsGcD2Hw0Hu+CEEcD2JHzU01ADPdu7cOTp27BhPmDBBuhRDWr58Obm5uUmXAaA8iSXfRGioAfSQkpKCJd8AepCYoZb6AQcwksmTJ9OcOXOkyzAsnEMAPB+WfAOYF2aoAXQicZU4MTFRerMBlPfjjz8Ss+5vtAEAC8EMNYB54R5qAJ1IzFDjfboAz4dmGgBcTeoCNxpqANfDkm8AnUj8qKGhBgAAkCc1Q40l3wCuhxlqAJ1gyTcAAIA14R5qAPNCQw2gEyz5BgAAsCbcQw1gXljyDaATLPkGAACwJryHGsC8MEMNoBPMUAMAAFgTlnwDmBcaagCd4B5qAAAAa8IMNYB5ORwOLPkG0ANmqAEAAKwJ91ADmFdKSgpmqAH0gHuoAQAArAlLvgHMC0u+AXSCGWoAAABrwpJvAPNyOBzkHhAQQMwsXQuAaf1/e3dwG0cSRFGwZ6kL0Wc6QP8tI0ALSMysE8qqwlOEA2rpknj6Rent7e2673v5r+tnqAFgv11/wX3f9/Xx8XH9/v7u/iOArMfjcf35/v5+7P4Q4O+zUAPAfrv+vaLH4/H4+vra/duHvP92fwAw4+fnZ/cnAMA/z0IMbYIaohxwANjPv1cEbYIaogQ1AOznv6iFNkENUQ44AOznHkOboIag1+v18sQMAPYT1NAmqCHI8QaAM7jJ0CaoIcjPTwPAGQQ1tAlqCHK8AeAMbjK0CWoIslADwBkENbQJaghyvAHgDG4ytAlqCHK8AeAMbjK0CWoI8uQbAM4gqKFNUEOQ4w0AZ3CToU1QQ5DjDQBncJOhTVBDkCffAHAGQQ1tghqCHG8AOIObDG2CGoIs1ABwBkENbYIaghxvADiDmwxtghqCHG8AOIObDG2CGoIcbwA4g5sMbYIagvwMNQCc4fV67f4EYJCghiB/Gw4AAPMENQRZqAHgDBZqaBPUEGShBgCAeYIagizUAHAGCzW0CWoIslADwBkENbQJaggS1AAAME9QQ5An3wBwBgs1tAlqCLJQA8AZBDW0CWoIslADAMA8QQ1BFmoAOIOFGtoENQQJagAAmCeoIciTbwA4g4Ua2gQ1BFmoAeAMghraBDUECWoAAJgnqCHIk28AOIOFGtoENQRZqAHgDIIa2gQ1BFmoAQBgnqCGIAs1AJzBQg1tghqCBDUAAMwT1BDkyTcAnMFCDW2CGoIs1ABwBkENbYIaggQ1AADME9QQJKgB4AwWamgT1BAkqAHgDIIa2gQ1BAlqAACYJ6gh6Pl87v4EAOCyUEOdoIYgCzUAAMwT1BAkqAEAYJ6ghiBPvgEAYJ6ghiALNQAAzBPUECSoAQBgnqCGIE++AQBgnqCGIAs1AADME9QQZKEGAIB5ghqCLNQAADBPUEOQoAYAgHmCGoI8+QYAgHmCGoIs1AAAME9QQ5CFGgAA5glqCLJQAwDAPEENQYIaAADmCWoI8uQbAADmCWoIslADAMA8QQ1BFmoAAJgnqCHIQg0AAPMENQQJagAAmCeoIciTbwAAmCeoIchCDQAA8wQ1BAlqAACYJ6ghyJNvAACYJ6ghyEINAADzBDUEWagBAGCeoIYgCzUAAMwT1BAkqAEAYJ6ghiBPvgEAYJ6ghiALNQAAzBPUEGShBgCAeYIagizUAAAwT1BDkKAGAIB5ghqCPPkGAIB5ghqCLNQAADBPUEOQoAYAgHmCGoI8+QYAgHmCGoIs1AAAME9QQ5CFGgAA5glqCLJQAwDAPEENQYIaAADmCWoI8uQbAADmCWoIslADAMA8QQ1BFmoAAJgnqCHm+Xy+dn8DAAD8CwQ1xHjuDQAAawhqiBHUAACwhqCGGD8/DQAAawhqiLFQAwDAGoIaYizUAACwhqCGGAs1AACsIaghRlADAMAaghpiPPkGAIA1BDXEWKgBAGANQQ0xghoAANYQ1BDjyTcAAKwhqCHGQg0AAGsIaoixUAMAwBqCGmIs1AAAsIaghhhBDQAAawhqiPHkGwAA1hDUEGOhBgCANQQ1xFioAQBgDUENMRZqAABYQ1BDjKAGAIA1BDXEePINAABrCGqIsVADAMAaghpiLNQAALCGoIYYCzUAAKwhqCFGUAMAwBqCGmI8+QYAgDUENcRYqAEAYA1BDTGCGgAA1viz+wOAv+v9/f36/Pzc/RkAwHVd933v/gRg0P+xtxQbAcdKtgAAACV0RVh0ZGF0ZTpjcmVhdGUAMjAxNy0wNi0xMlQwMzozNDoyNCswODowMNxnJYgAAAAldEVYdGRhdGU6bW9kaWZ5ADIwMTYtMDQtMjNUMDA6NDA6MjUrMDg6MDAIOeeTAAAAVHRFWHRzdmc6YmFzZS11cmkAZmlsZTovLy9ob21lL2RiL3N2Z19pbmZvL3N2Zy83Mi9kZi83MmRmYTdlM2VmMThmZDg2M2FiN2Q2M2E1NTM4Y2E3Zi5zdmeeOPi6AAAAAElFTkSuQmCC;" parent="1" vertex="1">
          <mxGeometry x="455.8999999999999" y="80" width="129.2" height="80.5" as="geometry" />
        </mxCell>
        <mxCell id="V7jzu54YT6VPU3nDm642-16" style="edgeStyle=orthogonalEdgeStyle;rounded=0;orthogonalLoop=1;jettySize=auto;html=1;" parent="1" source="V7jzu54YT6VPU3nDm642-14" target="V7jzu54YT6VPU3nDm642-4" edge="1">
          <mxGeometry relative="1" as="geometry" />
        </mxCell>
        <mxCell id="V7jzu54YT6VPU3nDm642-14" value="" style="shape=image;imageAspect=0;aspect=fixed;verticalLabelPosition=bottom;verticalAlign=top;image=data:image/png,iVBORw0KGgoAAAANSUhEUgAAAgAAAAIACAYAAAD0eNT6AAAACXBIWXMAAAsSAAALEgHS3X78AAAgAElEQVR42ux9CZwU1bV+r7P1bDTMwjDM0tM9C7ibmDzNZl6MS5RtZnpmunoWVgEFBIIKCLgBKquISIiyuEJQg1tEFDGguAUxYl6ivpf8JYlL8lxe1CQy2/+cqls91TW11701MEzP7/66p5d7bt1z6pzvbudzuRx+/Otf/3JjUft/QJ41eaIM+f+sr9FpeSeTDmnUXV7c6Kooa+FfV5TGXaESziv9vKKUq46UN08OlzX/PFwWfxE+/0uoNP6PipJ4J3y/G/7vwueBMlBOtIK2K9pvqCT+b7D1v8P/R+D54YoSbhGU8yPDuUzxXpjUtsI7vvVWb1dXu+sf//iHG8sXX3zh/uqrr5jc+19++aUbC8qQ/o/F1V8f//u//+v529/+5pWWTz75xO2kPHyPlTy8Fiflffrpp73kYcH3+6sOP/74Y+/f//53Zn2KdaMMaWEpD67P/dFHH3mlBa7TtrzQcM5VfeFsMfgnAv/pIyflVIdbp1WGWp6H4P91VWhCd1XFxO5IWSs4zuYeJ0ox+APA6AZZSYWl81eSh+85KY/lNTotD8vxIM+KDiH4EzvG37ZAHeOhrgnC/yXcn+Hz9QB4zxLvjyWL7kl57tlXvP/44jPPBx986Ckv5pjc9+BXPB9++KFXXvosOLe3tzNHHkePHnX/z//8j18sf/zjH32sZYIc33vvvefHgq8dkOcV5WHBa2YpD/rQI5WH/zO+PrdUHhTmRgsyfBJ5vn4oL8lmsI+t11bnCpUKTqusuMlVUSYE/3BZqxcc3hwYBf2/Sgj61eEJ3ZWhVigtHeBY28ERdvCjplJwmD3BnxoIADmJwjp4yOVhYS0vUt6/5WHw7Usd4vWanQGo6JkBgGd+RqATntux8HZeivWO58Eu3DOPfPOsaWfgvdLd/aVv892PpfL3TWncVTY8zuS+/+///m+pn/H/6U9/Yh6Djx07pizj66+/dv/73/9m2oA333zTDyVVWt544w1mAQTrdlieWy4Pr5mVvEOHDrkPHz6cIpWH/+P7TskjferuTzbz29/+Nk1aWOoQ5HnwmqTyrOqwuLgeRvvNwgxASdwdCTXzdYBzOxec3xsRGP2Ey1pgxN/SXh1u7YDShQX+54M9qyl/dOAgJ1GqKlqhHWwDh1QeFpYBC+uWy2MZlLHvsA+T+5QtCMD6+1KHVOQlAAEBBwAI4HU7f308KG5tP7VmwvIjhw+ndnd3u2ZduTpFAAExANLNVO/7119/3QP3OPqyNLHA/36W8ReXFjHOK4IADP7//Oc/E2sStB8HDhxIeemll9KxHDx4MAVKuvg/fOZjIM8n1g8llRRm8vbv3++RXB9/jeT/DLx22vJ+/etfu1988cU0rB/Lyy+/nCK+xvfxc5byJDrE/9Px+hlcYwrIxOtBeWlYxP/hM+o6fOGFF3xi/XBNeK1SedR1uG/fPg/YRjqRgX2ZuF7oz7Tnn3/elA4h6JNnzt3zHjdbCBpt6ASPgZPrrIm0dWEBJ9tFXndXhVuZOXKsH4vo1PE1PrMIIFJ5YvAQ/2cBArBOqTz59bII/tI+lMpjpcMqSR/K+5e1DpnZTEkcR/1d+Aw6xHugHWWMqJyMsl687JJrInj/zJ61ip8JqChpojYTgPc93N/oMzE2YDxKwddYWPiZzz//HPc0eL788kuP5v4iCP6e//u///N88sknuO5JLYDs3r07FUomlj179vAdunfvXs8zzzwTEN//1a9+RQ39YF0SeRnoSLHgaxbynnrqKQ/UGXj66aex7sBzzz3HB0OQl4bvkZJGUZ4b6suAa8DryIR+5K8Fn8X38HP8Hgt5cI1p5Po88H6AyAtgP1DUYZpEXsazzz7rxoKvxfdp24wBeTR1mNR32JfkXkmzokPc5CeO/CXB/3Yc9ROn18470so2LF2RkBAM8Zm8xztY2qNGsW5xhIoOvCZC2hGhG0Ck8qojPddSHUlcN1UQwAd/Uq/0WpSum1bwV+q7pOumrEOJzXQr2QxLHTphM3zwh/uB2AzOEBzDZQGQ88H535v1bbyP5s1dnSbMBHCuiuEx5vc9TT/z0UcfuSGW474wL4IA3U2NGPxx49OHH37oo7F+vXPnzvRHHnkkG8uuXbvSpZ/B/95HH300S/wcim2HjnWI9f3yl78MPP7444lrwNf4Hk15Dz/8sBfq4a8BrwWvSXaN6RJ56RT60w1yApI+9cvkJa4fv4ffpyxPS4dZ2B8UdJjupA5N2ky6kzZjRIfi9GR5CeeqrmhzkWn/n/GbnYQpzk50nCPA0WGRB0H8H97nizRw2hs1tiTqxNfy9WTxMyw0HDoGC7G+GoVrINfPFxogQNpnwjU0q18/BRCAfWRUHi0dVmv0mfT6axjosLfNxHk5NOXJ7L5Lsn/gWLgMZx1aP//RD6/6dnd3t2fO7FvTBKBtfVPg9u3bvXAvZ0HJxme4t71yv0c+w2Lbz/zxj390/+Uvf/FhLEcQ8Nlnn+nHAhz5f/DBBxj8+Y1677zzjuUAcu+992ZAybnvvvtyHnzwQcULgve9999/fzZ+B8u2bdssT4Hgb8V6oM5M6HC3ghLc+BkleV6oI5vIy8ZrUbnGdFEelAwb8tzw+yyxrgceeECx7fi+RF4W/s6KvM2bN7tBf1J5qjoU+wG+n71lyxavHZsxokP4PBNtCwvIs6xD/K1YD9ZpRB70p2UdQp964ffZpK5s6FPFvoJrTxflbd26NQt1ofS9oUMnu8LDOVeoksPRv4eM/G/iR/5C8O+SBP/uylCzyrRrs2YAtRz8VYKf4NBbiUO3N6qTytNqexIICFkHARFpX2m0XSugWQr+VdqAqRr7oUr4nl0d8n1F6tK0mSr9dhnWIamrOtxiqx8M61DWVyHJPhgRBIyobP1rfe011V3dv0u/buHKNHJ/Wbrvyf2ci89wfyve9xgfyHewWPYzv/vd79wQu1P+9Kc/+f/85z/7cSbA8I/F3fq///3vU9566y3cqGB6anfTpk0ZUAb97Gc/G/Tzn/9c80LuvvtuL3wvB7+P5a677jLt0PE3KIsUVYcpBjb8jvh9K/I2bNiAbc4ldeTANXr1+kOUt3HjxgwL1+eG32VLrlGzzfi5RF42/t6OPGy/zvV54fs55Pu52D9mrxH7RdLmLLALt4bNYPts6VBqM2blWdGh1Gawr7DPTNiMog7FEUkFOeMPzmtsmD/Sx5/l7yKOvAsdnd7Ilx8R2Qwg0iCkN/IVHDoJNBZBgNmgZySwaa9PS4Oefpt5EKAT2Gj2kVSeVR1K+8iMzdDQoRM2UxlSt3MCABIgAJcDRla1/Xr7ji3gCzfmrlx5e2plqM1VUmJ8KeDOO+9E35gLhfeNRu578l0spv3Ma6+95oGYnfr222+nEhBgfmkWR/4Q/HE3ctqrr76aZmaT1x133BFYv359EJ6D69atCxj8jRe+O+j2228PYlm9enWqUXn4XfF3UHKgw90GlOLG71qRt2bNGh/8hm8rthnbbrRfRHlQR6aJ60tqK9STalBeUr9gPRblWdHhIOwnE32aaUOHg7FYsJnBpFiSZ0aHEpsZbMFmEu2U6rB6GEnyQ9b9K0qaC+D13/B4EziwDnRuI6tau6AYDnb4Pfw+FrMBBB25+Fuj096iQ8ffmHXoUnlm2kr6hS9mZgIikr4x01bsC/F3ZkCA1b6RyjOrQ2nfWLEZOzp0wmYiBuw7OYkQgoAJ3aePnHBjd3e3b/Hi5fmrV69KCZcaOxWwatUqH9z76AvRX+D9b+i+X7t2bYD4XvSHAaN+BvfW4YZiiNnpBARYX5I9fPiw+5VXXkk7cOBABlSc8fTTT3sMXHDmypUrB69YsWLIrbfemmlGHvzGB78ZDAV/O2T58uW6myHwO+L3b7vtNkBoKw2PdPG7+BuT8qRtxOs0tRsd+0QiL0vv+8uWLXPfcsstuZJrTDUjD78Pvx9CSu7NN9+s2T/4OXxvkPgbkJllVofwu8Hk94OXLl3qM3CNWRJ5pnWIvxF/D3Xp6hDalAZ9j/3P94lZefgb8fdQV5YBeT747mAiz7TNoJ2I8uD6Bok6LC+LuULF43EWgEz9x39ONv0dq4ngqKoVRv6tpke6wgiplS9Yj/FRnPAbsyPdnlGdcYculWe0jcmBruf3RvpH2idWRp5m+8dKn9jtH7N9Yrd/nLYZU3YtHoklWTGh/POH359+9v6XtmYuXnRTHtzTqWbue3wGP2U5VhiJpbiXCDcRQqwO4EkiAAH2j0vjyP+5557jdy2CgKxf/OIXXo0G844KHBSWLCvybrrpJt8NN9ww5Prrr8/HsmTJElWHjp+J34PfBPWCm1rAw98alOeD74htGwK/s3QUDX6XLcpbvHhxttr34DM3fCcoucY0i/IS/YT1Yb0G5WVblJfUT9hvGteYLW3bjTfeaFqH+Btpu43aDC15WjpkYTNSHYZKxXX/+BkhMnUJzq2LjPy7rK51J4+UWnQcebOlEW5vh95CRnUtmg5dKs9K8JcGPCMzAckj/xbLa8/S0S5eA42+MD5D0kKlL4zPkBjXoVZf0LIZM/YsKUlLAfB6S3f3O/6r511XCPc13vdpGn6N1n2fBf4mD2Oq1mAD9xTs2LEDNxRnERBA75j07t27PY899lgmBH9+oxduaFAIpFlQ8qDBeYsWLcqyI++6667zLViwIA9KPpb58+f36mh8T/wcShBkWt6siL/FOrTkXXvttdI25WEb7Vwj1JEtyoO6sxXkJbUJ5KXZ7NOk/sL6teRh+yjqMA/7T+Eas53UIUubUdEhM5uBawlOnzbXDc7JQ9b+twjHl1ra0RlC6bK7213YJc3Xpeo0qyp6vlMVbqaw070lUZQculSeneCfNOol9UXKlfpAv03mdrpL+qui2VIfWJVXE2lW6YNmzT4wZzPQ/qoWoWjpkHxHqQ8s2YyGvEiop01mbUa6J6CiJP5vuL6aZ59fkzF79rxCuL/zr7nmml4bo+E9H5Q8KAVwn+L977PpS7PB3+CADONrlsJ+L+/WrVtxY2EuxujHH3+cfkIhPLqEO923bNmCmxhy169f75WiFERE2Ei44Gwa8q6++mrf3Llz86EUYpkzZ06io/G1+P5Pf/rTwfBdNwV5bqxLSd7s2bP9krbkY9toXCPUlQNyUFYhyMgR37/qqqs88N5g8bN58+al05CH9Yh1Yv0oR0ketoumDkmd+SDHL+nTxLXT1CFeB9RdSIpUh+ni+/gdFvLg+qQ69MNn+URePlwjNZsR5c248qohwug/NhQc1OckmHXxwT9E6Zx0qCcgVcsCiF4ws3zWvVKoF5+lDl0qrzpC7zx/tUoAlAZ/eVtYgACta6clT95vSdfOwGa0dOiEzUh1aNFmxIRB7eRY7Q14z02ZMitfyc+wuu8BTGRDbM1fuHAhxtls6d6iO++8k988j7FZ7WQYlQeO/DH4g0DcNBe85ZZbcLo+a/HixfyoBBxiNk15s2bN8s+cObPgyiuvLCQlnRT+/xkzZgyBz6kln8G6sE6ZPD+8V0DkFUChiq6g3hyJPHyd1AZoUzpNeViftP+uuOIKr+yac2jKw/6S9h/2p/SaHdKhkzaT45DNDJ04cXpxd/cvfeDkpo2onABOrrkDCoz841RT+gpOtJkvohMVHLlQaDny3g69OeHQpfJoBv/kQCgUvF7pNdMMxsmBsKf/lK6ZlTyx/+TXzMpmcIZB0GGcrc1EkuUp2a3VrIFQOvjTNSXxI+GimLe7+w7X9OlXov8cSko6FPRtBfg/PtO+7wH8Z0OMLSAzwtk33ngjvx8NNxjiZsGNGzemulg/cOQPAjH4D7npppvyMPgjMgGkk8NC3rRp0/xTp04tvPzyy4ukBd7Pmz59OvX0s1gn1i2RxcvGNmBbGF1jrlweucZ0RvLS5f1J5OX2Ux32iTyWNnP55VNzJ068fNitK2YOOrWm+bGR1TwAaKftyNUceo8jZ5fvXiqnx5Gzyz+PdcvlicGETX59IegnFaflMQj+UptRksfaZsR+FOXZthn+VIC4HyDeCSDgdLwHL/jPCT64z/OmTJlSREohPqMPZ3Xf48zpvHnzcGmBn3HHGIybBFeuXMk++Es2+/kkwb8AGpTLUh50qn/ixImFUIqwTJo0qQDe8zCU5wEZeaI8KEOxDSyvcfLkybkSeUXwfwZLeXB9gQkTJhSJBf7PZXx9fpm8PNY6hH4sEOXha5by4PpQXp70GvGaWcnDZCRXzZ6cVTtufGhEZfwvZPq6s4IRoU/CoUd6CitHnuzQe0p1mD2PfHUkWSZLwptEUO5DeayCf7+zGYE7oD0snLKZRjbe+uAed8vu+6Es73sCAgbhcjTuMcAYDLE4zeXk48Ybb8ySjPxx7ZOf2mUlr7W1NQPKMFnJYCjP39LSMtRBeR6Qly+TN8hJeeR/D0OZg2TysH/7u80w0+F/nt/snb+wLed732n+Tk1l/Bg/0gnHu2hS+KoEjy5SpPL4EZJwCsEelTBfDxltgbwuibwuCM5dfIAsscFcKFIek8xv4hovvsalExI4EtfIMkDyxD4RZwMkBkQnQZUccFQzBjlywEFTXojnCZiAz+v4jbclMW883sLf91CGiYWln8GZBVxemDVrFu6dKiQzAdmOBX88ioC7EXEzwtVXX40bufJxrROnPViMkpubmwPxeLyYlAIoReL/+BlteVCvXyKjiMhkKc8jk5EneT3ISXnkfQ8DHQ5S0SE+O2EzBX1lM1Co65DjOE80Gh9607Lm3G+cFY/jMapEkOQdOkefoa2CAxkcHxSrwiiL64TX7UkBRJgqRa71zkQwLzUYqCWBH4MxyOsAGR1ikCIOvRMcOozCuJ4AXmKm/p7f8TSwPD+8NHAIMqtJPwrXy3WxAAFwDYngXx1JDpSVTEAAlxT8q8JyEMAxDf5J8iLC9bMM/nhN1RTlhRL7ANrQlp7A+7C2NubnOOG+h3tSft9T9zMTJ070T5o0qXDq1KlFGHMh9gZxTwDGYqXTASym/jPxPCIZ/WeLm7wAleD0Kk5/FLa1tVFz6LFYLNDU1FSMBV4XoOOD4of/i8T3oVDraKhLWncRykKZKJuFvMbGRg/Ul6gbZAXIdQcl8oKs5KEceT/j5/g9in0a1NIhyCqC4qcoT8lmWOrQj9egYzPUdVhXFytdta4xGwLUeNycBAGzkwQscLYcVYcOdXeJdeNrqLsDaVpH8qlU0dly/4b3oOB68oRufBaAgIR/XeeolWRU3onXIuTQxzPiXAfU/S8YxR2rqWwhKXU5dOgdwvcFSlf9NdxEW/jfYcIkkjIZRnXcvzDw9xDtIDDgOrEfe0AARzf4C3VDcOISwYmArG7Sz1SDP7kWvojXIpXHwGZ6XQvKFd8jOqQY/HtfiwCyKMlD+wHbETYCcgdrR0f9sVjT0MbGmCOxAgYu/EzD+PHj+f0G06dP5/eH4cZAPI6IMRln5pkF/zVr1gRwswEmJcAdiMkbki7H9d3C1tbWImwkjVEdOLoAlGJSkoKS6HQlnwdoOXJSX1JQQtmkDTTladYJ/wclnwUZyAsa7W8bMoMGdUgFBOjYDAsdmrEZqjocN7axVJiGjE/CUUkIgzIE52oSVGg5dHTeUB9fLwZmIYCNx0D6X1UV3MJvnhUbd965sfO+9Y3YueHy+EUQ+G+BIP4xv1ZaEu9MBH8VEBAqSSJg6cDd4UKg5144dQQ3M1IWPxuuLQR1nloZ4prg/Ueq+dkHPPPNkx11i1P46uBCHPnjGm4rDzLg/fuhffWnjuTO+c65TedC+y8+fSQ3G+rcHeZTKWOB9oQT108FBIjBv1olKJH+7q6mBgIEWxDrlF+DVB5lm1G8BpQvfkYLBEjrlF+DXn+bXALgAQCA0bfGjm0cHos1FEWj7GMFgAoAG7GhAAJweQH3MyUtMeDpO9wQiLHZbPZdQ48NGzYExJ3/alMNgEz80Di+kWR0Z9mhNzQ0BKLRaDEWeF0AxaPwHT98XiT5XsCGPGldRfi/wnc82BZK8gzVBe8HJd8JUpQXtNrvJmQGTepQsd8p2ww1HcLvrdhM0Ia8pLouvqgxmwCAaXxALsUp7XgXBElqDp3UJQT/kDhdjqN7bnGkOMqfb+7uznFNnlKfd/nU+ryVa8by/VlRFh8CzvIeMsKWjtAVgnQiOHfwXPAR7tMzT4tNnDW7TvVU0TnfiF0wopJ7U2DiIyCgRGH/Q0nP7ADOSAhAKf4mvD4rsaY6vX4Itn/mVXWJpRr43cVQ/iy0PwkEdNsBAUaDkVSH+JpV8FeSR8lmNNtOEwRoBX8GIKAzUsbb6LujRzeUxWLRwjFj2MYK6QwjAQCK+wsWLlyYjUvzOEg3w1Gi+7jnnnsyyLn/wZizXeu7MPrHaZDEiMiKQ6+vr0dHPpwU7ESPlhOG7w8Tv4+/tSAvUQd59ms5YdImsX1W5JmqAz4PSr4bpCAvqCMvqf/x9xaCVdCKDvEZ9WFBnhmboaFDOzZDQ4cBCGR8AIbnqWFC/SuOgpMceoU1hy6pA0EFGaW3YKBuEdsFr33IQzB6dDSztjZaMnZstHTUZdFhPYE0fqM4O6G0ca/nf66TH/lHuL//x7eafnDkfy5MOe/bTT68RvidB37vhtdueO0VWQ9Hj2ooHVHFHUAQUCGZCVCqvyf4c/uhHn7H9MUXNWSPGRMtw3ZDKb7wxw2pUD/IbPaQtg+H8sewOBNQYRMEmAxC9kGAoHu94K8IAuzbjG6b5SCgwkJQTgr+Om2WgwAr8uA3ncLxQu7dUaOipXPmjPOGyjhmfkYcZIizCeISsdoDB+eYih/zAuCg3XbwRx77zZs384l/kOTH4AalxLQoGSH5LTryQi1HrgYCzHS0PPgYaStRbKFFeZZ+axUEKMgLstKDSltN69CoHmzajB0d0rCZoF2bwWBFnqdKZwBojOp6B/94OyEZuhVlhks4HwZlfF1e2uQKD48DSIkGoED76osBCBT98IeNXtK+X0SEJYP2XksBZNSOMnAvwdlnxGJ79l+UdsapsdRywrleUdrmKi+pd4WGtwod0n1N4tp/eH7jCAANfxXOzvds6JMtMXTywKUk/iHUWYC/u/CChhzQHfZlMbQZQGfUXwHXwF/b8CZMq+wnMwFnwet2cabCyGjazsifHggwNvKnORNgpa12ZgKMjPxpzgSQ33YKuQW4d8/7TlMGAeBM/QwUfhbB6FICEochALjrrruCW7ZssX4aYdeuXekAADDvf65ZNIHTFuL0qAknaSfomAYBNoOOacXaMQYrIMBO0LERWIM0dOiQzVjRIU2bCdppozgDUEFmADDAhmSb4aw4dAVH3onT/vD8l0hZPJfIJEREnGymogcEwOi6iA+oZfEQyP0yMd2fPAuAwb8dN96NrI7tun3D6MA3zoz5y8qaXJVl8V7OFUZgSHkszi7wfX/ayNhPxc2C4ukA2ZE/snObm4Hf//GPGnKxfdhODP5SHUaGNYHM1uT+LeHWRMgMixUQYHf62XxgtRb8KduMpUButH+sBH87+pD8ppOAzf8KVQj2pzYDQNHPmF5CwCUABABbt27N3b59u/lkcs8880zqY489loUAwCqKkKzvGpkmtezIrYAAO47cimLtBn+zIMBu8LeiFzvB34peKNmMGR2ysJmg1bYZAQBmHXpvR84HUPHs8+0kIHq1Rj7YTiG41g8fM1oAAfCb+3uCaJK8LtGpwqg/RgI7X395SZNi/aWljXjNCfBx+qlNg6GOj8lphE6pQxdG//yJhM+h5F973diUutpoiVLwFx+i3FCCYpkbyS9hJJYYjAdYWmvPxgOsveBPx2bsrePr9ZOd4G9FL7Lv8nsAwA4MAwA7fsZOrNi4cWMAAcCOHTuQHMh4oqD9+/en7N69OxMBAPzYVipaI06ThiM303k0HLkZxdIK/kZBAK3gb0Y/NIJ/H9qMER2ytJmglTYZBQBGHbqSIyf1dZKd81ESEL3fOP1ynT0LAggAAFC2Z/8laSDvCn4ZoDTeLq7LixsMSeD+vKaieTABAK6wxrQquWahlMTcwiwD9yQ/C4Bn+KUOvefc9nNXTK9LJYFfNfgnQEBZM98OoZ9bfABc/sDvBUjkDdAPtDR3nxsLtHSCv12bobGZT62/aAR/M/pR+E5nuNQ8ALDiZ2jEim3btmUQAJD13HPP6acKfuONN/wvvvhiBgIAU6jBokOn6ciNdCJNR25EsbSDvx4IoB38jeiJZvDvQ5vR0qETNhM0azNmAICeQ1dz5NJNdfD6e0Sup7w4ZmDjYjSAmwIXLBqbe/opsfHhMn4zXWco+aRCp8AFz71TURpLEa6Hg1F+XLd+BAkSKuSfVYbGo5NuT3Lo0CcIPEDeg1fMqB0ybhw/+tfV4Q/gr0LSBni9lwcSpfEOIwGXdvDXD7h0g78dm2EFAmgGfyN6UvnMMgAw42doxoqdO3emIwDYu3dv4JVXXult919++SWPot955x3v4cOHUwEApO/Zs4cqsYCSE2XhyLU6k4Uj11Isq+CvBgJYBX+twMsi+PehzSjp0EmbCZqxGbMAQM2hazlyaZIdeP2f4tR4qMxAgC6qc11ycUP2khvH5J55WmxadUQAAGTaX2xDJwIDaPcfy4c3pwozDHFX5bBGndqvh+uOwXfJjv1S7h4hsQ8AgGSn3V5V0dY9sop7bMrldXm42x9AgH/o0MmatZcP43gg0gMAuAPikUC9UTer4K+xTMMk+Fu1GRYggEXw1wr0Gjq0BQCM+BkWseLJJ59MQwDw6quvpr399tu83/jss88E3/nFF1+4P/jgA+97773nRwDw0ksvMeETVnCmTBy5Gghg5cjVFAtyhrJSqBIIkPVpkJG8gIo85jp0SJ5ch07bjGEnYAUAyB16dVjHkQupfMVp9Ilkit4XGVzrKi9uVg+g/Bp9G6798208dURsGcng1y4epSOOvItsMPwKrqdY3GBYHmrTBhclnKt8eNxVUyWcSIRr/2xjsOYAACAASURBVDV/zI/P1JbkvDv4pEKV3JtCroZ6H24ijOg47QrcgEg2G4aGt2TANf+FTwxUEu/Um3pnGfz1dEg7+FuyGQYggFXwVwMBGjq0DQDs3vdWH/v27UslACDl6NGjvk8//bQHAHz44Yc8APjtb3/rczF8KCAdJo5cBwT4GcqToztmClWZCWAW/FVmAhzXoQPylG7O485mrAKAXg5df2NZu3CML76DjIa9ZcVTMbi7Kip6Oz/cwR+G4FmOz8Ob+dnFSIh7PrFGn+zIu4SgjdPrXLP0usKlMZWZhagQpEuEY4gQlEvg9VfSI4YSh95FHHl7TZgbSX7H2055SVwFXMQIqBA2I8Lz+SQrYJd6//YGAayCv5oOWQV/azZDGQQwDP6KIEBdh1QAQF/Fitdff93fCwDgEoAIAA4fPpwCKMHtVPBwwLnKgwfTTnZaqSryWAOAoMMA4GS0maCTAEDduXJSgp6OcsKDHiIj+/JSzhUq7pmurwy1uMT9AfBbkqiI+wEm+RHT6WJJlkfyq5fGfyNZc3eLywFSkIEj/7xTp4jf8ZPv3EYASruYCVASPFBeh5DfP/4z0i6/eIIh+RhjHR5ZJOAiBo69mQAA7glyjLBdjdioV/BgHpBlgMOBgGzcZtgAANagqg8AgKN+5sCBA+7XXnstVREAfPzxxx5xCeDFF19Mff75590sHbl0epzh9Ko8wxzTaRanlwB05AVZB3+ZPFZT8klr/g5MycuXHAqPVx3SXgJQdOhifWQ3PdR/IBGk+ax5saSReqi42VVR1oxBU0ikU9qSWlXBvY3T8OIOffkSgMCyllhmWCiOvqF4sO4yABTjaie6Bg0aD/Xj7v8YZgVMIaP5/6goiSclGOo1fRwW9xzEu6tC8Z+QtvuhfjfuZQhF6lw1hXNdpQBkQqVN+JlbkgOgVSB/iXeqkQ7Jp4+rmE/JJ8uQZvtjBQJM2QzDJQBWIKAPlgDkM9NMY8XTTz/t3rdvX7q4BPD+++/3AICvvvpK3AToIXsAcBNgxlNPPeVm5ciJ4wuwAgEqG8iYbbRwehOg2oY/u2mDTYz8e+mQwaY8JZthuSlPyWac1GHAzEZOu5sAxWBh4LiXCALayTr7w8NLovzouLpiCgnWfGZALN6eUTyXAfUlpv7FgC/b0NUlLgWIPAN4ZLBnL0Gzu0JIB4wphzE1sKcHgMTOArkfCmvzhOGvvGeDIXHeXYkMbsJxw39UVnAXJOoYznlCPJDBlMYop1lSPze2oid7YacSq6HyZjGWIEC5bpab8izaDNXc/iwIhPpwE6DSBnVmfuaRRx5xP/nkkxlkE2D6kSNHxE2AveP7oUOHvAgAyDHAwM6dO90sHLnGpjI/C0eu1fksHLmRz2gHf5VAHWQV/I3ol5HNsDiWp2UzTugwYFS/VgGAVpDQcuihkqSRbzth+XsDyo+U2lVe3II5+y+Fkel78uAv1tMbBMRJxsF4N8k5cC9cS0TxustjmVDXbAjK/9QJ/omTDMShd2DCIT5ZUDm3tHx4PF+x/pJ4IVzzagGMNEvP/ncZP0fOAgTosPoxAAFWbYYFsQ8LENAHxwC1jqhT9zP33Xefe8eOHZmaxwDlj/379/vEREAPPfRQ5r333msZBBCGNr0kMtRAgMEkMtRAgNOJgIwGB5ogwMhRP8qJeYzYDM3EPEZshqUOA1b0bDURkFpw0HToSSNfgVKXd4Ql3G/g/xVQZsB3ZkKAXwNteItn9SPT/vLgr+Lsu3qCLGZb40HGv6HOp6C+RfDZdHieB//fA58f5UGIEJylwb9LMTgQEqJwmZApEL8j7AngPoE+3A71XSPUz80Hx/4IlM8Jd0FXIviXJKcwNnbUjyYIMM/qZxcE2LYZBqx+NEFAHyQCMpKkjpqf2bRpk3vr1q1ZphIBSdYMfGIq4M2bN2dt3LjRbTH4FxtMI2sbBJhMI2sbBDidCtjsOX8aIMDMOX9KqXnNpB6mkZrXLKtfYR/aTNAKADATFHRnAkoTOQE6oPAZAjFNMAZMvsBrDP58gh9J8JdPnSs49C5xOYBcQ7vggNt66sdnKD2jfiE4awb/JE6AxExAl3AaAa63XKg3LNYvAgspsVJJ8u5/c+f8aYAAc3XQAAG0bIYFsQ8NENAHqYDNpKm37WfuuOMON8TsbEupgMXHL3/5S79IBrR+/frstWvXGgYByFxE2ACL9ehZaYAAi0QydlgEHSUDssHqF7RBBmSF1c8OOU/AYRbB454JUkvvZsmAjAYD7ZkAPi9Al2RkjYH4GB+wS+LtSOxDgn+XXvBXnwkgvxE2B2Lq4GPIdAjXdowQ8nSKbTAU/JOZAaUgoAuPB8L/x7DtUKcgR3ryQdaf1pL82AEB9ln9zIIA6jbDgNjHDgjoAzIgK0R1ifveLBnQbbfd5oZYnWOLDEh8PPDAAykSOuCcW265RRcEIGexyF8MDS+wGgSsBHI7QaCPAnmAVfC3AwJssvoFHAYOtsDf8c4EqaZ/PQBAKwioOWVpkMSATTL8dck291kPAj0nELrEafyePQnJmwktBIGuxOmAMD8zIB3lY/2Uc/tbCeT0WP2sBHIWNkMzt78V/TOhA9YAADQGmWbogG+88UY3xOhcKnTA4uPuu+9OIQBg8LJly3JvuOEGVRDQ3NycEYvFigkAKAAAYGsa2MxUPo1p4D6ayg+wCv5WQAAlVr+Aw0sHlpZ/ThQmSCU70AIAtKeBzTDCnQTTwBbXns0EdPqsfmam8p2wGRrpfc3YAQ0d4h4AnAFAADBqVLR0zpxxXjUAQGuZmQyi+ZiKg2u171533XXu66+/Prh8+fIhBADQO064bt26VAQAS5cuHbJkyZLgwoULe4GAtra2DAAAxQgAmpqaCqDBVDaCGdnMR3MjWB9t5guwCv5mQABlVr+Aw5sHTW0APdGYIOV1XXZpQ54SAGC1EcwII9xJshGM8WY+dqx+RjbzOWEzNHP7G7EHijrk9wAQAFDe1FQ/dPRothvNcRCNIAABAMZWHGTLv3P11Ve7FyxYEAQAkI8AAGJ1pov247bbbkslACB//vz5wXnz5iVAwOTJkzMAAAxDAAAopQAaSvUomNZxPhZHwfroOF+AVfA3AgIYsfoFHD4+aOgI6InKBCmtE6l2u7sL3FIAICXaYXEUTIsR7iQ6CsbwOB97Vj+t43xO2AwLYh8tu6CsQ/4UAO4BwBmAxqb6YXV1UeZHzXEwjYNqBADxeLwYB9viZ1dddZXnpz/96WAAAAUIACBGZ7lYPW6++eY0AgAK5syZMxiFT5s2LWPKlClFCABaWlryoYFMksEoJfRhmQymjxL6BBxg9QvqJBByIqFPwGEWwX7DBCnWjQBg7Z2jskZUcXPDAuVth7gGzzIZjBIj3EmWDIYRCHCO1U8poY8TNsOS1U/JPhjoMHEMEPcA4AwAAABHks0BAPDg4BoBQGtr67BJkyZlXHHFFZ4ZM2YMmTt3biECgMWLF2e7WD9ASBoBAIUzZ87Mmzp1ahECgPHjx+dDw5img5Wm9HUiHexASl8mOhzqNItgf2OCRHmjR0WHIQA4/RRufk2kTSTa6RpIB8s8HSybfP79kNWvz22Gvg6T8gDgHgAyA+BIunkcXOMgmwCAIhh85wMAKEQAcO2117IP/uIDhKUjAEDhAACGAgDImzhx4gAhDL1RZL8n9RlggrT3+MaZMf/uFy5KQwAgZtzDJYABQhjmhDBMSX36G6tfP7OZXomAcA+Ak7ECAIAHB9sIADD2EgCQ43Ly0QcAoF878wEa4QGbMfvAUwC4B+BkAgDHCSXsAAA4eXWoCwBY+xkVAJDuWPBXWAIYyngJQL5+O9zh6VynWQSHsQ4gsiWAYQ4sOQwsAVB+4CkAcQlABAAnwxIAK3kDSwDx/qfDiHNLAFJfysrPyJcAIPYWSpYA0pgHf+kmQNx56MAmQKUNXSxZBJU2dDnJIhhkuYFMYeQvbspjySI4sAmQgQ6lmwAj5ePRqfbLTYCi82a5gWxgEyB9m1HSF0ubUdIXg42jipsAlWIFbT+jsAkwd/r06YlNgBCT83Fwziz44zHAZcuWJY4B4tlD8TNGxwC1jnSxYBHUOtLlBItg0EhbaAd/lc+CrIK/kc8Y2cwJfwxQqif5MUDMX18V7l/HAOVOmwUIGDgGSB8EaOmJhc1o6YkyCFA6BqgaK2j5GYVjgIPEz8RjgAgAMDYvXbqUPggQEwEBAMhzKBGQkaQuNFkEjSR1YckiGLTSJlrBnwUIGEgExFaHSomAMI9+Vbh/JAJSc9Y0QcBAIiD6IMCIfmjajBH9UAQBSYmAEADUjtOOFXb9DCYCwqy6kkRAg+TfERMBIQDAREArV65MpRb8N23aJE0FPMiBVMBm0rrSYBE0k9aVBYtgkEbb7AZ/miBgIBUwcx1qpAJODiAnYipgPSdNAwQMpAKmDwLM6IWGzZjRC6X00dJUwOWtrXXpRlIB2/EzYhZAkgpY1R/LUwGvX7/ePgi4//77U+65554EGdCtt97KmgzICrGLHRZBK8QuNFkEgyzaaDX40wABA2RAzHVogAzIHgiw4pxpMcIZdc52QIBNRrgBMiBK+rBjM1b0QYFFMEEGdMEFDbn8fWiQDMiqn0EyIBJPdf2wjAxoEMTuFMvBX6QDRgBglg64qanJCh2wnc6ywiJoh6GNBotgkGXQsRr87YCAATpg5jo0QQdsDQTYccp2GeHMOmUrQYcCI9wAHTBFMGbFZuzo0CaLIA8AIiHu91bogK34GUIHbDhWIB0wAAApHbD55YdnnnnG99hjj2URAJC1ceNGt9k6kL6QAAAj08A0pkvMsAjSYGizwyIYtCDPVJspsfqZYREMOMwiSJUJ0iGbsaPDpP7XBwAaIIBQ6wqUu1wHvO7AZ5JOmC94qkD4zFwxUwc448R3wcF2gKM1LU9ah548rL86bE+e2Tqqwj3tw7Za6VMzdUj7H1/b1aFeHWb6n4bN2NNhXNpmKR200bwCnZWh5DwAegCAgp8xHSvWrVvnBgCQjQBgx44d2Y8//rhx33jgwAHfnj17MhEAPPTQQ5nbtm0zHfwlGxiMbASjuTHLCIsgTYY2KyyCQRvyDLWdMqufERbBgMMsgkyYIB2yGSs67NXvxgCAPggIl7VCaQMn19qN+QSw1ESE96wWI3VVhiTfgRIpty4vqS4VeVh/DSV5RuvCtojtwjba6VMjdUn7HV/T0qFaXUb6nabN0NVhc7cEBOhvABVmYHolAjICAGz4GcuxYtOmTW4AAFkIAJ544oms5557zqf7o0OHDnkPHjyYjgAAUENg586dloO/EYfO6GiWFosgC4Y2MyyCQQryNK+BEaufFotgwGEWQaZMkA7ZjBkdKtqMcQCgCALIDADXCZ8dBCf3/Igq7kUoB2oquf3w3nN2C9T5AtanVCfI3yd+NqKSOwCOdq9dedI65fKwfpRDU55endgGsT3YNhp9qlWntL/xNW0dyuvU6m8WNkNZh89A+asWCFAI/oqZAI0CAAt+xnasuP/++92/+MUvMhEA7N27N/Dyyy97e33pyy+/5IP8O++84zl8+HAqAgBAC+lPPfWU7eCv5dAZJ2dRYhFkydBmhEUwSFGe4rUwZvVTYhEMOMwi6AgTpEM2Y0SHqjZjDgD0AgFdlRVx/M3XZ58RO2fW7NrBDQ31xVy8Ps9F8dHSWp8T4+qLsIh1T55Sl5Z4j6svXLlmDDWbSaqbyMP6UQ4LeWp1o2yxHdgmmn2qVLe0n/E1Kx2KdSv1M0ubYaFDuB82R+C+gcDerskimLz3whYAMOFnqMWKRx991P3kk09mIAB47bXX0t566y0eBHz++edCfP/iiy/cH330kee9997zIwB46aWXUvft2+d2UX7IHboD6VnlIKCQcUpfLRbBIAN5cqPJdyDFbtBheU7bjPzmLHQyDbSsTzVtxjwASAIBXTWCwzv27XOazp9yeV3+uLHRoWNGRz1+N+eiWerro0Eow0kZKnk9rLY26qctr64uGpDIKEQ5LOVhnVIZRCYvH9tCWx7qSCoDSr7kdZC2PAUdSuUVOmAz1HRYOIRzlRdzHnL/bEEAAMG8XZVFsPfGS9sAwICfoR4rnn76aTfE9DQEAG+//XbK0aNHvZ999pknAQA++OADLwKAN998MwW+RD34qzh0Jwha5AQ0rEl9lJihggzlKRHQsCbZ6VMWwQEmSDsAIAECBAAQEQDA9CtqB5377SZfuCzuYlEgEEodOu/Ix46N+lnJgyARcFIe1i0JUnzBNrCSd+lPGjz1dUkgAMFGkJU8RR2CfGzHiWQzFVhKhFT1cB/wAAAzaCqyCCqfuqACAPoiVhw4cMANsT2VAACfIgB46623fC6GD4WLZh08PNKReH9jhFMKyHCNWYzlBRxmEXTcZhTImfxO6tCIzVgHAPzRqyQAsGDR2Az4vdtBm3GUCXLAZk7M+562zVRAsA4NF2cAkgGAQRZBmgBAKVYwtZnXX3/drwkAyB6AFNY3pRM3p0oHO8YI58TNqeAEWMsLOMwi2Kc2w3rJQa5DM7klrAIAcu46CQBMubwuD0ZXgx2chXOMCXLAZk7s+56mzagBgF7BXx0E0FoCcDQ24WPfvn0pkiWAZACAz++++65P3AT47LPPpjK+Kf2MN5ApMbQ5ySIYZMkiqBD8UbaPMQNdwGEWwePBZvwsHbq8/8xsOrQCACRJV7qqw/xywNfnnN30XQQAteOiJSyZICU6ZLlRdcBm+ud9T8VmlAAABPh2+Zq/RrIgGpsANWMFC5t56qmn0sRNgAAAeL+RAADSxxtvvOF/6aWXMp555hk8BpjGSqFaxsXiptRySCyCvwaSZcrqx5CBLuAwi+DxZDNMbk61fjOqQ7MAQJZxjf8engIA5zbiypm1uQQAMGGCVNAhi6OqAzbTv+972zYjBwCV5eMxwLcrrfmrgAC7xwANxQqaNrNz5850iOX8McBXX31Vv879+/en7N69m08EtGPHjnRWCmVxcxpkaGPJIhg0MJ3FlNWPAQOdkcQ8NFkEj0eboXpz6vWXkTaZAQAK6VYTAKB8OFeN9YwbFx0aZcAEqaFDmsmqBmzm5LjvbdmMFABAQN82orIN74l2tTTLCiDATiIgU7GChs1s27Ytg2QCxERAxmf1AQCkiqmAt2zZkmFFeENDA07dFJll9bPDCGeCoY0Fi2DQxJoWU1Y/igx0ZlLz0mARtMQEacNmLDFB2rk5jfaTXtuMAgClXOvi96QA4LvnNXppHEcymZKbRrrqAZs5ue57yzYjBQAjq7gdIgDQ4liQgQCeDthCKmBLscKOzWzcuDEgSQVsfjZ/165d6QgANm/enLthwwZThtTY2CgG/2IrrH52GOFMkPPQZBEMsmijHcOnwEBnhZzHDougLSZICzZjiwnSys1ptn+02mgEAKgRrSgBADwFYDchiUVSrmDUWSbIk9Zm+tF9b8lmEABc8KOG1LlXjxs0sjr2CwQAmAjIBIEQTwccLjMOAOzGCnzGwbSZPl2zZk0mxGyRDMj6LD4AgHQEAEgHjJUa+Q3HcX4AAEWEDbDIKqufFUY4CwxtNFgEg1aM3QlWPxsMdHacpBUWQSpMkCZshgoTpJm2WnWSam3VAwBaLGtqAMCOfdsE1MGos0yQJ6XN9LP73rTNYBKhcWOjw6+aM24wAoCqip5jgAZBQIIO+LzvNGXoAQAasQLZADGO4qDayO+WL1+etXr16sEIAKzO3ic97rnnngwEAFjpsmXLNM+YNzc3+wEAFBH+4iKzyMXC9JPtqXWbLIJWWP1MtdnuNKkFBjoa06RmWASpMkEasBmqTJBG2mx3mlSpzVoAQI9iVQsAWLFzSktqwaizTJAnnc30w/vepM1Eh40bFy1FAAD3yH3SPAAGQUACAIwaFS2dM2ecVw0A0IoV4kw6xtNYLKbZR0uWLMkGADAEYzXEbHqnQdavXx8gACAPhSh9p7W11Q8AoCgejxeTGQAqrH5GGOEoMLRZYRG0w+pnqO20NkqZYKCjuVHKCIsgEyZIDZthwgSp1XZaG6Xkbb/owoZsJQBghF9dDwCYsXfKm2qD0T5iDz0ZbKaf3veGbQYzCiIA6O7unQjIYOHpgAkAKG9qqh86ejTbWCHupcNBNQ6ucZCt9L0FCxZkX3/99fkIAFatWpXpov3ASgkAyJ8/f34SCJg0aZIfAMBQaBzfSD2kYvfmZHG8ziSLIA1WP81roH1UygADHYujUlosgkyZIBVshikTpNI10D4qJb2GMaOjZXIAgBn+9IK/UQBgxO4ZHasN9hV7aH+3mX583xu0mejwyy5tyBKW0KwBADwFEAlxv0cA0NhUP6yuLso8VuBgmswAFOMgGwfb0s9/+tOf5gAAyEcAsHTpUnaZYLFyAgAK5s6dyzNDTZ061Q8AoBAaNQwbp4ZQaN2cLBPsGGQRpMnqp3gtrJKlaDDQsUyWosQi6AgTpMRmHGGClF4Lq2Qp4rUgAFh756is6nB8FgIACP4dIrWpVvA3AwC0HBrjxFrBvmIP7c8208/v+6BerEByJrVUwGYAAJ4CuOCChlwCAByJFU1NTX4yA1CMg+2JEyfyfTdz5swciMWFAAAKFi9enO1i/Vi0aFE2AoA5c+YUgvBBAAAKp0yZUtTW1jZUjkxY3JysU1/qsAiyYPWTgwCmLHsqmaicZBEc4iQTJLkmx5ggyfMQ1kyQo0dFhyEAOP0Ubn5NhD/OxAMAveBvFgCo2Ey+A6m1g33FHtpfbeYkuO+DWrFCiwvALADAUwCtrXXpCACcihXxeNxPZgCG4aB7+vTpg2bMmFGIAODaa69lH/zFxzXXXJONAODKK68sBAAwdPLkyYUTJkzoT6x+SvJYsvop5b5mRmByPLAIDjBB2nt848yYf/cLF6UhABhR2coDACHDH6fryMwCADWbcUCHAzYzcN/bkifVIW0AgPXUjnM2VuAgGwfbAACKMPYSAJDjcvIBAMAnAQBFU6ZMcZQRjjD8OcYi6ARTk2wEwJzVD+t3mEVQzu41hLE8ORMkU5tR0iFLm8FTAN3dBW4pAIiUc4bYAK0AACWbcUCHfoeDVb+2mZPkvvfLri+hQxYA4KILGxyPFePHjw8SAFCEAGD27NlM5SU9Fi1a5Js/f36eDAAUTZgwYZCDKLnfsAhqoFZH2L0ckqemQ1ZsYmrMjCxnVYJO2sxllzbkiUsAIgDAJQCtrGY2ZwDUbCbYn+/7/mQzJ8F9r2kztAFAd3epq67O2VjR0tIyiCwBJADA3Llz86+99lof8+B/0003+ZYsWZJHNgHmz5o1yz9t2rRcsgdgGDaOsUIDDrN7BVludlJwArhulcqYRTDgMIugHrtXkLEjZ2ozCjpkzu6FMsRNgKeO4K6OlLfhxr/EJkA9EGBhD0DSPYA2ynK9kyUj3ElsM/39vleKFUk2A/eMhxYAOOPMWGpTU32+uAfAiVjBcVyQbAJEAJB7xRVX+GfOnFlANgHmLV68mB0IWLFihW/p0qWDySmAvHnz5iWETZ48ORcBADYuHo8HWSlUw5hZsHsF1RwgI3YvKasfKxbBgMMsgkbZvYKsHDlLm9G6DtaMcAgAcA9ARVl8Wpg4MtwDoMRsZvMUgKLts9rxzJoR7iS1mf5+32vFimCP/UYLz/1Wk88uAIDf/NdllzUUi6cAnIgVTU1NQXIMsBhibWKgfdVVV/lxMI6nAK6//vohEKPpg4B169Z5V61aFYTKhwAAGLJw4cJeQrBR2DhsJDaWlUJZ3JwGmZqoKtYAqx9tFsGAwyyCZtm9gqwcOSuHboChjRkjHJ4CwPekeQCQ5a9Kxm1uMw+Aps3TBgFOMMKdhDbT3+97I7EiKOYBGDs2WmQLAJS14L31jiQPAPNY0dDQEMREQAQA9Jplv/rqq304A0ASAQ2GWE0PBPz85z/33nnnnYOg0sE4A3DDDTf4tNYnsJEkFXCQlUJp3pwmmZqoKNYEqx8tFsFA1FkWQavsXkFWjpy2QzfB0MaCEa4QTwHIAYAQ2IU8AFogwGAmQEO2TgsEOMUId5LZTH+/783EiqCYCXDB4rFZcJ9sNQ8AuM7qSE8mQI6rz9VIBUwlVmDwJ6mAMcmeaj9dd911PpwBwEyAa9asCa5fv95rO/jff//93s2bN+cgFwDOAEDlusgCG0kAQDE2npVCadycFpmabCnWAqufXRbBQNRZFkG77F5BVo6clkO3wNBGkxGOb682GZA2CDDABWDKximwCDrGCHcS2Ux/v+9N+0UAAEGRC2BEFbc9Um4GAPD3VIIL4JKfNBTw9402GZDtWEHIgAwNqHFwjjMAAAAG33XXXbn33HOPdRDw6KOPeh966KHsLVu2IBtgLlRquDJcAiBsgMVWmKHssPrZYPcKWpFng93LDKufVRbBQNRZFkFa7F5Blu202TdWGdpoMMIl2qlPB6wOAnTYAK3atlUWQUcZ4U4Sm+nv970lf4inAMaMjg4R2QAxgZYxAJC4l3gAUFXB/cEEHbCtWIEAwMxA+tZbb/XhDAAAAKQDzoEYbh4E7N692/PYY49lwY9zAADkbNiwwXQliFgIADDFDEWD1U/L6CuKOUSCYOj1BTglVF8XHV5bGw2Cot2hkmZ3RUncY6RcdllDFqDJElKKf3xBQ6rW98eMiQ5JfH9stOi8bzf5jMrCgvWjHLEOlG+4fRbk4ffxd0blydqn2x96fYSvabaPRh+ZaR+NPtKxmRTenkvi0/lNgAgASuNdKo4rCQSoAQAKIxazLIJOM8LRYPUzO7K2y+pnlkXQ7kyFWRZB2jpkFivEY4Cbtl2WigBgRCV/eqZdO3lW0j3UWVWRnAdADwBYnFGzZTNr16714gwAAIDcHTt2ZEEsNx6/9+/f79mzZ08AAcD27duzoRLL0whk/cIwMxRNVj+p8Q8vmuCqCde63DmLXaNHRT2146JDcRc1ONXSxsZ6y0cXu7u/6Z5+rYW87wAAIABJREFUZe0QLDNmjVNV1PKVo9PF782ZN85W1iaUI9aF8vXaZVce/l5PnrRdWv1g5CHtK3xtt11mdKjVV0bbZUaHNGwGgv5EfgagVD4DoA4ClADAqFHRTEr7W4yyCDrNCEeT1c/o2jotVj+jLIK09ioYZRFkpUMmsUKaBwDuhQcRAMBzu3r67OR7pzLE9UoEZAQAmAEBtGxm48aN3m3btuUAAMh+4oknMp999ll9Wzh06JD7pZdeSn/mmWcyd+3alQk/tr2RwCgzFBtWPzxXH/Uc5kc4cdc5Zzf5MfhPnFSXj2eoH378JynFJXUw8ueyQOGloZLmETCiOttMOaWa+863zo5dguWcs2IXV1fEvyX9/MxTY+eLn3/jzNiPI2Xxb5qVIS1YP8oR60T5au2hIQ9/j/WoyZO2R+n6rRRpn+FrM+2xUvT6TKs9dnVow2bOCQ+PR+B5ebisDWcAOioUAYAiCEgCAK8ducgL90UJxZ3neiyCTjPCsWD109tdT5vVT49FkPZpBT0WQdY6pB4r5ImAqsMCAFAm0OoV/BUzARoFAEZAAG2buffee707d+7MAgCQ9fzzz2e8/PLL6jbxhz/8wX348OFUBACAFgJPPvmkY8xQtBNRQNAP4PR+NFpfjCDgnG/E/DOuGuu+6+7RGdOvqB1y3n80fmdkFTcLHOZmUOar4Aj/Bsr9F4CEr+G9DrMFHComYenkSxhQYhnvjDsIQxv/Pm4gAaPqsFK/vGD9KEesG+XL20FTHtZTpSAvqR2S66ZRpH2Hr7XaQaOo9Z1iO2jr0JbN4HfAYUHwBzvuMjiV2RUpFwDAqSNiZ025vC4PAQDls+dqLIJOM8KxZPVTO1/PitVPjUWQVb4CNRZBp3RINVYoZQKE+629N4W2YvC3DQC0QAArm3n44Ye9OAOwb9++wGuvvZZ25MgRfrb0888/F2ZNv/jiC/dHH33kee+99/wiAAC04BgzFO2bEpUMTtHV0FCfgU6ttjZasnLN6ACO/M88rWnqiCru2coK7p84aoqUT+gOl7WCYpu7TZwFVSzoUEWDAYeOG0W6kw0rTrWEy+K8nISRMpaHRX5TJOTDM7aHtjzpNeHr5FEsfXlSHaIsuXymOrRjM6ojf1UQ0FUj6PDrb5/TdD4CANyTwCD7nDyAOM4I5wCrnzz4Mst2pxR8oeQ4yR6K8hzWIbVYoZYKmPdlkvtOJfhTAQAqIIApE+TTTz/tAQCQgQDg7bffTjl69Kjnk08+8SQAwAcffOAVAcArr7ziGDMU7ZsyVBrveV0S997581G+K2bUDjnztNjkmkrudyMqW7px2oc4QxxRtsMoqCMkjKK6+LVRGwWnVkk61kQhDG226lUrMGrsqg47J48kmkm+Rvgf28FEHhS4AXv1KT+FzUiekg6xDazkUdGhoRmAJBDAAwCQdQwBwNTptYMvurAhhdE93+csggPsoQM61AIA/GBDAgJUgj81ANAXNoN7+xAA/O53v0t5//33fYoA4MiRI0wJBRSYofKpBf8SQRGhsjjOAPB7F6pCseEQ+Hdj4BeCvxD00bmSYI/K7DI+gjIwSq5INiJw8ExG44lRssxwjZDB2Bu16t4klAuXNNNRVcFankyHqhuEGMlzwGYQ5EgBwK2rxqQaYQO0viTHcwc4zQTpGHsokZkvC45M5clG/igzlbG8VJm8nBMtVmiTASX7GZX7nhoAkNuMEyyChw4d8mkCAJwBePnll72sFMqKGUoc+eMzHpHC1+Gy+MWgxL+TnZ4dIlsaWecxOFqyF4x7psc5Vo68tzyGIIAP/mHn5MnX4pwAHUo6rGIIAvrIZpIAAC4B4CmAE+2+Nzpa7QtWP8byAg6zCKrp8IRiEVQHAMp+RuG+pzkD4CgT5K9//WufuATQCwB8/PHH7nfffdeHAODgwYPpe/fu9TFWaIDWWllFSTP/XFbCucKJ4M9NqA7Hu2sizbyTwylc0fFJQAAzR471JwVnBg5dWn8Vqb86zC4oJ9VP5FWFWYKA3vVL+5gFCJDXL+9j1jaj1MeMbKaLzDR8fc7ZTd8VNwGyZoRzgEVQidUvGHWW1Y81i2BAjT2UEYugng4DJ0ysUAEA8jV/+X0pue9p7QEIOsk4+6tf/coPMT1AlgD8R48edScAgPTxxhtvpCAA2LNnT+YTTzzhZ6VQtY4wW3d4eMxVVtYkKLdUmPaH56k1kVZRgbiruptPkFKSAAHUHbqawbACAWrXwQoEqAcmViBAvV5WIECtXqdthhUIkNliF25AxFMAUP+IK2fW5orHAFkzwjFkEdRi9QtGnWX1Y7UrP6DHHkr5JIdRHQaO91ihCADKx/OJgJTue5X7k8YpAF2boanDhx9+2P/4449nEQCgvUz0m9/8BvMApCEAwERAO3bssMtiZJipyYpiy8V1fxL8wanVV4ebE1mbxOAvne6n7dA10CITEKDXftogQD8g0QYB+vXRBgF69TltM7RBgIIN9koENG5cdKhTjHAMWASNsPoFo86y+tE+l6+Xd4A2i6BZHQZYBX9aIEAKAJAMCFMBi3kAlO57hfvUbh4AwzZDQ4fbtm1LwURABACkw+Bef5/P/v373QAA0hEAPPjggzmbN29OsRr84QKKjDI1mVVsaDhZ9xen/cvjI0FJ/6qJxHtG/hj4Fdb6aTl0PUdOGwQYbTctEGA8ENECAcbroQUCjNbjtM3QAgFKtqeUCfC75zV6nWSEo8giaIbVL+gwqx+tzHxGMw/SYhG0qsMAq+BPAwRIAQCSAYmZALXue9n9ytMBW8wEaNpm7Ohw48aNKSQVMGYCzICYbnyT79NPP+3etWtXAAHAPffck3vXXXeZ2mHa2Njoh1Ik4QII0Oog8VFT2eAC58W/vuhHozygoDdGVLYmFBrS2ehn16EnGUaF/u/tggCz7bULAswHILsgwPzv7YIAs7+najNmdWjTZqS/1+ACcJQRjgKLoBVWv6DDrH52c/Ob5R6wyyJoV4cBVsHfLghAAHDut5p8SAcscgFgIiAT9y1PB1xhngvAss1g3+Bg2kyfrl27NpWQAeVu374ds/qaP+HzyCOPuB944IFMBABIB7x69WpDIIDjOD74S9gAA7RvrjDZ+Ceu+59SHbteiuaEkb/+0T6rDt1q4LEKAqy20yoIsB54rIIA6+DBqi5o6NCqzVjWoUWbkf9Ohw3QUUY4GyyCdlj9gg6z+lll5wvYZQ81qQtaOgywCv52dDFmdNQzdmy0SGQDFHLCGKMDJvcvzwYIz++ccWYs1QgAsGszhA4Y46khXdx6661phA44uHnzZpzFt36897777nPffffdWQgAVq1aNfiWW25J0/p+c3OzHwAAH/yxAHKxwrZlqMNAcfyFffc7jafURLhPceofyRqkDo6FQ7c76jQLAuyOOs2CAPtTz2aDuf3lA7M6oalDszZjW4cmbUbp+1oAwIpDpzDqNMsiSIPVL+gwq5/ZkbzdmQOzI3naOgywCv5WdCLkhogWjhsXLUUAgGRAyXkADPkZHgDUVHLvXnZZQ3F3d6kmAKBhMwgASDwtisVimjq54YYb0pYvXz4EAcCGDRuyIXbbz+2xadMm9x133JGDAGDZsmVDUIjS91pbW/0AAIri8bjYYDtsW6odVzGMc0VK21zfPLvJv/m+Uemnjoitkk7lWDnfb9Sh01p3NgoCaK07GwUB9DafGQ3q9DYQGtUNCx0atRlqOjRoM2rf0wMAZhw6xXVnoyyCNFn9gg6z+hldy6e1d8DoWj4rHQZYBX8zuhHbhfwwCACQDrh3IiBDhacDRgAwalS0vKmpPv+iCxuY2gwOonEmHWMqDq5xkK30vQULFqQtWbIkHwHA6tWrc9avX08vsde6devcAAByEQCgEBQm/XzixIl+AABDoXHFCAAAqdBg21LsQMz0d+GPGzwcV593yUXRCCjjz1UVzciG1ike92Ph0GnvPNdz1LR3nuuBAPrHz/SCO/0jhHo6YqlDPZuhrkMdm9HSoREAYMShM9h5rsciyILVL+gwq5/ebn7apwf0dvOz1mGAVfA3oiNpexAAjBktZKG0CgDwFEBVBfcHBACNTfXD6urY2wwOphEAQFwtxkE2Draln8+bNy99/vz5BRibIUYPWrlyJf2snitWrHBj5SgEhc2dO5fnRJ86dap/0qRJhdCoYQQA0GTbUmCGqneDEoddf9PYHMzxj4gMWdFCYnpfBg6d1dlzNYfN6uy5Gghgl4BGLcizSyKkpisndKhmM8x0qGIzejo0CgC0HDrDs+dqLIIsWf2CSilnGbL6qZ3nZ5U/QO08v1M6DLAK/tqxQk5kFA2qpwI2DgDwFMAlP2koIADAESbIpqamAAEAxTjYxkE3vj9r1qz0OXPmFBIAELz55puZpfR2YeUoBIXNnj27cMaMGZkAAAoBACAqGdbS0pJBW6a8Q3EdZ+zYaOm1C8YOAkd3LzL6wai/nR/9M3DorLPPyR03q8ChBgJ6s/qxz+jHNoNg72DvpA6rnNahTJ4RHZoBAMqOlC0jnBIIcIDVT56djTWrnzyjXxbjDILyYB9wUodSm3FQh0k2pM0FYA4A4CkAjqvPJQDAESZIHFwTADAMB93Tpk3LghhcSABAcNGiReyCv/hAISgMAcCVV15ZCABgKAKA8ePHZ7CSKe1Y7HBEXj+5JJoPgf93vEKQzY9ibn+lHPss888ryWOZf14xp3+YJQmNcq5tlsRFBtm9TkodmgUAKkGZdf55tZz+ASf8jEOsfgGHOQR65dg/mXRIGwBgPRCPHLUZHGQTAFCEsZcAgMHXXHMN++AvPq6++uoUKQCYMmVKLkt5Unav2tpoyeVTa4MVJc2hipL4v81RoVJihJMmGCKyQyUCnbA4EyGwDRpvkyxgdfVka5PQFEv3ONi43lBJMjeClPKWZ0e0uJlSl9XPURbBuAK7l4MsghH2LIJWmSCtAAB89AEjnI8Ve6jGNQ6VsgiylqcQsFgzsgacCsZKNsMyOMpjhVyHLAAAngKQ2QxzJkgYbA+SAgCIxSmOBf9Fixb55s+fn4fTDk7MAMhRJE7/z7tm7KDTRnC1FaXNhs/8U2KEk/Cv8yAAlx4kBsTzuMN7XIcYQNWyEWqQtHT15Gvnmao6JIG7E/4/hoZINjx2V5hZ+iABnoweO0kazE5JAOmE77RDgBCOU1KjSu7/MwBOswgqMkGynQFwmhFObfQYdDAYD8wAUJbXlzbj4AwAMx0qzQDMnTsX9+X5mAf/pUuX+pYsWZKHewAQAMycOTMwbdq0PFZ7AJTWAi+7tCHvtjWjs08/JTavOtyKyuigCQA0GOGQRVAclXeE0BjK2roFIxLeQ0CCexLCZa34XkcikGrMUMjqF/9H6uJuPN4YKW8lswmC8fF7HoRlj47EbEOp3gwIlxjZw03QBYGiA/MmjKgcD9fYIoKBzppK3OGK19OM/dpekaifE8HGwB4Ak0yQLECAfN8I/3+Y6R4Apxnh5OvHWSxZBAf2ALBlEVTRYYB1rJDrkPEegCBr5knZHoC86dOnBwgAKFywYEHe4sWL2YGAlStX+pYtWzZY4RSABxtD+xSA2m5gCIS+7m6X67SRQvY//vw/JQCgwQiXGJmDQ+/AfNAYhCEoPgWyp4Dz/B441bOh/BiC8dVgIL9BcEBmKDrEGQN5kJYHfz5QAJCoDPEpjb8eWc39AoDOlZUV3Hfh/W/Cb0bDd5bD8/thNF6hvk7JjITqyJ+sG2Pw7yRZE/83UsathTaNq6rgzv3mWU2XnnlabNop1dxWaNdn2H4y49DVM7sxcArAChMkTRCgttvfzEkOk6cAnGaEU9tB7mEFAjQY2gZOAdAZ+QccthlFHTI8BaBmM9R0KD0F0NbWlj9x4kS+XjwFQABA/vXXXz8EB+nUg/+6deu8q1evDi5fvjxPJQ+ABxtFKw+AlkKh8/kLrKnkbhpZNV5M/9vFKnCIgVscmfN8A2Huj+BgL9C6BnCy4yHwfimM1uMd4khdJfjj0gE/m8EH3tL4XgA4Z123ZGzu0lvG5MyaPS7J+YRLmzPhO0t5EEIMUy1Ih5KDfxeO8kdWxR44tYorlrf51pWjs25ePibn+99tPBv64EEBBJC9ByYzLJ4MeQDMMEHSAAF6R/2MggATeQCcZoTTO0NOHQQYYGgbyANAIfg7aDOqOmSUB0DPZmzrUJoHoKWlpQAG20n1YR4AAgAwEdBgHKxTC/6bNm3y3nnnnYMAAAxGAKCRCdADjcu3mwlQT6E4A0CeF9ZEJoh0jl2sGOF6NvUh0GjFLFBHfnR+4yn3br8s/T++1eSDz3zwmQdZCbFg+yoLJ4og4EwAEJ+QmYDESF0WGMRp9naynLBDvNaLL2rIHjMmWobZq6AU//AHjWkhcv18H5RyzVi3dJQv32+A4KVn5N/SfeqI2DIpmILPvfA9D9Tl+cH3G9NGj46WTJhYV7D4hjG5YOjLcTmjZ5nFKNDq/5kArTBB2gEBRs/5GwEBBjMBOs0IZzSLHDUQYIKhbSATIIXg74DNaOqQdiZAXAJQSwVMCwTIMgEWwCBbsZ6FCxemEQCAmQCDd9xxh9d28L///vu9mzdvziFkQEa4ADwAAAqscgEYUSgGXAIAFkTKJ6IjPiZOz7NihAvxI2w+0P7vmafFqjCXNBoA5iTAxESVZXFXeWncVVXIkcDPQXAVNolAQL6Q/y05KaASEDrIvoE3RhS1eaXXCTICaLikwM1Vj6DDLc6EQD8sCgvAoV1YYugJ0iT4YyDgZy5GVnHb8TflJc0eDPr4urJmois0jHOVlXKubw+biomWfGPHCqctrr95TA70yUNh6Y2iOwvQ/7kAzJ7ztwsCzPJH6IEAA1wATjPCmc0jbxsEWGBoG+ACoBD8GdqMrk5wCYAWFwAuAfD3jXEuAEtMkIQMCONpQSwW0/y9yAWAsXrDhg25d999t3UQ8Mgjj3gfeuihbAAAZtkAPU1NTQVm2QCNKhQCKQl83EIEAOC4juESACtGOGG3PQbo8eg4r0LZF/yoIRcCZTEJykmKDQ3nXNVntUBQbQanGvORYH4f/h4cebtkL4GwOU8YWXeSfAY/Fq6t2SeM0OOuiuEtMnrIHhDALwdUxvH12+LGQ1kg4Ef+uOEPZH46ojpWTJw9395yAC4/gD/xcVpBMwCZGKBOAQRMnFyX/73zmr4J7f5cADH86YOTmg3QapIfqyDAKoOkFgjQYQN0mhGO1u+CrII/hd/1dzZASxn+nNY9bgLEJQC7bIC4BGCUDtgG82SCDRAG0hhPDf0O2QDXrl2LbICDtmzZkvPggw+aBwG7d+/2PPbYY0glmIMAACpLNfN7bCw2mgAAqoheCQDg6JrVKBBG2p3Crvj43yFgBklgdosjcyXFImERaaOHPJ8bKY8njvlJA4Cw7s9Ps/+2ZHiUd8LlpU2u8PBWV3l5vaIz4EEABOlEX5TG50R4gNKzc18SANpx0x/8fzf5rpfMHKjfKAAC8Dwy3CwlNy0fk3NKNXcfng7gTwaozgDYHcmb/z3NkbxZm7E7kjc7c2AlUZMaCFADAH3ACOf4KJDCSN4yt7vVUaDJmQNqI3mzMwfH++yPeAoAlwAQAEhJ5Aze9/wSgDwPgEmbMTv7UwCx1JTN3H777akIALZu3Zq7ffv2rF27dhn//f79+z179uwJiAAAUISlJAPYaAICqK7pqQEAVuvAuIuf7Ij/FcqNlLfhyB5H6Zo3Jy4DAHDgX3/vO7EhNRHuw5pIMzr+Tqnjx/bj0T54vl0M0OUQnMtLopqGgSDggh81pBJZ35LmHZA4fn4GgBwljJHvektDU1wjR9ap9vHQoZNdJWDYP/heY9qqdaMyzziVm4H7ByAgqRy5pLWWb7weFmv5Rm2G1lq+0b0DdrI0KoEAJQBw0YUNKQ4zwvXJOrDDewdoreUb3TtAfS3f6N6BE2H/h/QYIC4BkNNQ7SZihWIiIAs2w3z/x8aNG1MQAOzYsSP78ccfz3z22Wf16zl06JD7xRdfTH/mmWcyEQDAj2kwQxXQ3NWrBQBY7AQHZ9kuBOj4JrLxDjf76SosHBaAQiwWzagdV18yojL2Rk0Ed+0nJfbpkgCAedK1f/2pIX6dvliYMYgPC5XGv8KZCjLt3y1JJiSeZvieOCsRHh7T1V2YBzDCPoGzz4jVSYJyF9vd/Pr1sdzNr2cztHfz650eoJGiWQEE9AIAuMnUQUa4PtsJ7uDpAdq7+fVODzDbza93euBEOQEizwOASwBkE7nRWGEZABgBAbRtZtu2bSkEAGQ9//zzGQcPHlSv7w9/+IP78OHDqS+99BIPAJ544gnWzFDW1nF0AAD1s+A8AMAz9/G7ieF4hOnzOk3FhYpjLgjQgYaG+mJwriUg801+qr+kBwCQjYEEAMSvJQDDV5RztYHNIcJGvQkT6/JGVHEhqO+f4TI+/W1XsqNPTPueL8wAxD2h8rg+ABjeAwAqK7gfV0d6ljDYn+dXr9eJ8/xqNsPqPL9a/gCa/AwyENCFtoIAoKqCO3Xq9NrBtWCjDjHC9elZcIfyB7A6z6+WP4D5eX61/AEnUg4IpURAuARgIlbYAgBaIICVzezcudOPAGDv3r2BV199Ne23v/1t8nHfL774wv3BBx+43333Xb8IAJ577jmqyQRoZvYyAgDoZoMTlgDg+XleblELGo8rLFN878xe0SxMEsFx9UU/+mFjGH7/sbiRTlZ/u5Ddj9tIArQ3XBoDY21W7QOcvsc9COPGRktnzx0XhBH6OH6PQZgkLBIDh5D6V2h/SXy8uMRQFRzvipQ2awT/mKuospVvC9nzMCFS3safJhA3MbLP6Ne7ficz+slthnVGP3kGQRbkTElLQ0Kffv2tbzZ9f8rldXlkBsDv8H3veDY4F+WHQgbBAOOMfvIMgqlOZfSTZxA80bJAqmUCNBErbAMAJRDAOgvkU0895RcBwNtvv53y/vvvez799FNPAgD89a9/9b733ns8ADh48KDXxeBBK7e3UQBALx98IhPel+ESroSM0oXNesNbVafn8ZTA2DHRsuUrxmSC472IJO3plGYDJMf2eKOC/98JlbSmCMaJu/E5/ll5k54wgr/wxw05a+4YnXXqiNjqEVVkOks67S8UMb/AAySYi0HdVVFxZe+64b3ykpjr0h/WSgCAcGQGuQmqHc3pr8whMJDT3zYI6KoRZB379jlN5+MMAO4BcPi+7+8cAixz+vfiEDiZcvrTBgAmYgUVANAXNvPCCy/4JADA98knn/QGAG+99RZrJirb7F5mAAAVRjicpheDaAm3ggAAXvk14UZ8ndQ+PGvKHxGsE4iLyMa7X5GNhO3yuiuEPP5kliHeJq0fd+OHSuOS4NyM1+0S9yLg83fPaxwubjDEXapJwVjK7lcaPwZyRoobAYWbIAYgplmy7g/1k/0Bie+UxEdCPcfE+vg9Bo6y+iXT3iLjnvMsgs6y+rGjZe5JbS0FAK8duchrhA2Q4n3fZ4xwDGXmO8kIh0yMMgCQyvj6Aic6E6QeF4CBWEENAMhtxgkmyNdff92nBAA8H3zwge/dd99NwRmAV155hRVqpTIScH4GoCe7HsmI9x0SgFPgf3fFcM71H63LXKUlPC1kYm0eEwXt2v2TjNNGxGaRY36darTFQqIhNKz4BzDqH0pG6H4MzqHSBv66S8KTXKcMGQWjc35q3lM2THDYI6tj9/PpiQmBkHQGIHEygE80JKQYFvsRPvNVFDe7KoubXINPneiqLmty4emDUDnK5LyS7+0lSwgdZETe1desfv2JRVBpBoDljEN/nwHQGF05zerHUp7SiLw/sQgysZnjbAbAUSbIX//61x61GQDPhx9+6MEZgDfffDMN9wDs3bvXw1ihQatrgY7vARDr5gMgn9f/byDzmz3tiePoyXfJxQ3ZY0ZHy3Dav7Wtjs83feZpTRP5wBzmR7Kd0qAsKeL/7SRIH4Lv8mi3KlLHnwrAaXtcuw/xr7mEbk6tia3E43l41I8kQ+rqPYUstj/BM3BvIriXcXxGwQq+fkwJDK+H94wE4Vq3kpmJXsGf70+HWf2cZBFEWaz3HMjX/FnvOejvewBU1uQLnWT1c2DPgZyZMccpFkFx5M94zwG1WHEc7wHQshnqOvzVr37lwVMACACOHDmScvToUU8CAIgPySmAjGeffTbw5JNPelgpVOX9AC0AQJsRTnLGvoOwAP4T/v9peVlTptiuJTeOzb1j46is2zeMClRGYkPASJbhxjySha9TzPynUH9XTx5/EQRw70PwrXe5lE8DQF01I6q4J0nw7xKPdRHWwuR15JIeyuAECCiJH4Rr+Y5aH4fK4mfB7/ZLgn9XVXLg6L2z3BFWP2dYBKXBlxUIUNvwx4pFsL+fAlAK/lr+h1Hw96i1g0Xwl+zKZ84iKNMhq1MHVGOFEQDQB6cAjNgMNR1iRt8nnngiEzcBvvLKK4lTAJ9//nnvJb9Dhw55xGOAu3btytyxY4eXgkIL1G4GK4p1Og+A5LieBASAoy7jM+P9D9Rx5+kjY9eccVrsChiRXwMOexO8/yHZeIcOvVPO+qeSbjgBAhBkkOD7Osi7Ceprg9cxaMdscOSPgAP/F2El7BSDvziToBRYEoRGEpBBTiTsgToXwPvN0K44fOdakPW0EDD42YJ2teCvGFgcYfVjyyKoFHRpgwC93f60QUB/zwOgF3QZsQjqncunnXdA71w+MxZBFR3SzjugqSMaNnMc5AEwYzO2dXjvvfd6d+7cmQUAQD8PgPiQZgLcvn179tatWy2BAIVMgEErzsIMAGDKCIcyEkAD1/Nx6gipdcd3C2vwmCkP8/1P6Capg9vFDXhkZN6l7dB7QIaQc19IEYz1YTDG15UhlNXWXSM48o6k4F/CaQaYUBKI4TkDurBeof7WbqmsniWPxLR/l1awpQkCjOmGDYugVrClBQKMHvWjBQL6eyZAo8GWMoug0cykwD5dAAAgAElEQVR8tDIPGs3MR51FUEeHfkY2E2RhM32cCdCKzdjJBOjdtm1bjqlMgOJD5AJ46KGHMBVwzoYNG0yBAOQCQPYiCRdAkIbT0AIAjjDCSXbVk6COo/t2cNAdwho/h0G/Xdjwx3XJvq/r0EPkNxLWvQ7h+iAYl4GsMI9WpUf9FDcVqgaa5JkMfkmA3+EPzwgKQvxuf2w/T1BkKPjTBAHmdEKXRdBIkLULAsye87cLAvo7F4DZIEuJRdBsbn673ANmc/NTYxE0qEPaNhNkZTN9yAVgx2ZMcwGsXbvWe9ddd+WSVMDIBWB+EP/oo496cQYAAACyAQ5as2aNoUqQslDGBhik6TycZgPUcMziiJ6n4A2VJgdXpcBsyqH3bD7sIul9pUl+emYLrAScEk5SP3/MUaQRFmc4uqQb/owGVzsgwJou6LAImgmuNm3G9Dl/qyCgv7MBWg2uNlkErbLzWWURtKoL2yyCJnVIy2aCLG2mj9gAbdmMBTZAH8TqIACAIACAHBjEW1/Gv++++7z33HNPDtIBr1q1KnjLLbdonlNsbm72cBzHB38s0PCgTTQY0AMAoJhjYjB2ghGOJre7kd/rcbvTDzz2RtZWQIC9kbU9FkErOrRjM3Z1SMNmtACAxVEnbVa/AKugajXwUBhZm2URtDuytswiaFGHdm0myNpmMEfLuHHRUgQAuAQgzwNg4L7nAUBNJffuJT9pKNADADRsBgEAiacFOLjW+v4NN9zgW758+WAAAEgHnAux235Sv02bNnlxBgAAwOBly5YNRiFK32ttbfW0tLTkQyPFBlta89JTrBQA1EQmiJs4upxghKO1Lmu0HrvB33wAorO2bgYE0Flbt8YiaEeHVmyGlg7t2oweADC57syK1S/AalrdbACiuLZumEWQ0tq6aRZBmzq0ajNBJ2wGc7QgAMAlAKVEQAYKvwSAAADzvHBcfa4aAKBlMziIFgfUOLiOx+OK9SxcuNC3ZMmSIQAAhuAMwPr16+ll9F23bp0XZwAAAOSBkDwUJv184sSJnra2tvzm5uZiaGBxU1OTrV2vWooVAQAo4WbcgEc2cXSx3XlOf2e2Xn20gr/xQER3d70REEB3d705FkEaOjRjM7R1aMdmjAAAgzvPWbP6BVhtrDMaiBjsrjfMIkhpd71hFkFKOjRrM0GnbAYBAC4B8PZuEQDgJkBcAkAA0NhUP6yujr3N4GAaAQAOrmGQXYCDbenn8+bN8y1YsABjcz7OAECspp9RcMWKFT6cAUAh8+fPz0Oh+P7UqVM9kyZNyoNGDSMAgMq5VzXFigDg1BGx2xAA4BKAVipgGg6d1dlstXppB3/9gMTmfL0WCGBzvt4YiyBNHRqxGVY6tGozRgGAlkN3kNUvwCL4GwlIDM/X67IIUj5fr8siSFmHRm0m6KTN4BKAVipgowAANwHiEgABAI7YDA6qEQBgjMXBNg668f2rrrrKP3fuXIzJBTgDsHTpUnbphG+++WacZshDYSh05syZKdOmTcsDAFAEjRoG6GQQTXlKir30Jw352x+9NIAAAJcA9LgA7Dp0VsFfzaGzCv5agYllhj0lEMA2w542iyALHWrZDGsdWrEZMwBAyaFj3nmHWf0CLDPsqWSfY83qp8oiyCjDniqLICMd6tlM0Gmb0eMCMAMAcBMgLgEQAOCIzeDgGgEADrZx0A2D7xSIwRiLC3FQvmjRIqZcAvwDhaCwOXPmFM6YMaMQGlGEAGD8+PGDWMiTK3b06Gg5AgBcAjBCBjTACGdQHsMc+3IQwD7HvjKLIEsdKtmM4zo0KM8sAFAZLfYrVj8NeSxz7AcdZvVTyj/PUodqNhPsC5uhDQCwHlwCcNJmcJBNAEDR5ZdfPhRjMA7Gr732WvbBX3xcc801KYg6RAAwefJkx9i9EAB0d5/jNcoGaLUg61w/Z4TrdpLVjwcBESdZ/TjHWf2SbMYBHVq1GSsAQNhFzY/inGSE88gCSL4D8oY6yeqnwAjnZylPgUUwi7G8VNn1Dekrm2EBAHAToNNMkDDYDhIAUIQxePbs2SmOBf9Fixa558+fH5QCAGhM4YQJE/wMlRqUzwCAs72eFQBQGl2xDJBKI+QqpgFLYYQcZhuwjgdWP5byTiSbsTgD0Gt0xXK0qjZCZswiGBhgEWQ7Iu9Lm2EBAGrHOatDGP3729rahkoBwJw5cwbDoNzNPPjfdNNN7iVLlgTJHoDCmTNnDgIAUEj2AAzFxjFWaHDUZdFicQ9AVQX9PQDy9VXWjHDy9VvW69Xy4J8UKBmBgKRrqnCWRRCvlTWLoHzNXzoTcDzajIU9AHJWP6aMcCpr5KxZBOXrt46xCJI+HOIUi6CkT1nucZAH/yF9bTO0AUBra126ZA8AcybIeDzub25uLsIlgIkTJxZOmzZtEFkCwD0AQRycMwv+K1ascC9btmwQOQWAAICf/gMA4McZAHIKoAgbyUqh+N5Zp8dSjnX/0C+eAgDnSw0AqG34YwUC1DZvsdt4qBwMWW5aU+o7p1gEe/qOHQhQ67vj2WZMngJQY/Xzs3LoBln9AgyDv8cpFkHZLnnmLIIyHbI65aDG6tenNgPBOkALAFxwQUOu5BQAcybIpqYmP8dxRWQTIM4A8H0Hg/AcAgDwFEDw5ptvpg8C1q1b5161alUuAIAhBABkSz8HNOLHRmHjsJGxWMzPQqH8NA45BnhKdWy5mAcA8/KzCv6sjq3p7dymDwK0gyALEKDVZ6xZBHv3GX0QoNdnx6vNmMgDoMfqR92hm2T1C7AI/nqBjEXwN3L9NIO/keunGfyPB5vBPACXXdqQZRcARELc7yV5AJgzQTY2NvqhFJFjgEXymXYcjBMAkI+D9JUrV9IDAZs2bXLfcccd2SQTIAKAbLW1CTIDgFmLirDRLBSayARYyl03onJ8IhOgHYdu1HHScuhGj23RAwHGgh9NEGCkr1ixCGowLlIDAUb76ni0GYOZAI2y+lFz6BZZ/QIsgj8LEGD0qB8LFkEdHdLKdGiU1a9PbEbMBNjdbR0AIAOsmAmwqak+/6ILG5gyQTY0NPhJPC0mMwCKfYWDcpIIaMjq1atz1q9fbx8E3Hfffe677747C7kAoFIEAJo7RrFx2EiSurAIG09bodJUwJXlE9DJHTPKWEcjyNp16GbPbNsHAeaCHg0QYKaPaLMI6veRfRBgto+ON5sxwAVgltXPtkM3yerns3uG3UzQo80iaDBXPjUWQYM6tJu33iyrn9M24wEAUChyAcB9eJ9ZAAD3VYIL4LLLGoq7u0v1uABs6xBKEZLqkRkAzT7CwTlJBTx4w4YN2RC7rYOARx55xP3AAw9kbt68GdkAg1BpppHfAQBIIBbSeD9NhcrJgECBx6ww19kJrlYdutUkP9ZBgLVgZwcEWOkbWiyCxvvGOgiw2jfHk83osAFaZfWz7NAtsvpZzmJnJdjRYhE0yZZnm0XQpA6tMtdZZfVz1GbGjI56xo6NFolsgFUVxgEAuZ94AADP75xxZiyVv2/02QBt6RDJgDCOGp1RBwCQRciAghC7sx588EHzIODpp59279q1KwA/zkEAAGjCFMLGxorIxahijXaUEh0woa/Vd+gSClxEc6hQnuM5zHVCHZ1Ql+GCzFDi7/G13vfBcXeCAxd+Exb+NyPPbHvx86pwz2/w91blGW2v2T5R7R+D7ZXKM6tDK/1jpU/Y2UxcfBaCeWlvimg1EKAGACiw+pl26DZZ/UwHOjsjXbssghZZ/SyzCFrUoVkWQbusfo7ZDJ4COPdbTb4Fi8dmIQAYUdmG90i7CTAN92IL3kf/ZZQO2K4O8dnsTDoO1gkdcO727dszIZYbBwEvvPCC+5lnnkl/7LHHED3kbNmyJcPq2gUBAbqKNdNBigCAD+wGR3VC8O+uiTTzpTrcDKMqVKr5UlXRnKgHX6t9D+sXv4fFqrzKULOhduP7+Ln4XfydXXl67TbaF1pF3k9a7ZbKs6pDM/1kpi+ctZlmvAe6zMwEKAGA757X6KXE6mfYoVNi9TMc8GisdVtlEbTJ6meURZAWq59RFkFarH6O2Iz0GOCIKm47AgCyidzoTFon3ochkwDAqg7t2MzGjRsDCAB27NiR/cQTTwT27NmjDwJef/1194svvpgGACATAQCgh3RaO1DVLsasQtUBgIGpXRL8+amcCPchjKr+Ar85Cu9bLlUV3F+grr9iwdfyz2HUdlT8HAv+b0cetP/PYl2K7Yf/8X3xO/h9WvLU2q/XB2aKvL+U2i+VZ1uHBvrLSB84bzPxo2D7/w+C+SfE9vEe6DIIAnoBgHHjokOdYoSjvVPaSOCjudvdLIsgJVY/PRZB2qx+eiyCtFn9mNuMFADAPbC1JtImbiJXHDAq3DeKmQBZ6JCGzWzbti0DAcDjjz+etXfv3vSDBw9qg4A33ngjBQBAOgIA+FGai8JD66KsKFQbAGiDADwuWBOJw4iK++rcbzWeffZZMT/8NgOcaLqdcsGPGoouuaQhggVfi+9/86ymrEsubqjgP4Nn/N+uLCzf/27jYFHeRRc2lJ1SE+OvAZ/xf/Ez/B5tefLrULt2OyWp32TXIZUnvXY7RavftK69L20GAECmMHUfnxkua0O77wipAAAFZ5YAAAAuRlw5sza3dly0xAlGONrB30gAZHHe3SiLIGVWPzUWQVasfmosgqxY/ZjaTK9EQOXj8V5oV4kVSstntgCAUR3StJmdO3emEwAQeOWVV1J7feHLL790/+1vf3O/9957vsOHD6ciANizZ0+qi+JD6eIsr+PoAgBlEEAUygMAGPF9WV0ey6N5jS2t9Tkxrr4IC75ee+doD8fVF+L/+Iz/05Q3+fK6NFEeF6/Pe/7li934LL6HnzOTR65Hfs005Un7T7weqTy8Vhflh7z/lK75eLGZUEmLmwCAy8Nl4/E+aK8oiXcZXMvsqg7z98nX55zd9N0pl9flEQAQOF7ve6sggCVDmx6LICNWP3m2Oz9jVj95//kYs/oxsxm1TIAqsUJpA61tAKCnQxY289RTT6UhAHj11VfTjhw54n///ffdn332mScBAD788EMvAAA/AoCXXnqJCbEALWYoYwBAlRFOdHxfhofHCkg9Hvi+i0aprY0GMTOUrAwbNSrqpyVDWsaNiwYU5OFZ14CT8vC6WcjDfsP+U5BZeOGPGzy05WGdWLeTOrRhMz4CAKaJACCkAwAkIACAMP987NvnNJ2PAADkZR7P9z0FeUxy3qsx0DFm9Qs6zOqnxiIYPJFsRj0VsGH2UCoAQE2HLG1m3759qQgA3n777ZSjR4/6Pv30094A4M0332TKREXQnC1mKOMAQJERrgs3TcH3EQDwLFEVwzk35Wsc4jC7V5aT7F4KzmCIkzZD2No8DOUpMcKxvi9M20yIAACw86lmAEDPUlgPANh832V+I2yAfXnf2wkgTtuME/e9gs0EnPQzLAlvWNmMNheAIfZQagCgL2LF66+/7tcEADgD8Morr7C8UYJ2EY8ZAKDA0NYVKY8zAwAqyJUlu5fS6KOQsbMLnoSMcCzlWbIZ6wBA2AMgBQC4BwBPAfQjmwn0cxbBAT9DGQAosXkqbAykOQPgqA4PHDjgfu2111IVAcDHH3/skSwBpO/du9fDWKGWmaGMAgD5Og6Z4uH3AMBn1AGAwjoOa3YvpfVH1tOdUhn5rB26/JpYrnXKHTmRxZqBzrLNWAMA0vuAT0j0tbgEQE4BHLf3vcVg3Nc24wSrX77DfibfYT9DzWbUAIBKrFACAbT2ADgaKzCvz759+9LFJYD333/fmwAAX331FR8A33nnHY8IAPbs2RN48sknPYwUaosZyggAUN7EIY58hFMA3zijqYwWAFC7FobsXmoMbSw3PCnpkNmGJyVAw3LDk9K1MGags2Uz5gFAkmPjZ8LwFMCpI2JnSTYBOmEzLBnhAsehzTjB6ueUnwn2kZ+hYjNKAAATAZlgD6VxCsDRWIEZfSGWZ5BNgOlvvfUWP9P3+eef9457hw4d8iIAwGOAu3btytyxY4eXhUL1OsMOANBOmytsAkQAcP73Gs5ccvPYFLsAQO8aGLB76TG0sTjypKVD6iBAazaDhUPXugZGDHS2bcYcAOjl0JLyALx25CKv5BigEzbDghEucBzbjBOsfqz9TLCP/Yxtm5EDAEwFLOYBMMgeajcPgKOxArl8IIZniscADx48qB/P9+/f75MkAsreunWrZRDQ0NAQpM0MpQUAdHPmlwibAKvDAgBobasvHDvG+u5no22nyO5llKGNZtITIzqkBgKMLGXQdOhG2k6ZgY6KzRgHAL0dmVImQDwF4LDN0GSEC5wANuMEqx8rPxM8TvyMLZuRAgAkAxIzAZpgD7UMAJyOFcjiC7E7S0wE9Nxzz/kM/3j37t0+MRXw5s2bczZs2GAaBJDgX0ybGUoNABgizCEAAI8Bfv+8xlMQANTVWjv/bNYYKTBDmWVoo5H21Azblm0QYGYfAw2HbqbNNEAATZsxBgCUpzI1uACcthkajHCBE8hmnGD1o+1ngseZn7FsMyIAQDpgkQsAEwGZYA/l6YBD5rkAHI0Vd9xxh/uuu+7KFlMBQyw3D65/+ctf+h966KEcwgY4aM2aNYZBQFNTU5CwARbTZoZSAgA4pWmIEa6k5xhgdXmscMLEusEEAJhlE7NkhDaYoawytNkhPrHC0GYZBFjZxEiLEc4ECYllEEDbZvQBgPpmJh02QKdtxg4jXOAEtBknWP1o+ZngcepnrO0fg2B92aUNWSIbIKYCNsYGmLiXeDbASIj7vVEAYPe+RzZAHEwb7c8VK1a4165dmwMAYBACAIjh1pfXHnjggRSRDnjVqlXB5cuX604jcBzHB38sZhputLPkAAAc2zE+wY8ROtiS3nkAamvN5UC3O2qxwAxll6HNipO0w9BmxUkGbTgQW4xwFoKOaX2wsBltAKDNifH/2XsTMKmqM2+8q/fuoreiaZreu3pvMEaTjDPx06iJOzt0dXfd6lUwgCOjEHYRddhEWUIIMggIjgiIC2siIuICqETFEGe+qM88k5hv4vIlMf6V+SbQdP/Pe++51bdu3+Wce8851V10Pc95aKpunXPrvu953985533fnxUAiJLOOGGE8w5gnRHB6ufWzvj6uZ2h1pnJkwPeiRMDpQAAgAwISgGT0gHjOSUDgLpq6aMbb2zMtgMALOY9pgMGf2r7fB566CHPypUrsxEAkOmAt27d6r6o3+OPP56MAcDQ5cuXD33wwQdNQUBra2tOMBgswgCACzOUFgDUVHSqQRzdRFzwBgDghuvIWdBYnVtSMEMxOXum3CZlwdBGs03qY7CF6IgRzsW2c3y0dcYcANizYtoBgCjpDA0jnDcGdEYEq59TO+MbIHaGSmcaGuQqqaVABwxkQJGFgIhAgEwHDABg7NhAeVvb5DQzAMBq3qtH6eBTYXFtdt19993neeCBB2CRngsAYMOGDezK+a9fvz4FAMCyZctylyxZkrto0aI+IKC9vT2npaWlCAAAHAG4Gc/q4akAoKZCemBkTYcaxNFt6/xNAABkAZAYdNaRywTMUEyjzwkDpVgytJEESvkYBhFRMcIxCDyLqs6MGd04TA8AIMuFhBKbBABESWdIGOG8MaQzIlj9aO2Mb4DZGWKdAQAwYUKgQNlB01cCJGoyHTCaWx8CAGhqbiicNJH/vAcQAAAAfCvysTn6z+fOnetZuHChD/nmPAAAa9asYcrlI79WrVqVsnz5cgAAeQsWLBg2Z86cMAiYOnVqNgIAhQAAQqEQV2YoFQBcVh9cBQAAGbzzKr2pUwBgZ9B55S5bMENxyT+3SZXiwdBmlSrl45BGRMQIxzD1LGo6M35coKynZ7hHBQCY1KTbzvnTAIAo6YwVI5w3BnVGBKsfqZ3xDVA7Q6QzCADkf/+q5kRXAKC0Fb7z72PGNBYBAADuDhHzHhbVGAAUwWJbff+ee+6J/8lPfjIUAYDh4JvRIp0pCVzEa+nSpakYAAyfPXt2Hho8afr06dl33nlnAQAAOAJgOZ7Rw7z5psas3c+P9gIAqK+WBWjBBUAOAMwMOm+mJgNmKG7FZ8wmJ2eGNqNiKT6OhUQsGeE4FJ+Jis4AAFj387EZ9TXSbExr2qXGwlg5f1oAECWdMWKE88awzohg9bOzM74BbmdsdQbNmXhzLgByAABZAN++IpjS3NyQhwGAkHkPRwAAANra2gqnTJmSfdddd8XffffducgX5wMAuP/++/k5f/UFgwAAmDVrVj4aPH/atGkjAAB0dHTk8BhP/1DHjQuUAwAYVRtcUV3eaUMGRAcAjCYn79Kl+snJu3SpiVPmze5lxibGq5SoIZsYx/KzwnUGjgAAAFw+SlpQX90Gq/4upcKf/VEYLQCIks7ojWlM64wgVj9ftOZ9f9AZazIgOgAAWQA9PaUQWCh03sMiGwOAAuR7ZR8MAGD+/PlpcaJeMJgOAHBnhlIfLgCA8z03JCHB3WfPBkgPACwMOm92L59Idi8Dp+wTPB5vMhE9IxxvAhqhOgNBgHAEoAUAaoU/HgAgSjqTJML59xedETTvfVGe91HTGdYAAPq55eZG4b4CFtsYAIzAAECc84fXvHnzMrUAAN1MfmdnpxB2LwAAx07emoqM3WKOAMBoNeAVbAh8gg1BrLEI9gdWP27jffeKYNKLr96SqgUA1X7uAEC0zngvQZ3xDdoZPjrDAwAgfyR03qPVfzwCAHk6AJAlzPkvXrw4Uz0CmDlzpg8DAIgBGIFujju717ixgVI5BqAu+HC1n8sRgH4biTcjnBXblk/ApBTK7qXlTRfBCAdjCGCEE64zaB4UqkcAUNBEPQJAIIDXEYBonTFk9YtFndHPCxGsfrzH6486wxoAzJo1MWHy5ICweR8KheJbW1vz1COA6dOnD9UcAWRyd/5Lly7N0AQByqgDAYB0uBm4qZaWlgJ0k1zZva65uikNdgDUIMDKMqZBgEaBJDwZ4cxY/XgGy/iiyO6lBgPxDLAyCjrkyQgXFZ2RgwA3jM2orQz9E2QBIMcfDgK0AwGRACBUZwcAoqAzlqx+saQzmgAyniyCZqx+sWRnbHVm0iQEAopDEQDATwEA/BoAcPX/ak5vbm4YAUGAIuZ9c3NzvCRJw5F/VYMA0+F9tAjPAgAAPhkW59yc/yOPPDJEkwYYMRDcDAYAUKygIBgMcmP3CqcB1gUflusAVEoXEAhgkQZolUrCgxHOjtWPR7oMEasfJ3YvfToQjxQrq7RDHoxwUdMZAADKfAhNr8SGDI4A1DRAKxDgL1HZAEPhHYDykpCnn+gMEatfLOiMQdohDxZB/co/KwbtDKHOBApv/FGjnCOP9B/vAISoCgEBAED+5n+PHRsobVbSALnP+6ampngEAIZDGiAAgPb29nTt57AYBwCA0wAzmDv/DRs2eHElQAAAhigDbgrXAYCqRQWocWH3UgEAxADADoBcCbBS6kZCcVMIiKSYBEtGOFJWP5YFM6hY/Rize5kVBGFZZIWk8BBLRrio6syttzRmKiuZ0J2VZe2g013ob/kIwA4E9AIA6by/ODRK7gfNA39pS7R1horVbyDrjEXhIZYsgpeCnSHUmUAhrgRYhHcAnlR2AEJUOwBV5a1AJ/9biEWDHQCIAeA57xsbG+ORLx2uKQSUbnQdLMrVQkDIVw+JY/XasmVLuqYUsCW6gJvDAEAGAejmmbN7aUsBQwwA7ADIW5+VUo8tCDAAAKNva0ymKCfJghGOltWPRclMR6x+jNi97EqCsiizSlN6mAUjXFK0dQatRhKUlYwUqixrg9V8l1oQyx4ESN3+XmbMH+EVUcJ3S26PKy9riZbOOGL1G4g6Q1B6mAWL4KVgZ4j7QM5fBgGwZR9qaRiOfMWrAJyVeUO2e4y+01VX1dpTXy2dmYSARHtnQyJ6n+u8Rz50uMqtI0mSZR+wOAcAsHbt2qEbN250f/ywc+fOtK1bt6pkQESoAm5SvWH0AwpYs3vpyYAgBqBWrYBmBwIMAMDkSQplsSBGOKesfm5IM1yx+rlk9yIlBXFDtOKEfMgNI5wT4hrmOoMMVwL+dzR25N1aNkArEOBXAMCFKqijUSo9ggGA/Dtq4m4GYwkkJCJ1xhWr30DSGQryITcsgpeCnSH6bnlpKK4SO+kbrmtKnXrnpNxrrm6+Cs2L/64sk+cD0fExHDMj/9IFGTcIALz+8KoJ8YVlDXAEx3XeAxkQ9qdE30UAIAMAALABPvHEE+mOnf++ffvSnn766SwAALRoorm52avSAbNm9zKiA8bC6bEFARoAcFlNc2F7x+Q8oAMWxAjnltXPyQRjwurnkN3L8YR2ojMOZOjEKLtxOkx1BumzB/87SuEBwFv7xCAgdBHmAgINX6NWi48TksaODeROnBgogTZ+fCAX9RdP2saMacxQvztxQqDg6r9vTuTxHbXddGNjCmzp4u8Xwf+pxiP8jsl4JdAXj++oDZ4FPBMaeei/QzMeNBiDVv5OviNSZ9C8iEdAN1y6fmSNtEdOnUUOnSR+DPwJ9i8X6qvb4f/b8O4b6jvEdd5jOmAqX7Fu3TqvSge8Z88e+hoBR44cSdm/f38GAIBt27Y5QhGAWAAAsGb3MgIAeHumxxYEYACAPvvmumuaLm9rb8jHOwC8GeFYsfrRbLExZfWjZPdyvaVHozMutoFptmVZbDsz0xl1VVNVLIGB/1wBtuDUIw2aCQjoxiCgSz4+KA19iL5f19MTFzd/4cScGf84KXf5o+McFRfp6fmeB74PbdaciVmsrrV63f1PE33QB/xLOp7dtSTjQYM+WV1r9oJno/axwkYu2mudjgdjkI5Hc21/0Bmk9yuqymXnf5Hk6FjjV+DaC0rqeWieApilxPLi6f3SV2zatMmLAUDmgQMHyEsEv/HGG8lHjx71AgDYvXu3qwpDgFwIgmyoVppmAEAnLGMQIAOFFvj83PXXNl4BOwAQAy1RjbkAACAASURBVOD09xEywrFm9SMJsuHC6kfI7sUsqIdEZxgEgpEEZrEMPGOiM7DyqMBUpEivDymBgMYBTUYgIBwIWCrJIKC6Qjo3qi74+JWXB9u+fVnwh6iv7zhto2ql/3XVd4K3QfvuFcGbqspC33NyDWmrrQhd9XdXBm+FvuBf+L/VeGbXOBkPGvTt5BrSBs8GnpHa1xWXBa+3u8bNeNBgDKvxSK/pDzqDdP0apOfT0b+nlXN/ecHYrXHshiBA5/y7ld0C2DWTrlPmoBTfn33Fk08+mQ4A4ODBgxkvv/yyPUPgmTNnkk6dOpUGAIAKNTg06E62ma0AgB0IkIVeFYIoznOwAyD3Uyx5XP4+K0Y4Xqx+Vmk2XFn9bNi9mKf1WLN7MUsFs0rN4pF65lpn6kdIcjlgZS6E5sopTXAUUBLq9hvUxdCDALjGj3cCoIZAHZoX9TXtPTUV8k5Cl9tWVS7XJYBV1sUatNqqQECD5DOnDQK08KruIvwL/zcaT/8Zk/FQgzFIPnPc0DOq0fQJMjP7jMl4qOHaEn3Hs/ms3+mMbPuhZoy829Wl7oBZHR3r/Ag4f+XIrDT0X2UlQTkYvrwEzcGStn7tK/bu3ZsGAODYsWPet99+u6/t+uabb2QH+OGHHyYgAJCCAQBTPmGTQhuOAkDsAIAZCMDvdYOhgx0AiAFgAQDMhCeA1c8nuLCHHbsXt8IeRjrDoRiMUXEWnsVnXOsMMoIevBVZg/7+mxrgZ0aP3WcnoEROG1RrB8DfF5RjBOLKaJatqjwUHg8ZbdP3WDUI6oqc95Hjqe9xGU9mYTR+j+VvrNH0XV0h9XmP9Xgwhn48o/cGgM5cgFTZcIyMxa6xgfMHsHwB1w14XFn9B+MrdGmz/dVXHD58OBUAwOnTp9M++OAD2X/+9a9/VWz1119/7fnjH/+Y8PHHHycBAHjzzTd5Md6ZMUNROQ4SAGAk2PBWTpX8mSUXAAuDriu1KYLdS0RpTyYydDsex3KwRmQwIlkEiXWmqigEjj+sv8hAHZaPAXBes7/EHgRoHFW3CghkAAFGklEDgiJcobAbZ+vIDRlyBagwHAsaXtX1GS+8hctzPN2YMjkT4/HgmdWIHK8XJPYZT+ae4DAea51RdruksOP32ywYdYBAza5BwLgV5tX1GHTHDyRfcfz48WQEAFIRAEj+5JNPEr/88st4dQcg/rPPPkv86KOPks+ePcub8c41IxwpAOgj2DCasycDYriquxTYvWKNEGbAMMLlxu0EQ4TTAaWbYIsTDFV4e7/EeLUUAQIISge7X9VFjqes4viNaTDve4gKhbEaT16J83ymUsSqn/94l6zOqHEyF3DNgOMw12rKgnHlJS1xZeWhAeUr3nnnnSRLAHDmzJnkt956y9OfjfkgAIg6APBdSgAgSkyQRONV+pvgGAACAj14TrwoG6pwfXOCXYAYNOb68S4FAMBbhpcgAMBBf/IOQFdlmbz6v1k5elNqcNQWtg4YX/HGG294Tp8+nWIIAD799NMEDABST5w4kfLKK694eBpyN4xwg0cAUT0CMBsv5o4ABDHCudKZ8mLlDFKNRkb/fssP55y4brnRUYDJEQA3gx5hyCv5G/Q+41XyBQFGK0e+IEDn/AXIMNZ1xsBXdGuyA84rBbNCuxS/0xJfXgbAu23A+Ipf/vKXnuPHj6caHgGcO3dOdoAIACRiAABBgGmHDx/28DDkbhnhBoMAoxYEaMnqF0tBgIIY4ZjoTEVZSJ0XamngeXKN8xI56KlbjnguCZmWCCbhDmBhyFXjbfQeL8dhENDFFATonT+Mb/QeL+ev9B35HmsZxrrOGOiHNkWwq65KrhvzOQIAI/DqX/YXZcWNA8JXPPfcc55Dhw6l4yDAVDUI8Kuvvurr9957770kAABHjhwZcuDAAe/evXs9PJy/lZF3CwAG0wC5s3uZyjAW0gAFMcIx05mK4mDc99Ob4yrKQ3EVucE4HKD0HC7z+zf1KMCKKZCHQbcy2jwMupHzJ7EJLJ0/yWdsnb/xZ6xkaKUXsaAzer2o6A34g88gZbQHAMCVlweDeIdNBdkDwlc89dRTnj179oAvN08D1L9ef/31ZAAAUAho165dQ3bs2OHYQWoLAbFihBssBCS8EBAVq99ALgQkiBGOuc74S8MFgeS5Wl7YkoxW/ScBBKD3/qZL9eumNfYsDTkPg27l/HmAABIHzxYEWDl/PiCARB8Gss4Yrfw1KYJdynjtPd8aGZy75KEJWePHB0oaGxsSoQBXaWmo3/uKzZs3e7Zv356BKwGSFQJSX9pSwFu3bs3YtGmTx6HzL2LNCDdYClhoKWBHrH4DsRSwIEY4bjpT2VsVUH7ulSUtmchAvlFbiSmzlYItOCaAHwigMdIsDDqJ82cJAmgcOxsQQOL82YIAGj0YiDpj6PzDVNmQRtvSgxk2/xHm0sQJYB9gDjYUAKtgf/cV69ev9zz22GOZjkoBqy8tGdCGDRsyf/rTnxKDAC0ZEGrDWTLCDZIBCSMDcsXqN5DIgAQxwnHVmbKy9jh/MT4CwEyBt9zaOHxkTfAQEJhUVyjpTOHjMsKKgbwMOQuDTuP8WYAAJw7dHQigcf5sQIAT+Q8knTEq8oPnw0XUzisltaX/QXOoEcfYANlREnb+wknAaMmAVq1a5Vm7dm0WAgA+AACuyvkjABCmA16zZk0WdG73HS0dMHAZs3YCg3TAQmg6fYKpXaNGByyIRVCIzlSWtYTpSceNC+RKUkPB9BmThtXXSIuQs/8fOThQKYN6AVMCd6uZAlow4MSgs3LkTpyAK0fuBDhQOnJn33Xi/N2BADeOfCDojBoIHlnbX3H84BeqymF+SO8g/3CZfJRWJiVUFCvzCVb+0aABBwAAC2kSOuCHHnrIs3LlymxMB+xzRQesvrZs2ZKOAcBQ6BwGMbu2paUlPRQKqfzFwxEAYL4NrAUAwMwEDE0krE5mAABiACi2gV1vz9D2wWEr38fL+TsBAYy28mmODliw+tGwCArVGQhQQsYKybChaNKkQAlqQ/H71ag9Lxs6uaRpi1oeFdpFAAa9dMJSRPU3HDdg2rSV28LV2iyud9uHvlIcNuQUTdJXDOyxooU1cOC95WQxeLJr+oqB0IfZtfpqf1bXkvYBMrS6Xi9v2vFo+zCSN+14Vn0oFQNxBcCSPvIGPgg4Opar+4HjR3r/Z+DUKK1uisdxNQmjhkxTdtQwCKA8MmQy7/EiWvapsLg2u/a+++7zPPDAA74VK1bkgq9GPptd1tmGDRu80Cl0DoMsWrSoDwhob29PRwCgCABAc3PzcHTDXALBVACAhL+4vhqfbypGwB45GgAAyAIgDARjFqBB2hfHYD4fL+dPAwIYB/ORBA+yZPUjYRGMis4oW5XymWVOebEUV4kLl+D5831kHHchh/8VbHeC8atERhADgh5lZyBEbNBZGHKavvTOX4ncdtYqep1Cj5kNMVm9d2tolWXCGSCZgYIxVg2TBAGpjdyA4EZ/DSb2sbyGtOn7AtIeo+swsY/lNaSNpC9M7CM3uD+4T6fjmfVVoT4D5blfDMu5CnYP2nogQBaK+6DP/wNd9wBa6edr5ohsq0r8TXGVJSEnQcPM5j0sogEEAAAIBoNFsMjWXzN37lzPwoULfUuWLMkDH7169eohcaxf0Cl0DoMsWLDAN2fOnDAImDJlSjoCAIUYAAxHN8otFUwFAJfVBR8eWdMh7wBYoXcSAGAnWB4pGnZ9Ckjn8/Fy/iQggFM6n1X6IA9WPysWwajrDLCVXVndFjZqFbhioLy9WRwqQk5wCnp/B2r/Gzmwr/0lEiYCagk3YAesk1NnQwpToOazqvLez2orwVlGfu6kWfWp/ayuis14mLyn2zZ9sO82PA4obqdq4Hzqqtt66qtb5Vbtb4v4vK7K/DOnTdtnbWVkn/B/s8+cNqs+4Tepn8F9sRjPqk/5eVe1yul8eOX/Nd7mX49kOLqyvCUcIAer/goc4Q9U2+Um0f6ifQUspmFRjQFAESy21c/uueee+J/85CdDEQAYDr552bJlGXG8XtA5BgDDZ82aNRQGnz59ejoCAAUAAFpbW/MQAOBaDOaaq5vSjp28NfWy+uAq2AHAWzmuAYCZYHkWaTDrW2BBHx8v528FAjgX9DEqIMST1c+IRbDf6Izf3yrXCsDBgVDIJB79GyHf6tJQYkVZaDgCAMCvfgNaRd2GrrtN+Ve67Vsjg43f+XawFRr8De/V10gT1fe+/a2ghJzj7er1bptR39r3rrw82FJTIY1xPob8225BbSJqX8qpwToQYO38pS6FWlZ6A/0dRPakE/3bQdqqyoNTLh/VfC9qs6HVVgZ/jMbrRDbtHu17NH1aNX3fI2uD/wjvw7/691g1o77hN6nvwf3AfbEaz6hv9Tl/+7LgXVd8K9heUxm8Gtn7YcXFIY/u2CxBBcd+f28cDW0cEc95jwBAvCRJwwEAtLW1FcKi+6677oq/++67c2fPnp0PAGDx4sWZcbxfMAgGAPkzZ84cNm3atII777yzoKOjIw/dGPdysOPGBkp3Pz/aCzsAEANgxQVACwBMBJsvshwsankxXtJ3hICSvhE6I4DVT08gNKK/6Yy/KBhXWd6KDV5I5g9AcyfRX9ZCJO+jb9yaNHfBxBxo634+Ll39e/nD44fwsjXqGA8tG5+h/r3o/glZLMdAz+BTnBp80ZARzjgA74JcY6E09C9uxl6/cdyQlY+Oz4T2xM6x6erfvJ7n7ufHpBmN19PzD1y4PKBfdYzXTt+Wov4N98HrN2rHgOf7MPr74dXj+6yK/aWhBGgwF8oLQxFn/U7mvQhfAYtrWGRjAFAwY8aMPAQA8gEAzJ8/n7/zV1/z5s3LBAAAg2MAMKyzs1MIIcy4cYFy2AGAGAA7MiAnAMBkVRcNQphBUp+BNd6A0Rmk++D44rD+y4AASpz6lWOCeLQiioedAn1D4Dt3woRAqdrGjw8UXPW95kSja1m0229rzNCOh1rxD69vSmHQN67oFspAv/Uz5ThA3h4mIvWBdEolkFLagUFEMnovEcox07Trrm1KHT8uUIKeY5nabr2lMZO2H9L23Subk5D9LNSON2ZMYBiv8aBB/9rxYHy4D17jwfPTjgfP9/ofNKXCKh8ofKFYFuyEVeJdsTK04h+ZO3nAzHtYZMNiGwAA8r0jMADIihP5QmgjTTAACD9kQQBAT9bA1XmYOORBGmG2q/J+S+s7gHTGGws648dbvGgFmI7sggwAIP6BnEZYAQDIoTyhrByRYymTBqrO+GJMZ/QOmbedEeordACgAAOAtDhRr/vvvz9VcwQwXMARQMQ2CwAAzkcARgLlKljdlnyhYBbBQgFHDl6T8XgdOei35ngfORjqTJRk6BUswwGnM0YAIOIIoMquToB7ANDPdMYXIzpjOO852hmhvkJ/BDB9+vR89QgA+WT+IGDp0qWpahAgRB7iIMBsAABwUxyCAPsEWtx8U2OWDAD4BAEaMTUl8RSsPnhLMIugGpTHM+jQktWPQ9ChUXAOz6BDS50RwQQpQGe8saQzegCAgwAvmrL69QEB7gBAP9UZ3wDXGct5z8HOCPUVBkGA2fogQFicc3P+q1atSlm+fLlhGuDUqVOz4abg5uAmGaUBGj7McBogAgCM0wCtmJq4CNZsQghiEdSn5fFIOyRi9WOYdmiVnsMj7ZBIZ0QwQXLUGW+s6YwWACDb8ZmcIlalAABTVr8IEOAcAPRznfENUJ0hmvcM7YxQX2GQBpijfmaQBsgeBKxfvz5l9erVQzEAMCsElAM3BzfJoBCQ6UNUAUBNhfSADADYFAIiYWpiKli7icCZRdCsMA/LwkNUrH4MCg+RFOhgWXiISmdEMEFy0BlvLOqMCgC+8+1gFrIfX8g1BxAAsGX1C4MAZwBggOiMb4DpDNW8Z2BnhPoKg0JAOfpr9IWA1qxZkxLH6vX4448nQylgDACyH3zwQdNSwK2trTlwky5LAVs+PG0p4JqKTpXpzHEp4Buua0qgYGpiIljSCcCJRdCuNC+L0sOOWP1clB6mKdHJovRwvBOdEcEEyVBnvLGqMwAAnj14u+eWmxsr6zAAQM7/IgV3ADUAGGA64xsgOuNo3ruwM/EifYVBKWDT56QtBbxu3bqhGzZscA8Cdu7cmbxt27ZsDACyVq5cSUIG5HNBBmT70PRkQGjinselQR2RAU2aFKDK2XYrWFrFZ8wiSErO44Z8yBWrnwPyISckHW7Ih5ywe7ky6FHQGW8s68zYsYGkUKgh/9ZbGqsBAECFwd4qiEQg4EJ1OTkAGKA64+vnOuNq3juwM65k6NTOaMiAbJ+PSgYEAADIgJDvTnbs/F944YWkXbt2ZQEAADpg1CkNHbDPAR0w0cMyogPG9cGp6IBry4P5nXdMHgp0wA6YmhwJ1qnCM2IRpFV4JyyCTFj9KAyImwnmxOm4YfdyZNCjoDPeWNeZyZMDhcCUCAAA2Y7P1TRACla/C0CxjP6/ww4ADHCd8fVTnWEy7yl0hokMndgZTAdMLENg7EW+WqYD3rFjR/aePXvod6mPHDmSuH///gwMADI2bdrkoe0DEAsGACTbQcQPyQgAVCgkIfb5uyoAKJW++cHVTaPa2hvyMQBwwtREJVi3W14uWQSdbnnRsAgyZfVjqTOMtp1ZsHtRGfQo6Iz3UtAZBACKAQBcc3XTMG0dAApqXxkAjKyR9lgBgBjRGV8/0xmm855AZ5jK0IGdoZbh+vXrPQgAZAIAeOaZZzKRLyd/Rm+88UbiSy+9NAQDgCFPPvkktfNXX4BcCAJCqARqBgCIOMIxAECfnbv+2sYrAABMGB9wXMqU9N5ZBb04ZBF0G/RCwiLIhdWPlc64dUKMWf2IDHoUdMZ7qegMAIDpd01K0RcCIuWihxgAGQDUBp+ZPXdizo0/akzRA4AY0xlfP9EZLvPeQme4yJDCzjiW4ebNmz3bt2/PAABw4MCBjJdffjnR9kvvvvtuwsmTJ9MwAPDu3bvXsfMncUZOBGoFAOxBAAQLApOYAgCWLJ2QbFQJkKVgWae9UDLCsUp7sWIR5Mrqx0Jn3IAATqx+lgY9CjrjvVR0BtrEicrvdwoAIAsAYgBgB+CeWROHTpwQKJ40KeZ1xhdlneE67w10hqsMCeyMaxnu3LnTgwDAEAAAx44d8yLfntDnom+++UZ2gB9++GH8mTNnUgAAILSQdvjwYdfO38opORWoHQAwBwFSD3CMK1Si0rnvfru5TO7HJQCwEiyvwheEjHCsC18YsQgKYfVzqzNOQQBnVj9Dgx4FnfFeKjqj/m6zUsA0AACyACAGAHYAEKAobWgIXAo644uSzgiZ9xqdESJDCzvDTIbPP/+859ChQ+nHjx/3nj59OvXs2bMyCPjyyy8Vv/f11197Pvvss/iPP/44CQOAFHQxM+dvBgKcCpQEABiBgBoleKcbp/xYcgEwEmwuz9KXNoxwvEpf+ozGE8Hq50ZnXIAA3kyQeoOeJ1hnfJeKzmhlyAoAqFkAsAOAAMClojOi7UyuyHmPf5MwGRroDHMZvvjii55XX3017Ve/+lXqBx98kPy73/0u4c9//nN8GAD88Y9/TAAA8P777ycjlMDc+ZsI1pFASQFAHxCgtO6q8pAtGRDDycmV/MKETIQ3+YVrGbqYnMLHE8DqN6gzgmXIGgBADADeARjUmRjVmYEuwxMnTniQb08BAPD73/8+8U9/+lNfAHD27NnEOI4vvN3hSoloAABs++sIPrqh7jcvAIB/Y67uNwplEURKlcF5PP1EyeWtM6LZvdB4IwQzQeaKZIQDHbmUdAbLM54XAPj+Vc2JCADkX0o6I4LVT7DO6Of9CJEsgiJ8xTvvvJNkCQDgCODUqVPJIialU4NODgDC2/4ROwC1VXIUL68dAD3VpjAWQRHGwAQlxyy71yUmw5jTGTM7wxoATJgQKIAjgGiwh15iMuQ1nuG8jyU789prr6WoRwARAEATBJiAAQAEAaZwNuRJTs8fyQBApPOHowB8HNCN636fu6ymuZAlADBg2xLJIgjPL1EUI5yJDGOR3cvLc3Ja6YwgVr+Y1RkjGao6wwoAoH+3L7x/QgYOAowWe2i0dcYn2FewHs9y3guwM9x9xeHDh1MhCBAAwL/9278l/e53v/OEYwC0LwQAkgAAQBrggQMHUnkJ1MKJ2T5oewDQ1/lrYgLCWQDXXdN0OSsAYMG2JYJFMPzcRDDC2cgwFtm9uIAAEp0RweoXizpjJUP4rTfdqHCUuAIA5R099TXSbjkNEAGAyZOjyh4abZ3xCfYVrMYjmvcc7Qx3X7F37960gwcPZuAsAPuF/cmTJ5OPHj3qhUJAu3fvTnMzeGNjI0nxAyoQYA0AzJ2/WggIggDVOgDtHZPzRt/WmMxjUvISrN3z4skIRyjDWGT3YgoCaHRGBKtfLOkMiQyRs853CwDqqpRCQAAAxoxuzDAoBCSaPTTaOiNi3rPUGap5z8HOcPcVTz75ZPqePXsyAQC88soraWhxT7bYPXLkSAoAgKeffhpKAac7df7oBxQQlj8kBgHmAMDG+WsqAUIaoFoJcPIkuVwxb1Y/HiyCps+JByMcpQxjkd2LCQhwojMiWP1iQWdIZQiVAFtaGoahFfwQegAg25lwJcCeHstSwKLZQ6OtMyLmPQudcTTvGdoZ7r5i06ZN3u3bt2djAOBFi3q6ne59+/alAQDYunVr9saNG6kUqampKQk1cP5FFAQIRM7NEACUSt22zl9HBgSFgFQuAEGsfixZBG0VkSUjnEMZxiK7lysQ4EZnRLD6DWSdoZGhygVw842N5ch2UACA8CJDBgDVfulf5Z0EazIg0eyh0dYZEfPejc64mvcM7Ay1r4DFNM1vXLt27ZDHHnssBwOAIciXOzvmRgAgDQAA0AFDpyTfkSRJdv6YDbCAkqnJ1snpAQCalOehwp+t8zegA4ZSwCoboCBWPxYsgsQKyIIRzgHbVqyzezl6Nix0RgSr30DUGVoZQilglQ2wtlL6AlKD7QFAxA7jhZoKKjpg0eyh0dYZEfPeic4wmfcu7Ay1DDEdMPhTomezYsWKDOSrh2IAAHw+7mLctmzZkg4AYM2aNUOXL19umS/c0tKShACA7PwBBNAiFxJnpwUA1eWdMCnPK+l9Ns7fAABAP0AGRGO4GLBtuWERpN6CcsMI54JtK9bZvbzR0hkRrH4DSWecyBCyAIAMCABAXZX0RW2lzBB6kdD5g52JSAO0AwAM5v1A1BkR855GZ5jOewd2xpEMsfOX/WkwGLR8RkuWLMlEACAXAMDGjRszke9mk+K+YcMGLwYAuTCI0TVtbW1JCAAUhEKhIrwD4IapydTphQFAqXRffXWHjMaVCn+S/fmdAQCALABSA8aQbcsJi6DjIBQnjHAM2LZind0rajojgtVvIOiMUxmqaYBABwwAADKDkIO/CI6ewPn3qQNAAgBczPuBrDMi5j2JznCZ9xR2xrEMYRGt7qjD4hoW2UbXLViwIBP55jwAAMhXZyGfzbai7+rVq4dgAJA3f/78CBBwxx13JCEAMALdnHyTdkjFDQhQAcCo2uCKkTUKAID0PqIAHhMAQGLIOLBt0bAIuk5DoWGEY8i2FevsXlHTGRGsfv1ZZ9zIUFsHANmOz3FtkIvg6CNBgFlgsTMA4GDex4LOiJj3VjrDdd4T2BnXMlRj6pBfLYJFNiy2tZ/Pnj07CwGA4eCbkY/OefTRR/mU81+2bFkGDDJv3rzhMCi8N23atKQpU6bko5sqhJszQyisQMCVlweTz/fckHRZfXAVAAA0KS1KAZMDACuDxpFti4RFkFkhChJGOA5sW7HO7hU1nRHB6tcfdcatDPWFgKrKW2QAAE6+FwRYZRU5BwAU8z6WdEbEvDfSGSHz3sLOMJNhc3NzEt4BKILFNvK58rObOXNm1qxZs/IxAPAtXbqUG5eP/Fq8eHEmDAaDosFzEADIRzdT0N7ePkKPTHiAgLFjAkW7nx/tBQBQU9FpwwVABwBMDBtvVj8rFkHmpSitGOE4sm3FOrtX1HRGBKtff9IZFjI0qgSIHPxF1dnXVNqlFLsDAATzPhZ1RsS811dJFDbvDewMcxmGQqEkvANQCIvuGTNm5Nx99935GAD4kG/m6/zV17x58zJhUBgcAQBAI/mdnZ08mZrCgh03LlAOAKCmQnrAngyIHgAYCFYE25ZR7WtupDdGtagFsG3FOrvXoM5w1hlWMjQrBWzAHmoSWOweAFjIcFBn+qHO9Jd5D4tsWGzDoht8LwYAQ5FPFuP8MQBI1AKAO++8kzczVLyquAAA/vOLG5MhCJAXAMBj5glm9cvVTZQUnuMZMMJlcf59Mc3uFQ2dAZmJZPXrBzqTx6Jfcy6APuyhPSaBgUwAgNG8j0GdSYnCvC9krTMUdqaQt53p6OjwaQHAvffemxwn6rV48eLEBQsWDNPtABSgm8oRgSLVHQAIAoQ0QE47AFFn9eM8nmhGuJhm97pEZBgzOmMEACAN0IA9tKfGEAQw2wEYnPdi5n3M2JnW1tYcfAQQBgCzZ8+GwPxE7s5/2bJliUuWLMmFGAAY9J577kmaPn16NtwM3BTcHOcH7B19e2OeGgMAaYBQCIhxDID+HEkkI1w+IGbObGIRvwcjdJ6McDHN7hUlnfGa6YwIVj+ROqORITOd0QMAKAQEaYAG7KEmIIBJDIBo9lDROhPxewx0RsS8F2lnfLztjCRJPhwECABgGPK9yTNnzgRfnL9w4cJhsDjn5vwfffTRxBUrVgyFLADYAZgzZ054MHQz2TgLoCgUCnFlalLTANUsACgEBKWAGWUBmLFtiWCE07Jt8WITM4tY58UIF9PsXlHSGa+dzohg9ROhMwYyZKIzkQBA+gwKAalZADr2UBMQ4DoLQDR7qGidMcty4MUiaDXvRdgZH28709zc7MNpgEXt7e15d9xxh9wvLMJhMY4AAGQBUzpOTQAAIABJREFU5MIinbnzX79+fcKaNWt8UGQABlm0aFGfQdBN5WAAUAQ3y0ugKgCoq5aWqnUAoBSw8VkdVR0AO7YtnoxwRmxbrNnE7HLWWTPCxTS7V5R0xkuqMyJY/XjqjIUMXeuMCgCADAhKAat1AIwC/oxBgKs6AKLZQ0XrjF2dA9YsgiTznqed8fG2M42NjT4oBAQAoLW1NQ8ttiP6mzt3biLsAOBCQENhsc7M+W/evDnh5z//eQ5UAoTOH3zwQdPOEQDIgZvEpQu5MDVpSwHXVXWGKwHWmAbsEFUCJGXb4sEIZ8W2xYpNjLRqHStGuJhm96K5b4Y646XVGRGsfjx0hkCGrnRGBQBABqRWAoQ0QDO7YQACnFYCFM0eKlpnSCsdsmIRpJn3POyMj7edAecPpHq4EuBw5GMN+7nvvvvk43lcCdD3s5/9LMG183/qqacStm7dmgVcAKtXr/atXLnSFlnAOQUGAEVw86wFqicDqvb3cgHYggADADBxYmAoJVMTS0Y4ErYtt2xitHXr3TLCxTS7l5P7ZaAzXqc6I4LVj6XOUMjQsc7cdGNjPNABq1wAUAjIjgxIBwIuVJVTcwGIZg8VrTO0XAduWQSdzHuWdsYnws5gMiDwp8PR4try+7A4h0U6LNY3btyYvWXLFucg4LnnnkvYtWtX5rZt24ANMGft2rXEncERAGYDLGLN1GREB4xAQLd11K4xAJg2Y3KGygZIydTEghGOhm3LKZuY0/t0yggX0+xeboyIC1l43eqMCFY/FjrjQIaOdGby5EC+ygYIpYBJ6YA1IOBCXVU72JntJAAgCuyhonXG6X06ZRF0M+9Z2BmfKDsDAAAtpIcjf0r0vYcffjgR+eocYAN84oknsp5++ml6EPDiiy/G79+/PwN9OQsBgCyEJqg7UbcuWDM1GQEAcOwIBPTYggANALj6qqaatvaGfAwAnDA1uWGEc4IGaRG221UnLSNcTLN7sdhGdKAzXlY6I4LVz43OuJAhtc4gAFAMAADIgCLrANgHEmMQcKG+ur2nvkbabQcAosAeKlpn3O5U0LIIspj3buyMT7CdGY58KZUMf/rTnyYgAJC9ffv27N27d2fs27eP3H+//vrr8S+99JIXAAD6cibqxPE2AgYBTJmazAAATE5bEIABALrum+uvbbwCAAAcATj9fQ4Z4dycO5OesbE6dyZlhItpdi8WhtyBznhZ64wIVj8nOsNAhlQ6AwAA6ID7FgIiyCRSQIAMAEbWBp9ZeP+EjO9f1ZxoBACiwB4qWmdYxSqQsgiynPdO7IxPsJ1xLMNNmzYlIN+dtWfPnswDBw4MOXr0qH0/7777rufEiRNp6GIvQg1D0JddBxKwZmqyAgC2IABdV1MR6qmrks4BAIAjALNKgKwMOgdWP7soW9aR53aMcDHN7sXSkFPojJeXzohg9aPRGYYyJNYZBPrl8ZwCAAgCrKnokAHAPbMmDp0wIVAwfhx3nSGe94J0hnW2gh2LII95T2NnfILtjGsZ7tixIwF2ABAAyHjllVfST506Zd7fb3/7W897772XcvLkSRkAHDp0iFkRA5ZMTXYAwAoEQKwARPwCAIAjALkflwDAyoByZPUzy7PllXtuxggX0+xePAw5gc54eeuMCFY/Ep3hIEMinTEvBUwOACALANmTfwUAgABFaUODEJ2xnfeCdIZXvQIzFkGe855EZ3yC7QwzGT777LMJsANw7Ngx79tvv5169uxZ2d999dVXit/7+uuv4z/99NP4jz/+OOn9999PBQCA0ALzMoasmJpIAIARCMD/lwEAHAHYcQEwMOi8Wf30lbayOFefi5gUMN4lwO7FrZKYkc7o6rRz1RkRrH5WOsNRhrY6wwoAQBZAT4+cSQQAQJTOmM57ETrDe96bVNjLj6LO+ATbGeYy/MUvfhEPOwAIAKR98MEHyZ988kn8X/7yl3gtAEj86KOPks+cOZPy1ltvcSMyYMHURAoA9CAAN/kIgIQMiIFgRdSf71Nrm3Mt8UF2LzHjxbTOCJChpc6wBADQz5jRjRkYAMQqq9+lqjMxM+9fe+21+NOnT6cCAPj973+faAgAzp49y5VQgAVTEw0AgKZj9yJmA3TxG/MEs/pliZokeLwUwYxwQtm99DIUwe5lQJUsVGd4y9CAEc4XTZ1hDQAgCwABAKE6YyDDFM7P1Ct43ifyYIIk1Rlg+BNpZ3Dj6n/feeedREsAADsAb775ZgKvB8yCqcntDkBtpTyBee0ARJ3di/N4Zuxe3v6sMwxWAjxXV97ApckIFzWdYQ0Axo8L5BrsAMSSzsT0vL8U7Myrr76aCDEARgDA8/nnn3sQAEgEAAAxAMeOHUvk/IAdMzU5iQGAv7UxALWV0rna8mA+SwBgwOqXIYoRDvfv5Xw2Z8fu5e2vOuNQhtzZvQwY2qKmMyJY/fDvi7rOsAQAm3eMSdHEAERDZ1JEznsBOqOPG8kQzCLoE2xnIuY9D505fPhwkhoE+Jvf/CbpD3/4gycMALSv9957LxkAwEsvvTTk4MGDXKOBjQwuKwCgd/6a98NZAD+4umkUKwBgwerHnRFOFw3MKzqXlN3L2x91xonzNzO4DCOsvf1NZ0Sw+vUHnWEFAJB9eVqTBRBNnRE973npjFnmiCgWQZ9gO2M471nqzHPPPZcEaYAAAN58880UuzMCDwIAqQAAoBDQM888wyK3czhLpiaaOgBa529UB6DzjslDb7iuKYGHQO0ML2tDbjdpWRsBEsPL2pDzmpw0rH6Mcqy9/VVnRLD6RVtnJk3COwEuAEBtZXu4DgAcAegLAUVBZ0TPe9Y6Y1c7gjeLoE+wnbGc9yx05sknn0xGPjwTA4A05NvtF7uvv/66BwGANAAAO3fuhFLAyU4Gh/KFUMOYNVMTaSXAPs7fpBIgMgYjGDHCWVV3Ys4IZ1MRjFWFLqfsXl5ehpz15HTC6ueyypq3v+uMCFa/aOoMVAJsb5+c5RQAIPsRrgQIRwBmpYCjoDOi5z0rnSGtHsmLRdAn2M4QzXuXlQCTd+zYkQ0A4ODBg17k08l3un/5y1969u3b5wUAsHXr1uzHHnuMKsIUiAuAvUjDBcCMqYmEC8DQ+VtzAbhlhCOp78yMEY6wJrjbGt1u2b28vAw5q8nphtXPoc54B4rOiGD1i5bOqFwAP7yhqYgWAGA7IwMAOAKQdxKsuQBE64zoee9WZ2j5I1izCPoE2xmqee+EC2DdunUpyGf7AADs2bNnCPLl9Mfczz33nAcBgCEAAIAOeM2aNUQgQJKk+Obm5uEaNkCmTE12bICmzt+eDdApIxzN91wzwlF+zylLFyt2Ly/P77mZnCxY/ZzKfqDojAhWv2joDBwBqGyA1RXkbICaRYZ8BEBKBxwFnRE976MtexGsfizsDLXsHbABpq5du3YoAIDt27dn7Nq1y3mM27/+6796Hn/88QwAAKtXrx66cuXKVKvrW1pa4hEAkJ0/NHTjzJma9AAATcrzcnqfnfM3AADQD5ABuWBqcoXoBbH6OUb0ghjhhLJ7MUL0XheIfkDpjAhWP9E6A0GAcAQAAKCuSvqipsIeAOh2GPvUAbACAFHSGdHzPtq7PyJY/dzYGUfzHgAA9qfDg8Gg5fcffPDB1BUrVuQCANi4cWMmWry7z3DbvHmz52c/+1kWAIDly5fnwiBG17W1tcW3trbmhUIh9Ya5MDVpAUBdVaeCxquUIwDbLbwS40JAFOczPtZneoJY/ajP9AQxwgll92J8pucVeaYXTZ0RweonUmfULAA4AgAAgMuDXyR0/oaFgOwAQJR0RvS8j3b8hwhWPyd2xrEMYRGtLqhhcY38q2E/CxcuTF2yZEkeBgDZGzZsYFfgbv369R4EALIBAMAgixYtigABd9xxR3x7e3teS0tLEQAAhFS4MTWpAKCuWlo6skZOxbkARwBEATwl5pUACSI0fbyiegWx+hFH9QpihBPK7sXS+ZMaap6R4KJ1RgSrnyid0aYBwhGAXBukSrpotIgwji1yBgCipDOi5320M0BEsPrR2BnXMoTFNAAA5FeLkI/Ng8W29vM5c+akLViwYDj4ZuSjcx599FGm1W3l1yOPPOJZtmxZDgwCg8Gg8P6Pf/zj+ClTpgxDAKAQAwCuTE0qALisPrgKAAAcAViVAiYFAFaC48jqZ8sIJzqvVxAjnFB2Lx7O385gi8gFF60zIlj9ROiMvg4AHAEAADCoG2ISWOwcAERJZ0TP+2jXgBDB6kdiZ5jJsLm52YsBQBEstmHRDe//0z/9U9qsWbPyMQDwLV26lL3zV1///M//7IFBYLDZs2fnz5w50zt9+vRhCAAUAABobW1NZz2m/kGPvr0xb/fzo70AAOAIwI4LgAYAmAiQK1OTFSOc6MpeghjhuFaDM9IZkax+Iip7RVNnRLD68dYZo0JAcARgUDnUJLDYHQCIks6InvfRrgIpgtXPys4wlyEsrgEAtLW1FcKie8aMGd677747HwMA3+LFi/k5f/UFg8BgAABg8GnTphUAAOjo6EjnNab2wY4bFygHAABHACRkQLQAwECwl0Rt70F2L/YyHKwH3z91xqwSoAF3iElgsXsAECWdET3vB7lDGL9gkY0BQAHyvSMwABg6b948/s5ffc2dOzdBCwCmTp2azXtMYGdSAcB/fnFjMikboBMAoB1PFFOTgSJ5OY/nFTxeokhGOL0MBbF7+S4xnfENRJ2xKgWsYw8lZgN0AgCipDNC530UmCATdQBnhGA7w50JEi22czAAKAAffM899yTEiXoN7gAM7gAM7gDExVVWtsdVFDTJf1eUtcZNnhTwNkxWqsxpWv7NNzXGI92LY90mTgx4J/cdr3Ds2EASj/GgX+hfPybcB4/x4LnB8+MyXoky59HfXgQGPsM2gWIHIBQJAEoAAIQQoJCo2iSsM9oGv/nWWxvjafsiaePHKzLUjVcI7/MYD34H/B79b4TfLXI89J4PgTYk95Dc4NoRVdPkuVuG5u5A2mnU7QAUCN0BgAADNQYAzh20MQBwU4MxAO6c/2AMAB+dYRUDgFZ6ivMvapaNCNIpDwSl3nZrYyawwTU2NhQFgw15nXdMTg9KDQXQpFDDMNa/b+qPJ6eG+5ca8ts7Jg/R/n/dz8cx1VHoD/pVx4DxtP+H+2H9G+G5qf3D89T+n9V4yHakokYdA+DX7wDk0xOKIT1JB33BbXiwuWGI9v8rl49natA7Oycnon4LcP8FePzw/+FzluPB/cPvUH9Tc3NDpmY8mCfpPMdramrI0f8friuuagIQEI/knojkh4AWmsPFQbmP0uLmuKrSFqd2Jp93rJE+BgD5XnExAJAFACkGkAWA0AYEAcpZAAiFyFkAcFODWQDunP9gFgAfnbF63/71QFxlaTBuaFVLXPmw6chpBD3IaERsuS17eEJWS0vDiAkTAgWXjwqmIgOT9oNrmobedltjFbRbbm4sG1UXTEerzTS3TdsvAh4V37uyOcPqfbcN+oH+1L5hHKv33TZ4TvC89P2ave+kIVsA/8JOyVAky89pswA0AGC7bEMqQokVtaH4ijqyNmZcIGPipECJ3CYGRlz9g+ZEq/fdtptuaUxBfRbhvovg/1bvu21w33D/6m+B32UwXvh91uONnxDINXofzfscoxleUdYCgCABdgnK6++NKxsxKc5f1kLr/OPd2RnrV1SzAPR1AKDogPbzwToA7Jw/6eesnD/p56ycP+nnLHXGKQgoRwahulw5L0bGwYNahOO/rF76DnL480fVSU/UVUnH0OfvIIfyW6Rfn6B/P6kql/6A3v8vaLWV0v9Bn38Cnzlt2v6gVZbRfU7b4Pva/qB/ms+pG3o+8JxM+7P7nLD55b5Cv0dA7Q/IdnRhJ99NUQdAsSOl0v9FIOBt9N6voKG/bVuVX3q3vlr6NTTU5/sVlJ/TNiSjd5CtfB/6g3/h/zSf0za4X7hv9TfA7zEbz+hzt+PVVEpnLD4/jfTnZTQ3t6C2AH1+c3lpi77QXEIFdv5VaO6X43gRGl/AGgRo6wBAsT19HQBYjHOrA4ArAWauWbNmsBLgYCVAJs6fBwhgWQmwqKhBPiuWQUCxvNWf0Kt/wULkQOaA4UJ611Vf3dZTX93RU1XW3lNZ1tZTWdqKdK23VftbeuqqlFZb2YKuifyctGn7gWbWD+l1dg2+p+0H+nVzHcl48HxIxiO5jqThlX+Pnf2wAgGyzAlbtb+tp666VW61Va2ur7NrVeWonyqlH/gX/u/mOpJWq/ZT3Sr/DtvxLK6jHa+motXyuvpqaOjvSjRfyzt7cPDnn1DbjeQ53l8akOd5We4kmPOybS8rCMZVlkrUPoAVCIBKgMCpo1YChHL7RtdpKwEiX53FpBIgcAFs2bIlA5MBEXEBIAAwyAXAwPmzAgGDXAB011fJQWItWNdaPJWlyoSrKJNy0Ypxpb8k9Keaig7ZmIDOoRVHFzIe59H7XWhFgVroIrruIvobosovQnQ5WqlexFvMF9H16H1Jfp+0ab+PVjAX0SqK6fX6BtfD99Q+oD+W1+sbPI8aiu/TXt+3hS7iM/+LYedfEuqm4ALoVkEAkjeWu6wHpg3dY5dGByyvdXK9viGZdIVlougA0+uNGtynRibk4xFcbzce7OSYXQcy0lzfhXeNLygyb+mB4xwACeia3yC5hqMC4ajPXy7hYwIprqGBmtXPNecIcAFgAEDNBYB8t3MQoGcDRJ0OsgG6BAGDbIDsQQBLNsAKtNovx2gfAoV6g8VCIWTg/wtWDVXlLequExiUbmUlGJIdiN8iFgUZuLADqZHTyyQi7nnt9yAtDRlOrt+D67SpcNAPz+/Bc6gR+r1QDxF1OMPvsZA9zfciZOFU9hTfcyoLVjpDLgupG+asZtenG4PCCwASlN2CduRTQq+j+fwtxSaE4tF9egKBhhwI9EX20I2voGYddcMGuG3btoynn36aHgT88pe/9Ozbt8+LvpwFAAB1lkLzfbhZuGkMAJhyuxsBAHDsRJNTAwCuvqqppq29IR8DACcrecccz6K53QXtHESF250Vuxegez/e9kcGQN4KrCm+IwkZgsfBKMCWMTJQ59VVY9j526wc3Rh0p07c6fedG2Sn33fuxJ1+36kTd/p9p07c6fedO3Gn33cnQ7c6Qy/DiO93492cbhxI3oXm/gV5vpdIf0PXTpXtREMgZ5LsJxqKkJ1w6yt8NLYeteHIl1KNt27duhRMB5y9e/fuIciXk4OA1157zfPSSy+l7d+/H9BD1hNPPJHs8OxCBQG2Bp3mAZkBAKLJiQEA+uyb669tvAIAABLsCBdn+T5adi+XZ+uksQPM2b1sxuPF7uXl5fy1/QCqB3QPKN+Pz/6QIchCOvM6rPrlqO/y3mAx7PypnQeNQXfr/Gn7cev86ftx6/zp+3Hr/Gn7cev8aftx6/zp+2EjQ6c641yGffpRQIDyeTfMd+W+OnrqqqSfTZ8xeRg4f/AVQanBU2EQGMgwRokJH8SmTZuSAQDs2bMn8+DBg17k0+1BwK9+9SvPiRMnUo8cOTIEAAD6MotIcEsQQGvIrQCA7eRE19VUhECo5wAAdN4xeegN1zUluPyNPlJ2L0bR9XbZA9zYvUzG483u5eXl/NWXcrbXUDRxYqB0xj9OGlJR0pKBJvl7cqoXWgkgg9TNwvmTGnRWzp+0P1bOn7w/Vs6fvD9Wzp+0P1bOn7Q/Vs6fvD+2MqTVGfcy7NuffISn+hKlMFRXfU17z6ja4JOz50zIuvWWxni1imQ5Rb0AiiwlpmRQO3bsSAYAcODAgYxjx46lnTp1yhoEvPfee8knT55MAwCAUAPXXHCnhtwOAFhNTkB6QP0JAOAHVzeNUrMAGKefGbJ7Mc6vN6sfwJ3dSzeeKHYvLy/n78dn/pMmBoY2NzcUwlYfMgxvgPNHIOBv2PB2Y+fv2pDbGXTWzt8OBLB2/vYGnbXzt3dIrJ2/Xb+snb9dv6ydvz0I4CNDUp1hJ0NjEIBsgnqkDPO+q64ajgBDD8n+ojQYX140Hfmf5riysnZmIIAXE+Szzz6bhAGA96233up7lP/NN994vvjiC8/HH3+ciABACgCAl19+mWlVKCOD7tSQkwAAo8mpClTm/q6UztWWB/NZAQAjEKBl9+JUYU8PAoSxe+GKhSmC2b28PIpsVBS1xlVXTYrzl7TE//KVm5NH1QW3qQWmeDl/M4POy/mbgQD5/1ycsblBr+E4npFj4uX8zewML+dvpjO8nL8VCKiJos6wl2Hf/jXOvwfv+F2EAEF/aWgS9j0JChhgwv/g4+X81dfhw4eTAACcPn069Te/+U3SH/7wB8+XX34ZHwYAn332WQICAEkAAE6dOsWFWIAVUxMpANBPTnULt7ZSFrotGRADwYqosX+pMsIxcf6VarofzvNHejGmprJNrQqn3fZnbsgNnTJH5285HhdnbGzQeY+nN+g8nb+FnemJJZ0RLUOz8fjJ0FhnFOcfgqyALrlmABR+KpHy8c6h7DfKypqZ+QqefDOvvfZaIgCADz74IPmTTz5JNAQAZ8+e5c1EFa9zIHnUKzYKAGDA7kXMBujiN+bpHHIKz2eq5Q6IBrsXjN/fdcbslV94fTjnv7K4DUrE/haQfk1Fb8BfLUdDbuZAeBlys/F4OsewQRc4HshLO++RPDmPF5LHiGQRjC2dES1D/Xj8ZSgZMEHCkYASHIhW/+eV8s+hJ7D/ifeXhZD/aGHiK0SwCL7zzjuJKgD4y1/+0hcAnDlzJuWtt96K52jMfW5Xj253ACAIkBcAuAT4vfusyHmOx0pnjF5Q8Ke25C4ghFFW/yWhWUqev5zj36PZAeBq7IxWczxXj4arq0qeDsR4dcVvB8B4Rc5zPCMZ8tQZIxnWcAUdBjK8BHQmHBioZAjIsQG45sf3sM2IZ+wruLEIvv766/HaHYAwAPj6668BAMSrAABiAF555ZV4zobc5/T82EkMACiTNgYA0gBZAwCDM/lcziyC+jN53iyCela/LJ4xByx1xuhVWhoEHcJxAJIXTeb/qPa39mjz/HmfH+vP5PU6y9qg6x1HhNHjYtD7nq/WVvI16HqZ1XAeT38mz1tn9GfyvHXGUoYCdEbeWRGoMzC2YXZABAlUaLe6CwCFwyqLQ26cP3cWwV/84hfxx48fT3/77bdVABAfBgDq67e//a1HDQI8evSo99ChQ/G8DLmbCHLaLADtpNBmAUAhIIZZAGZR+bxYBM2i8nllHZix+iXxAgEsdcZcl0Lq6r8J6pHjMqERqX68DLpZwB+vIDKzCGt+gYfGzpdX1oFFzX5uIMBMVrx0xizgj1/gIYEMOeqM+uxE6UzvszO6D6gaGFJ3AP4b/V0uxwKUhDwunT9XFsFnn3024eDBg0MgCBAAwNmzZ+X7/eqrr/re97vvvutRAcC+ffuG7NmzJ4GHISdJ93IKACwRsa4OAJQCdgsACPLyWbMI2uXls647YMfqxxwEsNYZQz0qDcX5i5XJi3Rmn0wSUiVdiCjvyymNzM7psjbodgaUPQiwdro8DLq1jNiDADsZsdYZO6fLHgRQyJCDzuifGW+d6fvM+hYL8iuVP9VdgHtxMGBCdWGrK+dPYvecvHbs2JGAfHgGpAG+8sor6adOnbL3PXBWAAAACgHt3r07c/v27Y5BQGNjo+0PojXopJUADSeBQSVAIAPi5fxZgwCKynysKg+SsvoxAwEkk8AtCKiokIDoQ3b+f39VcwEChH+CnSEj58/aoJM6W1YGndRwsgMBZM6WpUEnkw07EEAqG1Y6Q+ps2YEABzJkqDNmz4qXzpg/K4PjgFKlVDDyO4dwLJHHXyK5dv6sQcCmTZsSkO/OwoWAhiCfTu5zXnzxxXgAALt27cratm1b1saNG6lBQFNTk0/DBeBj4WisAACRQM25AHy8nD8rEOCgNr9b7gFaVj/XIIBG+d2AAH9Bc5ju87tXBBsjnL9FbX+3Bl1joCG7oBsZtG618IgaZKQGGsG/mgqERAZdqWQWUlOX5P5rFfITucH42mtIQYB8j+Fo6PD3lfvtrZzWjclWiA00C4NOJxP3IIDWybrVGVon6x4E0D0j9yCALs+ftc7YP6M+3AEXlZTA0Bf+kpZskmMA2jx/tyBg3bp1CY899lg25gLI2LdvH/0i/vnnn09AACATAQBgA8xZu3YtcSfNzc0+DRugj6XDsWMDtBSoNRugj5fzdwsCXLDzOb1Pp6x+jkGAE6V3AwJuubkxa9O2sUO+NTK4uK4KKn0BPajUzdbh9DHM3Wpqoez8lZrjFyN1NHQB6XSXWpscg4BuK932l/TuXOC/L2C6VTjuUg0lUKJe6HXYxuyFOhAgg4hwjXR0X8Ccprvfrgr5vbDzD4MNvoxwTmXhHAQ4da5Odcapc3UOAhiw+rlgESR9Nqx0hvzZhO+zW6WPBtpv1L6jHAOYZwM4LfKj2kPMBkjsm1atWpWIAEAOAgA5TzzxRNbOnTudH+M/9dRTCbADAHTAq1ev9q1cudK2ToAkSbLzh0Zz46QGXQ8AoGKbnYE0AwDQDxwBOGVqcriypmURdMvqR7tT4ZbVj/p+3SBeJ/fb0BDwjh8fKHtk7bjMkTXBTZD+h/TmPGdGOK3z75LfxzzkGAicV67F7wEIKJEu2oEAZWUe5qeXgQP0UVcdLmgEFQ27YdtSYTUEw6X06y8NGR55GNzvRSiGAvcll0hWrjvvl3nd2+R7xgayCxtk06MUVgbd3cqa3tG5XVnT3q/blTX9/TJk9XPAIkgrQ7c6Qy/DCBBwsaaiFeZtQI0DYOn8dXZRXkjDjrrd9Q8++GAi8tFDMR1w9pYtW9wX9du8eXMCAgDZCAAMXb58+VAYxOza1tbWnFAoVIQBgKPzCzuDrgUAdVWdKjc7WbW2EuNCQE6YmlyerZOyCLJi9SONVWDF6kd83yzOvChZBL3A/IeAX8ncBRMykc48qQT1yE64m7VB1zjbMyeVAAAgAElEQVRT1TB24TPEv6HPt6J/G9DYVyK9HIn+/QF6bxZytu9iZ92j7hAYgQBNjrK8g1FZ2or6b+mprwm+ePmo4Ky/u7J5zGX10nfRdX+PPu9E7TDQGkMD/vMwCNDtBOiOHxCIgPHle34XtXvRqh/uc6R832VSU311cA/Mw/rqVrzToAUn7A06m7N1cofH6myd9L5Zna2T3zcHVj8KFkGnMnSqM85lqFQHBKALQcP1NdJP8BFAImvnr4ujk30qLK7Nrlu0aFHikiVLchEAyEUAIGfDhg3sKvquX78+AXYAEADIhUFgMP017e3tOS0tLUUAAOAIgFfkuQoA6qqlpVCzXRO5bS/AEvNKgDRMTYyi6+1YBFmz+tllK7Bm9bO9f5ZRr4Qsgl7lfgLFQO2JswGerVRWtRf8JeSrVgpGOO1KGgcQhV5DY9WZ/ZYJcXeCnk9XQEIL9NWlAQFaI9br/OUVvvTRd77dPOkfZ07MfXjNuMyenu/2OZtEfd6IHPfv8C7DBUNHjZ8DGu+izJ2B5thlI4OLArdP7CPDLdvHpi+6f3z2VX/X/KMqv3RKAS7qMYHUTfNMSQw62+h6e8fHOrre7v5ZR9fb3z9HVj8CFkG3MqTVGfcylBebF+qR7/lWfXAZTiNO5OH8tSAAAEAwGCxCPjZH//ncuXMTFy5cOAz55rwVK1YMXbNmDfuKvo888kgi7ADAIAsWLBg2Z86c8CBTp07NbmtrK8QAgEkOo5lBVwHAZfXBVQAAkDDOE283lliXAiZhamKcX2/GIsiL1c+sXgEvVj/T38Ej79WGRVDz2wP5P/qh8qyRXhzAq+0LnBjhdM5fOqBxxglyK5XiKyCaGP2LWmLcLRL+PHQtav8tBx2VROwEaDkK5G141P+vf3h908iHlo/PmjAhUHrLzY2ZUKkMApTkfpGR8uPKZf6y4HD03r8rIADvBPQWOwnToeLxLnzn28HmXS+Mhp2Twmv/V1Ma9HvN1c0JEycERsBRCrSeHhWgh/bpQQArg84nv97cAfLKrzf7Hbzy681/hwBWPwsWQVYyJNUZFjJU5od0vr66owd80G40L0bf3pjHy/lr4+owACiCxbb6/j333JM0e/Zs8MnDYXG+bNkyfuX8ly5dCtsMw2AwGBQGnzZtWvaUKVMKAADAEQDL8YwMOjzs3c+P9sLDByHIZ7clbACAkWPi5fzNQADU2ufM6hfxewSw+vUBATwrX5mwCEZMyjGjG+NLC5riMADY7wYA2DHC9W77yyvu31YUBdOx85cn6pCSn8X5i5vjKotb4qrKFMdfWRKCz5NwgFErfBccvV8JxOvW9H8RyK1Q/199/6qm78+eM9E3dmygHGIc5BSlYimuvDSA+m+Pw2eVAKCTlN8tjayQwYUcyHdRu8KpkDMTQvJRBfr7Trh+7JiAf/JkeH4NBaj/FABRsJOinFE2pKu/B/2bikDFv2P2tC5WBp1vhb2+jpA3q5/+9/Bm9TP6PcJY/QxYBFnL0E5nmMmwRM5+OV9d3tkzqja4AnzRuHGBchGsfnAEgAFAIfK52XfddVfSzJkzwRfnw6J88eLFXLl85BcMAoPNmjUr/+67785HAGAEAICOjo4cHuPpDTo8bHjo8PBBCHZkQLQAwMApi6ixH3UWQc6sfmYsgj4ROqOflFAEqKSgkRkAMKslHo72L1HoRNF1DdotQ+Qo48qLIslEKovx6r8UiEakePz3K/Lugcah4p0A+SwSgeFHf755zBBw/oozDvWhKi0vaYmrLFX7xiCgRFohB/VB5oF2pV6iOv/QSbiurDTkmTQRdKahCDt9jZ4GvOpY/t74nHH4916kPVbph4xw3GrsW+hMTDNB8pKh2XgsZaikxEJg7R3Q533ne25IwgBACP8LLLIxAChAvrcAfDAsxufPn8/f+asvGAxQhwoApk6d6uM5npYRDh72f35xYzI8fBI2QCcAAI+ZpxNqEuffmCuYRTBDMKtfku555grQmRGa3zdCnZSVZS3MAUAfRjjM0OaXg/gg8C70n5XlranymGUh2fnXFDUZ3ru/rDVOG1yEdLwNb6t3+TV5/tV++Xz+/13z/eZ/6Lxj8vDx4wKZZSWdoNOG/ZaXSXHFI24P10BA91YX/t29cQCQ838BR/tP0x67IWdvqDPl5c3oHoNxVajBa2TBpATU3weVZa3K7gJFMGB/ZIQTxiIogNVPDwJ4EuxEQ4b68ZjLUAsASqRF8u7Y2D4LN66sfmix7cMAYAT44HvvvTcpTuQLAYBMLQBAN5Pf2dkphBFO3QFAivQALwAgmqnJZIXMk0Uw6qx+Asbzmu1w8AAAFoxwqjPdgZ16PKyYy7GzNHv50Yod6bYHA4AK1P5He1YPxwp1Va099dXSu7Ayx6tz2Ja31JnK0pbw7kBNRQvcy6/xEcPFCCBQEkLzKjQS71h4oF8rnakqb43DOw/xGDT8i5xeqa8bMMBY/XiOZ7Ri5Uuz23eXI7ZYBAXojAEAMNgB4OYr2traktrb20doAQDyxVnCnP/ixYszcQxA/syZM3PQTeTDzcBNwc1xdhz5Y8cEitQYgJoK9kcANqx+Pp7OXxCLoN6Q+3g7ZZ0McwWwCOrP4iJiAlgDAP2Zv3ZVB3UqsLFYgVfdiTUlzba/obykMU4tMYpW117095+UYEA4TpDHkbf/R9ZIh2bPmeSdNClQgrfnbXUGjhc0Rw2HI44XeufI/4fmhnys96MfNiYAuLDTmbxyKbxbgPpbIgN0ub4B/TFAxPmtAEY4/Rk5bxZB/Rm5Tme4O2PRLIIRMuQEAvS/iYvOaAAALEI1MQB6O8PcV4RCoaSWlhY53u6OO+7InzFjRg4GAPmwKOfu/JcuXZqBswCGq6jjxz/+cRLcDM4CKICb5OX8wbBdeXkwGc5d1CwAJFhmAICQ1c/H0fnzZhE0Y/XjFuhowurHk0WwTyCO/ndPnhzwsgIAZuVzNcboQl2VvAPwiBr5j3TQ9nf4ZWcaUoMCIaL/S9BdXN63Rz3/R+PIWQUTJij1DexAQEWh0m9B9Vg1av8IPu/v6t0BgDkS+rqyOCQf00DKpObs31RnKvJljgUcBxB6SAE+IfL5aRElz5MRzjjgjx8IMAv44xfoaPxbRLEIGsqQMQgwAjRcdAYDAFh8ylkACADAotTIzrD0Fc3NzUmSJIF/LUK+dgTyubLNRIvwLBwEOBwW59yc/+rVq4fgOgAAACIGgpuBm4IIRbjJYDCYxMP5a88jIQhQrQOgVB5zBwAoWf18vJy/3e9n7fztwA9r50/6+1k5f6PfD84MHKZbAGBHoIONkuyo0ecHlZVxs6dC3oa34hB/IK66qCV8Vo8AwLcgUK+yLNSDa/vLGQDVfogtkM7W+5Vtd+SovRpHbagzkAngx8CirLglGfX7sRyjgDMBNFwEFyvLg383e86krIkTA6UYXFjoTKAQjZ+klkVFc2ynEmBIdwRg5QR5GHRrJ8geBNg5QfYgwPo38GYRtJQhIxBgtZvBXGeULJzz4HsAAMBiFBalVjusbu1aU1NTEmrgVyHNvkC/0w6LcZwGmLds2bIM5s5/w4YNXlwJEABAptnZBN4BgKpFBXDTrJ2/FgBAECCkAaqVAIkEa14J0Amrn4+X82cNAihY/ZiBAEJWP5YsgrYpOOpzAGcGKW0rH52Y5BQAkLLnAXkIFNMBxsFrvt/kx7sAnsqSprjyUuM4APWMXs0WQP3cW13eIW/7q9UAVdArBwUigKDGF0AWgBkI8GPQET6nL4UKgZHlhHGe8wUo7zuqLvjP634+NkPZ4mxIrzQALWplRfxMC9f/fHx8RVkwA/Xzf5SKg3JsQbdb58/DoJM5P3YggNT5sQMBZPfOi0WQSIYuQQDJUQZjnYH5dwEAACxCtT6JBwhobGxMwv60CO8AGNpIWJTjQkC5sFhn5vy3bNmSDlwAa9asAQBgiS4QAJC3KXAp4AK4eZbOPwIAlEiLIA0QCgFpjCI1AJgwPjDEBaufj5fzZwUCHLD6uQYBlKx+LFgEifNvleyAQD4AgI6OhnxkQA7TAgAq6lyFqbKrvrodKoethII56H35N5YVhOIq/b0R+1UjECgoUZ2/sjNVXSqloP4/rqtqUWv792hY/S5UKml829X4goriUJwRCFBX/f5iCcZPwGPsge/LFQEjIvWhvkBLT1219MmttzRWT5sxKbVCLSJU2iLfZzhWobRZ5laAIESoFfDcodvT0P3NqlL67SI9/6dxeiwMOp3Tcw8CaJ2eexBAd8+sWQSpZOgQBNDEMTDUmW6l7LVcg+Y+IwDACgTgzKmwP7XbWYfFOQAA4ALYuHGj+5TunTt3pm3duhXYAH2oUyJUgQBAGLHAzbtghDM05HoyICgEVNO7LWotWB0AWLJ0QrLKBuiC1c/Hy/m7BQEuWP0cgwCHrH5uWASpi29AISAk93wAACNrpJeq/eQAgMr5axxqTYW8C3Du7/+u+Uc9Pd8Dh5zsl9MB2xXnXx6MKy6QECAIKZkCeFu/siy0rl4h9unSrvw1GQHdODhwLN5dSALwAE4ZPctivDrPnzQJQIDkUQsBob8DlUp64kWFkjii1Kk2xuDniuNvgvoJCRVFUlxNUTCurFrZvagol2TQ8qMfNmUvfmBC9j/8ffO16LtfASeBSjrEg9jHjUF35uycgwCnzs45CHB2r6xYBB3JkBIEOAliZKQzMD/kQkBqFoARAHALAlSbCGyAGAQQ2UQEADIwGRCwAaY7dv4vvPBCGgIAWQAAaNGEemYBVcIcMsKZBzEZ0AET85BrAMB3v91c1tbekD9Zjp52zern4+nknIAABqx+1CDAJaufExZBR5W3IAsASgFPmdrgAwAAjk5LYsPU+feW2O0CBjG0qv4DcpLXa/QZygEnKsGBoUQ/Lv4jg4IyaSGk+mkodsPEPf7efy8qfAHSN2iV/qPefkMJt9zUmCWX6h0nl+stCB8FlIRuQd/9f3guXOwt2RsmO1HHUwsY3Rf+blkoXt5pUEoYQ3nhMOnI5aOa69Dv+w8gBYLjCuX5WO8AuFnpOjHo7la69I7V7UqX/vm4261wyyLoSoaEz8dNBgMDnZFLAWvTAM0AgFMQoLeFtDvp69at8wIA2LFjR/aePXvSqJ3/kSNHUvbv358BAGDbtm2OUATcNN4BoGWEszTkhgCgJGy8rAWLAQD67Jvrr228AgOAIkasfj6e29w0z4khqx8xCGDE6kfDIui47KY2DRA5rCPqCpuUEY7WkPs1jH0yCEAr5MtHBRfedFPTCMMMgBKpAvX/jM759/Rh7QuDAIjgb+nBpYIfRNdFPP9/2TZmyPxFE3Ouu7YJCv8sU74vO38ND0DE/FFjauTSw7gI0V70/3qj+y0qbAUA04Ha/6329+5WQMAiZC3wZPWjMehszrrJHSyrs27y58QmXsEpiyATGdo8Jxbpiy51pk8dACsAQAsCWPmKTZs2pW/fvh0AQOaBAwdSib948uTJ5KNHj3oBAOzevTstzsXLASOcrSE3BwAEE0CO4FS2YgEAtHdMzht9W2Myr0h3HtHuBCyCrFn9bEEAY1Y/Ep1xVXNbVwfgQF1VxBY7U+evAoDekriwExDqAdABq2XU5yb03gyg60WOfB669nnU/39jUHKx1/kbBNIpcQDdEbTBctEh6VM03lb0+T3ovQ50z3NH1kq7kd5/UVfV3hNZ/192/n130CIrA3ZhxsS/oT4Poc/mK/crTfeXSmsVYqH2HnwU0WXAgsiV1Y/EoLONdrd3tKyj3e2fF9uMBVoWQaYyJNAZtzJ0rDMl9ACAFASw9hVPPvlkOgCAgwcPZhw7dsy+suyZM2eSTp06lfbSSy8NoUINDg26k7NtawBgy+7VjSOyz113TdPlahYAr3Q3jqx+ZiyCvFj9TEEAJ1Y/K51xTbihLwQEXPc1lXjVasEI58aQ4+h6FQRchMDAuuqWHjmVtRKofNt7oHIeRN/XKhS8Xarzx5H+3aa1yUtD3Zq/Lyi7XJ1yU/utqejowdS+Xco2Zm/0v+F8KVF2AHpBgJLOp/Yn/1vWofwtxxJAmeLe4wQtdbH+ufHId7cy6Hzy3c3tDK98d/PnxqdmASmLIBcZWugMKxk60hmHAMAOBPDyFXv37k0DAHD8+HHv22+/3bfPb775RnaAH330USICACknTpxIO3r0KNM69ASMcMSG3B4AWLJ7dWMjeO6ymuZCVgDAyBHyLHZjAgISObP69QEBnFn9jHSGCduWcSVA6YIVIxwLQ6446DAIgOyAiziNtQsAAer/vCbVT3aipGQ6mpiAbjn4DjlscNpQ4U/+F+r7lys7CpqzTBLH0e3X7AbIef1ozsmVA0sAbMDf0kUtR4F6L0bPjyern5FB58vq1/f58Wb16/v8+FYttGMR5CpDA51hLUNqnXEBAMxAAG9fcfjw4VQAAKdPn0774IMP5Hv961//Gq8CgPhPP/004eOPP0567733UuAIII7Dy4IRjsqQkwEAU3avblhdIaHbkgExcMpRYRHkzOpnxiLo460zOt1xVRjJvBSwMSMcD0OuOkls3Lo1rScc8Oe0X3U+qFkCmv9HrMxp6qWXhDQBiCFMGSx1ax0/DQPdQGaEs7Qzlfxr3kfUu6/kz1sQ6zKkGs8lADABAdx9xWuvvZaCAUDKJ598kvjll1/2AoDPPvssEQDAr3/9a66UggaMcNSGnBwAGLJ7dUN6EgkboIvfmCuYRVBPspPBeTyvYFa/JJbO3xoAGDPC8WZo0zPC8WZoE80Ipx9PCCOcUFa/viCAt87oSW9Ey5AvaZEBiyBnGRLrDAMAYAECuPqKd955JwkBgGQ9APCoOwBnzpxJfuuttzwCnRU14qEBAAbIVQ4C5AUATHY5eLIIGilRPk86ymiz+rEYzwoADDLCCWBo4+wg+4MM+TrkvjIc1BlBOsMOAAj1FW+88Ybn9OnTKYYA4PPPP49XjwBOnDiR8sorr3g4O458p2cepACgD0NbZW8MAKQBsgYANqx+PgHOP483CNDJME8Ai6CXhc6QAgATnRHDCFcVi4xwBqx+nA26/vy2VjSrH/cteQOWPYE6ox1PiM5U8j9WodIZNkcAel/BlUXwxRdf9Bw/fjwVAYBUDAASwgDg3LlzsgP88MMP4zEAgCDAtMOHD/M6G1cZ2hwFPpAAAOPgLSXwSc0CgEJADLMASFj9fBydv9dpVoWbTAfOLIJeVjpDAgCgEJCJzvBnhNP0HTuMcMa/hXVgpV3AGk8WQeOAP54gwLhvUTpjJEOeOmMow2jrjPsgQKPgZm4sgs8995zn0KFD6ceOHYMgwNSzZ8/Khbu++uqrvn7v3XffTQAAcOTIEUgD9O7du9fDw/m7SX2wAwDWBgbyknvrAEApYLcAgJLVz8fL+ZM8b5bO3yo7gIfzd6MzdgAASgFritfodYYvI5xBnwOfEc76N/AAAVa/gQcIsHZKPECAdZ+8dcZKhjx0xlKG0dQZd2mAVunNzEHAU0895dmzZw/4cqgD4H3zzTcTbL/0+uuvJwIAgEJAu3btGrJjxw7HDrKxsdFHwNBGZdCtAICtYcGVANFn59RKgEAGxMv5swYBFKx+zEAAIasfSxZBL2udsQIAQAYUrrVvalg4McJZ9DVwGeHI7p0lCCC5d5YggMwZsQQBZH3x0hkSGbLUGSIZRktnnBcCIilwxgwEbN682bN9+/YMXAkw4+WXXyY/pkAAIBEAwNNPPw1cABmbNm3yOHT+RYQMbcQG3QwAEBkUlQugVPrmB1c3jVK5AJykzblk9fPxcv4sQQAlqx8LFkEaVj/HIEAFAEAHrHIB9NauF8QIR9DHwGOEo7tnFiCA5p5ZgAA6J8QCBND1wVpnaGTIQmeoZBgdnXFSCpimxLlrELB+/XrPY489lqmWAka+nH5B9sILLyRhAABkQJk//elPiUFAc3OzD7MBQhtO4nxIH5IRALCqOmZGBlRbHszvvGPyUJUNkAYEMGL18/Fy/ixAgENWPzcsgtRFfpzKAQDAhAkBr8oGCAAA6cwF1saYhfMZOIxwzu7VDQhwcq9uQIAz5+MGBDj7LiudcSJDNzrjSIbidQYWmzRkQE5IzsL2HtgAYTFNakdXrVrlWbt2bRYCAD4AALt373Z+JPvUU08la+iAs6Bzu+9IkuTD/MVw48MpnY7tw9IDABBGuIAKATe7lg4Y+pk0KTCCxrEyZvXz8XL+bkCAS1Y/JyyCXhdAhVoekycHvKgVAwCoRwAASgGT0gG7ZoRzsBLs/4xw7laeTkCAG6fjRB7uVp5O5OFOhm51xo0MneiMKxmK1RnwNRdqKojogN3QnMfjzCd5IY38qa0dfuihhzwrV67MxnTAPuS73Rf127x5czIAgDVr1gxdvnx59oMPPmgKAlpaWnKCwWARBgDDEQBwsu1s+dC0AACEgEupdhMpgQEAuOG6pgRSB8uJ1c/Hy/k7AQGMWP1oWAS9DI4qqFgEGxoCxQAAOu9oyKssCx2MLATEkRHOxVlw/2WEY3P2TAMCWGw708iFzdkzjVzYyNCpzrCQIY3OMJGhOJ2RAQBweNRUSA+YAQAWvgJsIV5Eyz4VFtdm1953332eBx54wLdixYpcAAAbNmxgV85//fr1KatXrwYAkLtkyRLfokWL+oCA9vb2HAQAigAANDc3D0c37CbwzPThqQ8bHr5MpAIAQKEdJeRm71sJkMTRcmb18/Fy/jQggDGrHwmLoJdhsCIxiyAGAIXaNEA6AOCAEY5BNHj/Y4RjG31OAgJYBp6RyIdt9DmJfNjKkFZnWMqQRGeYylCMzsBiUwYAl9UHVxkBAJa+AhbRAAIAAIBvhUW2/pq5c+d6Fi5c6EO+OQ8AwKOPPsqUy0c9W0jBACBvwYIFvjlz5oRBwNSpU7MRACgEAIBQynB0oyxSzwwfovqw4eErTGrSBSvOcRIAYOdwBbH6+Xg5f8KUTB6sflYsgl4O6YpELIIIABSOGY31yTEAoGCEY5gP3n8Y4fjkn1uBAB6pZ1Zy4pN/biUnPjIk1RkeMrTSGS4y5K0zJfJi83x9tQIAdj8/2nvzTY1ZPH0FLKZhUY0BQBEsttXP7rnnnvif/OQnQxEAGA6+edmyZalxvF5Lly5NxQBgOAwKg0+fPj17ypQpBW1tbYWtra15oVCIZfGZPg8THjY8dHj4IAQQRkWJewBg5ngFs/r5eDl/KxDAmdXPiEXQy7FgkSWLILw3cUIgyZwLgDEjHIeKcP2BEY4nq58RCOBZfMZIXnxZ/YzkxVeGdjrDU4ZGOsNVhjx1BqcBVvs7ey6rCz4MvmjcuEA5b1+BAEA8LK4BAICvRT43+6677oq/++67c2fPnp0PAOD+++/n5/zVFwwCAGDWrFn5M2fOHD5t2rQCAAAdHR156MZ4lJ+NeKjwsGUAgB4+CMGaDIgOABiBAJ7O38gp6+pDewWPx4vVz2syHq+SxYYsgqoMrcmAiAy4woBXqhgDTCV8AcejwJFU+G9khICW9zzrhoyp0PGgX6Px4D5EjgfPGZ436/EgC6TWSIbKDiPz8fqTzsSkDK3HUyitFcrsbi07JykAwAHoi4+dvDUVAwDuvgIW17DIxgCgAC2+8xEAyAcAgHxyWpyo1/z589MAAMDgAADuvPPOYZ2dnTwJaMIGHR42PHR4+PZsgPQAwAIECGX14+X8LcbzcR7PK5i0KMnI+atpgO53ABRdqirvDLe66o6e+pr2cKup6Ij4nHWrrRQ7HvSvHQ/GFzkePF+e48GCol4rQ/Q3vMdzzGjrTKzL0HK8so4eKudvUglw3NhAqShfAYtsWGwDAEC+dwQGAOKcP7zmzZuXKRgAhJ2HIABgxNTk5fj7jFj9fIIBAG+H7O0vLIJuAQBa+V/EBaX+iHRpIzS0+tg0sja4Y1Rt8Em1oZXVZvVz5q1Ueqy+JrhdOx5a7WzlNh5q0L92PBgf7oPXePD8tOPB84XnzGu8/iDDQZ3hrzN+5d8N6N8nlN0YZzsARgCAt6/QAYACDACyhDn/xYsXZ2qOAIYJOAKI2D6Gh835CMCKqckrwPnnCdiS1x4BjBCwJe81Gk8EiyCMod+aY3AE0AXfQUDg1fDR2IPjs+67f3w2tIdXjx2i/s1rHq5ZP9arjrFlx+g09e+P/vBDLqAK+jUaD+6D1280ep4PLh2XyWs86FsdQ/1blAxF64x2PBE6ox1PhM7AGFp5Gl1bNaIpDfmCr7FPcHUEoLUzvHyF/ghgxowZeeoRwPz587nNC20QYIZBEGA6xyDAPgFk11zdlAYPnVMQIAlTk5fh7yNh9WMdlGfE6seTRdCI1U8Ii6BGhhFydRsE6C8NIQDQBv+e+OGPmlImTAgUjx8fKEP/lt5+W2PGVd8LJqH/F8D/1feQ3iWwaGZ9I2Ccq74Hf7Maz6xvGFd9D+4H7ovVeEZ9a9+D533D9U0prMaDvqBPbd+697jLUKTOqDIUpTNGMhShM0ZyVa4PyZlklcXSCPAFTgBARBCgsgOQZLBzzMxXGAQBpmuDAMEnw+Kcm/N/5JFHhmjTACH3UP0MbgZuCm4OAQBWaYCGTiKcBogePuM0QBqmJi8v52/lqHk4f5PPWKXlWbH6cWURNJChRr5u0wAlGQAgvTvZEIA+G4qgsBDq11tREoyDhgxOPPp/PtQcwC38mdNm1yf6v0/zmc/teHZ9wviaz/Lh/hiMZ9qn7rNC9MyT3I4HfUBfRn3qPuMuQ0E64xOsM1Yy5K4zhvLFNh98gBMAoE0DhMUoLEotjo9d+wqDNMB09TM1DRAAAPhm5KMzmDv/DRs2eNVCQFBtyKQQUDoGACwKAZkachUAwPYLCIFRISAnTE1eXs6fBwggZPVjySJIwurHhUXQQoZJyladu0JAfgQAqsrbeuqqpdPg/KFNmmRYPOpS0BnvANYZknnPzKATFhzjqTM+wTpjK0NBOhMh59G3NSY7BQARhYDQIg0+KHwAACAASURBVFTrk3jojEEhoHT9NdpCQCtXroRKgEPiWL22bt2aDqWAAQCsWLEiG+oNm10LNwcAwGUpYMsJri0FDNswON3DcSlgUAYXTE1eXoac5eSkZPVjwSJIw+rHlEWQQIZJeCXguBQw0rOuuqrWnvoaBQA0NjakI1BwKeuMdwDqDE35aNcGnUaGnHTGJ1hniGUoSGfCMpw8KVDkBABoSwHXy9kF0mIjAMBSZ3SlgE37UEsBYwAwdOPGje6PH3bt2pW2bdu2bMwFkPXwww+TkAF5XZAB2U5sPRkQbMdgoTgiAwJlcMrU5IBFkAWrn4+XIWcBAhyy+jFhEST9LsQAwA6AEzIgbAS66qsxAGhqkBG5GQC4hHTGO4B0xglDm2OD7kSGjHXGJ1hnqGUoSGdkGQIDbHvH5LzLapoLSQFABBlQJdROoCMDciFDlQzI9rt6MqDt27enO3b+L7zwQtrOnTtlOuANGzZkrlu3joYO2OuADphoQhvRAeNtGSo6YBA+KAEog1OmJlETmpEjHzAT2gmLIC0dMMQAwA4ADR2wxgjIAKDKL51S+7QCAJeQzngHgM64YWijNuiiwZ9bPvmBtmBwwh4Ki7629ob8665puhzNaVsAoKsyKMcAOKEDdihDWEgT68wjjzziQb5apgPesWNH9p49e+hrBBw5ciRl3759GRgAZGzatMlD2wcgFgwAmG7pGQEAHJhhX7oTAwAQOggflADvADhiahK5pedyK3/AbenRsAjSGnJtGmA9BgCwqrfaPdKVi+2q9rdBMOAbpADgEtIZbz/WGRYMbcQGXfTxj1vnP9CODJ2OB8e+sPi7/trGK9BcPofsgSkAMPArfeoAWAGAaOjM+vXrPQgAZGIAkHngwAHyEsFvvPFG8ksvvTQEA4Ah27dv98Q5fAFyYR3UYwYAiMg7ZKDQAp+fA+GDEqgBIQ4nitCgHtLJGStBPSQsgk4MuRYAQAyADACQUzcDjga14uUsAFoAcAnpjLcf6gyzOu0kBl10ACgr5+9CZ4QGgLoZT80CgEVgHfIFtVVKcB8RyVAJPQCIhs5s3rzZgwBABgYAGUePHrVnCDxz5kzSqVOn0gAA7N+/34u+7Ilz+WKdCmYFAOxAgHxUgIQNQgfha5WBx+QUxOrn42XISSY6J1Y/IhZBp4ZcXwgIYgBgB8BEZ/oQxfhLnQOAS0hnvP1IZ5iTtFgZdNFpw6ydvwOdEZo27HY81ebDMTAsBuuQT9Bnkpn6EYcAIBo6gxbwnmeeeWYIAIBjx45533rrrb56/80338gP48MPP0xAACAFAMDLL7+cdvjwYU8coxfLYjB2AMBMeGoEpyxsJHQQPgsAYCY8wax+Pl6G3GrCc2b1s2QRdGPIjSoBYiIRI53pw9DmFgBcQjrj7Qc6w42hzcigiy4cxsv5U+iM0MJhLMbT1gGA4+BaxSd0G857/a6gCwAQDZ15/vnnPYcOHUoHAHD69OnUDz74QL7XL7/8UvF7X3/9teePf/xjwscff5yEAUDK8ePHPXGMX6zKwZIAACMQEI7gVLZ7LLkAWExOXYldEax+I2K8hHAhq/xvs1LAJjrTh56VBQC4hHTGG02d4c3QZkA6xVWGNjoT06XDWY2nLwQkHwtrMsnsjpHdAIBo6MyLL77oefXVV1N/9atfAQBI/v3vf5/45z//OT68A6ACgPfffz8ZoQRPHKcXC0IYUgBgtH2rbPPYkwExROixyOo34EmErLgA+uiMATc7KwBwCemMNxDbxFOD5GEDSGeMKgFGZJLZBJK7BQDR0JkTJ054kG9PMQQAn376qQwAzp49m9jfDcEgABg05kIBgIEhGAQA/V5nkljuGPU3GQ7qTEwAAOEyfOedd5IsAQA+AkjmLVAd8qES7OARQL/Zzi2M6SOAKvOtwMEjgP6znWvl/EWAAAMZFgo+AigUrDOFA11n+sERgHAZvvbaayk4BiASAJw7d65PECBRyoA7Q57kNLBjMAjQEJFHK6DLF5NBgHjb3ywYaDAI0JXO8AwCNGLz5Mk8aSRDboxwRgF/gnXGaN4POJ2JchCgUJ2B1+HDh1OPHz8eEQT4l7/8pe8zVNMAEQDwUhUPoDTkVsJ2CwAG0wCFp3T5YioNUHfmb6RPg2mArnWGRxqgFZsnD+ZJKxkyN+hW0f6CdMZq3g8onYliGqBQnYHX3r170w4ePJgBAODtt9+21/uTJ08mAwDYv39/xu7du9PcDK4tBERS1IVEsIOFgPplURdfTBQCMgj4M9GrwUJA7nWGZSEgElY/liyCJDLkySLoE6wzJPN+wOhMlAoBCdUZeD355JPpUAgIAMCxY8fId/WhFDAAACgFvG3bNkeEAtj5ExHt0Ah2sBRwvy3ryrQkqPBSwFVA8UtYCrhSoQMeLAXsWmdYlAKmYfVjwSJII0MeLII+wTpDM+8HhM5EoRSwUJ2B16ZNm9K3b99OXwpYfWnJgGipBbVkQE6IXawEO0gG1K+JXZiQgkSDDAjK+9KQAQEdMPr/CVIAMKgz7A26Q1Y/NyyCTmTIkkXQJ1hnnMz7fq8zgsmAXOkM+peKDAhe69at8z722GM5GAA438VHACBMB7x27dohJN/R0gGjH1DglNrVTLCDdMD9ntrVFYugaDpgAADVfmd0wHXV0ulGqSHRDgAM6gwXJ+CG1c8J2HQjQxYsgj7BOuNm3vdrnRFIB+xaZwAAYH9K9N0VK1ZkYDrgnCeeeMI5HbD62rJlSzoAgDVr1gxdvnx5htW1LS0t6aFQSL3hAoRcnGyxWQpWCwBACCAMbQSnpQE3AACwHUSxhSiU3YvhFhvNNjCLbVlHLIIutmUpGeEChQgAFAMAqPZLh7V1AAhBgLwDUF8jnQ4EGgqCzQ2JZgBgUGe4bAOzYPWj0RkWMnTDCOcTrDMs5n2/1RlY9Mk7gZo6AHYAQAMCYLF5ob66A3YNF5sBAFY6A4todUENi2ur65csWZKJAEAuAADaXXvL14YNG7wYAOTCIEbXtLe3pyMAUIQBANy0myAbU8GqDxsePggBhKGP4KQBABAQQhhEJJTdi5Uhp+mLcWAWFYsgg8AsYkY4BACKAQCsfHRikr4QEEmDLACIAYAdAAQAigAEjB8/qDOCGOFYsvqR6AxLGTphhPMJ1hmW875f6owa+E0LAMKZZGjRObKmo+eyuuDDRgCApc7AIloFAcFgsAgW2UbXLViwIBP55jwAAKtXrx4Sx/oFnWIAkDd//vwIEDBlypR0BAAKAQAglFKAbpRFmo2hYNWHDQ8fhADCMIrgpAEAdoZFNLsXa0NO0ien1CwiFkGGqVmEjHCB4gkTlOftFABAFgDEAIDzBxAAuwqDOsOdEY4Hq5+VzvCQIQ0jnE+wzvCY9/1OZ4wqAZICABxwfh4Wn5fVB1cdO3lr6jVXN6Xx1BlYTMOiGgOAIlhsaz+fPXt2FgIAw8E3L1u2LCOO1ws6h0FgMBgU3ps+fXo6AgAFGAAUoMay0EYfwcLDhocODx+EAMKgEZ4ZADBTFtHsXrwMudXk5FycxceKCdKpQdcbXbT695qVAqYBAJAFADEAAAIAVAzqDL95z5nVz0hneMqQhBHOJ1hneM77fqUzbgEABJ7D8TMsQnc/P9o7bmyglLfOwKIaFtcYABROnTpVBgEzZ87MmjVrVj745MWLF2fG8X7BIDAYDIoG902bNm0EBgAj2traeJTajBAsPGx46PDwQQhWXAC0AMAEBHCrsmUyOfNEsnvpxuNVntXHggnSqUHXG1srLgBaACBPzuaGRLwDMKgznOa9AFY/PQjgLUMrRjifYJ3hPu/7k86wAAAQgA7H0LAYHTcuUC5CZ0KhUBIssgEAgM+dMWPG0LvvvjsffPG8efP4O3/1BYPBoDA4BgD5nZ2dPMk2woKFhw0PHR6+HRmQEwBggtAH2b0YjyeAoEVPJhKWIWsAAC+IARjUGb4yjKbOcBrPSGd8gnVG6LzvDzrDCgCoWQB4B0CIzsAiGxbbAACQ7y0AH3zvvfdmxYl8zZ8/P00LAKZOncrb8IQnCgCA8z03JCHjex9HAGBE1pAk2LjyZvfyXqqMcDwAwG23NQ7qDH8HyVtn4kXsUNk4ZKGsfug3ZlxqOsMaAIwdo6SSi5r3HR0dPgwARuAdgLQ4Ua/7778/VT0C0OwAFKCbyuEtUPgXAAAcAYyqDa6oLudyBGDI1MRTsBZsW17ek1I0u5cIEGCysgrLkDUAuKNjsmfy5EGd4TnvBejM/9/el4BXUaVp596bm+2SrQhJCGHJTlBHe5np5//9p217erpnelRASUJyL0kIIIuKKI2yiIjNvomIiAgIKAot0iwiAoKtyNogNjrTKt3P07Y92HbPtLbiLKDkP2/dqlC3UsupqnPOTW5yn6eeLLeqvlP1be/ZvtcoGQtjERQBAgwAY5e0GWYAgHRC0RlFThLl942NjblNTU19tABg8uTJWAPAHwTMnTs3TbMIMH/SpEnB8ePH56iLANE4zgoN/uiHddnyGgBlESBRAstFgJZMTTwUq18sI4Ddy47VT+IcBIKcFx8ZLbCKaQMKAbECAA1jany1tTUFWATYbTP8/J7zAjIjvxfJIijxZoQz8LnkrmozTBYBks4nOqHyIsAoAODu9+FwWMIiQACAMWPG5Nxxxx3BiRMnIhcXTp8+vQCdc27Jf9GiRanqNkACAHpNmTKlbe8jAQA56jbASCQi8VKorDx1GyABANgGWFVOAEB/JtsAqZiaWCrWzCE4snvRsvoxZ/cy2GLFY/uR1RYrTVtq+6AUMAMA8GZtXU2Bsg2w22Y4+r1dW1gmfxr7ZZn8aeyXcfL3d2Wb8QoA0OlUtwECAKBTytvv6+vrJc02wLaONjrh6IwDACjbANmDgBUrVqQuXbpULQSUN2PGjHaVj9AoNA6NRGN5KVQFAFVl4YfkOgAV4UsEBEApXgoBOWJqYqFYO0fgwO7llNWPGbuXRZEVlgVIaIqshNQ6ACgF7BUAVFeETyiFgIpvu63bZhjYjCNWPwY2Q+P3PFkEJTd2zCL5d2Wb+f73hgdcAwDS2USnUy4ERACANifx8vu6ujpJUwio3Sj7fffdl0wAQC+1ENCSJUtSk1h91qxZk4JSwAoA6Dl79mxT4gM0Do1UShdKPBSqLQVcVdYSrQRYISul1RYEGAAAGIMbpiYviqV1AIbsXm5Z/Tyze1GUWWVRgtRJmdWQWgkQZECgA3YKAIidaUsBF9fV1WRYlALuthlGgZwlCHDI0MaDRVBiYc9ekn9XtRkC1nu7AwBhjDjLpYDl0WfSCTUCACz9HskfpHpKKWDT94ROOTrnainglStXegcBzz77bArYABUAIC1YsMCW9xiNVGsXo/GsFaonA6ooCV+UuQAqZOVYgwADAABj8MDU5FixTg2fAbuXV1Y/1+xeDohWvJCQOA6WKASkcgGADriixAkAkO1MJgOSAcDwGrkghw0ZULfNMPYpj0QybhjaWLIISjzs2otPdSWbARlQy6hhPQeWNBTSA4BoflFyzSV0PinIgDz7PciAFABg+37QOScAoKdCBiSR3J3iOvn//Oc/Dz733HPZCgDIJTcNOJmvUOmAHTBDUb0sIzpgAgKibIB2IEADAKB8GAGMwQu7lxPFujV4D+xerFj9HLN7uQiSblgEXQVJ7AJAKWCVDRB0wOUDwpcok79MBwwAUFEaPqrek4IOuNtmGAdJl0nHC0MbCxZByU2cEcHq11VsBjEfdMA3XD/8auLTFACgze9lAIBOpwM6YE9+r9ABU9vMwoULk0muzlXpgJ9//nnnIw/79u1L3rlzZyYAwPr167NXrVoVcHoPdeiCkhmK+iUZAQAojyil1RYEqACAKB3KhxEoAMATuxeNYr0Oeblg92LN6iexDo5eApeXHpK6DRBkQCoAAMWvNaFUTBD4qrI0tg6AHQDothk+0yMOh51ZMLR5YRGUvMQZEax+XcFmhg6p7YHYf+N3675B/P5LawAQ4/cYcW5XB8AKAMTD75cvXx4gACAHAGDr1q1ZJJfTv6PDhw8n79+/vwcAwJYtW7Kefvppx8lfBwLsmKEcvRwzAABl2YIABQBA6VA+jADG4Pb5aNvOatGLA3YvXqx+ktegyAIEeB0e1dYBAB2wDABIUjenlG4XBNoVAqIBAN02wzaQO2k7Y1Y/NyyCEos4I4LVL9FtBgu/Z80ZmoIcUF0R/nJgeXRxH4XfGxYCsgMA8fD71atXBwgAyAYA2LVrV+arr75q28ak06dPB44cOZIOALBjx44e5GLXyZ/mgdwo1AoA2IMAUDlGsHpbBgAwAqNKgCxBAOttLxTsXrxZ/SReyZ8mkLFYIKUvBFRZ2hwFABUy37cOBLQPAkaVAGkBQLfN8Gf1M7AZHqx+TlgEWejQ0u5Zb6tNZJtRY/63r6sfgFxQXRFpbb+TzCD5m1QCpAEA8fD7jRs3BkgOzwQAOHjwYOjo0aPt8/mFCxfkl/H+++/7z5w5kwoAcODAgdBLL73EmxnKlULtAIA5CIiu4ISyoXQoX2sMPEAAr8IXFuxeolj9JF7J3yqgsVodbVQJEL161WaugADjIOAVAHRxmxHC6qexGZ6sfjQsgix1aGj/vAprJarNaOsAEJ++gJwQu5PMJPl7BADx8Ptt27YFdu/e3QMA4MSJE+lnz56VQcBnn30WzXtffPGF7+OPPw6cO3cuCABAUEL6oUOHeDND5blVKA0AMAIB6gpOKBtKt+ICYAQC8gSze3Grrmeiw3wB5VIlI3Yvr4HcrBSw1mYGlpsHARYAoIvaTJ5IVj/lmXiz+lmxCPLQoR4EcGXZS0Sb0RcCqiiJtGp3kpkmfwYAIB5+//LLL/tJTs8AAHj33XdTPvzww8Bf/vIXfxsAOH/+fBsAOH78eIdmhKMFAHoQcGUFZ8SWDIihcyY8u5cAwhSJde1yKy4AA5tpFwRYAYBum+EmTzSrn5E8njo0shluOkw0mzGqBKjdSWaa/BkBgHj4/euvv+4/efJkmgIAkg0BwNtvv82bvSyoe+A8x8pzAAAwlDOwPKZXR8UG6PEZ83TPyPWdgs0rzuxeeSJtRmFr8xR4rMmA2tlMu4WBLAFAF7GZoGCb0bP69a4VyCIoQod6m+Gtw0SyGcNSwPL6sFi/N9tJxgIAxMPvCQBIsQQAyhRACi+FGjG0OUU99AAgdihHHQFQVnzyGgGQRLGJWfQ8hLB7iUCuFjbjqfdhDgAMbaYdCGA8ApDoNsPE7z32VhOGRdBiVCweft8pbcYIACgV/mL83mwnGaMRAKF+f+jQoZQTJ04YjwB88sknvg8++CBZXQNw4MCBVF4KNWGEo1Zs6RUAMD1KyRgxIANqP4+jDO3KawCwDRCFgFgCAAOGNt6McKF4sXt51aHLIBBiNf9oDABkTgkjm2kHAhiuAUh0m2Hm9y6TcUgwi6DEc2Gsgc1gXUwqZxbBhLOZGABAOoPoFKprAPR+3w4EsFkDINTv9+zZk6YsAkx75513gh999JGvDQBoP2+99VYKAAC2Ae7atSuNl0LNXgQVAOgffdmlyghAWb/IxdKYEQDzRRyY51F3Adzw/4ZfzQoAWDC08WKEC8WL3YuFDt0kf7MA6Cag6wEASgGjvK+JzbQDAYx2ASS6zTD1ezfJ3+7ZWSd/Gn9hmfw1OuTFIpiQNqPGfHQC0RlUdwGY+X0MCPC+C0Co32/bti1d3QZ47Ngx6479qVOnfEeOHElT6gBkPv/88+lehNfV1dEwNTlSLEn4yghAZFpFSQuC8UXy+2W75K8qD4sACQD4LwIAvjVqzDDpxhuGB/r3G8E8+fNSrF0w48nuxUqHbpM/KxCgAwC7qiua2uoAGC38MQABXusAJLrNMPd7t8mfBwigZPVjCgIoWP1YswgmrM2oAADVYNU6AOgc2u0kk0GAtzoAQv3+mWeeyVALAREAkE5yu31n94033vARAJAOALB582aUAs5wm/zJAxS5YISTqEYA+ofvrhgwEiMAl0r7R4s4WCZ/DN0qQIF8d+k7f1v/o3Hjb+t16621vWtqav3fS/oe8+TPWrG0QYwHuxdLHXpJ/ixAgBYAVFeG96mVAA1X/RqDAHKu60qAiW4zThjaWNiMK1Y/hiyCEgv/8ZL8WYOARLcZMMCCB0atBKjsDLPdSaaAALeVAIX6/erVq0MbN26USwHv3r07RHI6/Uj33r17fQQAhAAAQAa0atUqR4odPnx4kBxI/sUuGeFMXxB5+QHlZ4uyeOsrhaPZevuGUgmQgIBLAA4kiE9atnJw5uBbaktqa2sKAAKKi2uYJ39WinUavFiye7HWIavg5RYEAAD84B9q/aPH1EgqFwAKAdmRAWmCgUwHXD4g/KYTANAFbMYNQ5sXm/HE6seARVDi4UdebJwBi2DC2wwYYFUuANSEsSMD0oEAdDadcgF48nt0pp084yOPPNIDbIAKAMBovvNp7m3btvkIAOih0gHjpjTXhcNhOfkrbIBFHhjhJJMpAL/y8x/V7RvaFZxWvTjtAi7y8+yQm2t71NfXFA0dWts/CgJq/KV9RySVlNRwMUAPzFCughYLdi+PrH6O2b1cMLQ5BgE331TnH3ZbbaHKBohSwLR0wEowkNkAqyvDJ+vCNck0AKAL2IwXhjY3NsOE1c8Di6DkRp4HJkgnOnTLItglbEZlA0Q1WFo6YA0IQL65WFnSQssG6MnvFTpg5FOqd7Nw4cJMlQ54w4YNmMZ3v8btmWee8a1duzYTAGDZsmU9582bZ7n3c8SIEUECAOTkDxDgFLnQvDASaH3Rnw0DSPL/H80Kzst2yV/dLVDaL3xJWfn9GO4FYxgyuHbA4Ftq+/ztt+qD5JwA+S4Q/Rl73HJzba+hQ2oH4MDvRudYHTfeMDxtyJDafrgeP/G31fk//ue6LFUeaaOmfXQHzsd16j1wP2p5FO3z+o6074OmfXby7N4RvhtMziHHgPqG2j6VpeGXY+sAUIEAGQAMqgqfJMCxqKG+JtkKADBg9XPKJuZpqNsFIxwLVj8njHBMWf1csAhKXuS5YIRzo0OnLIJdxmYAAMADE1MHwAYAaEAAcs2lQZUjkT8esAIALPxeSf5yPm1oaLB8R7NmzcqaP39+HgDAqlWrskjn3fsOtzVr1vgee+yxbAUA5EGI0XlNTU1BAgCKIpFIsTICwIoRTtJNAcg/v3VNfXBgefjX1ZUjoJSvjRZxGPT+L0d3DMg/v1YWcj39d98aXvzwvCHZy1YMznziqVtM1zy0tt4QeHjukGwc+N3Le124dHAm7oOfVuep8tY8fXOGJz2S69V70ciza5fdh/Zdqe/Brl1O5Fm9K3z30MNDs2fOGpojO2//yIvlWEviAABgFAl0wAoAKAYIICCGN6sfLZsYk8VuDhjhWLL60TDCcWH1c8AiKLGQ54ARzosOaVkEu5TNqAywTgGAupMMAOCqqpGtVw9smG8GAFj5PTrR6og6OtfoZBudN23atCySm/MBAEiuzl65ciW7AncrVqzwLV26NEcBAPkQpv1+1KhRQQIAepPGyY20QypeFFs2IJz0nW/XB5etvCVEFPDMoCqZyOWSvBOgX5gigKuKJj/7Rb5G748E9D9WloVXX3t1w33X/U3DnX9zdcP48pJwA/l/vXpcXd0wBt/hwO/a79wcFaXhyLXXNNyB++En/tZ+P7Ay3KzKM2qP0wPX4z7qPXF/M3lG7XFzWL0z7fMbtcerPP07a/f8FeGRxA5qyHE6CgQjXzsBALiGPMNRBQAU19TUimD1s2MTY7rdjYIRjgernxUjHFdWPwoWQYmlPApGOBY6tGMR7HI2Y1gJkBIARHeShS8CAFwzqGHRxdbvB795bUMKT79X19SRvFqMTjY629rvJ0+enE1ycoECAHKXLFnCtLqt/Fm8eLGPAIBcCJk+fXrBT37yE7nHNnbs2CABAIWkUX3QODOEwkqxJNj6hgyuLZr50NCcb1zbMLKytBE7Ab6WdwJQKrFUAwIQzKO1oFtaq0qbW6vlud3G1oHyIq8m+agqb2z7P35X/+/1wEpyLCaT701+4m/8H89k1A4Wx8CKK/eGHL08bTtYHEbvLua5Ne1gLU/77gaayIPuS/tHLtMmf30hoNrhNRkKABDF6mfGJsal4I0FIxxPVj8jRjghrH4WLIISD3kWNsNSh2Ysgl3SZrwCAOwCqCprkQHAlu03hW65ubZYUyOBi9/X19cHlRGAYnS20enG/ydOnJh97733FioAQJozZw775K9+cHMIAQAgqKOQCM8dN25c4ejRo4uam5t765EJD8WSQFs4bFht3/r6mj433jBcIkr5bVl/FQRELjtTZERdEwAAgVEEMMJ9jSkFHFXl4a8rS6/8jd8hh+VRPoDcu1yRoZMH+STJsJXZP3pf7TOpv0M+2sP6GWOeqUzzvNGpG77yymOfF/JK5fOiP9Xk7wQE6AsB1dXVZAAACGT1iwmk5MgWyQgHeQJY/fTV0oSx+hmwCEo85RnYDA8d6kGA1FVthgUAwC4AEsseAgAYPBg7yWRZEk+biUQiQWUEoA863RMmTMi96667ChUAIM2cOZNf8lc/DzzwgG/q1KkShEI4AQBFBAAUtrS0CGGEi/a0avtisZgy/zK9QjOH67g3pypeBgPyiMBlZZ4n5iBJBedxOUjSBRFFjDxluwknmW07J64c5G+0g9cz4v3p36mybiMO8qJ6Lms7ZFtwDQDwue22rscI1xmZIB2AABE6DIniLOi2mSsfVgBA3QWgAAAhNoNONjrb6HST3NtbAQA977//fv7JX/3cd999KVoAMGbMGImnPIVtS2O4Nb3KlN0AZf0b8ohiPoluCYzO45bSKtPiIOjOnhmK4UESVgwRhZ6BjvWhp72FfJ7y8DwxRBtlfOUZsfqx0qFZKWAdN7sIVr9sXXBN5SwvVScvW6zf1+YLkNdbl6z8nGXmC9ZhtmAWwQ5nM6wBf/G13QAAIABJREFUwM03RwveibKZkSNHSgoAKEIOnjRpUkqSqM/MmTOTp02b1ks3AlBEGpUrDkXKP3NL+zcoRYEiE9WqgFdW+0cus0rGpsxQnJKxGQ0tV3kUNRQ8JX8Dlj1+oMOY1Y+VDo0AwLBh8Wf14yzPjKEtJMrvE4lF0Ky32kWYIONqMwJGALjZTGNjYy6mALQAYPLkyfn3339/MvfkP2fOnORZs2blYcEBhE6cODFl/PjxvZQ1AH3QOM4KbWOEI4bVF0H3Sg8sclRZ0X9JVVSZi5EAbfLH75bMUIyTcZWS9NuSJQcQYERuQ1dFkU3yx/3175hn8tfLY6HDdmsAamty1TUAghjhQmaMcJzk6dccpHJmhDP1e0EsghJPFkGD5A8dZsbLZkSw+nUkm2EFAKorw3M0awC420wkEpGURYAAAL1I7k0hObhAWQPQC51zbsl/yZIlyfPmzeupbAPsNWXKFFnY2LFj/WgMAAAah0byUqjWeaIBt6Z4yODavOhUwIhKAgK+UKYCvmqb13UAAswSEy8QYHZfXiDAjN6WhkeBVfK3e9esk7+RPK86jNkFUFeTq+4CEMQIF7JjhGMsz2zXAS9GOEu/F8AiKNm9a9bJX6PDuNmMCFa/jmIzLABAdcWVXQA3/UtdPm+bqa+vl5RtgMUk1+aPGjVKvu+kSZOC6IwruwDy5s6dyx4ErFixIrBs2TJJqQOQN3369BghaMzIkSPzFQBQjMbyUqgRCLj55tpeylTAUHlHQFRZX12p/2+vXLuExBoE2N2PNQgwT/4RLiDAKvnzAQH27WcFAlQAQO5xTK0DoB2N4gUCKBjaWLMI2tUdYM0IR+X3HFkEJafvnFXy7wg2I4LVryPYjFcAQOJIWx0AGVDoCgGxtpnhw4dLKAQEANDY2Jjf1NQUcz90xtEpV+oA9Fy6dCk7ELBmzZrA448/notKgLj57NmzDW9OUIkfjVMqAeLgzu5FAEA7EECUNEYp7YoArwEB5msCaBMRKxBAex9WIMA++bMFATTJny0IoG83CxAAAFBVfqUSIKYAzEoBM2SEo2VoY8UiSFt5kBUjnBNWPx4sgpLXd+81+XcEmxHB6hdvm7n11tqebgGAsrtIrgSIKQAjAMDSZurq6tDuYqUSYAHpZBveZ8aMGfL0vFIKOHflypUBz8n/mWeeCaxbty5b4QKQFixYYIks0DgCAAoUAFCMxvNSqBYEqEOwg9umA8It0ZEAHOGLmi1e7aYEnCYgryDA6fVeQQB98mcDApwkfzYgwHl7vYIAcv0VLoC6mtzoGpQwVSAWxOrnlUXQKfeAV0Y4N6x+LFkEJdY6cJv8O4LNiGD1i6fNgAtg3IRhmU4BgBI3ZACAKQA7MiBGNoMiQxhVL2hoaLC8Hp1zdNIVMqAckrvdg4AXX3wxsHnz5iyFDTCX3JTqZgSl+NFYhQ2wWAS7lxEIIAH5n8jxJ+wOiFb7i3xVpo4CkJ8YEXCbeNyCALfXuQUBzpO/NxDgJvl7AwHuwYpbEKBcJwMATAGoNkjBBuiWEc4tQ5tbFkG317llhPPC6seCRVDilVTdJv+OYDMiWP3iZTMqG+D13xleRQsANPFCngKgpQNmYDPoSCOfUl23cOHCZIwAKGyA2c8995xzEPDKK6/4d+zYkUkuzl6/fn32qlWrHN0EjUWjFQAghN1LCwJuvqlOng4o6RfuSwL7TkwJKBTAl6IFg8JqoZhWTZEfrj15ryMHTkGA++TvLrl6Sf7uQID36QqnIEBzvjwFoK8DwDqgM+hBOO2VeR05cMoIx4LVzwuLoCdWP8qetVdWv7jZjAhWv3jYDKYAAABu/G7dN4hP2wIAXVxqtw3QCgAwsJkCkksd6XD58uUBjAAQAJCzZcuWTJLL6fP3G2+84T9w4EBo586d4BLOevrpp10NI6DRCggQxu6lggB5TYACAqIKitQSRb4bBQLNrZVlMoXwVxjKQdlYTQnh6FoBZYTA7tBWDFQr93k5z+6IqRioVO6zk2d1nt2hrxiI+9q2y+I8mkNbwS/qbO7bZflssfJUnm9TEKALAoaFgFgGdIbzzrTzsqzWDtAywrFk9XPDIsiE1c9mbp0Vq1/cbEYEq59om8EiQEwBAABUV4S/rCqLmAKAdp2Sfs4BQDxsZvXq1YGNGzdmb926NWvXrl09Xn31Vfv7nDp1ynfkyJH0/fv39yCooQe52NNCAkVhBSLZvbQLA4cOqe1Z0i8ir/gcWHp7gAT9MAnyh4gy/3dQZTPpsRJA0D9KCMNuNb+z750vsIvoRgLsev7et9dZ9bRj2sNoC6HdSEAVe3mXrUYC9O0xqwTIKqBzWHlutzKb9e4BO0Y4Hqx+ThjhmLL6mayuZ83qFzebEcHqJ9Jm1F0AmAIAAKiuiMYAqjjkEgDEw2Y2bdoUIDk8c/fu3ZmHDh3KOHbsmPn93nvvPd9bb72VCgCAEYCXXnqJFzMUd3YvLQjA7yTxy0CmtfW7gdFjhuX/3+8Mv3FQVfg+osjNJIj/qrR/5FOixP9V1gm0Oj0Mk7zF/70ehtMB/UyG/RnIM0y6/UyG/fuxecb2yNu8HV6OUmVNiNl0gFEQ8AoArAI6x73nZnuzedUPMGOE48nqR8MIx4XVT7e/nherX9xsRgSrnyib0W4DxBQAAIAy4mjfCfEAAOJhM9u2bQsQANDj4MGDoZMnT6adPXtWfvbPP/88yh1w4cIF3yeffOI/d+5c8MyZMzIAIGiBKzOUIHYvSSUOqqmtycU+7aFDageASXDaA7dmqOeVl9UHSvqHCUgIVxEFf6u0X+R6khCuL3V4XFUV/oe//WbDUBzfvLbh5qsHhv9R+zfpKf+/Uhf3NTuqSiM3fPsbDYNxf/y8ZlD4h6o8/I3vWcpD+/EcqgzIU+XjwPOzlIfj2qvC/6zeH79r5XuRV3bl598RnR+OJvPIV3oQYBYEWAAAo4AugNVPH7hDnCsI6hnhMkX4vUWc4crqZ8AIx0OHcbMZEax+ImxGXwegKjolfFn1c8sRSI8AIB42s3fvXj9GAAAA3n333ZSPPvrI/+mnn0ZlAAmcP38+oAKA48ePC2OGEsDuJWkZBOVjGEYEwj6izOSyARGmz9rampQ0cdKtPbXH1BlDs5I4fu75ya25Wnn4m6c8PI/+GfHcvD4r19ycxlMesYPtSt2IS2Y8EPogwAoAGASDuDDCca4/Hze/T2BWv26bYQgAMAWsnQa0XIjMAADEQ4dY26cCgN///vfJhgDgV7/6VSCJ44c8XLLugbmye0WnA2LYvXr3KahPuv7/jooG7X5h1AzAT58CCvykZ+gnPUP5p5sDpYlvvbW2v3p8/3vDU0o93M/uGHxLba5W3k031WXylPdPP6pL18rD8/KU93++U59861C5eIcsb+iQ2kKv94R+S/qGAwoA2KUFADjsWARZAgCjhMWbEc4g+IQE+71Q9lD4Pe84Y8AEmcxZXlxtRgCrHzebMasE2N7vI9wAQDxs5tSpU8ntAMAXX3zRBgCwBuDo0aMBXk4pkt2rq/YEuhnh7D/lA0Yk9SuqU0cAdtqNAOgXBvIeARCtw0QaAehAcabb77tHADqMzbz++uvJhiMAAAAff/yxTwUAWANw8ODBZJ4KNZjXkTg7pcSTTczAKWPYvUTMBQqYz9XPBXKdz+XJCGcGAPRzf2YLA3msARDECJfQawBM1hpJAuOMUL+Pt82I0GGCrgEQajN79uwJqosAAQA+/PDDK2sA1I9+F8Du3btFr+yUODmlZPd/1k5pxO4laDUwd0Y4ESu6eTPCGQEA7O03cnojEMB6F4AgRriE3gVgw+onCYgzQv2+o9iMCL9PsF0AQm1m27ZtwV27dmUCAJw4caJtF4Dh5/Tp0211AFAIaOvWrSz2dhY42NspMXZKyen3rJyS9ntWyd/OaVknf5pkzTr5s9KhHgCgHoRSGMpw2M8ABDCrAyCIES6h6wBQsvpJHOOMUL/vaDYjwu8TpA6AUJvZuHFjilIIyL4OgPo5fPhwWyVAlAJ++umnU9wIN6gEGHLrvKySP+tg4KC6U0hwRTDmjHAiKnSJYoTTAoCB5eG9gyqbZABgVX5YBwKYVAIUxAiX0JUAHbL6SRzijFC/76g2I8LvO3klQKE2s3r16hSUAlYrAZKcTn8fcAGoAGD9+vU5q1atcgQCwAVADi0XQIiVE7Nybq/BwEV9Z681up3WBGfGCCeiRrdIRjgVANxx17AeV1WF9wMAYArAQYXCr6orZKbJN50AAC82I4jVr1PVdXfJ6icxjDNC/b6j24wIv++kXABebMYNF0DqE088kUs67865ANTP9u3bA+ACAABQ6ICptpkYsAGGeDmzV6f2cJ1bhifP1wlidnPLCtYpGOEAAG67rVYaObKmEAAAUwDabYC0bICk93CiYUyNjwYAdEbdd2Rmtw4QL4T6fXe8YBcvBLMBerIZ8l4dsQEuWrQoTaEDBgBwxwaofp599tnAunXrsgEAli5d2nPBggVpVuePGDHCTwCAnPxxkIZ3NkQvghe8G9EzRvROdYiqkKgICQCAKQB9HQAKECADgEFV4ZO1dTUFo0YO81kBgM48+tMRud07wIihUL/vHjFkO2IIAIApAH0dAErwj90Cl6orWmwBAAubAQBARxoj6g0NDZbXz549O43k6DwFAOSsXbvW+5b+NWvWBAgAyAUAmDdvXh6EGJ3X1NTkb2xszI9EIsUKAOisc3oSL6d0ep/uOT0uOpRLRAMAYApAXweA5sAuANABywAgyj5Z8OMf1yXs+g8beULXf3SANUNC/b57zRAbEKDVIaYA5JFAhwBAQxx26aqqka3VleE5ZgCAlc2gE60AgGJ0rtHJNjpv+vTpabNmzcpXAEDuypUr2dXzWbFiRYAAAAkAAEIgTPv9qFGj/M3NzfmkccUAAASpdPZVvRIvp6S9X/eqXi46bCsNjSkA2XldAgAsAqwqDx9T6acJoEjoHSAm8oTuAOkAu4aE+n33riE2IECvY7NKgFT+3y86BQAAcM2ghkVGAIC1zaAzDQBA8moxOtnobGu/nzJlSvq0adMKFADQk+Rq9hUFlyxZkkwAQE8IgTAIxf/Hjh3rHz16dC/SqD4KAEiUfb0SL6e0u2/3vl4uOmz7P6YAzCoBOgEA2AVQW1eTq7BOJnwNCJ08oTUgOkDdEKF+3103hA0IMNKtVwCARYCYAgAA2LL9ptBN/1KXz9tm6uvrQwAAyLHobKPTjf/ffffd6ffee2+hAgDySI7mV054zpw5yRACYZMnTy6cOHFiaNy4cb0IACgCACDoJIOlvA5Q2Uvi5ZRmwaC7shcXHcb8bVUK2CkAkIfpamtyFQCQ8FUgFQa6VJEV/TpA5VChft9dOZQNCDDLFSwAABYBYgoAAGDw4NoSETaDzrUCAPqg0z1hwoTQXXfdVagAgF4zZ87kyiUgfyAEwgAAIHzs2LG9AQBGjhyZwUNed21vLvISqra3Ax3KNsMaAOCDUYVum+n2e6867LYZ/jbDCgCoiwAVACBEh+hkKwCgiHS+i5CDSS7Onzp1Kv/kr37uv//+FC0AGDNmTA5PefFm91Jk+znL62b3YvzRM0Gq/+cBALALQDS7l44Lnjurn9Lzj6fNiGYPFe73iW4zopkgjWyGNQC45ZZ2gIqrzZDOdq4WANxzzz0pSaI+M2fO9E2bNk3SAIAiniMAdr05gcg8kVgEuzQnPA8AcNttXU+HXclmuv2+U+swJHgEgJvNYAQA0+0KAOitTAH0JJ1yH/fk/9Of/tQ3a9YsSV0DQIT3IACgEI3BsATrNQAGCpUEzAXq5/yFsQgq86vZnOcC9XNz2YnECGdiM3zXANTVZGjXAAiYP9bPyWdzXjei16FQmzHwe942I9TvBa0B6DA2I9DvDW2G0xoA7jajrgEAABg1alTh+PHjMzVrACR0zrkl/8WLF/vmzp2ba7ALIIjGAACw3AVgpFCz4MAx+fvN2sEj+WtW5/JaDWy2OjchGOGsdMVtF8DwmgyTXQASbx2a2YwgHYqyGUmwzQj1e0G7ADqczYjwe7N2sN4FcMvNcsVbrjaj3QVAAEBvknNlXel2AUgkR7MHAStWrPAtXbo0R60DMGPGDH0dgCAaxaoOgN2L5LQf2G5/LjcWQZP9uaz3A9vtz+3UjHA0OmJdB6CiNHzUpg6AxEuHdjYjSIe8bUYSbDNC/V5QHYAOazMi/N6oPSzrAFxs/X7wm9c2pPC0GW0dAJJjseMuRkfaOgDz58/PXbJkCTsQsGbNGt/KlSuzly1bZlkJsLm5OYjGea0ESPsCGVcEo63QxZxF0KZCF6uKYLQVujolI5wT3bCqBFhZSl0JUGKtQ1qbEaRDXjYjCbYZoX4vqBJgh7cZEX6vb9fQIbU93AIAbSXAqwc2zJc7EfaVAF3bDCoBqqX1w+FwEcmxhrrRVgIkuTqb5GzvIOCZZ57xrV27NlMhA6LhAgiikW65AJy+OEY1wZ3W6GbGIkhZo9trTXCnNbo7FSOcG5145QKoKHHMBSCx0qFTmxGkQ9Y2Iwm2GaF+L4gLoNPYjAi/17YPXACz5gxN8cIFMKhyJKYAHzADAKxsBlwASj4tamhosNQJOufz589XuQBA5OceBGzbts23efPmHuvWrZPZAMlNadkAg2isUzZAty/MIyuYW7YtzyyCDtm23LbTLUtXp2CEc6sLL2yAJPm7ZQOUvOrQrc0I0iErm5EE24xQvxfEBtjpbEaE36vtVNkAv31d/QA3bIBV5eGLlSUtbtgAHduMQgaEfEqli4ULF6psgNKGDRsyn3/+eecgYO/evb4dO3aECADIBgAgN3O0Jx2NRaMVAMCV291tEGGAsF2zCLpE2E57EF5Z/To0I5wXm1F3AWAKAABgUGWTzPBHmfxlAFBd0YgewJvqPe0AgMtep9eetdPRJq869GozkmCbEer3glgEO63NiMoVBPz3BgC48bt13yA+bQsANMkf/B/kPHo6YBa5oq6uzpEOly9fngo64I0bN+Zs3bq1B8nl9CDg9ddf9+3fvz+dXJQJALB+/XpXRQbQaAUEOGJqcjtf4pBFkNUcm2MWQY9zbLRziKxY/TokI5xXm9FuA8QUAAAAkjocnSL5IwgYFgJi2ftkOLdOu96ElQ7d2owk2GaE+r0gFsFObzMicsX3vzc80DJqWE8AgOqK8JcVJRFTAKBL/vD5dnUA7ABAPHLF6tWrUxQAkLV79+7QgQMH7EHAL3/5S9+bb76ZRgAAUEPmli1buDJDsVKok6DCYZUtNYsgo1W2dquIWbP6dShGOBY2o68DgCkAAAA4uREI0CV/BAHXAIAmEXFYXW+344S1Dp3ajCTYZoT6vSAWwYSxGd65Qt0FcMP1w68GAKiukH38MkXyNywERAMA4pErNm3alKIAgMxDhw6lHz161BoEnD59OuXIkSPpAADkIq7MUKyTP01w4bjP1pZFkPE+W7N9xLxY/ToEIxwrmzEqBIQpANXZtSDAIPmblgL2YDOGOuRlM4J0SGszkmCbEer3glgEE85meOYKFQAMLGnAImAZAGBuH75umfxNKgHSAoB45Ipt27YFAQBee+210MmTJ9tP5V+4cMH3pz/9yffBBx8kv/XWW6kAAAcPHmRaj9pIsTyrJplUEuPN6mfKIsip0pa+klgqZ1a/uDLCsbQZs0qAWqfH70bJ34oLwKPNxOiQt80I0qGdzUiCbUao3wtiEUxYm+GVK2LqAPQPXxhYHlFX98s+b5r8GQCAeOSKl19+OagAgPR33nkn+Ic//MH36aef+tsAwMcffxw4d+5cEADg6NGjgSQOHwtmKImTPLM61DxrbUuC2baMaonzZNtKCEY4q1LAWuc3CwKsAEAXt5mE9vsEY/VLKJsxKgSExX12fs8KAMTD7994441kAIB333035aOPPko2BABnz57lykSFhxPJ7qUwQ4lm99IzwgV5ytOze6GmOGd5ohnhbNm9WAIAHFVlmkBgEARYAgDlGfNEMkHq6s5z16EBI1yeSJtRYoAwvxcRZwz8PqFshmeuMKwE2J8AgHJrv2cJAOKRK06fPp1sCQAwAnD8+HE/R6VKtWKZoToCqx9PeUZImWfPQygjHC+bsQIA2mF/ozUBHEYAElqHiWIz3X6fODo0AgBKhb8Yv9euCeAwAiDUZt544w3/yZMn09oBgC+//NL3ySef+FUAgDUAhw4d8nNWaJ4AZij9XJwwFkHl2fI4y9MHAd5znUIZ4QxshhkjnBkA0M/569cEsAYABou38kTqUPt+BbH65Qm2mUIBLIKi2UNNWf0SwWZE5Ao9AKgqu7IGAH5fVW4BAtisARCaK/bu3et/7bXXMjQAwN8GANTPe++951MBwIEDB0IvvfSSn1cgN0lgIY5O6RfFIqhbLcuLTcyM1Y/X6mOhjHAWNsNk9bERAEB5X6O5PyMQwGgXgNkqeUmwDkUxwkmCbcbM77nGGVF+L4g9VKjNiMoVWgBAfPqCugvgit9bgADvuwCE5opt27YFdu/e3UNZBJh29uxZ+dk///zz9lsCT5065VO3Ae7YsaPH1q1bAzwUapfIeDilVVDikfxpnp9l8qd5fpZBwC4ocbQZzwFdDwAqS6/UATBa+KMHAaXe6wDY7ZOXBOuQNyOcJNhm7Pyea5zh7feC2EOF2ozIXKECgOu/M7xKrQOgVPjT+L0JCPBWB0Borti0aVOA5PBMpQ5AxrFjx+xtAnMFGAHYuXMn6ghnPf30065BQF1dHQ1TE0tmKFsn4MUiaFMxixWbGC2rH6sKZEIZ4WjfldeArgUAJKHvUSsBVpkt/GkPArxUAqStlCcJ1iEvRjhJsM3Q+j3XOMPL7wWxhwq1GQd+zyRXAACMmzAsU60EiG2AWATY3u8NQEA/15UAheaK1atXBzZu3JiNQkC7du3q8eqrr9LbwiuvvOJHJcDnnnsOpYCzV61a5RgEKMm/mJKpiQUzFLXxs2YRpKyZ7ZUZyimrn9ca5EIZ4Zy+Iy8BXQUAC5bcGlS5AFDe1yz5G4AAAhacAwAXtfIlwTpkzQgnCbYZp37PNc6w9ntB7KFCbcaF33vOFbfeWttT5QJAISBrLoB2IMAxABCdK5YvXx544okncjZs2JCzZcuWTJLLnXfiX3zxxQBGABQ2wNxHHnmE+ib19fWShg1Q4pHgvBo9KxZBh6xZbpmh3LL6uWUTE8oI5/bduG0nAMDQobUhlQ2wukJO5pco+cDb2ABJYDhGCwA8MLRJgnXIihFOEmwzbv2ea5xh5feC2EOF2owHv/fEIqiyAaIUMAoB2bMBxoAAVAykBgAMckUxOtO0z7dw4cJkkqslhQ0wm3Ti3U/jP/PMMwECALJXrlwpLV26VFqwYIHtUEc4HJYU/mJHDXerWC+I1yuLoMteklNmKK+sfk57LEIZ4bwiXjftHTasNkSOvgAA1ZXhfRUl9HTACgiQAcCgqvDJ2rqaXDsAwIChTRKsQ6+McJJgm/Hq91zjjFe/F8QeKtRmGPi9axZBAACQAaEUMC0dsAYEYLfApaoyezpgRrlC7kiTfGr7fmbPnp08f/78ngodcA7J3d6L+q1ZsyZAAEAuAQA9582b1xNCzM5tbGzMjUQixQoAcMvu5YQZyvOcl1sWQY/zpLTMUKxY/WjnLIUywrGa83LICBeqqSFBgACA0WNqJOLcu/SFgOwOLALEFIAMAGpriutqa3LNAABDhjZJsA7dMsJJgm2Gld9zjTNu/V4Qe6hQm2Ho965YBEEHLI8EagsB2QKANhAgA4CrqkaiYNhDZgCAVa5Qp9KRU9G5NjtvxowZybNmzcojACAPIwAkZ7Or6Pvoo48GMAJAAEAehECY/pzm5ubcESNGFAMAYArAizxKZihmq16dsggyWiltxwzFmtXPbtWyUEY4VkHASfvVdyADgNtqC2XnNagESAMAsAgQUwAAADgIoJB4BXLaxMdBhyGr6nYcWP2c2gxrv+caZ5z6vSD2UN42w9vvnbIIFoIO2B0AiC4WJH5/EQDgmkENi4wAAOtcARAAANDQ0FBMcmyu/vv77rsvefr06b1Ibs7HCADJ1ewr+i5evDgZIwAQMm3atF5TpkxpEzJ69OicpqamPgoAYMXuZcUMxXzfKy2LIOO90mbMULxY/cz2LQtlhGMdBGiCWawOawt/8A/RZ/cCALAIEFMAAAAAFWY65GgzInRIazOSYJvh5fdc4wyt3wtiD+VuM4L8npZFUH52w1LAtABAPi98cVBlFABs2X5T6Ec/rMvmnSvQqVYAQDE62+r/J02aFJw8eTJycgE653PnzuVXzn/OnDnyMAOEQSiEjx8/PocAgCIAAEwBsJRnwgzFjW3LjkWQU7U0fbW7IGdWP/37SxbJCKfU+BbJBNnOZm6+qc5vxQXgBADICL22JlcBAO10KMBmROjQzmYkwTbD2++5xhk7vxfBHirSZgT5vR2LYJsOvQIA7AKoLGlpvXpgw3wAgMGDa0v0NsNDh5gCAABArkWn+4477ghOnDgRubgQnfKZM2dy5fKRPxACYffee2/hXXfdVThu3LgiAICRI0fm8pBnwQzFpfa1GZsY53rpkmC2rS7NCGdHBuQUAOCDKYAuajNSIvt9N3to4tkMCwAg7wLoH37gYuv3gwoAEKJDdLIVAFCE3IscjM741KlT+Sd/9QNhWgBw++23Szzl6RXLm91LzyIogqlJzwjHk7wEHwN2r0zeOowDI1xvI5vhAQCwCNBAh7xtRhLMBJkpirzExGYKRfq9IBZBoTYTB78PCfb7oO752umQGQBQdgHccos4kiR8SGdb0gKAe+65h6s8IwCQhWEHzQhAYUtLS1CgEXUFdi+e8ox6O7yDqySYTczUZngAgCFDEluHXd1muv2+0+jQlkWQNQDQjwDwtBnS+w82Nzf31o0AcKVmjvnMnDkzS1kDUDhx4sRc0ohCNAaNQuM4O2X5a3ZGAAAgAElEQVShSBZBRRZvFkF9EMjnLM+U3Yvj8KokmBHOigkyxBoANNTXJNfU1PYRyASp12G+YEa4fME2Uxhvm+Hp93GyGdF+ny+YRdA0V7ACANgGqK4BMMgVzG0mEokER4wYUaRMARROmDAhVwEAheiUc0/+c+bMyVR2ARSoqIMAgCAao+wCKEIjOTqlXxSLoGbhCk8WQTNWP15sYrbsXhwWWEmCGeFsmSBRCIgVAKgL1yTX1tYUYRGgICZIMx2KYhGUBNtMO7+Ph80wjjM0TJCJ6PeiWAQtcwULAIBCQOougMG31PY3yRXMbKa+vj4YDoeLlEWAvUeNGiW/O9IJz1YWARagc84t+S9durSHUgcAACBGEBqDRqFxaGRDQ0OQh1PaJU7Wyd8uCPJI/lYOxCMI0LxvlkHALghytJm250eyRilgrwCgfED4TSR/ZRugCCZIOx3yZhGUBNuMqd+LthmGccYJE2Qi+j1vFkHbXOEVAKAUsFoH4OCRf077++uHp/O0meHDhwfJUaRsAyzSj7SjM65sA8wnOZr9mo6VK1eGlEqAAABZZnMTyggAqhYVodE8nJIHCKAsXsGSRZCW1Y8Vm5hjdi8GRVYcsXsxYBOjZoJUKwGCDMgtAKgoaWqtroxWAgQIwBqADqJDXiyCkmCbsfV7kTbDKM64YYJMRL/nxSJIlSuGDqnt4RYAgAxIrQR4TXXDQrkT0b4QEDObqaurw8hCkVIJECMAhu8KnXIAgAULFuShs84s+a9duzbj8ccflxQAYIku0Dg0UikFXITG83BKliDAYflKFiyCTln9vLKJuWb38lBm1RW7lwc2MUdMkCgEpHIBgA7YKQAgPf+vqisa1VLARVgDYMMFIFqHrFkEJcE2Q+33omyGAYugFybIRPR71iyC1DYDLoBZc4amOAUAoANWuQBQCIj8PdMIALC0GSR/pRSw7cg6OucAAOACWLVqlffph82bN6crbIASLaogACCojAAUK40P8nBKFiDAJYGFFxZBt6x+btnEPLN7uSBa8cTu5YJNzHFbUQgIpYBVNsDKUnoAQJJ/68DyKBkQRgCwBgD3pGADlOJoM14Y4STBNuPY70XYjEcWQRZMkIno96xYBB3ZjMoG+O3r6gfQAgAl+UcBQHn4UmUpFRkQC5spVkYAqN7NwoULMxUyILABZrhO/tu3b08nACAbAMApmlDnLNB4B4nVi/F5YhF0YXxuWAS9svo5ZRNjxu7lwMGYsHvxthnsAkApYJABAQAMqmyCg39FmfxlOmCMAGANgHpPOwDgUocsbcYNI5wk2GZc+72gOOOGRZAlE2Qi+r1XFkHHNkMAQDEAwI3frfsG8XtbAKBJ/vD/y8TvndABe7UZxyPpy5cvDwEAbNy4MWfr1q3pjpP/vn37Unfs2JEJALB+/XpXKEKdu6AcWmcx/OSKRdDD8JMTFkFWrH60bGLM2b0ohtiYsnvxtBntNkDQAQMAIKnD0SmSvzwCgDUA+kJAjHXIw2acMMJJgm3Gs98LijNOWAR5MEEmot+7ZRF0pcObflyX0jxyWD4AQHVF+MuKkogpANAlf8SBdnUArABAvGzmySefDCkAIGvXrl1p1BceOXIk5cCBAyEAgOeffz49ycMHIICC3YvlAhRHLIIMFqDQsAiyZvWzYxPjxu5lsciGC7sXL5vR1QHYVV0RBQBwciMQoEv+8hoAo0qADHXI02ZoGOEkwTbDzO8FxRkaFkGeTJCJ6PdOWQRd61DdBfC9vx9+LQBAdUV0cR9F8jcsBGQHAOJlM5s2bcpQAEAmyempthecOXMmePTo0XQAgJ07d6YlMfjYsHvx2IJCxSLIcAuKFYsgL1Y/MzYxoYxwrIOAKJvRFwKqKGkGte9XqrNrQYBB8jctBcxIhyJsRgSrH63NMPd7QXHGikVQBBNkIvo9LYugJx2qAOCaqvo+AxUAgLl9rd8bJn+TSoA0ACBeNvPCCy+kAwAcPHgwdPz48fb3/PLLL+WX8f777wfefvvtVAUApCYx/Jiwe/EsQmHJIsihCIVRlS3erH56NjFuRSjMgoEodi/WNmNcCTB8qar8itMjABglfysuAAY6FGkzIlj97GyGm98LijNGLIIimSAT0e/tWAQ961BbB4D49IWBCgBQ/d40+XsEAPGymT179qQBAJw4cSLt3Xffldv66aefRt/hhQsXfB9//HHg3LlzQQCAY8eO8WKi0j8k7zKUhsxQHMtQmrGJ8WTbknTPJYzdSydP6kw2Y14KONyqBQFGyZ8lADAI6EJtRhBDm5nNcPd7QfJi/J53yeIu4vdmLIJMdKgvBETigby4r83vzZI/AwAQL5s5dOhQysmTJwEAUj788MPkv/zlL1cAwPnz52UAcPbsWa6UggZJmTcRhZ5FkDcRhREICHF+p5JgeSHRjHCsbcaaC6A9CNAHAZYAQHnGvDjbjCTYZoT6vQgWQYOAHuz2+45pM0aVALG4b6CN37MCAPGymVOnTgUtAcDbb78NlOATpdRudi8ugEMSHHh4B1fmNmMFAGKG/Q3WBHAYAehyjHCd0WZc6DDU7ffs5LHUoREAUCr8Wfo9YwAg1GbefPNNH8ntqQAAv/vd72IBgHYK4OjRo6mvvfaaj7NTCmX3ggwBLIL60YbecWSEkwQ4pQhGOC42YwYA9HP++jUBrAFAvJkgdTbKnRFOkDzRcUY/5cCbRbAr+L2hzbDSoR4AYBugugZA9v9yCxDAZgpAqM3s27fP94tf/CJNnQIgACDQBgA0iwD9Z86ckRcBvvrqq+l79uzx8XJKkexemoUkPFkEjRYd8mQRpGGEkzgGARGMcNxsxggAkOR/qf2cvzEIYLQLIN5MkJKBPBGsfp3SZigDOVdGuC7i95Y2w0KHWgCAQkDqLgDV7/WjgDEgwPsiQKE2s337dh/J5RkEAIQAAM6ePRvA/z/77LP2+f306dOBI0eOpO/fv7/Hzp07Qz/72c98PJzS6mXwSP52QZd18rcLujyCgJXD8ggCNPrtqDZjtA1woLoNsN3cX3sQ4BUAdAAmSMku6PII5J3ZZmgCOa2Pdvu9N5vxqkMVAKAUsFoHQKnwZ7z9VwsCvG0DFGozzz77rI/k8B67d+/OfO2110LHjh0L2F50+PDhZAAAFAJ67rnnemzcuNE1CKirq3PE6seS3cuimARLFkGawkMsWQTdMMJJvIIAj2DglAnSjc1oAUD5gMhutRKg6cKf9iDANQDoAEyQktPgyzKQd1abcXovxiyCXcHvHdmMFx0CAIAMSK0EiG2AWARoWQBMBQHuCwEJtZmnnnrKt2HDhkwUAgIAOHjwIP00xb59+5LVUsDr1q3LXL16tWMQoCT/4niwe1GUk2TBIuik9DALFkEvjHASryDAMhi4ZYJ0ajNaADBI4QLACIBx8jcEAV9VljoHAB2ACVLyGoRZBPLOaDNu7sGIEa4r+L0rm3GrQ9ABq1wAKASEbYBmpYANQICbUsBCbWbFihU+krOz1FLAO3fudA6Utm/fHnzuuedUMqCsRx99lBoE1NfXhxQ2QBwFItm9HBBKeGERdEM+5IVF0C27lxeSDk/sXi5IOjwxQTqxGQCAm2+qDbaMqslXyYCwBsCeDbANBMhsgBWl4aO0AKADMEFKrIMxi2s7i824vdYjI1xX8HtPNuMmV6hsgCgFjEJAdmRAOhCAioFOyIA82Qy5phidadrnW7Roke+RRx7JfuKJJ3IBALZs2eJ+uuvZZ59NUemAly1blr1w4UJbEBAOh+Xkj4M0vKBWILuXF4d2w9TEwKFFsHtJHpOACEY4JkyQtPq/dWhtcNiw2j6gA8YIANYA0NIBKyBABgDk2pO1w2sy7ABAB2CC9JIERLD6dXib8Qgc3DDCdQW/Z2IzTnMFAADIgFAKmJYOWAMCsFvgUlUZFR2wZ5sBAFDyqa3+H374Yd+CBQtyFDrg3PXr16ckef2sWbMmRQEAPefPn58DIWbnNjY2ZkQiEbXBBQQACGP3YjGk54SpieGQngh2L8nlMLAIRjimTJB00z+1fQgA6IsRAKwBiC0ERAUCZDpgGQDUAqHXZJgBgA7ABMliGFgEq18HtxnPUwdOGOG6gt8ztRknuQJ0wPJIoKYOgB0A0IAAGQBcVTWytaos/JAZAGBlM0onWs6p6FybnTtjxgzfQw89JJEcnQcAsHLlSnbl/B977LFUAIB58+blQQiE6c9pbm7OGDFiRDEAQH19fQFpsDB2L5aLemiYmjgs6hHB7iU5XAgmghGOCxOk3QJQAgD6YgRAdt52lQDtD3UXQHVF+AQAAI7bbuNrMzT64cDqR7MwSxK8mC8uNsOJPTTURf2ei83Q5grQAbsBAAoIwHZBGQBcM6hhkREAYGkz6EQDBAAANDQ0FJMcm6E/Z8qUKb5p06ZJs2bNygcAWLJkCVMuH/mzePHiVAAACIGw++67rw0EjB49OoMAgD4KACggDRXG7sVjW48VUxPHbT0i2L0kyq1gIhjhuDJBWm0BxQgA1gB4BQBl/cNv1tbVFAAAAFTwthkrPXFk9ZMEs/p1UJvhxh4a6mJ+z9VmaHKFUSVAWgCA8wgIuDioMgoAtmy/KfSjH9Zl87QZdKbRqVYAQDE62+p3d999t//ee+/tSXJyAXLz3LlzmbD4Gn5wcwUAFPzkJz/pOWnSJP/48eMzCAAoAgBobGzMJw0Uxu7Fs7CHEVOTgMIeIti9JJtiMCIY4YQwQRoVgcJPrAEw5wJwBAAON4yp8REAUKAAAO42ozxjvo3N8CwGI4LVr8PZDGf20FAX8XshNmOXK7wCAOwCqCxtab2mumEhAMDgwbUlvFn90KkOh8MFCgDoM2bMmIw77rjDf9ddd+URAFCInPzggw/yS/7qZ+bMmWkQBqETJ07sNW7cuN4AACNHjsxvamoSxu4lorSnCLYtM2YogSyCXEsWGziniHKwMTajd0prMiBnAAD3GDVymG/YMHE6tLEZSYDNiGDZ61A2I0CHvRPc70XbjGmuYAEAsAugoiQ88+CRf05TAAB3Vr9IJOJHJxsA4Pbbby+aMGFC/p133lmIXDx16tT0JFEfCINQgj4KCQAoIgCgV0tLSyKx+nUEco9uRjhONsMaAODz4x/XCdVhVySC6mYP7fZ7p/KMdMgKAKi7AAbfUttflM2gk43ONgAAcq8CAMQl/zgBgG52r+5A0KEBwJAh3Yxw3QCgGwB0NJsRDQB46zDuAADzDLopgCLOUwCGrH4JPAXQW/BwbvcUgEcA0FBfk4yFhaKGc7unALqnADqJ38eNCVL0FIAIxll1CoDk2T7IuZgCQCdc2BTAnDlzTBcBolFoHBrJUaG8F+fEexFgSPCCru5FgB4BQF24Jrm2tqZItwhQJCNc9yJAATbTvQiQic2EEnIRYHQEgCvjrHYRoAIA2hYBTp48mf8iQLttgGgUaVwfhtsAqVj9EmgbIFcWQTuH794G6BwAlA8Iv4nkb7INUAQjXPc2QGE2070NkJHNhBJpGyBGAP7++uHpPHOF1TZAdMLRGee6DXDFihWpS5cuFVkIyBGrXwIUAuLKIkjr6N2FgOgBQEVJU2t1ZbQSoEUhIJ6McFIHtJnuQkDs/b6zFQKKGxOk8EJA1Q0L5RhiUQjIqw5pCgGhMz59+nQ+hYCeeuopuRQwAIBdKWA0jkEpYFesfp24FDBXFkGnDt5dCpgqCDgpBcyDEU7qwDbTXQqYvd93llLAcWOCFF0KGCMAWANgBABY5graUsAPPPAA+1LAIANav369SDIgT6x+nZAMiCuLoFvH7iYDsg0CTsmAWDLCSZ3AZrrJgNj7fUcnA4obE6RwMqDy8CWsAXBCBuTW70EGpAAAp2RA0rp169yTAf385z+X6YABAAiayFq+fDlvOmAmrH6diA6YaxJg7NDddMCxQcANHbBQ8NcBbKabDjipy9ABxw38CacDLo+uAXBDB+zG773QAW/YsCHn+eefdz5ltW/fvuSdO3dmAgAQFJG5evVqn9N7ALEoAMDRcBCLoXwnQ3oehmecTB0IHQbmNKQn8QrkLoeBXQdy7TbAQQoAQK8ejk7JCf5VZWlsHQA7ABCP6Z8OYDNCh4F52ozLOMPD70MdzO/jNv3jVodDh9T2AAC48bt13yC+/CWJB6YAQJf85TUA+joAVgAgHrlixYoVPgIAsgAAtm7dmkVyOf07Onz4cPL+/ft7AAAQ9NBj48aNviSXHyAXJwtCWC7mo1nUw2BhFs3iQaELwVgFASf34rWox8JmPAVyLQDAGgAZAJCkrji4XfLH3F+7QkA0AIDWHlgu5usANiN0IRgvm3ERZ3j6faiD+H3cFoB60SF2AcyaMzQFAKCaAICBFdHFfRTJ37AQkB0AiEeuWLNmjY8AgEwAgF27dmW++uqrtm1MOn36dODo0aPpAADkotALL7zgS/L4od3Ww2M7n9W2HoZbs6y2DwrdCsY6CNDck/e2HgOb8RzI9YWAsAYAIwAxjm6e/A0rAdICADu74LGdrwPYjNCtYDxsxmGcEeH3oTj7fdy2gHrVoboN8NvX1Q8AAKgmAEAZ2rdO/iaVAGkAQDxyxbPPPusjAAC5PPPgwYMhktsD7U66cOGC/DLef/99/5kzZ1IBAAhaSN+zZ48vidHHrrAHz4I+RoU9OBRnMSogJLQYDK8gYBUMRBX20NgMk0BuVAkQawD0Dm+U/M1KATsBAGYOz7OgTwewGaHFYFjbjIM4I9LvQ3Hy+7gVgWKhQ20dAOLTF2QAEF3c197v9aOCHgBAPHLFiy++6HvppZcyAABOnDiRdvbsWRkEfPbZZ9H8/sUXX/j++Mc/+s+dOxcEADhy5Ejqa6+95kti/DEr7SmipK+IMo0GJYRFl4MVWtpTR0nLvbSnsiKWSSA3KwWsd3yj5M8KAMRDhx2s7HSnshkHIKBQpN/rqaETTYc8coW+EFBFiQIA9H5vNCXoEQDEI1fs3bvXR3J6OgDAu+++m/Lhhx8G/vKXv/jbAMD58+cDAABvv/12ysmTJ31JnD5dgNSnmxCmE9iMFReAvtevT/4sAUA8dNhtM91+39V1aFQJkPj4Za3Pm60HYgEA4mEzhw8f9pHcnqoAgGRDAHD27NlkzkbUze7F3zFFs/rxlhdkTT7jCAAYBAIBAKCbEraD2YzDkRWuccZEh9024wEAKBX+RAIA4X7/y1/+MtgOAGANgGYEAGsAUngrVBCbmCGrn0B2rz61Ytm9RDDChQTL0w+vMrEZqimACvOhQI5TAF3JZoSw+gmQZ6hDniDAQofdNuMCAGAboFLhzxb8M5oCEO73hw4dStFMAVwBAF9++aW6CDCgAAAsAkzlrNCgKHYvI1Y/QexeQZ6K1S/OEcAIF7JhhJM4B3JmNmO7CFAZ9jdbDMRpEaAkmhGuA9iMCFY/nnHG0u95gAAKHfK0GRF+zz1XaAEACgEN1C0ChO+bggDviwCF54o9e/akEQCQoQAAua2ffvpp+3d45syZIADAgQMHQjt27EjjpVCrAMEj+VsFCB5BgKYtLIOAVVLhFcjt2sI6kLO0GcttgLo5fyMQwGEboERjTwlqMyJY/XjEGSq/ZwkCHOiQh82I8HshuUIFACgFPNBkG6ApCPC2DVB4rnjhhRfS1W2Ax48ft7fDI0eOpAAAbN++HYWA0r0I1xYComFqYsnuRcPqJ4jdi6li7RyPAyMcTYEOlgVIaIqseLIZ00JABgv+TEAAy0JAkhu7SjCbEcHqxzLOOPJ7FiDAhQ5Z2owIvxeWK1QAgFLAVoWADEGA+0JAwnPFpk2bMtRCQCSn04/q79u3LxUAYPPmzeACyHAjXFsK2AlTEwt2LyesfoLYvZgoltbhGDLCOSnRyaIEqZMyq65txrAUcAUofilLAZdH6YAZlAKWWNhXgtiMCFY/FnHGld97AQEedMjCZkT4vStWP7c6BB0wyIBoSgEbgAA3pYCF54onn3wytHHjxhwFADgfzScAIB0AYN26dTmrVq1y1AgtGZBTpiav7F5uWP0EsXt5UqxTR2PACOeGpMMLCYkbohVXNmNEBoTyvk7IgEAHTP5+kxYAMGL1S3SbEcHq5yXOePJ7NyCAgQ692IwIv3fN6ufWZkAH7IQMSAcCnJIBec0VjsiA8Fm+fHkIbIAKAHA/ik8AQDoAAOiAH3nkkR4012jpgEnji5wyNXlh9/LC6ieI3ctVW906mAdGOC8O5oZNzAsYc9xWLR0wAEBlqTs64OrK8Mm6cE2yHQBgzOqX6DYjgtXPTZxh4vdO2spQhyFeevDo955Y/dzajBs6YA0IcEIHzMJmipV8SnXt/PnzM1U64A0bNrgavY/5rF27NgMAYNmyZT3nzZuXaXXuiBEjMiKRiNrgIoJc3Aytu2L3YsHqJ4jdy1GbvQ6xuWCEYzFM6oRNjMV0jEObqe1DAEBfAIDK0vAebR0AShAgjwAMqgqfrK2tKWqor0k2AwCcWP0S3WZEsPo5sRmmfk/TZg46DLF6/4z8ngUDrKtcgREAeSRQUwfADgBoQAC2C14aVDkSf880AwCsbAadaLVDjc611fmzZ8/OIgAgDwDA6ai95WflypUhBQDkzZo1K8vonObm5gwCAIoVAIBGe1lc54jdiyWrnyB2L6q2s1pk44ARjuVCKRo2MZYLMqlthgCAvgAAC5bcGtQXAqI5sAsAawAwAkAAQDFAwJAhVDbDUoeJbjMiWP1obIaL31u1naMOQ27fO2O/Z8kA65gJEmsA3AAABQTIAOCqqpGt11Q3LDQCACxtBp1oJZ8WNzQ0FKOTbXTetGnTsh566KF8AIClS5f2SGL9wU0VAJA/derUGBAwevToDAIA+gAAEJRSRBrKYnsdFbsXD1Y/Qexels/AepsNBSMcj61SVmxiPLZkUjLC1fYdOjT6vt0CAOwCwBoAJH+AAIwq2NgMDx0mus2IYPWzshmufm/0DAJ0GOKV/Cn9ngcDrCMmSKNKgLQAAOcREHBRBgCDGhYdPPLPaX9//fB0njaDzjRAgAIAitHZ1n4/efLkbAIACgAA7EbpPX3mzJmTCQAAYRCK/40bNy6DAIAiBQAUkYNlgR1Ldi+erH6C2L0Mn4VXoQ0LRjiexVKM2MR4FmWytRnS+w+ZlQJ2AgCwCwBrAAACACosbIanDhPdZkSw+hnZjBC/1z6LQB2GeCV/G7/nyQBLzQTpFQBgF0BVWYsMALZsvyk0+Jba/rxzRX19fRCdawCApqamPuh04/933XVX9r333luInPzggw9mJfH+zJw5MwvCIHTixIkSAQBFCgDoTRrGo8SuIbuXCFY/QexeehDAld3Lhk2MV7lUbTDIE1CW2dJmrLgAnAIA3ANrAJQRACObEa3DRLSZQtE2I9LvlZ95Ca7DfAEMsFRMkCwAAHYBVJWFH5IBwODaEhG5IhKJBNHJVgBA0YQJE3oSAFCIXHz//ffzT/7qB8IgFMIVAFDY0tLCk2RHTwyRaKx+RvJEM8LxJkyRBDO0mdoMawCAD9YAdAAddttM548z3TpkqEMjeawAgLoLAABAlM2gk43ONgAAcu+dd95ZeM8992QnifxMnTo1XQsAxowZI5QRTuFPTjR2rzyRzFDkmTJFs/rp5OXFy2Z4AIAf/7jOKLgmFCNcB7AZ7qx+Ov55rnHGxO+F2gx0ylleKJ5+b2QzrAHALbeIAzj4jBw5UtICAJKL05NEfWbOnJmmTgFoRgCKSKNyBaLkhGX3EhHQTXo6Qlj94ixPthnWAGDUyGG+YcPaJf9EY4TrKDYjxO9FgA4jv++OM2xsxgoEMAMA/cMPXGz9flA/AsBTh42NjblYb6cDAIXolHNP/nPnzk3TLALMnzRpUnD8+PE56iLApqamXM5BINQF2L14swjq318yZ0Y4o4WVQlgEzWzm5pvq/KwAQMOYGl9tbU0BFgEa6TBBGOE6ms2I8PsQTxBg5fcCbMZIh9xsRrTf27EIsgAAlSUtrVcPbJivrgHQ2wwPHUYiEUnZBQAAkHPHHXcEJ06cWKBZBJiWxOuzePHiVHUbIBHWa8qUKW17H9EYdRsgGskrkFsEpERj9+LFImj43jgywlltreTKImhlMyRZF/7gH5Rg4A0AvFlbV1OgbAM01WEnZ4TrqDYjwu+5gAAav+doM1Y6ZG4zov2ehkXQKwAgfn8RhYDUXQA/+mFdNs2ze/nU19dLmm2AbR3tu+++O4jOOAAAcjM66cyT/2OPPZaqKQSUN2PGjHaVj9AotRAQGssrkPNwzg7K7sWaRdDyfXFghKMprsSFRdDOZuRCQLfVFnoFANUV4RNKIaDiYcOsddhJGeE6us2I8HumIMCJ33OwGRodMrMZ0X5PyyL4/e8ND7gGAP3Dl6vKr9QBkGNI+0JATEFAXV2dpCkE1G6UHZ1xdMoBAFAIaMmSJalJrD5r1qxJWbVqlVwKmNy85+zZs5Ot5ic0pYAlXoGcpXN2cHYvViyCVO+JISOck/LKTFkEaWxGrQQ4ekyNRJx6l1MAQIKAthRwcV1tTa5FKeDOygjXWWxGhN8zAQFu/J6hzTjRoWebEe33TlgEb7uttrc7ABBuJcm/rRIgtgEaAQCWIADJX+UDCIfDpu8JnXJ0ztVSwCtXrvQOAp599tkUhQ0QAEBasGCBLe8xGqnWLkbjeQVyFs7ZSdi9vLIIOno/DBjh3BAsMWERpH0/KASkcgFUV4b3VZQ4AQByEJDJgGQAUFcjI3IbMqDOxgjX2WxGhN97AgFe/J6BzbjRoWubEe33TlkEQQbUMmpYz4ElDYX0AED2+zYuABQCoiAD8gQClPdTrAAA2/eDzjk66SoZ0Pr161NcJ//t27cHn3vuOZUOOJfcNOBkvkKlA3bDCOeCOSnR2b3csgi6CloeGOG8MLR5YhF08l6wCwClgFU2wOoKeT7/EmXyl+mAAQDI78fUe1LQAXcWRrjOajMi/N7tu/Hs9x5sxosOHbkJyQkAACAASURBVNuMaL93wyIIAAA64BuuH3418WkKANDm9zIAQClgB3TArt6N5r046kgvXLgwmeTqXIUNMGfLli3ORx727duXvGPHjiwAAIIisgkACDi9hzp04ZQRzgNzUqKzezllEfTaY3HKCMeCoc0Vi6BTHarbAEEGBAAwqLJJ7tXD0SmDwFdV5bF1AOwAQJxsxikjXGe3GRF+73R0hJnfu7AZFjqkthnRfu9W3tAhtT0AAG78bt03BpaHv7QGADF+L5MB6esAWAEAN+/Iq80sX748QABADgDA1q1bs3bu3En/jg4fPpx84MCBEADA888/n/X00087Tv46EEDNCMeAbSvR2b1oWQRZzVnSMsKxZGjjbjPaOgCgAwYAiCb1cKsxCIgNAuSadoWAaABAnGyGlhEuUWxGhN/Tro9g7vcObIalDm1tRrTfe5GHXQCz5gxNAQCorgh/ObA8uriPIvkbFgKyAwBO3hUrm1m9enVg48aN2QAAu3fvzjx48KBtG5NOnz4dOHLkSDoAAEENmeRi18mf5oE4sfolOruXHYsg61XLdoxwPBjauNqMvhBQZWmzDADg5O1BQLvkb1gJkBYAxMlm7BjhEs1mRPi93Q4Jbn5PYTM8dBjilfyd+r1Xeeo2wG9fVz8AAKC6IiIv7rPyezn5m1QCpAEANO+Mtc1s2rQpQHJ4JgDAa6+9Fjp27Jh5Pn/vvff8Z86cSVUBALlIGCMcB7atRGf3MmMR5LVv2YwRjidDGzebMaoESBz8K9XZr4CA9snfrBSwEwAQJ5sxY4RLVJsR4fdmNRK4+72FzfDUYYhX8qf1exbytHUAiN9fAADA3L6Z37clf48AwOrd8bKZbdu2BUgu7wEAcPLkybSzZ8/KIODzzz+X30HSX//6V9/HH3/sP3fuXBAA4OjRo2mHDh0SxgjHkW0r0dm99MmQW6U0k2AggtWPi82YlQKGo2tBgFHyZwUA4mQz7ZJygtuMCL/XxxlJlN8b2IwIHUoCWP24sofqCwFVlETU1f3t/D4m+TMAACYggKvf7927108AQAYAwLvvvpvy4YcfBj799FN/GwA4f/58QAUAx48fF8YMJYBtK9HZvYzk8axd3q5eugB2L+Y2Y8UFoAUBRsmfJQCIk80IZYRLFJtxEWe6/Z6hDlnKM6oEiMV9er9vl/wZAYB42Mwbb7zhVwHA73//++Q2APDFF1/4VQBw9uzZ5CSOHwN2r3zO8hKe3Ys8U7ZIdi9y/1TR7F6sbcaaDIg4v6YHMNBgYSBLABAnm8lMcJvxi2QPVWTq+e6Fxhm8Y8E2ky3Y75nZjGEp4P4EANj4PUsAoLcZEX5/6tSpZCMAEDMCYLlQgD1q5ckM1RXYvUKC2b06CqufJ3nmACB2+K/9mgAuIwDdNpOAft8dZzquzRgBAKXCn6XfMx4BEKrD119/PdlsBMD3ySef+D744INkZQ1AOtWWAW8KDXFmhuoK7F4xz4MeAGcWwZjnUXp1QhjhWNuMMQAIX9LP+evXBKjBgOEagLjajABGONE2Y+T3kmC/FxlnYvyet82Y6JCrzfBgEYwBAP3DF7ANUF0DAJ8383uGawBMbYaHDl9++eUgyenyIsB33nkn+NFHH/naAID289Zbb6UAAOzfv7/H7t27g7wCudmL4BUELAJgZ2X3Mlt9zItF0Gz1MXdGOB42owcAKAWMQkBGc/5GwYDRLoCOYjO8GOFE24yV30uC/V5EnDH0e142Y6NDrjbDOleoAAClgFEISN0FoJ3zNwUB3ncB2NoMSx1u27YtuGvXLtQBCB0/fjzVbo7Ad+TIkTQAAKUOgFcWIxqGNpbMUF2B3ctu/zFrFkG7/cfcGOF42YwOAOxCKWC1DoB+wZ9JMPBaB6Cj2QxrRjjRNkPj95Jgv+cZZyz9nrXNUOqQq82wzBUqAEApYLUOABYBUvi91zoA1DbDQocbN25MUQsBHTp0KJ107n00cwW+AwcOZAAAbNmyJWvDhg2uCAXq6+uDw4cPL0I5YPIwxTZsWxLOweGUQEgDNvzkKFDvY88I1yavANe6lClp5NmyeynnFQEYuZQX0sgrsKhA1iZPecaQS3kYfitS7mNVvQrBoICBDrXyuNmMFgBUV4ZfUSsBGiV/k2DgGgB0YJvR67Cz2Izs9yppipXNaMqTe/Z7zX0kmyTKWp6l35Ojj3KuJ5vRvE9LHWrfvVebUdttlfho373V5x9uHB4AE+iN3x1+HfHnL7EN0KwUsAEIcAUAaNute/eudfjkk0+moBLgz372s6yXXnopg+R0H/XF+/fv9+3atSsD6AH1hJ944glHIKChoSFIAECRhhUwxOoFGX2IDMeGqH3RuBb34BEEzIycyAs6fMaQ5n3aBhNVnnoNrncoTwZwCqmTrSGqgVgjT3Irz4nNuJFX1n9E0j/+oM4/dlxdrsoFUFkGLgBrMiBNMPhKIRB688o9IzTP6IgpU6dDETaj12FHtxk/OQo82Ixjv3ehwxBDeU793pPNuNQhV5vx4veqzdTUDC9sGVVX8P0b6q9DISA7MiAdCEDFQAUARGYovp/M0WaKkE+dPOOKFStSCQDI2bRpU/YLL7yAqr6+JKefHTt2+Ah6CAFFrF69Ohc3pbmuqakpGA6He5NG9yEgoJgcITfGDkZBypEGPzlcGaDW2HEP3ItSpisD1CW5IoySUMpzFUT0SZVWF+rojdMgog/IDnQY006HOnRsM4MH15Pe5/CCMbcPLwAAGFhOTwesBIOvABqqK8InwrcPl52rdEAkUWxGr8OOajNe/F4S7Pcs4oxbv3drM450qNUFrc0gsbmxGbd+T+TJ7aytre87avTwgr+9rn4ALR2wBgSgYuDFypKW1tJ+4enREQBzAKDVIW07tbpADiX5tCgSiVC9m8WLF6eSXC2tWbMmh+TuHqQT7zz5q58tW7b4cJOnnnoqZ+XKldKyZcssQcDo0aODI0eOLGxsbCwaMWJEH9LoDKcyycNKRFHFOPC71bnk/n5yToHm/JALeSHN9QW4J6v2mRk9FKpcb6tY8n1M+2DEbuXhwP1s5MW0zyn6RPt0OpFo5XnQoSObaWgIkyDcUDx2XLhgYEVkb2wdACoQIAOAQVXhEw3kWe8YH/ZZjQB0QpuJ0aGdzRBfDyrt8mQzuF45JBt5fnJO2/lubUYjrwD3tHmnkkae5CbOuJWH88n1fofyYnQCHdnZjOb5inC9Q3kxOnFqM07lGeiQymbC4QhJquG+C5Y2pJRFtwF+QQMAVBBQXRG5TID/pUGVLfjfAzL4NwEArGwGuZTk1N4kt1q+o/nz56ctXbq056pVq3JJzs4kudt98lc/mzZt8q1duzYT/MLLly/vuWjRojSj88aPHx+8/fbbCwkIKCINLWpqaspwK5M8cK764siD5xqdQ/7vJ0ebwZFrQh7khTTyCnBvE5m5Gnm5HuQFyQGnxH3wroIm8jKUc9CufLugQSkP98owG73RtssuaFg5m9JeVV4uhTwcrm0GMijktbUrHB7Rd/bDzRkEvW+XAUA/GQBcpgMBWC/Q1HpVVeQM7tPU1Nhr6JBGf9mAsKt2dVCb0euwo9hMzHkMbSYf93ZrW5TPmOFCHiu/p7IZxjrkajNu/B5HbU0UnJAefF9yyHTApRQAIAoCCACojFy6qqql9erqyMPKfZJ52QzyKDn6NDc3F40aNapw7Nixhu9q7ty5aQsXLsx79NFHpdWrV2eRnO09+aufdevW+XDTxx57TFq8eHEekIb2+0mTJgXvuuuuAgICiggIKCIgIMOrTPLAuXhw5eFjXiABGH7yv3zN9yzkZWjulw8ZtO1xKS9I7tVbuWc7dEf+jmkPOfwM5fXB/XXyYtqD8z3K0+so10IeKx1S20x9fZOkDN89UzFgZBQA9KMDAKX9I19Hy4dG/vTjHzcNvP325sIRI5pkHZVpFgMmgM3EvLMOYDM8/D5XsN87iTOs/d7SZljrkPw0tBnyf8hhIk99Z7ifIi9GRy0tLX7yv3z1e3KkEx+Wi92Rnzdokj8l+I9cJn5PAMDI1uuuGTGjtXVi8DvfbkzRPWOuRp5nmyHPkEGSv5xbx40bV0hybcw7e/jhh9PmzZuXt2TJEgCAbNJZZ5f81c+aNWt8jz/+ePYjjzzSE0iDCJRBwLRp05KnTJmSf/fddxfeeeedhRMmTEhnJZM8dA4eHAcBFTn435gxY/zk917q/8mRwVBehkZeL8hSpjZyNPJyWMkjig2So1C5byGRF1TkZWjk9YIRc5DXBtQgF/LxP3yP8xjJ86P9Bjpsk8dBh7Y2Q9qVU6oGgX7hFRUlLRgCvEg7BVAqBwvsBGhuJb2BUb/5w73pdXUt/fGszc2j/f37hmPaAXn9+jUksTgQQLU2g2k3/F9ru+T7Xk1NI/0s5OE+uJ/WZvB/yNXosBDt4iEP7zH6fGNibAlBkdU7hX60/gZZyjNy0aEa0NU4YyQP7WClQ/izYiuQJ8cZRV6G8j9ZhziPhbzm5qjfq/dWbQZyIZ+1PMX+czTy2mwG77ftGVtGZQCgk4Qvxzfix0/I4L9/+FIpLfiXzwt/jRHAb17beMeOPRN7RMKjCkly9iuxJqYdrOIa6flnkA52b5L8C0mHu+AnP/mJPOrw0EMPpc2ZM6fXokWL8khuzl6xYgX75K9+gCyIgOxly5b1XLBgQR4RnDFz5sxeBATkkwYV3HPPPemsZZIHzwHyUdBPDjl6qX/jpXCQl6GR1wsyNfJyWMsj95WnTpT7Y4gnUyOvl2pYPOQpMjIVubJ8fM9Ynh/Podwf71TSyOOlwxz1/sRpZJvRyMtR0H+yMgJwb0V0QY+DKQD5+LqsfyN+fvR332oqO/LL+0OjRo0lvZqxheGG23s2Nd7eF0dD/ZiekMXy+KcftqQ3Nt7eJypjbJ/hdbfnqPJGRG4v/D9/15TCUh7uh/uqMqLyxsry0Q60h6c8vM/GEWPb/h522+gs1u8UelLvD1m8dYhnMJPHQ4dWNiNCh7xtRq9DI5shyTswIHRHkuL/P7pS3Y/e77VTBdcMGnHjI4/endPSMraYxJleiDWaOMc8V0ycODGd5NjCyZMnF5Kc22vWrFmhn/70p73QISc5mW/yVz8rV670YZhBBQEPP/xwLwIC8kmD0njJnDBhQvYdd9zRW3ek85KHe+vloQ0c5QXvvPPOAq088nce+ekXKA9/BznJ8yvP01snk6cOjWxG1mGfq+ch8fsVAPBjeRiwP3FsBAKKuUC1t3ClImDk3NUDG38wY8bEvNePPhhqbV2S9nXr4jTevtja+kQKZF05Tvj5yjvhj5X3RAp/ectTtQf/dxpfefx1CJvRyhOtQ77y7HQ4sHKwjyTxkaT3/2WUBAhAPjq0T5P85TgRjReflfRv6PWLN2cljxsnx5ZCzcEtV9x3333p6HA/+OCD+ci9yMFLly7FyDz/5K8ZCQhiq8GSJUt6Yu5h9uzZXNnECOLxE+RTMGnSJAx/FJLfJd7PCBkaeQVoA095RE4PVZ4iM4Xz86Vr5UE+Z3kpuueTBNtML/W7kt43YeVudPtev0g+SfyfRVcC0wGAsrZAoIAAeSRgROugyhFvXntV05PXXt20gvxcUTYgsoAEjfm8juqKEUtkWcpRWRpZyFMe7q+VB/k85ZWT96eVd3V14yM85eH4m0GNy9tkXtX0KG8d4pm0z1jO22YqY22mqnzEYqE2U8nXZsqiNvOokc2U9Q+vIsfZKGiXGQCpk79mtOArZdfQa4gfWeX/kjTp7nsk9Mxx3HvvvRie55orSIc7i+TcXsq8f0/SIQ8KS/4bNmwIrF27Nmf16tUSVhyiAUAhWIXIQ97UqVN9BPX0JEeB7sjiiLKyDOT1RFt4yLv//vvTDeTlE3nJnN5pMu6vl0nakSZSHi8dKjYjWclD5b7yfiPU31+BU2MaoJQ2GBCwoBkO/KqqbMTlqwa2tF49cHTr1dXR46qq0a2VJaNaKzgcA8tHtclpO4jsqlI+8nBf3P+a6tgD7eAhD+8N708vb1DlaC7ycODeenk8dShaHnSll9e1bKalFclfXsTbL5r84e9UOwBkf5fn/y8pi4ZnyVOcY+7NVWJn20Hij0R66VxyBRb8Ydh//vz56Pkj+UukQ55LcnKAe/Lftm1bYPPmzVkbN27MIQJzV61alYbpADQE8xAECKQxRjq+GTNmSOTIxzF9+vQ0cmSpf5ODeQJ54IEHsjTysiBTI0+aNWsWU8U++OCDaRp5MJwU0oZe+Bs/yffJjOUla++P51P/xoH2sJaHdSKYJsJBZGXgPWr+ZqpD6Ifct+3+sBEcenlVVREsBlIXAo4pJ05diloADlYEq6uHSS+qdVBV42VyfEV+v1hRMuIi+V0+qisasbjwIsqHsjoqSmPvX1ESuTioMvo3fpJeJFN5uJ/2/pAHuWob0B6W8vC+tPevJPfX/j2wnK08HLinen/osKqcrw4H6u5fWSrOZlQdJrLNwAe1OsT7RvKWe/1qwsdPyu1/0SnCtlG/r4nMv2lt3RucMmV6AeIbYgyJLWlqnEEMYp0r0MlGrx8dbtLxziG5N43kYAm5GAX7SG7mBwJeeeUV/44dO3qgtjARlK1yBDz22GPymgDsDsAWQbM6AU4/c+bM8RG0kzt79ux8HFjtqH5H/s5S/89y+gH30ty3LTFBtvp/tAltYyGPILk0jTyJyPEp8pLJ33mKvDxyXjIjecm4nyIvD3L08nCgXRzktekQz4nnZa1Dvc1odai3mb5Jo7EQKEoL2j+SR37/ozonWKoZ4rc7kPyvqmqSj4HljVf2C5de+T8JTK0OFhdaHpUm9yUBl/R0GuX/4yf+ZiHP6r6Qr7YF7WL1jNr7Vmjuq/0/3jsreWY6xO88dKiVp72vCJvR6rAr2IxWh25tpvRK4r+kjBQe+OB3m1MefBCx5OFeujgj99CVI5ckbSa5AlvvkfiRY5ctW5ajzvk/9dRTqPmfg5z8wgsvZJIczR4EHD582A86wb1798osgaAY1K0J8BEgkI3hCBQLIo3ztHiGPKRv4cKFOXhgHOqWQ+2H/C9T/Z6c6zmB4B4aeZkG8tI08nLQRi/yAJTU+xHl5ugNhchLJt/1VM5BAaZkj/Ji7of7W8jzDOR08trpEM+L52alQwObybSyGXJklpY2XhkF6B+Zo9sOaAsAEFwGIcjpEoc28KrfswjodveLBt7o9/jpNaDT3A/tUNvEIqDbJQjt90bv3OmhTRBG92MNAuzuV8kYBMQm//Y6VHV8FWObucrGZtqSdQl/m6kq04IAh+9UHfrHT2XR7zevGXVra+t7qQ88MCefxJx2BegwEo5tecqRQ3rrnnIFuT4VU+1YeI/Otn61/5YtW4IvvvhiFnIz6aiHDh06xG4NwunTp/3Hjh1Lf+ONNzIUEBA0WRgoFwtCxUCUDablDtB/8HDYz4gRBRx4eLNzly5d2kM9jwAP15UAca16H9zTShHqeV72XBJ5bffB9g0zAyFtSSbn5Crn5pLrXKE7YjQB7X1wXwp5eKdudRgg16K9uEdPsxLSeG68R/U80k5XOlRHodT7kHua6hDfaeRlqKMAZQPCeWX9wx9Ht/Yp84MWw4PaoGKViGJ7dU2Mev5NngIwq0B+JQA3MenVae9TYXEf7XnQg+ueOKUOtUDPiw4hj+Y+FTFAr4kJYLTSISvg6OQ+eC4WwFF7Hyub0erQoc3E9P4J2Hj18LHneyxatIzkimU9KkrqDeMMYh46xMqRjRjlMralogAfjlWrVmWRw/A+L730UhAddORo0mFPP3GCwW6SX//6176zZ8+mnjp1Ku348ePp5MaWvVBUDETZYHAHgI2IAAJHK9nJNT7lIfGweGjbBETOCwF04CDyHCcQXKNej3tRyEvVyMtCmx3uoEhRrydH1uOPP255Pfk+QM7LUc7HOw04fL6Y63E/B/Ikp0yQOnl4p6k28nx4D251iPevAk/lCFHoIKS0TXryydUoBxxQFgO2YIFPtCZAdFugEQiI9uKa5YOmFxpN3tHz3QR09JKcXO81oLu5PiYQu+jVOU0I2vPdgABtMqbRoVcQQJv8jUd73NkMTfLvSjYT1WGzfNDYzJWdPtGtguSaSz+48a7rW1s/SHt49hJ5hLGkX8QyV4BITzmySF50nCtwLYlxODJRjM/qfNLzT1aSfzrpuKe+88477kcePvzwQ9+5c+eC//Zv/5b69ttvp5IbUiWeDRs2yARC5CfWCYCRiCqBgLhg/fr1meTIwYG5Ddq2EuCRoV739NNPUxeWwbnqdbgH7XVom3od2kxLukDktV2nACUfpbwAuSZbuTab3CdAKS/mOtzHhTy80xQX8qh1iPeA9+FUh3jvRG+ZbnSo2gz5Sdq5NqO0b9inTAVslacC+kcuaip/Xb4yf0uCSGWzfDhJPHJAVq5zEtDl3qCL69oCsnwtfUB3e11bQFbaWuGgVxdzXYnD69SA7mBot8phIohN4tHrnOhCK8+R7uUk7uK60ivXudJ9VVQXzq5rdnydXoeObUa9zoHNxOje2mZUn8cUwKVBFaNbv3Xt6Omtra2+WQ8ulZN/aXGYJs6kIA8qR+azzz7ro4xtKSQOIhbK1yGv0lxHkn8AyR8dd9KBT/nNb37jHAT88Y9/9P3hD39I/t3vfhcECPjXf/1XR73O5557zrd169YQObKUw3Kf4s9+9jMfuaYHObJxkJfkeA88uS5dvX7Lli22BWZwjno+rnUqD23UXI/FkZYvGu9APX/z5s09aA1BIy/w/PPPZ+F6/CTtD9g8X8z5uN6pPHJtJq7FYadDyNOeT54x6FCebAMaeek2O1J85Ly2893oENco7zLzsRVrZfBQ2m9EJnH4f40u9lFBQFieB5QTgIvk7xYEuAUN2sCsJtdqyl5gdSX9+SySudvkb3Q9jU686lB7PY1OnJ7P1GZc9uSd2EBntBlbG7gy6ocRwItI/tcMatlKkn9wzZNPZwzoG0n6dt+6pJKSBqo4Q2JMUJMLeyB2WZ3/wgsvyOcrsQ0xzlGuIMk/gOSP3E068sHz58/TX//pp5/6/vznPwc+/vjjwEcffQQQ4GouYceOHb5du3ZlYGEC+T2T/G6YEPbs2eMj54TIOVk4XnzxRddFDbZv354OWYo800Vs+E497+c//3m6B3lB9T7kGTLwLGbzM3gPyrsI2RmA2Ye8mwB2Yij36UHu6zeR59eeh+tcPl+bPBx4DjN55PsemmcMupQn24J6n927d6eZ2YxqW4o81wsWcW302Xb3WLzoKXn6oKRvuH9p//BHyorfi5qgcdlt4jAK0APLm7gl/1gQoN6n2XIemOY8lgEdz+8lkDsFAV6Tv9F9rHToNfl7s5lmT3P5iW4zhrag3f0TXfR3sbpiTOs11S0Hn928NeuTP58NliprhqyG/k3iTFsOQOyizRUkP7nKFb/97W/9v//974P//u//nkw69IH//M//pLvPX//6Vz85OfCnP/0pgJEAL2sI9u7d69u/f3/6K6+80gPHgQMHYtYQHDx4EN9nqN+bLTB08iH3SVXvt2/fvnbzz/if+j3O9SoPbVbvh2fBM2m/xzNr5Jkqnvbz8ssv+8kzhJTnC7366qsxIAB/a7/H+azkGelQK4+FDvF+8J7MdKi3GUY6lG3i4MEDofnz1mREpwLCA0iv/31MB5AAcZEEiq+VYHGZljqUKqAbJAa771kHdJaBvC1Q2wT0gRVsArnR/YySO6vkbwgCDHRk9z1Pm2Ghww5pM+VNsiwcLGwGOlLvF+PX/cJfgeyrugKFkkbumT9/bQ7p/ftJ8vcro4Su4gyJZckkXoaUI/0Xv/iFTz+Hr35P4izypqdcQZK/D8n/P/7jPwKfffaZfR74r//6L98XX3zh//zzz/0YCWCxi+Dw4cM+cqS9+eab6TiOHDki90aPHz/uI3+nqv9/4403mBW8IfdK0chrm07A7xp5KQzlJav3xTPh2RR5AfX/eAd6hbv9vP76636NvPRjx47JysVP7f9xHg95qg718ljpEO9JZzMpJjaTwtpmTv7yeNqCeevSFZSfR4LO/kGVY+QgUVnaeFGZDlCHBy97CegIaDi0Calc83+r3p6bgK69r3YvuNH/WRwx99UEbDyv+n8WgdxIHtGVZkFdo+H/vW+xazTUodn/WYAAGpthuZ9ftM1obcPMZsoHMLKZfmHo6rJy38vk96+jI36NRF5L69XVLataWy+mYN6fAAK/slA4qbi4xnWcQezErjocR48eTf3lL3/pU+fu1f+Tc1KRN1nENfT8kfyR07/88kvze168eNH3P//zPz6AgCTGHzzk6dOnU956661UHG+//XaA/Gz7m3zPvHgBkRdU7/+rX/0qGYf6N77jIC9w5syZVBzk+VIwD6P+jWdVFc3qc+rUKR+eRZXxzjvvtMnDQdrjY/x8PuXZ5OPdd99NVn93skjUobwU9f7k+aDDFI1M5jok8oK49/sf/FvKT2evk0cWiPMHSCB4gASHL6PUofLCQACBr+WFQtqqYi4CelVZk3I0tvubVVCNDbBNbUesvCZO8hp18mL/5i1P+4w85Gnvj8TPW4ei5cW+02hRH+3fImwGz8lQh9rqf/Lv5J5fkXtfGlje3DqwbBR2FPzhuqvHDI/6/2eBUoU4DMm/rG+j5zhD4nZAjWMkTwQRu9W/EfNYxzXSqfch+f/3f/+373//93+N88KlS5d8AAFJHD/vv/9+8gcffBDUHr/+9a+5ESe89957ASyE0B74H0d5fr088ozJHOX58A518vCMPlHylHfKTYd4f4J1GHjvvfeD/37+98mbNu5OPfP2O1Hu8H7hctILeAZDg9FdAo3KnCHKB8slhL8ujS0jfJmGZhQBFQFOe/BIVPqeq/7gKU8N4tqDZa+RRh7PdypanpHN8NZhp7UZZQEvdvK0FfSRwXsYPnsp+j4BLpD4Gz+trmheMvimaTJxHyZp0QAAAWZJREFU2NyfbgiSc6K7g/qGk0pKRrCMa/7f/va3Qe3xm9/8Jpln/kXy553jbT9YXKgef/zjH/0i5eHgLQ/PJFIekeE7f/58QD3wt2B53HWolYdDwDv1nz//ceCzz/7i37f3KOb+2mSS4HEtCSSLSW/gHEoHV5SMbC2XRwYaFYYxh+xicgAa0dZb5Z38tQE2XvKYDeF2IHmiddhtM06OMBb1Kb+PkBM+RvNkv42CgV+R76ded82YYtXP7xi/nCT/BtXnk775zTHM48yf//xnP9baqUdSon8uXLiANQYxB2+Zf/3rX33aQ4S8zz//vO0Q9V7VQ7Q8ETIxLaU9RMnTPh8JHv7SvpE2sFPSP5xO/ncDAQIPkODxAgkkZ0mg+BP533+3VRH0uFiw++g+ug/P8/zKSJw8AnCB/P4x8c0T5O+N5Lu7yM/rBpYNb/PrmlsfSp4xba2/tbU1qax0RFJ534aEiWv6z/8HoXuAZCheXFUAAAAASUVORK5CYII=;" parent="1" vertex="1">
          <mxGeometry x="193" y="40" width="100" height="100" as="geometry" />
        </mxCell>
        <mxCell id="V7jzu54YT6VPU3nDm642-25" style="edgeStyle=orthogonalEdgeStyle;rounded=0;orthogonalLoop=1;jettySize=auto;html=1;entryX=0.5;entryY=0;entryDx=0;entryDy=0;" parent="1" source="V7jzu54YT6VPU3nDm642-22" target="V7jzu54YT6VPU3nDm642-5" edge="1">
          <mxGeometry relative="1" as="geometry" />
        </mxCell>
        <mxCell id="V7jzu54YT6VPU3nDm642-22" value="Data Cleaning and Integration" style="rounded=1;whiteSpace=wrap;html=1;absoluteArcSize=1;arcSize=14;strokeWidth=2;" parent="1" vertex="1">
          <mxGeometry x="203" y="380" width="80" height="60" as="geometry" />
        </mxCell>
        <mxCell id="aJo2WKjY9cExZXY5lrBi-1" value="Map" style="rounded=1;whiteSpace=wrap;html=1;absoluteArcSize=1;arcSize=14;strokeWidth=2;" parent="1" vertex="1">
          <mxGeometry x="560" y="240" width="81" height="70" as="geometry" />
        </mxCell>
        <mxCell id="ML5AinWXIUOGosy08yNC-11" value="" style="edgeStyle=orthogonalEdgeStyle;rounded=0;orthogonalLoop=1;jettySize=auto;html=1;" edge="1" parent="1" source="aJo2WKjY9cExZXY5lrBi-2" target="aJo2WKjY9cExZXY5lrBi-1">
          <mxGeometry relative="1" as="geometry" />
        </mxCell>
        <mxCell id="aJo2WKjY9cExZXY5lrBi-2" value="Search" style="rounded=1;whiteSpace=wrap;html=1;absoluteArcSize=1;arcSize=14;strokeWidth=2;" parent="1" vertex="1">
          <mxGeometry x="399" y="240" width="81" height="70" as="geometry" />
        </mxCell>
        <mxCell id="ML5AinWXIUOGosy08yNC-8" style="edgeStyle=orthogonalEdgeStyle;rounded=0;orthogonalLoop=1;jettySize=auto;html=1;entryX=0.5;entryY=1;entryDx=0;entryDy=0;startArrow=classic;startFill=1;" edge="1" parent="1" source="aJo2WKjY9cExZXY5lrBi-3" target="aJo2WKjY9cExZXY5lrBi-2">
          <mxGeometry relative="1" as="geometry">
            <Array as="points">
              <mxPoint x="440" y="375" />
            </Array>
          </mxGeometry>
        </mxCell>
        <mxCell id="ML5AinWXIUOGosy08yNC-9" style="edgeStyle=orthogonalEdgeStyle;rounded=0;orthogonalLoop=1;jettySize=auto;html=1;exitX=1;exitY=0.5;exitDx=0;exitDy=0;endArrow=classic;endFill=1;startArrow=classic;startFill=1;" edge="1" parent="1" source="aJo2WKjY9cExZXY5lrBi-3">
          <mxGeometry relative="1" as="geometry">
            <mxPoint x="609.7" y="420" as="sourcePoint" />
            <mxPoint x="609.2" y="310" as="targetPoint" />
          </mxGeometry>
        </mxCell>
        <mxCell id="aJo2WKjY9cExZXY5lrBi-3" value="Backend" style="rounded=1;whiteSpace=wrap;html=1;absoluteArcSize=1;arcSize=14;strokeWidth=2;" parent="1" vertex="1">
          <mxGeometry x="480" y="340" width="81" height="70" as="geometry" />
        </mxCell>
      </root>
    </mxGraphModel>
  </diagram>
</mxfile>
